<svg width="106" height="106" viewBox="0 0 106 106" fill="none" xmlns="http://www.w3.org/2000/svg">
<circle cx="53" cy="53" r="53" fill="white"/>
<path d="M65.2708 45.56L60.4917 40.7808C58.6833 38.9725 56.2033 39.0758 54.9892 40.9875L52.3283 45.1983L60.8275 53.6975L65.0383 51.0367C66.8725 49.9 66.9758 47.2392 65.2708 45.56Z" stroke="#292D32" stroke-width="2.5" stroke-linecap="round" stroke-linejoin="round"/>
<path d="M52.3283 45.1983L46.1542 44.8367C42.6925 44.63 41.5042 45.6892 41.1167 48.97L39.5667 62.0675C39.2308 64.8317 41.22 66.795 43.9842 66.485L57.0816 64.935C60.3625 64.5475 61.5508 63.3592 61.215 59.8975L60.8533 53.7233" stroke="#292D32" stroke-width="2.5" stroke-linecap="round" stroke-linejoin="round"/>
<path d="M41.3492 64.6767L46.1283 59.8975" stroke="#292D32" stroke-width="2.5" stroke-linecap="round" stroke-linejoin="round"/>
<path d="M45.25 78.8333H60.75C73.6667 78.8333 78.8333 73.6667 78.8333 60.75V45.25C78.8333 32.3333 73.6667 27.1667 60.75 27.1667H45.25C32.3333 27.1667 27.1667 32.3333 27.1667 45.25V60.75C27.1667 73.6667 32.3333 78.8333 45.25 78.8333Z" stroke="#292D32" stroke-width="2.5" stroke-linecap="round" stroke-linejoin="round"/>
</svg>
