<svg
      width="106"
      height="106"
      viewBox="0 0 106 106"
      fill="none"
      xmlns="http://www.w3.org/2000/svg"
    >
      <circle cx="53" cy="53" r="53" fill="white" />
      <path
        d="M69.5 40.69C69.335 40.6625 69.1425 40.6625 68.9775 40.69C65.1825 40.5525 62.1575 37.445 62.1575 33.595C62.1575 29.6625 65.32 26.5 69.2525 26.5C73.185 26.5 76.3475 29.69 76.3475 33.595C76.32 37.445 73.295 40.5525 69.5 40.69Z"
        stroke="#292D32"
        stroke-width="2.5"
        stroke-linecap="round"
        stroke-linejoin="round"
      />
      <path
        d="M66.6675 60.71C70.435 61.3425 74.5875 60.6825 77.5025 58.73C81.38 56.145 81.38 51.91 77.5025 49.325C74.56 47.3725 70.3525 46.7125 66.585 47.3725"
        stroke="#292D32"
        stroke-width="2.5"
        stroke-linecap="round"
        stroke-linejoin="round"
      />
      <path
        d="M36.4176 40.69C36.5826 40.6625 36.7751 40.6625 36.9401 40.69C40.7351 40.5525 43.7601 37.445 43.7601 33.595C43.7601 29.6625 40.5976 26.5 36.6651 26.5C32.7326 26.5 29.5701 29.69 29.5701 33.595C29.5976 37.445 32.6226 40.5525 36.4176 40.69Z"
        stroke="#292D32"
        stroke-width="2.5"
        stroke-linecap="round"
        stroke-linejoin="round"
      />
      <path
        d="M39.25 60.71C35.4825 61.3425 31.33 60.6825 28.415 58.73C24.5375 56.145 24.5375 51.91 28.415 49.325C31.3575 47.3725 35.565 46.7125 39.3325 47.3725"
        stroke="#292D32"
        stroke-width="2.5"
        stroke-linecap="round"
        stroke-linejoin="round"
      />
      <path
        d="M53 61.2325C52.835 61.205 52.6425 61.205 52.4775 61.2325C48.6825 61.095 45.6575 57.9875 45.6575 54.1375C45.6575 50.205 48.82 47.0425 52.7525 47.0425C56.685 47.0425 59.8475 50.2325 59.8475 54.1375C59.82 57.9875 56.795 61.1225 53 61.2325Z"
        stroke="#292D32"
        stroke-width="2.5"
        stroke-linecap="round"
        stroke-linejoin="round"
      />
      <path
        d="M44.9975 69.895C41.12 72.48 41.12 76.715 44.9975 79.3C49.3975 82.2425 56.6025 82.2425 61.0025 79.3C64.88 76.715 64.88 72.48 61.0025 69.895C56.63 66.98 49.3975 66.98 44.9975 69.895Z"
        stroke="#292D32"
        stroke-width="2.5"
        stroke-linecap="round"
        stroke-linejoin="round"
      />
    </svg>