<svg width="15" height="15" viewBox="0 0 15 15" fill="none" xmlns="http://www.w3.org/2000/svg">
<path d="M7.49954 0C3.36376 0 0 3.36468 0 7.50046C0 11.6362 3.36468 15 7.50046 15C11.6362 15 15 11.6353 15 7.50046C15 3.3656 11.6344 0 7.49954 0ZM8.28166 14.3024V9.07297H9.82017L10.2834 6.99498H8.28074V6.74499C8.28074 5.98493 8.08774 5.03554 9.00496 5.03554H10.3587V3.28656H8.32761C7.15397 3.28656 6.20183 4.23779 6.20183 5.41235V6.99498H4.63758V9.07297H6.20183V14.2234C3.04301 13.6159 0.648857 10.833 0.648857 7.49954C0.648857 3.72312 3.72128 0.650695 7.4977 0.650695C11.2741 0.650695 14.3465 3.72312 14.3465 7.49954C14.3465 11.0113 11.6895 13.9127 8.28074 14.3024H8.28166Z" fill="#667085"/>
</svg>
