<svg width="137" height="18" viewBox="0 0 137 18" fill="none" xmlns="http://www.w3.org/2000/svg">
<path fill-rule="evenodd" clip-rule="evenodd" d="M0 0V18H8.44647V0H0Z" fill="#EC1C24"/>
<path fill-rule="evenodd" clip-rule="evenodd" d="M8.44653 0V18H25.3386V0H8.44653Z" fill="white"/>
<path fill-rule="evenodd" clip-rule="evenodd" d="M33.7842 0H25.3386V18H33.7842V0Z" fill="#EC1C24"/>
<path fill-rule="evenodd" clip-rule="evenodd" d="M16.8921 14.629H17.0931L17.0288 11.9994L17.2137 11.8425C18.0481 11.9408 18.7949 12.0292 19.6284 12.1293L19.4176 11.4104C19.3836 11.2841 19.4319 11.1461 19.5266 11.0694L21.9484 9.03612L21.4463 8.79166C21.2266 8.71047 21.2882 8.58238 21.3668 8.27387L21.7358 6.88468L20.3306 7.19048C20.193 7.21213 20.1019 7.12192 20.0813 7.03622L19.8991 6.38222L18.7869 7.66948C18.6288 7.87606 18.309 7.87606 18.409 7.39886L18.8843 4.79096L18.2473 5.13285C18.0678 5.23568 17.89 5.25282 17.7881 5.0679L16.8939 3.37109L15.9988 5.0679C15.8987 5.25192 15.7201 5.23568 15.5414 5.13285L14.9045 4.79096L15.3797 7.39886C15.478 7.87606 15.1582 7.87606 15 7.67038L13.8878 6.38312L13.7065 7.03713C13.6851 7.12282 13.5957 7.21303 13.4573 7.19138L12.0503 6.88558L12.4192 8.27477C12.4987 8.58328 12.5604 8.71138 12.3406 8.79256L11.8376 9.03612L14.2595 11.0694C14.3551 11.1461 14.4042 11.2841 14.3702 11.4104L14.1576 12.1293C14.9902 12.0292 15.7379 11.9408 16.5714 11.8425L16.7563 11.9994L16.692 14.629H16.8912H16.8921Z" fill="#EC1C24"/>
<path d="M65.6749 0H39V17.9576H65.6749V0Z" fill="#B01B2E"/>
<path d="M52.3375 0H39V17.9576H52.3375V0Z" fill="white"/>
<path d="M39.6584 2.47911V3.83944H41.0056C41.0056 4.06586 41.2298 4.29318 41.4549 4.29318V5.65351H42.8021V4.29318C43.0263 4.29318 43.2514 4.06676 43.2514 3.83944H44.5986V2.47911H43.2514C43.2514 2.25269 43.0272 2.02537 42.8021 2.02537V0.665039H41.4549V2.02537C41.2307 2.02537 41.0056 2.25179 41.0056 2.47911H39.6584Z" fill="#C41531"/>
<path d="M39.7488 2.57042V3.74943H41.0959C41.0959 3.97585 41.3202 4.20318 41.5453 4.20318V5.5635H42.7129V4.20318C42.9371 4.20318 43.1622 3.97675 43.1622 3.74943H44.5094V2.57042H43.1622C43.1622 2.344 42.938 2.11668 42.7129 2.11668V0.756348H41.5453V2.11668C41.321 2.11668 41.0959 2.3431 41.0959 2.57042H39.7488Z" fill="#90857C"/>
<path d="M39.7935 2.61534V3.70324H41.1406C41.1406 3.92966 41.3648 4.15699 41.59 4.15699V5.51732H42.6673V4.15699C42.8915 4.15699 43.1167 3.93057 43.1167 3.70324H44.4638V2.61534H43.1167C43.1167 2.38892 42.8924 2.1616 42.6673 2.1616V0.80127H41.59V2.1616C41.3657 2.1616 41.1406 2.38802 41.1406 2.61534H39.7935Z" fill="#CACACA"/>
<path d="M41.5059 2.14521C41.5845 2.22459 41.563 2.37524 41.4585 2.48168C41.3531 2.58813 41.2039 2.60978 41.1253 2.52949C41.0467 2.45011 41.0681 2.29946 41.1726 2.19302C41.2781 2.08657 41.4272 2.06492 41.5059 2.14521Z" fill="#90857C"/>
<path d="M41.1084 2.38583L41.1406 2.35336L41.2674 2.41741L41.204 2.28931L41.2361 2.25684L41.363 2.51303L41.1093 2.38493L41.1084 2.38583Z" fill="#CECECE"/>
<path d="M41.2996 2.19312L41.3317 2.16064L41.522 2.35279L41.4898 2.38526L41.2996 2.19312Z" fill="#CECECE"/>
<path d="M43.1327 2.5303C43.0541 2.60968 42.9049 2.58804 42.7995 2.48249C42.6941 2.37605 42.6727 2.2254 42.7522 2.14602C42.8308 2.06664 42.98 2.08829 43.0854 2.19383C43.1908 2.30027 43.2122 2.45092 43.1327 2.5303Z" fill="#90857C"/>
<path d="M42.8943 2.12891L42.9264 2.16138L42.863 2.28948L42.9899 2.22543L43.022 2.2579L42.7683 2.386L42.8952 2.12981L42.8943 2.12891Z" fill="#CECECE"/>
<path d="M43.0853 2.32178L43.1175 2.35425L42.9272 2.54639L42.895 2.51392L43.0853 2.32178Z" fill="#CECECE"/>
<path d="M42.7513 4.17305C42.6727 4.09366 42.6941 3.94302 42.7986 3.83657C42.904 3.73013 43.0532 3.70848 43.1318 3.78876C43.2104 3.86814 43.189 4.01879 43.0845 4.12524C42.9791 4.23168 42.8299 4.25333 42.7513 4.17305Z" fill="#90857C"/>
<path d="M43.1489 3.93286L43.1167 3.96533L42.9899 3.90128L43.0533 4.02938L43.0211 4.06185L42.8943 3.80566L43.148 3.93376L43.1489 3.93286Z" fill="#CECECE"/>
<path d="M42.9575 4.12525L42.9254 4.15772L42.7351 3.96558L42.7673 3.93311L42.9575 4.12525Z" fill="#CECECE"/>
<path d="M41.1245 3.78811C41.2031 3.70873 41.3523 3.73038 41.4577 3.83592C41.5631 3.94236 41.5845 4.09301 41.505 4.17239C41.4264 4.25177 41.2772 4.23012 41.1718 4.12458C41.0664 4.01814 41.045 3.86749 41.1245 3.78811Z" fill="#90857C"/>
<path d="M41.3631 4.18971L41.3309 4.15723L41.3944 4.02914L41.2675 4.09319L41.2354 4.06071L41.4891 3.93262L41.3622 4.18881L41.3631 4.18971Z" fill="#CECECE"/>
<path d="M41.1718 3.99757L41.1396 3.96509L41.3299 3.77295L41.3621 3.80542L41.1718 3.99757Z" fill="#CECECE"/>
<path d="M42.1285 4.11932C41.6041 4.11932 41.178 3.68903 41.178 3.15951C41.178 2.63 41.6041 2.19971 42.1285 2.19971C42.6529 2.19971 43.079 2.63 43.079 3.15951C43.079 3.68903 42.6529 4.11932 42.1285 4.11932ZM42.1285 2.21414C41.613 2.21414 41.1932 2.63812 41.1932 3.15861C41.1932 3.67911 41.613 4.10308 42.1285 4.10308C42.6439 4.10308 43.0638 3.67911 43.0638 3.15861C43.0638 2.63812 42.6439 2.21414 42.1285 2.21414Z" fill="#90857C"/>
<path d="M42.1284 3.89304C41.7282 3.89304 41.4021 3.56379 41.4021 3.15966C41.4021 2.75553 41.7282 2.42627 42.1284 2.42627C42.5286 2.42627 42.8547 2.75553 42.8547 3.15966C42.8547 3.56379 42.5286 3.89304 42.1284 3.89304ZM42.1284 2.4416C41.7362 2.4416 41.4173 2.76365 41.4173 3.15966C41.4173 3.55567 41.7362 3.87771 42.1284 3.87771C42.5206 3.87771 42.8395 3.55567 42.8395 3.15966C42.8395 2.76365 42.5206 2.4416 42.1284 2.4416Z" fill="#90857C"/>
<path d="M41.7693 3.97546C41.7939 3.97546 41.8139 3.95527 41.8139 3.93036C41.8139 3.90545 41.7939 3.88525 41.7693 3.88525C41.7446 3.88525 41.7246 3.90545 41.7246 3.93036C41.7246 3.95527 41.7446 3.97546 41.7693 3.97546Z" fill="black"/>
<path d="M42.4875 3.97546C42.5122 3.97546 42.5322 3.95527 42.5322 3.93036C42.5322 3.90545 42.5122 3.88525 42.4875 3.88525C42.4629 3.88525 42.4429 3.90545 42.4429 3.93036C42.4429 3.95527 42.4629 3.97546 42.4875 3.97546Z" fill="black"/>
<path d="M42.0989 3.93069V3.9776H42.039C41.9792 3.9776 41.9792 4.0245 42.039 4.0245H42.0989V4.07141C42.0989 4.12012 42.1507 4.12644 42.1552 4.07592L42.1587 4.0245H42.2186C42.2784 4.0245 42.2784 3.9776 42.2186 3.9776H42.1587V3.93069C42.1587 3.88378 42.0989 3.88378 42.0989 3.93069Z" fill="black"/>
<path d="M41.2512 3.39372L41.3129 3.37929L41.3057 3.35042C41.3039 3.34411 41.3013 3.3396 41.2977 3.33689C41.2941 3.33419 41.2879 3.33419 41.2789 3.33509V3.33058L41.3307 3.31795V3.32246C41.3254 3.32426 41.3218 3.32607 41.3191 3.32787C41.3164 3.32968 41.3147 3.33238 41.3138 3.33599C41.3138 3.3387 41.3138 3.34321 41.3138 3.34862L41.3209 3.37749L41.37 3.36576C41.3781 3.36395 41.3834 3.36215 41.3852 3.36035C41.387 3.35944 41.3879 3.35674 41.3888 3.35403C41.3897 3.35042 41.3897 3.34591 41.3888 3.3423L41.387 3.33689H41.3915L41.4076 3.40365H41.4031L41.4022 3.39914C41.4004 3.39282 41.3977 3.38831 41.3933 3.38651C41.3906 3.3856 41.3843 3.38651 41.3745 3.38831L41.2727 3.41267C41.2646 3.41447 41.2593 3.41628 41.2575 3.41808C41.2557 3.41898 41.2548 3.42169 41.2539 3.42439C41.253 3.428 41.253 3.43161 41.2539 3.43612V3.44153L41.2512 3.44244L41.2235 3.32426L41.2575 3.31434V3.31885C41.2512 3.32246 41.2468 3.32607 41.2441 3.32968C41.2414 3.33328 41.2396 3.33689 41.2387 3.3414C41.2387 3.34591 41.2387 3.35223 41.2405 3.36035L41.2486 3.39553L41.2512 3.39372ZM41.211 3.11228C41.2119 3.09153 41.2209 3.07349 41.2378 3.05905C41.2548 3.04462 41.2745 3.0374 41.2986 3.03921C41.3227 3.04101 41.3432 3.04913 41.3584 3.06627C41.3736 3.08251 41.3808 3.10235 41.3799 3.124C41.379 3.14655 41.37 3.1646 41.3531 3.17903C41.3361 3.19346 41.3156 3.19978 41.2905 3.19797C41.2646 3.19617 41.2441 3.18625 41.2289 3.1682C41.2155 3.15197 41.2101 3.13302 41.211 3.11228ZM41.22 3.11498C41.22 3.12942 41.2235 3.14114 41.2343 3.15107C41.2468 3.16279 41.2664 3.16911 41.2914 3.17091C41.3173 3.17272 41.3379 3.1682 41.3531 3.15738C41.3647 3.14926 41.37 3.13844 41.3709 3.124C41.3709 3.10867 41.3665 3.09604 41.3558 3.08521C41.3441 3.07439 41.3263 3.06898 41.3004 3.06717C41.2727 3.06537 41.2521 3.06988 41.2378 3.0798C41.2262 3.08792 41.2209 3.09965 41.22 3.11498ZM41.454 2.8173L41.4388 2.85789L41.3486 2.88225C41.3486 2.88225 41.3459 2.88946 41.345 2.89127C41.345 2.89217 41.345 2.89307 41.3441 2.89397C41.3441 2.89488 41.3432 2.89578 41.3424 2.89758L41.3861 2.91472C41.396 2.91833 41.4022 2.91923 41.4049 2.91833C41.4094 2.91653 41.412 2.91292 41.4147 2.9075L41.4174 2.90119L41.4219 2.90299L41.3968 2.96794L41.3924 2.96614L41.3942 2.96073C41.3968 2.95441 41.396 2.949 41.3933 2.94449C41.3915 2.94178 41.3861 2.93908 41.3781 2.93547L41.2807 2.89758C41.2709 2.89397 41.2646 2.89307 41.262 2.89397C41.2575 2.89578 41.2539 2.89939 41.2521 2.9048L41.2503 2.91021L41.2459 2.90841L41.2664 2.85248C41.2727 2.83624 41.278 2.82451 41.2834 2.8182C41.2888 2.81098 41.295 2.80647 41.3039 2.80377C41.312 2.80106 41.3209 2.80106 41.3298 2.80377C41.3388 2.80737 41.3459 2.81369 41.3504 2.82181C41.3549 2.83083 41.3558 2.84165 41.354 2.85609L41.4094 2.84165C41.4219 2.83805 41.4308 2.83444 41.4362 2.83083C41.4415 2.82722 41.446 2.82091 41.4504 2.81279L41.4549 2.81459L41.454 2.8173ZM41.3352 2.89578C41.3352 2.89578 41.3361 2.89307 41.337 2.89217C41.337 2.89127 41.337 2.89037 41.3379 2.88946C41.3432 2.87503 41.3441 2.8624 41.3406 2.85338C41.337 2.84346 41.3307 2.83714 41.3209 2.83353C41.3111 2.82993 41.303 2.82993 41.2941 2.83353C41.2861 2.83714 41.2798 2.84436 41.2762 2.85338C41.2745 2.85789 41.2727 2.86421 41.2718 2.87142L41.3343 2.89578H41.3352ZM41.6791 2.35544L41.7104 2.39603L41.7068 2.39873C41.6961 2.39062 41.6863 2.3852 41.6774 2.3834C41.664 2.38069 41.6514 2.3834 41.6389 2.39152C41.622 2.40325 41.613 2.41858 41.613 2.43752C41.613 2.45376 41.6184 2.47 41.6282 2.48624C41.6363 2.49886 41.647 2.50969 41.6586 2.51691C41.6702 2.52412 41.6818 2.52773 41.6934 2.52773C41.705 2.52773 41.7149 2.52412 41.7229 2.51871C41.7283 2.5151 41.7327 2.51149 41.7363 2.50698C41.7399 2.50247 41.7435 2.49796 41.7461 2.49255L41.7211 2.45286C41.7167 2.44564 41.7131 2.44203 41.7113 2.44023C41.7086 2.43843 41.7059 2.43843 41.7033 2.43843C41.7006 2.43843 41.6961 2.44023 41.6908 2.44384L41.6881 2.44023L41.7408 2.40595L41.7435 2.40956L41.7408 2.41136C41.7354 2.41497 41.7327 2.41858 41.7336 2.42399C41.7336 2.4276 41.7363 2.43301 41.7408 2.44023L41.7676 2.48173C41.7622 2.49075 41.7569 2.49887 41.7506 2.50608C41.7444 2.5133 41.7363 2.51961 41.7274 2.52503C41.7015 2.54216 41.6756 2.54667 41.6514 2.53856C41.6327 2.53224 41.6184 2.52142 41.6077 2.50428C41.5996 2.49255 41.5952 2.47902 41.5943 2.46368C41.5925 2.44654 41.5952 2.43031 41.6032 2.41497C41.6095 2.40234 41.6193 2.39242 41.6327 2.3834C41.638 2.37979 41.6425 2.37799 41.647 2.37618C41.6514 2.37438 41.6586 2.37257 41.6675 2.36987C41.672 2.36897 41.6756 2.36806 41.6765 2.36716C41.6774 2.36716 41.6782 2.36536 41.6782 2.36355C41.6782 2.36175 41.6782 2.35904 41.6756 2.35544L41.6791 2.35273V2.35544ZM41.9418 2.37348L41.881 2.38971L41.8766 2.41768C41.8757 2.42489 41.8757 2.42941 41.8766 2.43211C41.8766 2.43482 41.8792 2.43662 41.8819 2.43752C41.8846 2.43843 41.89 2.43843 41.8971 2.43752V2.44203L41.8489 2.45557V2.45106C41.8542 2.44835 41.8578 2.44564 41.8596 2.44294C41.8623 2.43843 41.865 2.42941 41.8667 2.41678L41.8873 2.27244H41.8918L41.9802 2.38791C41.9873 2.39693 41.9927 2.40325 41.9972 2.40505C42.0016 2.40685 42.007 2.40776 42.0132 2.40595V2.41046L41.9525 2.4267V2.42219C41.9579 2.42038 41.9614 2.41768 41.9632 2.41587C41.965 2.41317 41.9659 2.41136 41.965 2.40866C41.9641 2.40505 41.9614 2.40054 41.9561 2.39332L41.9409 2.37348H41.9418ZM41.9364 2.36536L41.8935 2.30853L41.8828 2.37979L41.9364 2.36536ZM42.2214 2.36536H42.225L42.2098 2.41046L42.0847 2.40595V2.40144H42.091C42.0981 2.40144 42.1026 2.39964 42.1062 2.39513C42.1079 2.39242 42.1088 2.38701 42.1097 2.37708L42.1142 2.27154C42.1142 2.26162 42.1142 2.2553 42.1115 2.2526C42.1088 2.24899 42.1044 2.24719 42.0981 2.24719H42.0919V2.24268L42.1651 2.24538V2.24989C42.1562 2.24989 42.1499 2.24989 42.1472 2.2517C42.1437 2.2535 42.141 2.2553 42.1401 2.25801C42.1392 2.26072 42.1374 2.26703 42.1374 2.27605L42.1338 2.37889C42.1338 2.3852 42.1338 2.38971 42.1356 2.39242C42.1356 2.39422 42.1383 2.39513 42.1401 2.39603C42.1419 2.39603 42.1481 2.39783 42.1589 2.39783H42.1705C42.183 2.39873 42.1919 2.39783 42.1964 2.39693C42.2017 2.39513 42.2062 2.39242 42.2107 2.38791C42.2151 2.3834 42.2196 2.37618 42.2241 2.36626L42.2214 2.36536ZM42.4367 2.42309L42.4403 2.42489L42.4135 2.46278L42.2946 2.42309L42.2964 2.41858L42.3018 2.42038C42.308 2.42219 42.3134 2.42219 42.3179 2.41858C42.3206 2.41678 42.3232 2.41136 42.3259 2.40234L42.359 2.30221C42.3625 2.29229 42.3634 2.28598 42.3616 2.28327C42.3599 2.27876 42.3563 2.27605 42.35 2.27425L42.3447 2.27244L42.3465 2.26793L42.4161 2.29139L42.4144 2.2959C42.4063 2.29319 42.4001 2.29229 42.3965 2.29229C42.3929 2.29229 42.3893 2.29409 42.3876 2.2959C42.3858 2.2977 42.3831 2.30311 42.3804 2.31304L42.3482 2.41046C42.3465 2.41678 42.3456 2.42129 42.3456 2.42399C42.3456 2.4258 42.3474 2.4276 42.3482 2.4285C42.3491 2.42941 42.3554 2.43211 42.3652 2.43572L42.3768 2.43933C42.3884 2.44294 42.3974 2.44474 42.4027 2.44474C42.4081 2.44474 42.4135 2.44294 42.4188 2.43933C42.4242 2.43662 42.4304 2.43031 42.4376 2.42219L42.4367 2.42309ZM42.61 2.516L42.5591 2.47992L42.5358 2.49435C42.5296 2.49796 42.526 2.50067 42.5242 2.50338C42.5224 2.50518 42.5224 2.50789 42.5242 2.51059C42.5242 2.5133 42.5287 2.51781 42.535 2.52232L42.5323 2.52593L42.4912 2.49616L42.4939 2.49255C42.5001 2.49526 42.5046 2.49706 42.5073 2.49616C42.5126 2.49616 42.5207 2.49165 42.5314 2.48443L42.6547 2.40776L42.6582 2.41046L42.6261 2.55389C42.6234 2.56562 42.6225 2.57374 42.6243 2.57825C42.6252 2.58276 42.6288 2.58727 42.6341 2.59178L42.6314 2.59539L42.5796 2.5584L42.5823 2.55479C42.5877 2.5584 42.5921 2.56021 42.5948 2.5593C42.5975 2.5593 42.6002 2.5575 42.6011 2.5557C42.6028 2.55299 42.6046 2.54758 42.6064 2.53946L42.6118 2.5142L42.61 2.516ZM42.6127 2.50698L42.6279 2.43752L42.5671 2.47451L42.6127 2.50698ZM42.8038 2.54307L42.8298 2.57825L42.7913 2.7316L42.8664 2.67567C42.8744 2.66936 42.8789 2.66485 42.8789 2.66214C42.8798 2.65763 42.8789 2.65312 42.8744 2.64771L42.8708 2.6432L42.8744 2.64049L42.9075 2.6865L42.9039 2.6892L42.9003 2.68469C42.8959 2.67928 42.8914 2.67657 42.8869 2.67657C42.8842 2.67657 42.8789 2.67928 42.8717 2.68469L42.7628 2.76678L42.7601 2.76317L42.8012 2.599L42.7217 2.65853C42.7136 2.66485 42.7092 2.66936 42.7083 2.67206C42.7083 2.67657 42.7083 2.68108 42.7127 2.6865L42.7163 2.69101L42.7127 2.69371L42.6797 2.64771L42.6832 2.645L42.6868 2.64951C42.6913 2.65492 42.6958 2.65763 42.7002 2.65763C42.7029 2.65763 42.7083 2.65492 42.7154 2.64951L42.8056 2.58186C42.8074 2.57464 42.8083 2.57013 42.8083 2.56652C42.8083 2.56381 42.8083 2.5593 42.8056 2.55479C42.8056 2.55209 42.803 2.54938 42.8003 2.54577L42.8038 2.54307ZM43.0075 2.92194L42.9727 2.93637L42.9709 2.93186C42.9772 2.92915 42.9807 2.92645 42.9834 2.92374C42.987 2.92013 42.9888 2.91562 42.9897 2.91111C42.9897 2.9066 42.9897 2.90119 42.987 2.89488L42.9789 2.87323L42.8628 2.91472C42.8539 2.91833 42.8476 2.92104 42.8467 2.92374C42.8449 2.92735 42.8449 2.93276 42.8467 2.93908L42.8485 2.94449L42.844 2.94629L42.8208 2.88134L42.8253 2.87954L42.8271 2.88495C42.8298 2.89127 42.8333 2.89578 42.8378 2.89668C42.8405 2.89668 42.8467 2.89668 42.8548 2.89307L42.9709 2.85158L42.9646 2.83353C42.962 2.82632 42.9602 2.82181 42.9575 2.8191C42.9548 2.81549 42.9504 2.81369 42.9459 2.81188C42.9405 2.81098 42.9352 2.81098 42.928 2.81188L42.9262 2.80737L42.9629 2.79655L43.0066 2.92194H43.0075ZM42.8798 3.2115L42.8771 3.1682L42.9495 3.10867C42.9495 3.10867 42.9495 3.10145 42.9495 3.09874C42.9495 3.09784 42.9495 3.09694 42.9495 3.09514C42.9495 3.09423 42.9495 3.09243 42.9495 3.09153L42.903 3.09423C42.8932 3.09423 42.8869 3.09604 42.8842 3.09874C42.8807 3.10235 42.8798 3.10686 42.8798 3.11228V3.11859H42.8753L42.8717 3.04913H42.8762V3.05545C42.8762 3.06266 42.8789 3.06717 42.8834 3.06988C42.886 3.07168 42.8914 3.07168 42.9012 3.07168L43.0057 3.06627C43.0156 3.06627 43.0218 3.06447 43.0245 3.06176C43.0281 3.05815 43.029 3.05364 43.029 3.04733V3.04101H43.0334L43.0361 3.10055C43.0361 3.11769 43.0361 3.13032 43.0343 3.13934C43.0325 3.14746 43.0281 3.15467 43.0218 3.16099C43.0156 3.1673 43.0075 3.17001 42.9986 3.17091C42.9888 3.17091 42.9798 3.1682 42.9727 3.16279C42.9646 3.15648 42.9593 3.14655 42.9557 3.13302L42.911 3.16911C42.9012 3.17723 42.8941 3.18444 42.8905 3.18985C42.8869 3.19527 42.8851 3.20248 42.8851 3.2115H42.8807H42.8798ZM42.9566 3.09153C42.9566 3.09153 42.9566 3.09423 42.9566 3.09514C42.9566 3.09604 42.9566 3.09694 42.9566 3.09784C42.9566 3.11318 42.9611 3.12491 42.9682 3.13212C42.9754 3.13934 42.9843 3.14295 42.9941 3.14295C43.004 3.14295 43.012 3.13844 43.0182 3.13212C43.0245 3.12581 43.0272 3.11679 43.0263 3.10596C43.0263 3.10145 43.0254 3.09514 43.0227 3.08702L42.9557 3.09063L42.9566 3.09153ZM43.0013 3.4271L42.987 3.48213H42.9825V3.47762C42.9825 3.47581 42.9825 3.4722 42.9825 3.46769C42.9825 3.46318 42.9798 3.45957 42.978 3.45506C42.9754 3.45146 42.9709 3.44604 42.9646 3.43883L42.9155 3.3847L42.8762 3.37388C42.8664 3.37117 42.8601 3.37117 42.8574 3.37207C42.8539 3.37388 42.8503 3.37839 42.8494 3.3847V3.39012L42.844 3.38921L42.861 3.32246H42.8655L42.8637 3.32877C42.8619 3.33509 42.8628 3.3405 42.8664 3.34411C42.8682 3.34682 42.8735 3.34862 42.8825 3.35133L42.9191 3.36125L42.9959 3.33509C43.0048 3.33238 43.0102 3.32968 43.0129 3.32877C43.0156 3.32787 43.0182 3.32426 43.0227 3.31885C43.0236 3.31795 43.0245 3.31524 43.0254 3.31254H43.0299L43.012 3.38109H43.0075L43.0084 3.37658C43.0093 3.37298 43.0093 3.36937 43.0084 3.36576C43.0075 3.36215 43.0057 3.36035 43.0022 3.35944C42.9995 3.35944 42.9941 3.35944 42.9852 3.36215L42.9262 3.382L42.9664 3.4253C42.9727 3.43161 42.9772 3.43522 42.9807 3.43612C42.9825 3.43612 42.9852 3.43612 42.987 3.43612C42.9888 3.43612 42.9906 3.43432 42.9923 3.43251C42.9941 3.43071 42.995 3.428 42.9959 3.42349H43.0004V3.42439L43.0013 3.4271Z" fill="black"/>
<path d="M42.6416 3.29799C42.6577 3.29438 42.6836 3.29799 42.6836 3.29799C42.6836 3.29799 42.6863 3.30882 42.6791 3.31242C42.6872 3.31693 42.714 3.31513 42.714 3.31513C42.714 3.31513 42.7032 3.32325 42.6979 3.32686C42.7077 3.32776 42.7202 3.34039 42.7202 3.34039C42.7202 3.34039 42.697 3.344 42.6872 3.33858C42.6934 3.35121 42.6925 3.36204 42.6925 3.36204C42.6925 3.36204 42.6559 3.35302 42.6425 3.32866" fill="#90857C"/>
<path d="M42.695 3.36548H42.6915C42.6915 3.36548 42.653 3.35465 42.6396 3.32939L42.645 3.32669C42.6548 3.34563 42.6798 3.35465 42.6897 3.35736C42.6897 3.35375 42.6879 3.34653 42.6843 3.34022L42.6798 3.3312L42.6879 3.33571C42.6932 3.33841 42.7049 3.33841 42.712 3.33751C42.7075 3.3339 42.7013 3.32939 42.6968 3.32849H42.6879L42.6959 3.32308C42.6977 3.32218 42.7013 3.31947 42.704 3.31767C42.695 3.31767 42.6825 3.31767 42.6772 3.31406L42.6727 3.31135L42.6772 3.30865C42.6772 3.30865 42.6807 3.30233 42.6807 3.29963C42.6745 3.29963 42.6548 3.29782 42.6423 3.30053L42.6405 3.29421C42.6566 3.2897 42.6825 3.29331 42.6834 3.29421H42.6852V3.29692C42.6852 3.29692 42.687 3.30504 42.6834 3.31045C42.6906 3.31225 42.704 3.31225 42.7129 3.31135H42.7227L42.7147 3.31676C42.7147 3.31676 42.7093 3.32127 42.704 3.32488C42.7129 3.32849 42.7209 3.33751 42.7209 3.33751L42.7245 3.34202H42.7192C42.7192 3.34202 42.7031 3.34563 42.6915 3.34383C42.695 3.35375 42.6941 3.36187 42.6941 3.36187V3.36548H42.695Z" fill="black"/>
<path d="M42.5798 3.27773C42.5708 3.30028 42.5056 3.25879 42.5056 3.25879C42.5056 3.25879 42.5342 3.30479 42.578 3.31021" fill="#90857C"/>
<path d="M42.5771 3.31262C42.5333 3.3072 42.5038 3.2621 42.5029 3.25939L42.5074 3.25488C42.5208 3.263 42.5583 3.28375 42.5726 3.27924C42.5744 3.27924 42.5762 3.27743 42.5771 3.27563L42.5824 3.27834C42.5824 3.27834 42.578 3.28465 42.5744 3.28555C42.5601 3.29006 42.5333 3.27743 42.5172 3.26841C42.5288 3.28194 42.5503 3.30359 42.578 3.3063V3.31262H42.5771Z" fill="black"/>
<path d="M41.7624 3.7013H42.5298L42.5887 3.65349L42.4896 3.59937L42.3377 3.54705L42.277 3.51367L42.1644 3.51999L42.0706 3.5705L41.9411 3.58584L41.9107 3.62102L41.8151 3.62914L41.665 3.62643L41.9161 3.66612L41.7097 3.6553L41.7633 3.7013H41.7624Z" fill="#90857C"/>
<path d="M42.5297 3.70379H41.7596L41.6998 3.65147L41.8579 3.65958L41.6641 3.62891V3.6226L41.815 3.62531L41.9088 3.61809L41.9392 3.58291H41.9401L42.0687 3.56757L42.1634 3.51706L42.2769 3.51074L42.3376 3.54502L42.4886 3.59734L42.5922 3.65327L42.5288 3.70469L42.5297 3.70379ZM41.7632 3.69747H42.5279L42.5824 3.65327L42.4877 3.60185L42.3359 3.54953L42.2751 3.51615L42.1643 3.52247L42.0696 3.57299L41.9419 3.58832L41.9115 3.6235H41.9106L41.815 3.63162L41.7087 3.62982L41.916 3.66229V3.66861L41.7177 3.65868L41.7632 3.69837V3.69747Z" fill="black"/>
<path d="M42.175 3.47876C42.0786 3.42644 42.0509 3.55544 42.0098 3.58611C42.0652 3.59603 42.108 3.54281 42.1554 3.51665C42.192 3.61678 42.2492 3.55003 42.2492 3.55003C42.2492 3.55003 42.309 3.64565 42.3885 3.60235C42.41 3.61858 42.4341 3.60415 42.4341 3.60415C42.4341 3.60415 42.4627 3.60956 42.4689 3.59603C42.4841 3.60144 42.5011 3.5825 42.5011 3.5825C42.5011 3.5825 42.5342 3.5825 42.5404 3.56536C42.5895 3.57438 42.6548 3.46433 42.6548 3.46433L42.6744 3.42554L42.703 3.41923C42.703 3.41923 42.7048 3.40028 42.6896 3.40118C42.6896 3.38946 42.6798 3.38314 42.6655 3.38585C42.6682 3.37863 42.6574 3.37322 42.6574 3.37322C42.6297 3.38044 42.6288 3.4499 42.6288 3.4499C42.6288 3.4499 42.5806 3.48688 42.5636 3.4959C42.5636 3.45621 42.4966 3.40209 42.51 3.37593C42.5234 3.35067 42.5663 3.41562 42.6038 3.40389C42.6414 3.39216 42.6601 3.34255 42.6619 3.30376C42.6512 3.2776 42.6253 3.2343 42.6253 3.2343L42.6012 3.2325L42.5797 3.18018C42.5797 3.18018 42.535 3.20994 42.5359 3.2352C42.5359 3.26046 42.5833 3.28301 42.5833 3.28301C42.5833 3.28301 42.5565 3.30015 42.5315 3.29203C42.5288 3.31819 42.5618 3.31278 42.5744 3.31368C42.5806 3.33263 42.5985 3.34255 42.5985 3.34255C42.5985 3.34255 42.6101 3.37142 42.5806 3.36871C42.5511 3.366 42.5163 3.29745 42.4743 3.32902C42.4296 3.3624 42.494 3.42374 42.494 3.42374C42.494 3.42374 42.4546 3.44448 42.4314 3.49771C42.3367 3.41742 42.2813 3.45441 42.1759 3.47606L42.175 3.47876Z" fill="#90857C"/>
<path d="M42.3466 3.61753C42.2957 3.61753 42.2582 3.56882 42.2484 3.55619C42.2412 3.56341 42.2224 3.57965 42.201 3.57514C42.1822 3.57153 42.1662 3.55349 42.1546 3.52191C42.1412 3.52913 42.1286 3.53905 42.1152 3.54807C42.0831 3.57153 42.05 3.59588 42.0098 3.58957H42.0027L42.008 3.58416C42.0197 3.57514 42.0304 3.558 42.042 3.53995C42.0706 3.49485 42.1054 3.43892 42.176 3.47591C42.1948 3.4723 42.2117 3.46779 42.2287 3.46328C42.3011 3.44524 42.3529 3.43171 42.4297 3.49575C42.4494 3.45336 42.4779 3.43261 42.4878 3.42629C42.4788 3.41727 42.4529 3.3875 42.4547 3.35954C42.4547 3.34781 42.461 3.33789 42.4717 3.32977C42.5003 3.30812 42.5253 3.32977 42.5467 3.34871C42.5583 3.35864 42.57 3.36856 42.5798 3.36946C42.5869 3.36946 42.5923 3.36946 42.595 3.36495C42.5985 3.36044 42.5968 3.35232 42.595 3.34781C42.5914 3.34511 42.5771 3.33609 42.5708 3.31985C42.5682 3.31985 42.5646 3.31985 42.561 3.31985C42.5512 3.31985 42.5396 3.31895 42.5324 3.31173C42.5289 3.30722 42.5271 3.30181 42.528 3.29459V3.29098L42.5315 3.29188C42.5485 3.2973 42.5673 3.29008 42.5762 3.28557C42.5637 3.27835 42.5333 3.26031 42.5324 3.23776C42.5324 3.2107 42.5762 3.18093 42.578 3.18003L42.5807 3.17822L42.603 3.23235L42.6271 3.23415C42.6271 3.23415 42.653 3.27926 42.6638 3.30451V3.30542C42.662 3.34601 42.6423 3.39562 42.6039 3.40825C42.5834 3.41457 42.5619 3.40013 42.544 3.38841C42.5324 3.38029 42.5217 3.37307 42.5155 3.37487C42.5146 3.37487 42.5128 3.37578 42.511 3.37939C42.5047 3.39111 42.519 3.41186 42.5342 3.43351C42.5476 3.45336 42.5619 3.4741 42.5646 3.49305C42.5825 3.48222 42.6173 3.45606 42.6244 3.45065C42.6244 3.43982 42.628 3.37939 42.6557 3.37217H42.6566H42.6575C42.6611 3.37397 42.6664 3.37848 42.6673 3.3839C42.6736 3.3839 42.6807 3.3848 42.6852 3.38841C42.6888 3.39111 42.6906 3.39472 42.6914 3.39923C42.695 3.39923 42.6986 3.40104 42.7004 3.40374C42.7066 3.41006 42.7048 3.42088 42.7048 3.42088V3.42268L42.6754 3.429L42.6566 3.46598C42.6539 3.47049 42.595 3.56972 42.5458 3.56972C42.5449 3.56972 42.5432 3.56972 42.5423 3.56972C42.5342 3.58506 42.5083 3.58596 42.5021 3.58596C42.4985 3.58957 42.4842 3.6031 42.4699 3.60039C42.4619 3.61122 42.4395 3.60851 42.4342 3.60761C42.4288 3.61032 42.4074 3.62024 42.3877 3.60671C42.3734 3.61392 42.3591 3.61753 42.3466 3.61753ZM42.2492 3.54627L42.251 3.54988C42.251 3.54988 42.31 3.64189 42.3859 3.6013H42.3877H42.3895C42.4092 3.61663 42.4306 3.6031 42.4315 3.6031H42.4324H42.4333C42.4404 3.604 42.461 3.60581 42.4645 3.59679V3.59408L42.4681 3.59498C42.4815 3.59949 42.4967 3.58235 42.4967 3.58235H42.4976L42.4994 3.58145C42.4994 3.58145 42.5306 3.58145 42.536 3.56611V3.56341H42.5396C42.5414 3.56341 42.5432 3.56341 42.5449 3.56341C42.5905 3.56341 42.6495 3.46418 42.6504 3.46328L42.6709 3.42359L42.6986 3.41727C42.6986 3.41727 42.6986 3.41006 42.695 3.40645C42.6932 3.40464 42.6914 3.40374 42.6879 3.40374H42.6852V3.40104C42.6852 3.39743 42.6834 3.39382 42.6807 3.39201C42.6772 3.38931 42.6709 3.3875 42.6638 3.38931H42.6584L42.6602 3.3848C42.6611 3.38119 42.6566 3.37848 42.6548 3.37668C42.6352 3.38299 42.6298 3.43171 42.6298 3.44975V3.45155L42.6289 3.45245C42.6271 3.45426 42.5807 3.48944 42.5628 3.49846L42.5583 3.50117V3.49665C42.5583 3.47861 42.5432 3.45696 42.5289 3.43622C42.5128 3.41276 42.4976 3.39111 42.5056 3.37578C42.5074 3.37217 42.511 3.36946 42.5146 3.36856C42.5226 3.36585 42.5342 3.37397 42.5476 3.38299C42.5646 3.39472 42.5842 3.40735 42.6021 3.40194C42.6361 3.39111 42.6557 3.34511 42.6575 3.30542C42.6477 3.28196 42.6271 3.24588 42.6227 3.23866L42.5976 3.23686L42.5771 3.18634C42.5673 3.19356 42.5369 3.21701 42.5378 3.23686C42.5378 3.26031 42.5825 3.28196 42.5834 3.28196L42.5887 3.28467L42.5842 3.28737C42.5842 3.28737 42.5583 3.30361 42.5342 3.2982C42.5342 3.30181 42.5351 3.30451 42.5378 3.30632C42.544 3.31353 42.5583 3.31263 42.5682 3.31263C42.5708 3.31263 42.5726 3.31263 42.5744 3.31263H42.5762V3.31444C42.5816 3.33158 42.5985 3.3415 42.5994 3.3415H42.6003V3.3433C42.6003 3.3433 42.6057 3.35774 42.5994 3.36676C42.5959 3.37217 42.5887 3.37397 42.5789 3.37307C42.5673 3.37217 42.5548 3.36134 42.5423 3.35052C42.5208 3.33248 42.4994 3.31353 42.4744 3.33248C42.4654 3.33969 42.461 3.34781 42.4601 3.35774C42.4583 3.3875 42.494 3.42268 42.494 3.42268L42.4967 3.42539L42.4931 3.4272C42.4931 3.4272 42.4547 3.44794 42.4324 3.49936L42.4306 3.50297L42.4279 3.50026C42.352 3.43531 42.3028 3.44794 42.2287 3.46689C42.2126 3.4714 42.1956 3.47501 42.1778 3.47861V3.48132L42.1733 3.47861C42.1081 3.44253 42.075 3.49485 42.0465 3.53995C42.0366 3.55619 42.0268 3.57153 42.0161 3.58145C42.0509 3.58416 42.0795 3.56251 42.1108 3.53995C42.1242 3.53003 42.1385 3.51921 42.1537 3.51109L42.1563 3.50928V3.51289C42.1688 3.54446 42.184 3.56251 42.201 3.56521C42.2028 3.56521 42.2046 3.56521 42.2073 3.56521C42.2287 3.56521 42.2457 3.54537 42.2466 3.54447L42.2492 3.54176V3.54627Z" fill="black"/>
<path d="M42.0369 3.34184C42.0762 3.37973 42.0485 3.44197 42.0646 3.4537C42.0807 3.46633 42.1039 3.44738 42.1039 3.44738C42.145 3.45821 42.2191 3.43475 42.2191 3.43475C42.2513 3.45279 42.2388 3.42573 42.2584 3.42663C42.2763 3.47174 42.3344 3.46362 42.3344 3.46362C42.3344 3.46362 42.2808 3.40859 42.2477 3.39326C42.2227 3.40859 42.1486 3.4113 42.1352 3.40859C42.1209 3.40589 42.1298 3.38785 42.1226 3.37792C42.1494 3.35086 42.128 3.28501 42.1137 3.25975C42.053 3.21916 41.9815 3.28862 42.036 3.34094L42.0369 3.34184Z" fill="#90857C"/>
<path d="M42.3243 3.46828C42.3065 3.46828 42.2707 3.46377 42.2564 3.4313C42.252 3.4313 42.2502 3.43401 42.2475 3.43761C42.243 3.44483 42.2377 3.45024 42.218 3.43942C42.2082 3.44212 42.143 3.46107 42.1037 3.45205C42.0983 3.45566 42.0778 3.47009 42.0617 3.45746C42.0545 3.45205 42.0554 3.43942 42.0554 3.42318C42.0554 3.39973 42.0572 3.36725 42.034 3.3456C42.0054 3.31854 42.0108 3.28787 42.0251 3.27073C42.0429 3.24818 42.0805 3.23645 42.1153 3.25991H42.1162C42.1323 3.28787 42.1519 3.35282 42.126 3.38078C42.1278 3.38529 42.1278 3.39071 42.1287 3.39522C42.1287 3.40424 42.1296 3.40694 42.1349 3.40875C42.1475 3.41145 42.2207 3.40875 42.2457 3.39341H42.2475H42.2493C42.2823 3.40875 42.3342 3.46197 42.3368 3.46468L42.3413 3.46919H42.3351C42.3351 3.46919 42.3306 3.47099 42.3243 3.47099V3.46828ZM42.2573 3.42499C42.2573 3.42499 42.2573 3.42499 42.2582 3.42499H42.26V3.42679C42.2734 3.46107 42.3118 3.46287 42.3261 3.46197C42.3127 3.44844 42.2734 3.41055 42.2466 3.39702C42.2198 3.41236 42.1475 3.41416 42.1332 3.41236C42.1224 3.41055 42.1215 3.40063 42.1215 3.39341C42.1215 3.3889 42.1215 3.38349 42.1189 3.38078L42.1171 3.37898L42.1189 3.37718C42.1448 3.35192 42.1233 3.28697 42.1099 3.26351C42.0787 3.24277 42.0447 3.25359 42.0286 3.27344C42.0161 3.28967 42.0117 3.31583 42.0367 3.34019C42.0617 3.36455 42.0608 3.39792 42.0599 3.42228C42.0599 3.43581 42.059 3.44754 42.0635 3.45115C42.0778 3.46197 42.0992 3.44483 42.0992 3.44483H42.1001H42.1019C42.1421 3.45566 42.2153 3.4331 42.2153 3.4322H42.2162H42.2171C42.2341 3.44212 42.2368 3.43852 42.2395 3.4331C42.2421 3.4295 42.2448 3.42408 42.2538 3.42408L42.2573 3.42499Z" fill="black"/>
<path d="M41.7739 3.23041C41.7239 3.24395 41.6381 3.16547 41.5979 3.19614C41.5577 3.2259 41.5765 3.29987 41.6033 3.33686C41.6292 3.37294 41.5649 3.38557 41.547 3.40722C41.5309 3.42707 41.5524 3.45052 41.5524 3.45052L41.5702 3.46225L41.5666 3.48931L41.5765 3.52178C41.5765 3.52178 41.5854 3.5299 41.5881 3.51998C41.5961 3.5281 41.5881 3.55246 41.6095 3.55606C41.6024 3.54073 41.6149 3.49743 41.6149 3.49743C41.6149 3.49743 41.6506 3.50013 41.6596 3.4848C41.6685 3.46946 41.6506 3.43519 41.6506 3.43519H41.6613C41.6488 3.42707 41.6453 3.40181 41.6453 3.40181C41.6453 3.40181 41.6953 3.38557 41.6944 3.34768C41.6944 3.3098 41.6131 3.2692 41.6426 3.24936C41.6756 3.22771 41.7319 3.30619 41.781 3.27011C41.8293 3.23402 41.798 3.2692 41.798 3.2692C41.798 3.2692 41.8204 3.21869 41.7712 3.23222L41.7739 3.23041Z" fill="#90857C"/>
<path d="M41.6159 3.55857H41.6105C41.5953 3.55586 41.5935 3.54323 41.5917 3.53331C41.5917 3.5306 41.5909 3.52699 41.59 3.52519C41.5891 3.52609 41.5882 3.52699 41.5864 3.52699C41.581 3.5279 41.5766 3.52429 41.5757 3.52339V3.52158L41.5658 3.4882L41.5685 3.46205L41.5515 3.45122C41.5426 3.4422 41.531 3.42055 41.5453 3.40341C41.5515 3.39619 41.5614 3.38988 41.573 3.38356C41.5882 3.37454 41.6043 3.36552 41.606 3.3538C41.6069 3.34838 41.606 3.34297 41.6007 3.33666C41.5712 3.29606 41.5551 3.22209 41.5962 3.19142C41.6194 3.17428 41.6561 3.19052 41.6909 3.20586C41.7204 3.21848 41.7508 3.23202 41.7731 3.2257C41.7883 3.22119 41.799 3.223 41.8044 3.22931C41.8088 3.23382 41.8088 3.24104 41.8088 3.24735C41.8115 3.24735 41.8124 3.24735 41.8133 3.24825C41.8151 3.25006 41.8169 3.25276 41.8035 3.2672L41.7981 3.26359C41.7981 3.26359 41.7999 3.25998 41.7999 3.25818C41.7963 3.26088 41.7919 3.26359 41.7856 3.269C41.757 3.29065 41.7257 3.27441 41.6989 3.25998C41.6784 3.24916 41.6605 3.23923 41.6471 3.24825C41.6436 3.25006 41.6427 3.25276 41.6418 3.25547C41.6409 3.26449 41.6525 3.27712 41.6659 3.28975C41.682 3.30599 41.6998 3.32493 41.6998 3.34387C41.6998 3.37905 41.6614 3.39619 41.6507 3.3998C41.6516 3.40612 41.6561 3.42326 41.665 3.42867L41.673 3.43408H41.6579C41.6623 3.444 41.6721 3.46926 41.6641 3.48279C41.6552 3.49723 41.6275 3.49723 41.6185 3.49723C41.615 3.51076 41.6087 3.54053 41.6141 3.55135L41.6168 3.55676L41.6159 3.55857ZM41.5882 3.51346L41.5917 3.51707C41.5917 3.51707 41.5962 3.52699 41.598 3.53241C41.5998 3.54143 41.6007 3.54774 41.6069 3.55045C41.6034 3.5315 41.6132 3.49723 41.6141 3.49542V3.49272H41.6168C41.6266 3.49272 41.6525 3.49272 41.6587 3.48099C41.6659 3.46926 41.6552 3.4431 41.6498 3.43408L41.6471 3.42957H41.6552C41.6462 3.41875 41.6436 3.4007 41.6436 3.3998V3.3971H41.6453C41.6453 3.3971 41.6927 3.38176 41.6927 3.34568C41.6927 3.32944 41.6757 3.3114 41.6605 3.29516C41.6462 3.27983 41.6337 3.2672 41.6346 3.25547C41.6346 3.25096 41.6373 3.24735 41.6427 3.24374C41.6587 3.23292 41.6793 3.24374 41.7007 3.25457C41.7275 3.269 41.7552 3.28343 41.7811 3.26359C41.791 3.25637 41.7972 3.25186 41.8017 3.25006C41.8026 3.24374 41.8026 3.23743 41.799 3.23292C41.7936 3.2266 41.7829 3.22841 41.774 3.23111C41.7499 3.23743 41.7186 3.2239 41.6882 3.21037C41.6543 3.19593 41.6194 3.1806 41.5989 3.19593C41.5614 3.2239 41.5775 3.29426 41.6051 3.33305C41.6105 3.34117 41.6132 3.34838 41.6114 3.3556C41.6087 3.37003 41.5917 3.37996 41.5748 3.38898C41.5641 3.39529 41.5542 3.4007 41.5489 3.40702C41.5346 3.42506 41.5542 3.44581 41.5542 3.44671L41.5739 3.45934L41.5703 3.4873L41.5792 3.51797C41.5792 3.51797 41.5828 3.51978 41.5837 3.51978C41.5846 3.51978 41.5855 3.51797 41.5855 3.51707L41.5873 3.51256L41.5882 3.51346Z" fill="black"/>
<path d="M42.0305 2.69266C41.9644 2.66469 41.8286 2.66289 41.7527 2.625C41.7196 2.6268 41.7044 2.65387 41.7035 2.66379C41.6687 2.66199 41.6455 2.71701 41.6499 2.72784C41.5865 2.70168 41.557 2.80271 41.5776 2.82346C41.524 2.82616 41.5302 2.89562 41.5249 2.91457C41.5079 2.95696 41.5284 2.9714 41.5633 2.95606C41.5686 2.9741 41.5615 2.98493 41.5454 2.98854C41.6392 3.09679 41.6919 2.92178 41.7741 2.92268C41.8768 2.89201 41.917 2.8415 41.917 2.8415L41.9572 2.84691L42.0305 2.69175V2.69266Z" fill="#90857C"/>
<path d="M41.6069 3.02808C41.6069 3.02808 41.6051 3.02808 41.6042 3.02808C41.5837 3.02718 41.5649 3.01545 41.5444 2.992L41.5408 2.98839H41.5461C41.5533 2.98568 41.5577 2.98297 41.5604 2.97846C41.5631 2.97395 41.5631 2.96944 41.5622 2.96223C41.5452 2.96854 41.5318 2.96854 41.5238 2.96042C41.5176 2.95411 41.5131 2.94148 41.5238 2.91532C41.5238 2.91171 41.5256 2.9063 41.5256 2.89998C41.5283 2.87292 41.5327 2.82782 41.5729 2.82331C41.5649 2.80707 41.5703 2.7746 41.5854 2.75024C41.6006 2.72679 41.623 2.71776 41.6471 2.72498C41.6471 2.71596 41.6524 2.70243 41.6605 2.6898C41.6676 2.67988 41.6819 2.66274 41.7016 2.66184C41.7052 2.65011 41.7194 2.62485 41.7534 2.62305C41.7945 2.64379 41.8534 2.65372 41.9106 2.66274C41.9571 2.67086 42.0008 2.67807 42.0312 2.6907L42.0357 2.69251L42.033 2.69521L41.9598 2.85127L41.9187 2.84586C41.9115 2.85398 41.8695 2.89908 41.7757 2.92705C41.7454 2.92705 41.7186 2.95321 41.6918 2.97756C41.6658 3.00282 41.6381 3.02808 41.6078 3.02808H41.6069ZM41.5515 2.99109C41.5694 3.01094 41.5863 3.02086 41.6042 3.02176C41.6337 3.02357 41.6596 2.99921 41.6864 2.97305C41.7132 2.94689 41.7418 2.92073 41.7739 2.92073C41.874 2.89096 41.9142 2.84135 41.9151 2.84045H41.916L41.9562 2.84406L42.0268 2.69431C41.9973 2.68258 41.9553 2.67537 41.9097 2.66815C41.8526 2.65913 41.7936 2.64921 41.7516 2.62846C41.7203 2.63117 41.7069 2.65642 41.706 2.66454V2.66725H41.7034C41.6855 2.66725 41.6712 2.68258 41.665 2.69251C41.6551 2.70784 41.6507 2.72408 41.6524 2.72769L41.656 2.7349L41.6489 2.7322C41.6176 2.71957 41.5988 2.74032 41.5899 2.75295C41.5729 2.77911 41.5703 2.81248 41.5801 2.82241L41.5846 2.82692H41.5774C41.5372 2.82872 41.5327 2.87112 41.5301 2.89908C41.5301 2.9063 41.5292 2.91171 41.5274 2.91622C41.5193 2.93516 41.5193 2.9487 41.5265 2.95501C41.5327 2.96132 41.5452 2.96132 41.5613 2.95411L41.5649 2.9523V2.95591C41.5685 2.96584 41.5685 2.97395 41.5649 2.98027C41.5622 2.98478 41.5578 2.98839 41.5515 2.99109Z" fill="black"/>
<path d="M42.1161 2.51709C42.1706 2.51709 42.2144 2.56129 42.2144 2.61632C42.2144 2.67134 42.1706 2.71555 42.1161 2.71555C42.0616 2.71555 42.0178 2.67134 42.0178 2.61632C42.0178 2.56129 42.0616 2.51709 42.1161 2.51709Z" fill="#90857C"/>
<path d="M42.1161 2.71705C42.0607 2.71705 42.0151 2.67105 42.0151 2.61512C42.0151 2.55919 42.0607 2.51318 42.1161 2.51318C42.1715 2.51318 42.217 2.55919 42.217 2.61512C42.217 2.67105 42.1715 2.71705 42.1161 2.71705ZM42.1161 2.5195C42.0634 2.5195 42.0214 2.5628 42.0214 2.61512C42.0214 2.66744 42.0643 2.71074 42.1161 2.71074C42.1679 2.71074 42.2108 2.66744 42.2108 2.61512C42.2108 2.5628 42.1679 2.5195 42.1161 2.5195Z" fill="black"/>
<path d="M41.9445 3.39483C41.8837 3.384 41.7828 3.31995 41.7729 3.23696C41.8292 3.01235 42.1214 3.12962 42.1464 2.96093C42.1401 2.84997 42.1598 2.73902 42.2205 2.6461C42.2491 2.61002 42.2857 2.6001 42.2857 2.6001C42.2857 2.6001 42.292 2.62355 42.283 2.63979C42.3313 2.63438 42.3974 2.66144 42.4429 2.66415C42.4563 2.69121 42.4555 2.70113 42.4519 2.71827C42.4492 2.73451 42.4304 2.7309 42.4304 2.7309C42.4188 2.74263 42.4045 2.75345 42.3724 2.74804C42.3483 2.76608 42.2982 2.77149 42.2982 2.77149C42.2982 2.77149 42.4036 2.88425 42.3867 2.91853C42.409 2.92845 42.4412 2.97807 42.4412 2.97807C42.4412 2.97807 42.5135 2.93928 42.5368 2.9041C42.5787 2.9041 42.6466 2.9483 42.6815 2.95281C42.7235 2.98709 42.7654 3.02227 42.7654 3.02227C42.7654 3.02227 42.7154 3.05565 42.694 3.01144C42.6681 3.01415 42.6109 2.9501 42.5332 2.96995C42.5305 3.04031 42.4546 3.08992 42.4546 3.08992C42.4546 3.08992 42.526 3.08 42.5653 3.10346C42.6055 3.13773 42.6654 3.18464 42.6654 3.18464L42.719 3.27665C42.719 3.27665 42.6707 3.28477 42.652 3.22163C42.6341 3.27305 42.6332 3.19005 42.5609 3.15127C42.5385 3.15397 42.5278 3.15578 42.5091 3.14044C42.4572 3.15487 42.3956 3.18554 42.3223 3.17743C42.2705 3.19366 42.2321 3.23786 42.1794 3.26222C42.1267 3.28658 42.1106 3.27485 42.1106 3.27485L42.0678 3.27665C42.0615 3.30281 42.0651 3.3416 42.0418 3.34882C42.057 3.36506 42.0311 3.43361 42.0052 3.44534C42.0177 3.48954 42.0526 3.50307 42.0901 3.52472C42.0901 3.52472 42.1231 3.50939 42.1446 3.52923C42.166 3.54908 42.1883 3.60591 42.1883 3.60591C42.1883 3.60591 42.1437 3.60862 42.1294 3.6032C42.1151 3.59689 42.1142 3.58246 42.0972 3.58607C41.9945 3.49405 41.94 3.53014 41.9302 3.50939C41.9204 3.48774 41.9543 3.43181 41.9436 3.39573L41.9445 3.39483Z" fill="#90857C"/>
<path d="M42.1642 3.60839C42.1508 3.60839 42.1356 3.60839 42.1276 3.60388C42.1213 3.60118 42.1178 3.59757 42.1142 3.59396C42.1088 3.58855 42.1062 3.58494 42.0972 3.58765H42.0954H42.0945C42.0266 3.52631 41.9811 3.5227 41.9534 3.51999C41.94 3.51909 41.9302 3.51819 41.9266 3.50917C41.9212 3.49834 41.9266 3.4803 41.932 3.45955C41.9382 3.4388 41.9445 3.41535 41.94 3.39731C41.8739 3.38468 41.7774 3.31793 41.7676 3.23674V3.23584C41.798 3.11496 41.8971 3.0915 41.9847 3.07076C42.0624 3.05272 42.1294 3.03648 42.141 2.9598C42.1338 2.83712 42.1589 2.73067 42.216 2.64408C42.2446 2.60709 42.2812 2.59717 42.283 2.59717H42.2857V2.59897C42.2857 2.59987 42.2911 2.61972 42.2857 2.63596C42.3134 2.63415 42.3465 2.64227 42.3777 2.64949C42.401 2.6549 42.4224 2.66031 42.4403 2.66122H42.442V2.66302C42.4554 2.69098 42.4546 2.70181 42.451 2.71895C42.4501 2.72436 42.4474 2.72797 42.4438 2.73068C42.4385 2.73428 42.4313 2.73428 42.4278 2.73338C42.4152 2.74511 42.4001 2.75593 42.3697 2.75052C42.35 2.76495 42.3152 2.77127 42.3009 2.77307C42.3214 2.79562 42.3974 2.88132 42.3867 2.9165C42.4063 2.92823 42.4322 2.96431 42.4385 2.97333C42.451 2.96612 42.5099 2.93274 42.5305 2.90207H42.5314L42.5332 2.90117C42.5582 2.90117 42.5912 2.9165 42.6207 2.92913C42.6422 2.93905 42.6636 2.94808 42.6779 2.94988C42.719 2.98326 42.761 3.01844 42.7619 3.01934L42.7654 3.02205L42.7619 3.02385C42.7619 3.02385 42.7351 3.04099 42.7118 3.03467C42.7011 3.03197 42.6931 3.02475 42.6868 3.01393C42.677 3.01393 42.6654 3.00671 42.6502 2.99859C42.6207 2.98235 42.5805 2.9598 42.5305 2.97153C42.5278 3.02656 42.4805 3.06895 42.4599 3.08429C42.4822 3.08248 42.5305 3.08068 42.5609 3.09962C42.6011 3.1339 42.6609 3.18081 42.6618 3.18081L42.7172 3.27733H42.7127C42.7127 3.27733 42.6654 3.28545 42.6448 3.22862C42.6413 3.23584 42.6386 3.23854 42.635 3.23945C42.6288 3.23945 42.6243 3.23223 42.6171 3.2205C42.6055 3.20156 42.5886 3.17179 42.5537 3.15285C42.5323 3.15555 42.5207 3.15645 42.5019 3.14202C42.4903 3.14563 42.4778 3.14924 42.4644 3.15375C42.4206 3.16818 42.3715 3.18442 42.3161 3.17901C42.2884 3.18803 42.2643 3.20517 42.2393 3.22321C42.2187 3.23764 42.1982 3.25207 42.174 3.2638C42.1267 3.28545 42.1079 3.27914 42.1035 3.27643L42.0642 3.27823C42.0633 3.28455 42.0624 3.29177 42.0615 3.29898C42.0588 3.31973 42.0561 3.34138 42.0409 3.3495C42.0454 3.35762 42.0436 3.36934 42.0418 3.37836C42.0365 3.40362 42.0213 3.4361 42.0034 3.44602C42.0141 3.4803 42.04 3.49563 42.0695 3.51187C42.0749 3.51458 42.0794 3.51728 42.0847 3.52089C42.0919 3.51819 42.1204 3.50826 42.141 3.52631C42.1633 3.54615 42.1848 3.60208 42.1857 3.60388L42.1874 3.60749H42.183C42.183 3.60749 42.1714 3.60839 42.1589 3.60839H42.1642ZM42.1026 3.58133C42.1106 3.58133 42.1142 3.58584 42.1187 3.59035C42.1222 3.59396 42.1249 3.59667 42.1303 3.59937C42.141 3.60388 42.1723 3.60298 42.1839 3.60208C42.1785 3.58855 42.1598 3.54705 42.1419 3.53082C42.1222 3.51277 42.091 3.52631 42.0901 3.52631H42.0883H42.0865C42.0811 3.5227 42.0758 3.51999 42.0704 3.51728C42.04 3.50014 42.0115 3.48391 42.0007 3.44512V3.44241L42.0025 3.44151C42.0186 3.43429 42.0356 3.40182 42.04 3.37656C42.0427 3.36393 42.0418 3.35401 42.0383 3.3495L42.0347 3.34589L42.0392 3.34409C42.0543 3.33958 42.057 3.31793 42.0597 3.29718C42.0606 3.28906 42.0615 3.28094 42.0633 3.27372V3.27192L42.1097 3.27012C42.1097 3.27012 42.1249 3.28094 42.1749 3.25839C42.1982 3.24756 42.2187 3.23313 42.2393 3.2187C42.2652 3.20066 42.2893 3.18352 42.3188 3.17359C42.3742 3.17991 42.4224 3.16367 42.4653 3.14924C42.4787 3.14473 42.4921 3.14022 42.5046 3.13661H42.5064H42.5073C42.5242 3.15104 42.5341 3.14924 42.5555 3.14653H42.5573C42.5939 3.16638 42.6127 3.19795 42.6243 3.21689C42.6288 3.22411 42.6341 3.23313 42.6368 3.23313C42.6368 3.23313 42.6395 3.23313 42.6448 3.2187L42.6484 3.20968L42.6511 3.2187C42.6654 3.26831 42.6984 3.27282 42.71 3.27192L42.66 3.18442C42.6547 3.17991 42.5984 3.13571 42.56 3.10323C42.5224 3.08068 42.4519 3.0897 42.4519 3.0897L42.4501 3.08429C42.4501 3.08429 42.5251 3.03467 42.5278 2.96702V2.96431H42.5305C42.5832 2.95078 42.6252 2.97424 42.6564 2.99137C42.6707 2.99949 42.6841 3.00671 42.6922 3.00581H42.694L42.6949 3.00761C42.7002 3.01844 42.7074 3.02475 42.7172 3.02746C42.7333 3.03197 42.7511 3.02385 42.7583 3.01934C42.7476 3.01032 42.7127 2.98145 42.6788 2.95349C42.6636 2.95078 42.643 2.94176 42.6216 2.93184C42.593 2.91921 42.5609 2.90478 42.5376 2.90387C42.5135 2.93905 42.4447 2.97514 42.442 2.97694H42.4394L42.4376 2.97604C42.4376 2.97604 42.4054 2.92733 42.384 2.9174H42.3813L42.3831 2.91289C42.3965 2.88583 42.3241 2.80013 42.2955 2.76946L42.2911 2.76495H42.2973C42.2973 2.76495 42.3474 2.75954 42.3706 2.7424H42.3715H42.3724C42.4018 2.74781 42.4152 2.73789 42.4278 2.72616H42.4286H42.4304C42.4304 2.72616 42.4385 2.72797 42.4429 2.72436C42.4456 2.72256 42.4474 2.71985 42.4474 2.71624C42.4501 2.7 42.451 2.69098 42.4394 2.66573C42.4206 2.66482 42.4001 2.65941 42.3777 2.654C42.3447 2.64588 42.3107 2.63776 42.2821 2.64137H42.2759L42.2795 2.63686C42.2866 2.62513 42.2839 2.60889 42.283 2.60258C42.2741 2.60529 42.2455 2.61701 42.2223 2.64678C42.166 2.73248 42.141 2.83712 42.1481 2.9589C42.1356 3.04009 42.0633 3.05723 41.9873 3.07527C41.9016 3.09511 41.8051 3.11767 41.7747 3.23493C41.7846 3.31342 41.8801 3.37836 41.9436 3.39009V3.3928H41.9462C41.9525 3.41264 41.9445 3.4379 41.9382 3.46045C41.9328 3.4794 41.9275 3.49654 41.932 3.50556C41.9346 3.51097 41.9409 3.51187 41.9534 3.51277C41.9793 3.51458 42.0275 3.51909 42.0963 3.58043C42.0981 3.58043 42.099 3.58043 42.1008 3.58043L42.1026 3.58133Z" fill="black"/>
<path d="M41.6974 2.98249C41.7028 2.97527 41.7403 2.98971 41.7403 2.98971L41.8091 3.03301L41.9484 3.12412L41.9976 3.19718L41.9082 3.16832L41.7849 3.06097L41.7179 3.01767C41.7179 3.01767 41.6911 2.98971 41.6965 2.98339L41.6974 2.98249Z" fill="#90857C"/>
<path d="M42.0054 3.20303L41.9072 3.17056L41.7839 3.06321L41.7178 3.01991C41.7062 3.00818 41.6892 2.98834 41.6954 2.98112C41.7017 2.973 41.7303 2.98292 41.7419 2.98743L41.8116 3.03073L41.9518 3.12275L42.0063 3.20303H42.0054ZM41.9107 3.16514L41.9911 3.1913L41.9474 3.12635L41.808 3.03524L41.7392 2.99194C41.7213 2.98563 41.7026 2.98112 41.6999 2.98383C41.6981 2.98653 41.7088 3.00097 41.7213 3.0145L41.7874 3.0578L41.9107 3.16514Z" fill="black"/>
<path d="M42.5225 3.21318C42.4743 3.20055 42.3555 3.34668 42.3555 3.34668L42.4448 3.44501C42.4448 3.44501 42.4475 3.27813 42.5225 3.21318Z" fill="#90857C"/>
<path d="M42.4483 3.45203L42.4429 3.44662L42.3518 3.34649L42.3536 3.34468C42.3581 3.33837 42.4742 3.19764 42.5233 3.21027L42.5287 3.21208L42.5242 3.21569C42.451 3.27883 42.4483 3.44301 42.4474 3.44481V3.45203H42.4483ZM42.3598 3.34649L42.4429 3.4376C42.4447 3.40512 42.4536 3.27522 42.5162 3.21569C42.4706 3.21569 42.3741 3.33025 42.3598 3.34649Z" fill="black"/>
<path d="M41.9349 2.80726C41.9089 2.84154 41.9063 2.9101 41.9402 2.93716C41.9438 2.97866 41.9786 3.06255 42.0063 3.07067C42.0367 3.07969 42.1564 3.10765 42.2037 3.09953C42.1948 3.17621 42.2547 3.23845 42.3101 3.27905C42.3101 3.28626 42.3101 3.29438 42.3163 3.3034C42.3226 3.31152 42.352 3.31333 42.3529 3.30882C42.3654 3.32686 42.4289 3.33498 42.4333 3.32686C42.4378 3.31874 42.3413 3.25108 42.3199 3.23033C42.302 3.19606 42.2672 3.11938 42.2591 3.05894C42.2118 3.00211 42.1305 3.00301 42.1305 3.00301L42.1332 2.89115L42.1376 2.76577L42.0939 2.74231C42.0939 2.74231 42.1028 2.7378 42.1073 2.73329C42.118 2.7378 42.1376 2.71615 42.1403 2.70984C42.1501 2.71345 42.16 2.71345 42.1618 2.70803C42.1635 2.70352 42.1653 2.68187 42.1689 2.67105C42.202 2.64128 42.1644 2.57904 42.1135 2.57813C42.0635 2.57723 42.0519 2.63857 42.0528 2.64308C42.0572 2.66203 42.0563 2.67195 42.0528 2.67646C42.0492 2.68097 42.0313 2.6918 42.0313 2.6918C42.0313 2.6918 42.0036 2.67827 41.9688 2.6918C41.9349 2.70533 41.8964 2.72337 41.8947 2.74592C41.8795 2.74863 41.8536 2.76847 41.8491 2.78561C41.8357 2.78291 41.8178 2.79463 41.7883 2.84244C41.7356 2.8659 41.733 2.97866 41.733 2.97866C41.733 2.97866 41.7187 2.9994 41.7178 3.01023C41.7178 3.02105 41.7231 3.03098 41.7294 3.02917C41.7294 3.03639 41.7392 3.0427 41.7437 3.0409C41.7455 3.04812 41.7553 3.05263 41.7615 3.05082C41.7615 3.05623 41.7821 3.05443 41.7839 3.05082C41.7857 3.04541 41.7821 3.02105 41.7839 3.01925C41.7857 3.01745 41.8026 3.03007 41.8071 3.02737C41.8116 3.02376 41.8071 3.01293 41.8035 3.00842C41.8009 3.00482 41.7866 3.00031 41.783 2.98226C41.7794 2.96422 41.7919 2.93896 41.7919 2.93896C41.7919 2.93896 41.8491 2.89386 41.8553 2.85507C41.8982 2.85958 41.9206 2.8217 41.9331 2.80726H41.9349Z" fill="#90857C"/>
<path d="M42.419 3.33301C42.3994 3.33301 42.3645 3.3258 42.352 3.31317C42.3511 3.31317 42.3494 3.31317 42.3494 3.31317C42.3404 3.31497 42.3199 3.31317 42.3136 3.30505C42.3074 3.29693 42.3065 3.28791 42.3074 3.28069C42.2323 3.22567 42.1957 3.16432 42.2011 3.10298C42.1484 3.1084 42.0269 3.07953 42.0063 3.07322C41.9777 3.0651 41.942 2.9812 41.9384 2.93881C41.9107 2.91535 41.9072 2.86754 41.9197 2.83146C41.9072 2.84499 41.8893 2.85852 41.8643 2.85852C41.8625 2.85852 41.8616 2.85852 41.8598 2.85852C41.8518 2.89551 41.8026 2.9361 41.7964 2.94151C41.7946 2.94512 41.7848 2.96677 41.7874 2.98211C41.7901 2.99383 41.7973 2.99925 41.8026 3.00285C41.8053 3.00466 41.8071 3.00556 41.808 3.00736C41.8107 3.01097 41.8178 3.0245 41.8107 3.02992C41.8062 3.03262 41.7991 3.02992 41.7919 3.02541C41.7901 3.02541 41.7883 3.0236 41.7874 3.0227C41.7874 3.02541 41.7874 3.03082 41.7874 3.03443C41.7874 3.04345 41.7874 3.04886 41.7874 3.05157C41.7857 3.05698 41.7732 3.05788 41.7678 3.05698C41.7642 3.05698 41.7615 3.05517 41.7606 3.05427C41.7544 3.05427 41.7455 3.05066 41.7419 3.04435C41.7419 3.04435 41.7383 3.04435 41.7365 3.04254C41.733 3.04074 41.7294 3.03713 41.7276 3.03262C41.7258 3.03262 41.724 3.03172 41.7222 3.02992C41.7178 3.02631 41.7151 3.01819 41.7151 3.01007C41.7151 2.99924 41.7276 2.9812 41.7303 2.9776C41.7303 2.96587 41.7356 2.86393 41.7866 2.83958C41.8107 2.79989 41.8294 2.78185 41.8455 2.78185C41.8455 2.78185 41.8464 2.78185 41.8473 2.78185C41.8536 2.76471 41.8768 2.74666 41.892 2.74306C41.8964 2.7205 41.9322 2.70336 41.9679 2.68893C41.9992 2.6772 42.0242 2.68532 42.0313 2.68893C42.0376 2.68442 42.0483 2.67811 42.0501 2.6754C42.0528 2.67269 42.0546 2.66458 42.0501 2.64473C42.0501 2.64112 42.0537 2.61496 42.0688 2.59692C42.0805 2.58339 42.0948 2.57617 42.1117 2.57617H42.1135C42.1466 2.57617 42.1725 2.60143 42.1814 2.62579C42.1886 2.64473 42.185 2.66277 42.1716 2.6745C42.1698 2.68081 42.168 2.69074 42.1671 2.69885C42.1671 2.70427 42.1653 2.70878 42.1653 2.71148C42.1653 2.71329 42.1626 2.71509 42.1609 2.7169C42.1564 2.7187 42.1501 2.7187 42.143 2.7169C42.1376 2.72411 42.1233 2.74035 42.1117 2.74035C42.1117 2.74035 42.1099 2.74035 42.109 2.74035C42.1064 2.74306 42.1037 2.74486 42.101 2.74576L42.1412 2.76741V2.76922L42.1367 2.8946L42.1341 3.00285C42.1492 3.00285 42.2198 3.00827 42.2618 3.05968V3.06149C42.2698 3.12103 42.3029 3.1968 42.3217 3.23198C42.3297 3.2401 42.3485 3.25363 42.3681 3.26897C42.428 3.31497 42.4387 3.3258 42.436 3.33121C42.4342 3.33391 42.4306 3.33572 42.4235 3.33572C42.4226 3.33572 42.4208 3.33572 42.4199 3.33572L42.419 3.33301ZM42.3511 3.30144L42.3547 3.30685C42.3619 3.31768 42.3904 3.32489 42.4119 3.3267C42.4226 3.3267 42.4271 3.3267 42.4289 3.3258C42.4244 3.31858 42.3878 3.28971 42.3636 3.27077C42.344 3.25543 42.3252 3.241 42.3163 3.23288C42.2975 3.1968 42.2636 3.12103 42.2556 3.06059C42.2109 3.00736 42.135 3.00646 42.1305 3.00646H42.1269V3.00376L42.1296 2.8919L42.1341 2.76831L42.0858 2.74306L42.0912 2.74035C42.0912 2.74035 42.0992 2.73674 42.1037 2.73223L42.1055 2.73043H42.1073C42.1073 2.73043 42.109 2.73133 42.1099 2.73133C42.1189 2.73133 42.135 2.71509 42.1367 2.70968V2.70697L42.1403 2.70787C42.1475 2.71058 42.1528 2.71058 42.1564 2.70968C42.1573 2.70968 42.1573 2.70878 42.1582 2.70787C42.1582 2.70607 42.1591 2.70156 42.16 2.69705C42.1609 2.68893 42.1626 2.67811 42.1653 2.67089V2.66999C42.1769 2.66006 42.1796 2.64473 42.1734 2.62759C42.1653 2.60504 42.1412 2.58249 42.1117 2.58249C42.1117 2.58249 42.1117 2.58249 42.1108 2.58249C42.0965 2.58249 42.084 2.5879 42.0742 2.59872C42.059 2.61586 42.0546 2.64112 42.0546 2.64383C42.059 2.66187 42.059 2.6736 42.0546 2.67991C42.051 2.68532 42.034 2.69525 42.0322 2.69615H42.0304H42.0286C42.0286 2.69615 42.001 2.68352 41.9688 2.69615C41.9384 2.70787 41.8982 2.72592 41.8964 2.74757V2.75027H41.8938C41.8795 2.75208 41.8553 2.77192 41.8509 2.78816V2.79087H41.8473C41.833 2.78816 41.8142 2.8053 41.7892 2.84589V2.84679C41.7392 2.86935 41.7356 2.9794 41.7356 2.9803V2.98211C41.7321 2.98752 41.7222 3.00376 41.7213 3.01278C41.7213 3.01999 41.7231 3.02541 41.7258 3.02811C41.7267 3.02811 41.7276 3.02901 41.7294 3.02811H41.733V3.03082C41.733 3.03443 41.7365 3.03803 41.7392 3.03894C41.741 3.03984 41.7428 3.03984 41.7428 3.03894L41.7464 3.03713V3.04074C41.7481 3.04615 41.7571 3.04976 41.7615 3.04886H41.7642V3.05157C41.7642 3.05157 41.7678 3.05157 41.7723 3.05157C41.7776 3.05157 41.7803 3.04976 41.7812 3.04976C41.7812 3.04796 41.7812 3.04074 41.7812 3.03533C41.7812 3.0227 41.7812 3.01909 41.783 3.01729C41.7857 3.01548 41.7883 3.01729 41.7946 3.01999C41.7973 3.0218 41.8053 3.02541 41.8071 3.0245C41.8089 3.0236 41.8071 3.01729 41.8026 3.01007C41.8026 3.01007 41.8008 3.00827 41.7991 3.00736C41.7937 3.00376 41.7848 2.99744 41.7821 2.98301C41.7785 2.96406 41.791 2.93881 41.791 2.9379C41.791 2.9379 41.8473 2.8919 41.8536 2.85491V2.85221H41.8571C41.8929 2.85582 41.9143 2.82875 41.9268 2.81252C41.9286 2.80981 41.9304 2.80801 41.9322 2.8053L41.9366 2.80891C41.9116 2.84138 41.9089 2.90904 41.942 2.9352H41.9429V2.937C41.9456 2.97669 41.9804 3.06059 42.0063 3.0678C42.0367 3.07592 42.1564 3.10479 42.2028 3.09667H42.2064V3.10028C42.1993 3.16162 42.235 3.22116 42.3118 3.27708H42.3127V3.27979C42.3127 3.28701 42.3127 3.29422 42.3181 3.30144C42.3226 3.30775 42.3458 3.30956 42.3494 3.30685L42.3511 3.30144Z" fill="black"/>
<path d="M41.8357 2.64517C41.8491 2.61269 41.8955 2.6163 41.8955 2.6163C41.8955 2.6163 41.9125 2.5712 41.9759 2.59826C42.0001 2.57931 42.0626 2.60638 42.0626 2.60638C42.0626 2.60638 42.0858 2.5748 42.1171 2.57841C42.1743 2.58473 42.1832 2.63795 42.1805 2.64697C42.1493 2.65509 42.0948 2.62171 42.0537 2.63073C42.0295 2.64426 41.9911 2.6587 41.9759 2.67854C41.9375 2.68215 41.8973 2.64336 41.8357 2.64517Z" fill="#90857C"/>
<path d="M41.9705 2.68198C41.9544 2.68198 41.9374 2.67566 41.9196 2.66755C41.8955 2.65762 41.8696 2.6468 41.8365 2.6477H41.832L41.8338 2.64319C41.8463 2.61342 41.8847 2.61162 41.8946 2.61252C41.8972 2.60801 41.9035 2.59628 41.9178 2.58997C41.9339 2.58275 41.9535 2.58456 41.9759 2.59358C41.9991 2.57734 42.0509 2.59718 42.0616 2.60169C42.067 2.59538 42.0866 2.57373 42.1116 2.57373C42.1134 2.57373 42.1152 2.57373 42.117 2.57373C42.1492 2.57734 42.1652 2.59448 42.1733 2.60891C42.1822 2.62425 42.1849 2.64139 42.1822 2.6468V2.6486H42.1804C42.1652 2.65221 42.1447 2.6468 42.1233 2.64139C42.1 2.63507 42.075 2.62785 42.0545 2.63237C42.0482 2.63597 42.0402 2.63958 42.0321 2.64409C42.0116 2.65402 41.9884 2.66574 41.9785 2.67927L41.9776 2.68018C41.9759 2.68018 41.9741 2.68018 41.9714 2.68018L41.9705 2.68198ZM41.841 2.64229C41.8722 2.64229 41.8981 2.65311 41.9214 2.66213C41.941 2.67025 41.958 2.67657 41.975 2.67566C41.9866 2.66123 42.0098 2.6495 42.0304 2.63958C42.0384 2.63597 42.0464 2.63146 42.0527 2.62785C42.075 2.62244 42.1 2.62966 42.125 2.63597C42.1447 2.64139 42.1635 2.6468 42.1778 2.64409C42.1778 2.63958 42.1778 2.62605 42.1688 2.61342C42.1617 2.60079 42.1465 2.58456 42.117 2.58095C42.0884 2.57734 42.0661 2.60711 42.0652 2.60801L42.0634 2.60981H42.0616C42.0616 2.60981 42 2.58365 41.9776 2.60079H41.9759H41.9741C41.9517 2.59177 41.9339 2.58997 41.9187 2.59628C41.9026 2.6035 41.8972 2.61703 41.8972 2.61703V2.61883H41.8946C41.8946 2.61883 41.8535 2.61703 41.8392 2.64139L41.841 2.64229Z" fill="black"/>
<path d="M41.9546 2.69804C41.9689 2.68902 42.0037 2.67368 42.0278 2.69263C42.0529 2.71969 42.0913 2.74495 42.0913 2.74495L42.1342 2.76299L42.1538 2.77562L42.1413 2.97588C42.1011 2.93438 42.0636 2.92717 42.035 2.87846C42.0198 2.85771 42.0314 2.80719 42.0046 2.77381C41.9778 2.74044 41.9492 2.71789 41.9555 2.69804H41.9546Z" fill="#90857C"/>
<path d="M42.1439 2.9823L42.1394 2.97779C42.1233 2.96155 42.1081 2.95073 42.0929 2.9399C42.0706 2.92457 42.0501 2.90923 42.0331 2.88037C42.0259 2.87134 42.0242 2.85691 42.0224 2.83977C42.0197 2.81902 42.017 2.79467 42.0027 2.77663C41.9956 2.76851 41.9893 2.76039 41.9822 2.75317C41.9634 2.73152 41.9482 2.71438 41.9527 2.69815L41.9536 2.69634C41.9581 2.69364 42.0009 2.66838 42.0295 2.69093C42.0545 2.71799 42.0921 2.74235 42.0921 2.74325L42.1349 2.76129L42.1564 2.77482L42.143 2.9832L42.1439 2.9823ZM41.9581 2.69995C41.9554 2.71348 41.9688 2.72882 41.9866 2.74776C41.9929 2.75498 42 2.7631 42.0072 2.77121C42.0233 2.79106 42.0259 2.81542 42.0286 2.83797C42.0304 2.8542 42.0322 2.86774 42.0385 2.87585C42.0554 2.90472 42.076 2.91915 42.0974 2.93449C42.1108 2.94441 42.1251 2.95434 42.1403 2.96877L42.1528 2.77753L42.1349 2.7658L42.0921 2.74776C42.0921 2.74776 42.0527 2.7216 42.0277 2.69454C42.0036 2.67559 41.967 2.69454 41.9598 2.69995H41.9581Z" fill="black"/>
<path d="M42.0588 2.75567C42.0588 2.75567 42.0812 2.75116 42.0874 2.75657C42.0955 2.75928 42.1026 2.76198 42.1053 2.7683C42.1142 2.771 42.1196 2.77551 42.1196 2.78183C42.1276 2.78363 42.1312 2.79897 42.1312 2.79897L42.1241 2.81069C42.1241 2.81069 42.1151 2.80258 42.1142 2.79356C42.1089 2.79085 42.0964 2.78814 42.0937 2.78002C42.0838 2.77912 42.0785 2.77461 42.0767 2.76559C42.0678 2.7674 42.0588 2.75567 42.0588 2.75567Z" fill="#90857C"/>
<path d="M42.124 2.81521L42.1214 2.81251C42.1214 2.81251 42.1133 2.80439 42.1106 2.79537C42.1106 2.79537 42.1089 2.79537 42.108 2.79446C42.1017 2.79176 42.0946 2.78905 42.091 2.78274C42.0821 2.78093 42.0758 2.77642 42.074 2.76921C42.0651 2.76921 42.057 2.75838 42.0561 2.75748L42.0535 2.75387H42.0579C42.0579 2.75387 42.0812 2.74846 42.0892 2.75387C42.0963 2.75658 42.1044 2.75928 42.1071 2.7665C42.116 2.76921 42.1214 2.77462 42.1223 2.78003C42.1303 2.78364 42.133 2.79717 42.1339 2.79807L42.124 2.81521ZM42.0785 2.76199V2.7647C42.0803 2.77191 42.0856 2.77552 42.0937 2.77642H42.0955V2.77823C42.0972 2.78274 42.1044 2.78634 42.1097 2.78815C42.1115 2.78815 42.1133 2.78905 42.1142 2.78995H42.116V2.79266C42.116 2.79717 42.1196 2.80168 42.1223 2.80529L42.1267 2.79807C42.1267 2.79807 42.1223 2.78635 42.1178 2.78454H42.116V2.78183C42.116 2.77642 42.1089 2.77281 42.1035 2.77101H42.1017V2.76921C42.0999 2.76379 42.0937 2.76199 42.0874 2.75928H42.0856C42.0856 2.75928 42.0731 2.75567 42.0642 2.75748C42.0678 2.76018 42.0713 2.76379 42.0758 2.76289H42.0785V2.76199Z" fill="black"/>
<path d="M42.251 2.62518C42.2385 2.61075 42.2152 2.62157 42.2152 2.62157L42.1545 2.72712L42.1277 2.74967L42.125 2.83266L42.1473 2.91024L42.1393 2.96977C42.1393 2.96977 42.1697 2.94091 42.1732 2.92467C42.1768 2.90933 42.1616 2.85882 42.1616 2.85882C42.1616 2.85882 42.1438 2.82725 42.1652 2.76951C42.1875 2.71088 42.2376 2.66307 42.2492 2.62608L42.251 2.62518Z" fill="#90857C"/>
<path d="M42.1357 2.97794L42.1446 2.91029L42.1223 2.83271L42.125 2.74881L42.1518 2.72626L42.2125 2.61982C42.2125 2.61982 42.2376 2.60809 42.2518 2.62433H42.2527V2.62703C42.2474 2.64417 42.2331 2.66312 42.2179 2.68567C42.2 2.71093 42.1804 2.73979 42.1688 2.77046C42.1473 2.82639 42.1643 2.85706 42.1652 2.85797C42.1661 2.86067 42.1804 2.91029 42.1768 2.92652C42.1732 2.94366 42.1429 2.97253 42.142 2.97343L42.1357 2.97884V2.97794ZM42.1286 2.83271L42.1509 2.91029L42.1446 2.9617C42.1536 2.95268 42.1697 2.93464 42.1714 2.92382C42.1741 2.91209 42.1643 2.8733 42.1598 2.85977C42.1598 2.85977 42.1411 2.82729 42.1634 2.76776C42.175 2.73619 42.1956 2.70732 42.2134 2.68116C42.2286 2.66041 42.2411 2.64147 42.2465 2.62613C42.2367 2.61621 42.2197 2.62252 42.2161 2.62433L42.1554 2.72987L42.1295 2.75152L42.1268 2.83271H42.1286Z" fill="black"/>
<path d="M42.4013 2.72021C42.4013 2.72021 42.3066 2.85733 42.1511 2.90604C42.1083 2.91597 42.1234 2.80501 42.1234 2.80501L42.1127 2.80772C42.1127 2.80772 42.0886 2.91687 42.1458 2.91777C42.3021 2.8871 42.4191 2.72112 42.4191 2.72112H42.4004L42.4013 2.72021Z" fill="#90857C"/>
<path d="M42.1465 2.92025C42.134 2.92025 42.1242 2.91574 42.1179 2.90672C42.0947 2.87695 42.109 2.8093 42.1099 2.80659V2.80479L42.1269 2.80028V2.80479C42.1269 2.80479 42.1162 2.88146 42.1358 2.8995C42.1394 2.90311 42.1438 2.90401 42.1501 2.90221C42.302 2.8544 42.3976 2.71909 42.3984 2.71819L42.4002 2.71999V2.71729H42.4065L42.4252 2.71909L42.4217 2.7236C42.4217 2.7236 42.302 2.89048 42.1465 2.92206V2.92025ZM42.1153 2.8093C42.1135 2.82012 42.1028 2.87785 42.1224 2.90311C42.1287 2.91033 42.1358 2.91394 42.1465 2.91484C42.285 2.88688 42.394 2.75066 42.4136 2.7236H42.402C42.3913 2.73803 42.2975 2.86252 42.151 2.90853C42.143 2.91033 42.1367 2.90852 42.1313 2.90401C42.1117 2.88597 42.117 2.82553 42.1188 2.80839H42.1144L42.1153 2.8093Z" fill="black"/>
<path d="M42.4653 3.5067C42.4653 3.5067 42.451 3.51753 42.4323 3.5067C42.4224 3.48325 42.3956 3.48235 42.3956 3.48235C42.3956 3.48235 42.3787 3.43273 42.3519 3.44717C42.3474 3.42191 42.3188 3.43454 42.3188 3.43454C42.3188 3.43454 42.3188 3.39755 42.284 3.40206C42.2956 3.35967 42.2366 3.36237 42.2366 3.36237C42.2366 3.36237 42.2348 3.31456 42.1482 3.32358C42.334 3.23969 42.4805 3.45529 42.4805 3.45529" fill="#90857C"/>
<path d="M42.4492 3.51473C42.4439 3.51473 42.4376 3.51383 42.4305 3.50932V3.50751C42.4216 3.48677 42.3965 3.48496 42.3965 3.48496H42.3948V3.48316C42.3948 3.48316 42.3849 3.45429 42.3688 3.44888C42.3644 3.44707 42.3599 3.44707 42.3546 3.44978L42.351 3.45158V3.44707C42.3492 3.44166 42.3474 3.43805 42.3438 3.43535C42.3349 3.43084 42.3215 3.43715 42.3215 3.43715L42.317 3.43896V3.43444C42.317 3.43444 42.317 3.41821 42.3063 3.41009C42.301 3.40558 42.2938 3.40377 42.2849 3.40558H42.2804L42.2813 3.40197C42.284 3.39295 42.2831 3.38483 42.2786 3.37942C42.267 3.36498 42.2375 3.36589 42.2375 3.36589H42.2348V3.36318C42.2348 3.36318 42.2348 3.35145 42.2223 3.34063C42.208 3.328 42.183 3.32349 42.15 3.3271L42.1482 3.32169C42.334 3.23779 42.4832 3.45249 42.4841 3.45429L42.4787 3.4579C42.4787 3.4579 42.3403 3.25854 42.167 3.31988C42.1678 3.31988 42.1687 3.31988 42.1696 3.31988C42.1938 3.31988 42.2125 3.32529 42.225 3.33612C42.2348 3.34514 42.2384 3.35506 42.2393 3.35957C42.2474 3.35957 42.2715 3.36138 42.2822 3.37491C42.2876 3.38122 42.2893 3.38934 42.2876 3.39926C42.2965 3.39926 42.3036 3.40107 42.309 3.40558C42.3179 3.4128 42.3206 3.42452 42.3206 3.42993C42.326 3.42813 42.3367 3.42542 42.3447 3.42993C42.3492 3.43264 42.3519 3.43625 42.3537 3.44166C42.359 3.43986 42.3644 3.43986 42.3697 3.44166C42.3858 3.44798 42.3956 3.47143 42.3983 3.47774C42.4046 3.47774 42.426 3.48316 42.435 3.503C42.4519 3.51202 42.4635 3.503 42.4644 3.503L42.468 3.50751C42.468 3.50751 42.4609 3.51293 42.4501 3.51293L42.4492 3.51473Z" fill="black"/>
<path d="M42.553 3.52441C42.553 3.52441 42.5959 3.57313 42.6182 3.57313C42.6405 3.57313 42.6423 3.52532 42.6423 3.52532C42.6423 3.52532 42.6495 3.54606 42.6602 3.54065C42.6593 3.55508 42.6736 3.55869 42.6736 3.55869C42.6736 3.55869 42.6352 3.6498 42.5244 3.5632" fill="#90857C"/>
<path d="M42.6111 3.60455C42.5852 3.60455 42.5566 3.59192 42.5244 3.56666L42.528 3.56215C42.5664 3.59192 42.6003 3.60365 42.628 3.59643C42.6531 3.59012 42.6665 3.56937 42.6709 3.56125C42.6656 3.55854 42.6593 3.55403 42.6584 3.54501C42.6566 3.54501 42.6548 3.54501 42.6539 3.54501C42.6504 3.54321 42.6477 3.5405 42.6459 3.53689C42.6441 3.55133 42.6379 3.57659 42.62 3.57659C42.5968 3.57659 42.5539 3.52878 42.5521 3.52607L42.5566 3.52246C42.5682 3.53599 42.6021 3.57027 42.62 3.57027C42.6361 3.57027 42.6405 3.5378 42.6414 3.52607H42.6477C42.6477 3.52607 42.6531 3.53689 42.6575 3.5387C42.6584 3.5387 42.6602 3.5387 42.662 3.5387L42.6665 3.53599V3.5414C42.6656 3.55313 42.6772 3.55674 42.6772 3.55674H42.6807L42.679 3.56125C42.679 3.56215 42.6647 3.59372 42.6307 3.60275C42.6245 3.60455 42.6191 3.60545 42.6129 3.60545L42.6111 3.60455Z" fill="black"/>
<path d="M42.2173 3.54354L42.2021 3.60668C42.2021 3.60668 42.1825 3.62473 42.1887 3.62833C42.1941 3.63194 42.2254 3.62202 42.2254 3.62202C42.2254 3.62202 42.2736 3.61661 42.2879 3.60217C42.2977 3.62473 42.32 3.62653 42.32 3.62653C42.32 3.62653 42.3218 3.61661 42.3183 3.6112C42.329 3.613 42.3379 3.60939 42.3379 3.60939C42.3379 3.60939 42.3442 3.59135 42.3299 3.58504C42.3317 3.57241 42.3379 3.56068 42.3147 3.56158C42.2977 3.57962 42.2557 3.60127 42.245 3.59406C42.2343 3.58684 42.287 3.56339 42.2727 3.53271" fill="#90857C"/>
<path d="M42.193 3.63194C42.193 3.63194 42.1877 3.63194 42.1868 3.63104C42.185 3.63014 42.185 3.62833 42.1841 3.62653C42.1841 3.62022 42.1948 3.60939 42.1993 3.60488L42.2145 3.54264L42.2207 3.54444L42.2055 3.60849C42.1984 3.61571 42.1912 3.62382 42.1921 3.62653C42.1939 3.62743 42.21 3.62473 42.2261 3.61931C42.227 3.61931 42.2734 3.613 42.2868 3.60037L42.2895 3.59766L42.2913 3.60127C42.2984 3.61751 42.3118 3.62202 42.3181 3.62382C42.3181 3.62112 42.3181 3.61661 42.3163 3.613L42.3136 3.60759H42.3199C42.327 3.61029 42.3342 3.60849 42.3368 3.60759C42.3377 3.60398 42.3395 3.59315 42.3306 3.58774H42.3288V3.58504C42.3288 3.58323 42.3288 3.58052 42.3297 3.57872C42.3306 3.57421 42.3315 3.5697 42.3297 3.5679C42.3288 3.56699 42.3252 3.56519 42.3181 3.56609C42.3011 3.58413 42.2573 3.60669 42.2448 3.59766C42.243 3.59586 42.2421 3.59406 42.2421 3.59315C42.2421 3.58864 42.2466 3.58413 42.2529 3.57782C42.2636 3.56699 42.2788 3.55166 42.2716 3.53542L42.277 3.53271C42.2868 3.55346 42.2689 3.5706 42.2573 3.58233C42.2538 3.58594 42.2484 3.59135 42.2484 3.59315C42.2564 3.59857 42.2966 3.58052 42.3145 3.56158L42.3154 3.56068C42.3243 3.56068 42.3306 3.56068 42.3333 3.56519C42.3368 3.5697 42.3359 3.57511 42.3351 3.58143C42.3351 3.58233 42.3351 3.58413 42.3351 3.58504C42.3458 3.59225 42.3449 3.60578 42.3422 3.6121L42.3413 3.6139C42.3413 3.6139 42.3351 3.61661 42.327 3.61661C42.327 3.61661 42.3252 3.61661 42.3243 3.61661C42.3252 3.62202 42.3243 3.62833 42.3243 3.62924V3.63194H42.3208C42.3199 3.63194 42.2993 3.63014 42.2877 3.60939C42.2698 3.62202 42.2287 3.62743 42.227 3.62743C42.2198 3.63014 42.2046 3.63465 42.1948 3.63465L42.193 3.63194Z" fill="black"/>
<path d="M136.16 0.0415039V17.8503L136.158 17.8548H108.022V0.0415039H136.16Z" fill="#39478E"/>
<path d="M136.16 15.9974V17.8502L136.158 17.8547H133.23L124.594 12.3863L123.727 11.8406L122.708 11.192L122.367 10.9737L121.329 10.3197L120.942 10.0743L120.617 9.86956L119.963 9.45821L119.754 9.3229L119.435 9.12354L116.368 7.17777L114.99 6.30456L108.022 1.89612V0.0414541L108.047 0.00537109L108.102 0.0414541H110.951L119.754 5.61086L120.617 6.16023L120.849 6.30456L122.228 7.17777L122.367 7.26617L122.897 7.60084L123.727 8.12946L123.869 8.22057L124.594 8.67702L125.298 9.12354L127.192 10.3197L128.572 11.192L136.16 15.9974Z" fill="#F9F4FF"/>
<path d="M136.164 17.8006L136.17 17.8647L134.286 17.8548L124.594 11.7189L123.766 11.192L123.727 11.1695L122.897 10.6418L122.391 10.3197L121.47 9.737L120.617 9.20026L120.496 9.12358L119.963 8.7844L119.754 8.64999L117.426 7.17781L116.051 6.3046L108.022 1.22141V0L108.047 0.00541245L108.102 0.0414954L118 6.3046L119.376 7.17781L119.754 7.41596L120.617 7.96622L120.942 8.17009L121.47 8.50566L122.447 9.12358L123.727 9.93365L123.869 10.0248L124.34 10.3197L124.594 10.483L125.716 11.192L136.164 17.8006Z" fill="#D12A2A"/>
<path d="M136.16 0.392411V2.24708L129.744 6.30461L128.367 7.17782L125.298 9.12359L124.594 9.56561L123.869 10.0248L123.727 10.115L123.404 10.3197L122.897 10.6418L122.367 10.9737L122.023 11.1921L120.617 12.0851L119.754 12.6327L111.501 17.8548H108.022V16.3465L116.163 11.1921L117.539 10.3197L119.435 9.12359L119.754 8.92063L119.963 8.78441L120.617 8.37217L120.942 8.1701L122.367 7.26622L122.506 7.17782L123.727 6.40384L123.883 6.30461L124.594 5.85538L133.782 0.0415039H135.94L136.16 0.392411Z" fill="#F9F4FF"/>
<path d="M136.089 0.484423L126.892 6.30461L125.514 7.17782L124.594 7.76146L123.869 8.22062L123.727 8.30992L122.447 9.12359L121.47 9.73701L120.942 10.0744L120.617 10.2773L120.553 10.3197L119.754 10.8276L119.172 11.1921L108.657 17.8548H108.022V17.0213L117.222 11.1921L118.6 10.3197L119.754 9.59087L119.963 9.45826L120.496 9.12359L120.617 9.04331L121.47 8.50567L122.897 7.60089L123.563 7.17782L123.727 7.07318L124.594 6.52472L124.942 6.30461L134.837 0.0415039H135.815H136.16L136.164 0.4312L136.089 0.484423Z" fill="#D12A2A"/>
<path d="M136.176 6.30469H108V11.1921H136.176V6.30469Z" fill="white"/>
<path d="M136.176 7.17773H108V10.3197H136.176V7.17773Z" fill="#D12A2A"/>
<path d="M123.727 0.0415039H120.617V17.8548H123.727V0.0415039Z" fill="#AE002D"/>
<path d="M123.721 11.1921H124.587V17.8548H119.746V11.1921H120.609V6.30461H119.746V0.0415039H124.587V6.30461H123.721V11.1921Z" fill="white"/>
<path d="M123.739 0.0415039H120.594V17.8548H123.739V0.0415039Z" fill="#D12A2A"/>
<path d="M81.1488 0.0415039H70V17.7204H81.1488V0.0415039Z" fill="#00884C"/>
<path d="M103.181 0.0415039H92.0322V17.7204H103.181V0.0415039Z" fill="#00884C"/>
<path d="M92.0322 0.0415039H81.1487V17.7204H92.0322V0.0415039Z" fill="white"/>
</svg>
