<svg width="24" height="24" viewBox="0 0 29 25" fill="none" xmlns="http://www.w3.org/2000/svg">
<g clip-path="url(#clip0_569_3260)">
<path d="M28.7571 0.75126C28.6407 0.775242 28.5243 0.79995 28.4081 0.825931L28.234 0.865901C28.1762 0.880617 28.1197 0.898786 28.0627 0.915682C27.9489 0.95002 27.8353 0.985629 27.7222 1.02215C27.6094 1.05994 27.4952 1.09391 27.3851 1.13806C27.2748 1.18239 27.1651 1.22781 27.0561 1.27432C26.9469 1.32083 26.8385 1.36843 26.7306 1.41694C26.623 1.466 26.5192 1.52395 26.4146 1.57864C26.3148 1.63187 26.2155 1.68601 26.1172 1.74106L25.9701 1.82427C25.9214 1.85262 25.8746 1.88441 25.827 1.91457C25.7402 1.97071 25.6433 2.00923 25.5491 2.05228C25.4614 2.09226 25.3248 2.12914 25.2522 2.19218C25.3823 2.08045 25.5188 1.97198 25.6593 1.86606C25.7295 1.81319 25.801 1.76087 25.873 1.70909C25.9461 1.65931 26.0214 1.61261 26.0962 1.56501C26.2467 1.47036 26.3994 1.3777 26.5524 1.28559C26.7064 1.19547 26.8652 1.1159 27.0204 1.03069C26.1565 1.43547 25.3253 1.89077 24.5132 2.36351C24.3701 2.44018 24.2321 2.5252 24.0919 2.60623C23.9518 2.68763 23.8107 2.76739 23.6689 2.84569C24.4418 2.28393 25.2593 1.77195 26.119 1.31756L26.3682 1.18748C26.4519 1.14515 26.5335 1.09827 26.6198 1.06066L27.1328 0.823569C27.2072 0.790503 27.2808 0.747989 27.3589 0.717467C27.4367 0.686036 27.5157 0.658783 27.5957 0.644612C27.7686 0.61409 27.944 0.547049 28.1131 0.497631L28.0802 0.499085C27.9719 0.505625 27.8501 0.535966 27.7449 0.55468C27.6087 0.578843 27.4726 0.606822 27.3373 0.638253C27.1637 0.682039 26.9948 0.740359 26.8251 0.798315C26.6566 0.858452 26.4864 0.916954 26.3249 0.99326C26.1617 1.06611 25.9995 1.14151 25.838 1.21727L25.7169 1.27432C25.6769 1.29376 25.6381 1.31538 25.5985 1.33573L25.3627 1.45946C24.3786 1.98415 23.4415 2.58189 22.5116 3.17617C22.5605 3.14438 22.6061 3.06553 22.6475 3.02229C22.6973 2.97269 22.7489 2.92454 22.8014 2.8773C22.932 2.75921 23.0761 2.64911 23.1995 2.52248C23.2361 2.48469 23.2744 2.44799 23.3139 2.41202C23.3543 2.37713 23.3964 2.3437 23.4393 2.31064C23.5252 2.24469 23.6149 2.18128 23.706 2.11969C23.8887 1.99651 24.0756 1.87805 24.2592 1.76941L24.5735 1.57646L24.7311 1.47999L24.8099 1.43166L24.8908 1.3866L25.5399 1.02578C25.9557 0.815938 26.3512 0.580842 26.7789 0.379356L27.0137 0.261445L27.1305 0.200581L27.2494 0.143715C26.2904 0.451848 25.3652 0.831745 24.4696 1.26415C24.2474 1.37606 24.022 1.4838 23.8026 1.60008C23.5994 1.71145 23.4065 1.85225 23.2092 1.97634C23.1026 2.04102 23.0013 2.11224 22.8985 2.18146L22.5903 2.38931C22.4881 2.45925 22.3833 2.52575 22.2833 2.59806L21.9826 2.81371L21.5674 3.11058L21.1619 3.41763C21.0275 3.52064 20.8891 3.61947 20.7573 3.72521L20.3605 4.04043C20.0219 4.25245 19.7854 4.44795 19.6145 4.51608C20.613 3.7283 21.5838 2.87876 22.6502 2.14985C22.7543 2.07845 22.8588 2.00686 22.9631 1.93528C23.0678 1.8637 23.1771 1.79775 23.2841 1.72853L23.6073 1.52232L23.769 1.41894C23.8235 1.38515 23.8796 1.35335 23.9349 1.32047L24.6011 0.927855C24.829 0.803584 25.0568 0.679495 25.284 0.55577C25.3661 0.508714 25.4534 0.470197 25.5392 0.428774L25.7976 0.306502L26.167 0.129362C26.2491 0.0937522 26.3496 0.0632296 26.425 0.0154472C26.4335 0.0101785 26.4431 0.00545473 26.4503 0.000549316C26.3891 0.0138121 26.3265 0.0365224 26.2646 0.0612311C26.2024 0.0855765 26.141 0.112829 26.0838 0.138264L25.7135 0.295601C25.5989 0.343747 25.4848 0.392983 25.3712 0.443309C25.2585 0.495088 25.1494 0.552499 25.0391 0.608094L24.7103 0.77833L24.5466 0.864629C24.4929 0.894425 24.4403 0.92622 24.3873 0.957105L23.7548 1.33228L23.1405 1.72798C22.9719 1.8319 22.812 1.946 22.6487 2.05628C22.4865 2.16765 22.3216 2.27575 22.1604 2.38822L21.6822 2.7305L21.4425 2.90038L21.209 3.07625C20.6985 3.32624 20.1607 3.6916 19.6448 4.08331C19.517 4.18287 19.3892 4.28243 19.2622 4.38145C19.1989 4.43123 19.1359 4.48083 19.0731 4.53025C19.0119 4.58094 18.9511 4.63144 18.8906 4.68159C18.6485 4.88144 18.4139 5.07529 18.1944 5.25643C18.2661 5.17104 18.3245 5.10454 18.3713 5.05113C18.4176 4.99753 18.4519 4.95665 18.4779 4.92468C18.5297 4.86073 18.5478 4.83202 18.5627 4.80713C18.5925 4.75717 18.6089 4.72247 18.8571 4.44867C18.8098 4.49028 18.5232 4.74209 18.2345 4.99572C17.9524 5.2548 17.6682 5.51587 17.6135 5.56602C17.5624 5.61162 17.5043 5.66085 17.4587 5.705C17.4127 5.75079 17.3657 5.7973 17.3192 5.84344C17.1337 6.02803 16.9373 6.22316 16.7552 6.4043C16.6634 6.49768 16.5679 6.59452 16.4717 6.69226C16.3756 6.79001 16.2763 6.89248 16.174 6.99295C16.1226 7.04327 16.0702 7.09433 16.0172 7.14629C15.9648 7.19879 15.9116 7.25221 15.8576 7.30635C15.7492 7.41445 15.6358 7.52455 15.5167 7.6361C15.6633 7.46623 15.7934 7.31543 15.9074 7.18335C16.0219 7.05127 16.1336 6.93644 16.2279 6.82943C16.4192 6.61705 16.5771 6.44499 16.7367 6.27421C16.9207 6.06346 17.0117 5.957 17.192 5.7417C17.1088 5.82582 16.8922 6.03548 16.6758 6.24514C16.4616 6.45644 16.2537 6.67191 16.1731 6.75603C14.9748 8.02817 13.8395 9.37789 12.7754 10.7461C12.2847 11.3742 11.802 12.0154 11.3279 12.6509C11.211 12.8042 11.0994 12.9621 10.9845 13.1149C10.9764 13.1264 10.9081 13.2225 10.7889 13.3909C10.7295 13.4754 10.6575 13.5778 10.5738 13.697C10.4918 13.8171 10.3985 13.9539 10.2951 14.1058C10.1919 14.2579 10.0784 14.4252 9.95586 14.606C9.03009 15.9702 8.18716 17.4061 7.32582 18.8194C7.23505 18.9683 7.02085 18.9705 6.92647 18.8237C6.72706 18.5136 6.4311 18.1008 6.38472 18.0238C6.14327 17.6224 5.91029 17.216 5.68598 16.8049C5.27814 16.0576 4.90314 15.2933 4.54457 14.5211C4.18653 13.8186 3.65526 13.2746 3.06714 12.9548C2.47902 12.6369 1.83008 12.5479 1.24918 12.7859C0.653658 13.0299 0.243833 13.5786 0.0808768 14.2806C-0.0847859 14.9817 0.00436157 15.8361 0.389645 16.6561L0.392893 16.6626C0.394698 16.6664 0.412022 16.704 0.444866 16.7753C1.05861 18.1044 1.72451 19.4115 2.4893 20.6596C3.19905 21.8178 3.99452 23.0335 4.95692 23.9969C5.224 24.2642 5.52158 24.5027 5.8576 24.6761C6.61264 25.0656 7.53047 25.0976 8.32846 24.808C9.71729 24.304 10.4496 22.9497 11.1303 21.7252C11.5199 21.0243 11.9095 20.3235 12.2991 19.6226C12.4933 19.2734 12.673 18.91 12.8836 18.5708C13.0506 18.3021 13.2689 18.0605 13.4451 17.7905C13.9953 16.9477 14.5596 16.1116 15.1558 15.3009C15.1719 15.2791 15.1878 15.2573 15.204 15.2357C16.1742 13.9243 17.168 12.612 18.2282 11.4033C18.8515 10.6827 19.5096 9.98943 20.1595 9.30067C19.6949 9.63351 19.8023 9.56357 19.6222 9.61753C19.7411 9.49053 19.8608 9.37353 19.9781 9.25907C20.095 9.14443 20.2093 9.03215 20.3222 8.92132C20.4172 8.83084 20.5671 8.70221 20.6976 8.58739C20.8313 8.46911 20.9668 8.34939 21.1011 8.23057C21.6306 7.7789 22.1656 7.32706 22.7106 6.90574C22.3705 7.13993 22.038 7.38829 21.7092 7.64337C21.3738 7.92498 21.0331 8.20004 20.7052 8.49582C20.3856 8.77052 20.0777 9.06285 19.7659 9.35045C19.611 9.49562 19.4589 9.64532 19.307 9.7943C19.2496 9.85099 19.2102 9.91821 19.1536 9.97671C19.0803 10.0507 19.0097 10.1277 18.9395 10.2051C18.778 10.3811 18.6125 10.5617 18.45 10.7392C17.796 11.4849 17.151 12.2637 16.527 13.0453C15.8867 13.8505 15.2444 14.6627 14.5913 15.4726C15.1443 14.7186 15.6996 13.9674 16.2752 13.2366L16.4892 12.961C16.5607 12.8693 16.6347 12.7799 16.7071 12.6892L17.1432 12.1465C17.441 11.7923 17.7324 11.4314 18.0376 11.0859L18.2606 10.8306L18.372 10.7029L18.4848 10.577C18.669 10.3799 18.76 10.2803 18.9397 10.0788C19.0944 9.91694 19.2494 9.75488 19.4042 9.59282C19.4975 9.49616 19.5443 9.44783 19.6377 9.35118C19.685 9.30358 19.7087 9.27996 19.7559 9.23236C19.8014 9.18821 19.8242 9.16623 19.8696 9.12208C20.0187 8.97946 20.1759 8.81522 20.3076 8.69713C20.9585 8.13064 21.6111 7.57288 22.2855 7.05581L21.5553 7.4913C21.7912 7.28854 22.0267 7.08524 22.264 6.88485C21.2224 7.63465 20.2183 8.4693 19.2494 9.3579C19.8862 8.72565 20.5368 8.11066 21.2137 7.53763C21.4432 7.33396 21.6825 7.14538 21.9182 6.95207C22.1404 6.76548 22.3791 6.60887 22.607 6.43609C22.5758 6.45953 22.528 6.47116 22.4935 6.49223L22.3618 6.57363L22.0913 6.73696C21.8524 6.92627 21.6129 7.11595 21.3738 7.30544C21.1388 7.5022 20.9008 7.69479 20.6676 7.89264C20.5491 7.99547 20.4273 8.10121 20.3058 8.20658C20.1919 8.30687 20.0718 8.40607 19.955 8.51308C19.8424 8.62209 19.728 8.7331 19.6087 8.84883C19.489 8.9642 19.3636 9.08302 19.2366 9.21655C19.3665 9.04959 19.5035 8.88989 19.6289 8.74563C19.7572 8.60029 19.8861 8.44259 20.0059 8.32213C20.147 8.18387 20.2897 8.04398 20.4321 7.90463C20.504 7.83577 20.5745 7.76528 20.6474 7.69878C20.7209 7.63301 20.794 7.56743 20.8663 7.50257C21.0114 7.3743 21.1574 7.24512 21.3057 7.11867C21.4566 6.99604 21.6076 6.87322 21.7587 6.75058C21.8345 6.68972 21.9092 6.6274 21.9854 6.56781C22.062 6.50913 22.1387 6.45063 22.2153 6.39231C22.3676 6.27494 22.5192 6.15794 22.6695 6.04202C22.8265 5.9272 22.979 5.81038 23.1286 5.69101C23.2036 5.63215 23.2764 5.5691 23.3514 5.51151C23.4263 5.45337 23.5007 5.39451 23.5745 5.33473C23.7228 5.21646 23.8665 5.08946 24.0145 4.9681C24.163 4.84765 24.3108 4.72283 24.4596 4.59329C24.3288 4.6676 24.2061 4.73718 24.0664 4.8164C23.9968 4.85655 23.9212 4.89543 23.841 4.94448C23.7605 4.99299 23.6728 5.04586 23.575 5.10509C24.2559 4.55532 24.9552 4.02662 25.6864 3.55153C25.8115 3.46323 25.9414 3.38619 26.0706 3.30625L26.4595 3.06625C26.5878 2.99122 26.7221 2.92436 26.8544 2.85223C26.9206 2.81662 26.9866 2.78028 27.0518 2.74304C27.1169 2.70543 27.181 2.66655 27.2454 2.63131C27.1689 2.6542 27.0949 2.68472 27.0206 2.71488L26.7986 2.80736L26.5783 2.90365C26.5048 2.93581 26.4319 2.96905 26.361 3.00757C26.2181 3.08188 26.076 3.15764 25.9345 3.23395C25.8642 3.27283 25.7925 3.30862 25.7234 3.3504L25.5162 3.47522C25.363 3.56788 25.2086 3.65617 25.0543 3.74502C24.9023 3.83931 24.7496 3.93142 24.5959 4.02172L24.3647 4.15653L24.1366 4.2986C23.9841 4.39271 23.8306 4.48573 23.6761 4.57821L24.0744 4.30042C24.2075 4.20849 24.3384 4.11111 24.4752 4.02572C24.7469 3.85166 25.0133 3.66562 25.2901 3.50374C25.3935 3.43997 25.4903 3.38038 25.581 3.32442C25.6263 3.29608 25.67 3.26865 25.7126 3.24212C25.7557 3.21741 25.7976 3.19343 25.838 3.17017C26.0001 3.07697 26.141 2.99376 26.2682 2.91727C26.394 2.83842 26.5102 2.77738 26.6196 2.71433C26.7289 2.65184 26.8325 2.59079 26.9385 2.5272C26.991 2.49613 27.0438 2.4618 27.0998 2.43073C27.1559 2.40002 27.2137 2.36823 27.2736 2.33553C27.3934 2.26994 27.5222 2.19999 27.6648 2.12514C27.4538 2.20072 27.2387 2.28629 27.0372 2.36932C26.8385 2.46325 26.6479 2.55336 26.4646 2.64021C26.3476 2.69308 26.2343 2.75558 26.1201 2.81553L25.7772 2.99449C25.7202 3.02465 25.6622 3.05244 25.6059 3.08424L25.4374 3.18035L25.0997 3.3713C25.8481 2.86113 26.6365 2.40965 27.4611 2.02485L27.6276 1.94527L27.7112 1.90567L27.7962 1.87024C27.827 1.85734 28.0578 1.76614 28.0461 1.75178C28.0149 1.71381 27.7985 1.81846 27.7568 1.83172C27.7022 1.84771 27.6486 1.86788 27.5951 1.88804L27.4345 1.94782L27.1135 2.06736L26.9529 2.12714L26.7952 2.19472L26.4797 2.3299C26.3751 2.37604 26.2684 2.41728 26.1654 2.46761L25.8561 2.61713L25.627 2.72778C25.5505 2.7643 25.4742 2.801 25.4 2.84242L24.9514 3.08351C25.6972 2.61259 26.4786 2.19418 27.3012 1.87151L27.5293 1.78376C27.3302 1.83063 27.1545 1.87605 26.9969 1.91857C26.9576 1.92929 26.9193 1.93982 26.8821 1.95C26.8457 1.96199 26.8101 1.9738 26.7755 1.98506C26.7064 2.00814 26.6411 2.02976 26.5788 2.05047C26.3289 2.13459 26.1188 2.20054 25.8961 2.29229C25.9903 2.25686 26.0854 2.16311 26.1729 2.11333L26.4678 1.93583C26.5595 1.88041 26.6524 1.82664 26.7464 1.7734C26.8399 1.71926 26.9383 1.67566 27.0346 1.62624L27.345 1.46963L27.5 1.38951C27.5517 1.36244 27.6051 1.34027 27.6574 1.31502C27.868 1.21746 28.0777 1.1139 28.2892 1.01252L28.6378 0.858452C28.749 0.80849 28.9075 0.763614 29.0018 0.687671C28.9228 0.70057 28.8398 0.735272 28.7589 0.751986L28.7571 0.75126Z" fill="#199B00"/>
</g>
<defs>
<clipPath id="clip0_569_3260">
<rect width="29" height="25" fill="white"/>
</clipPath>
</defs>
</svg>
