<svg width="15" height="15" viewBox="0 0 15 15" fill="none" xmlns="http://www.w3.org/2000/svg">
<path d="M7.20819 14.5248C3.23415 14.5248 0 11.267 0 7.26194C0 3.25689 3.23327 0 7.20819 0C11.1831 0 14.4164 3.25778 14.4164 7.26283C14.4164 11.2679 11.1831 14.5257 7.20819 14.5257V14.5248ZM7.20819 0.636076C3.58202 0.636076 0.631292 3.60828 0.631292 7.26283C0.631292 10.9174 3.58114 13.8896 7.20819 13.8896C10.8352 13.8896 13.7851 10.9174 13.7851 7.26283C13.7851 3.60828 10.8344 0.636076 7.20819 0.636076Z" fill="#667085"/>
<path d="M9.00777 11.2556H5.52199C4.33622 11.2556 3.37207 10.2842 3.37207 9.0894V5.43575C3.37207 4.24099 4.33622 3.26953 5.52199 3.26953H9.00777C10.1935 3.26953 11.1577 4.24099 11.1577 5.43575V9.0894C11.1577 10.2842 10.1935 11.2556 9.00777 11.2556ZM5.52199 3.90561C4.68409 3.90561 4.00336 4.59239 4.00336 5.43575V9.0894C4.00336 9.93365 4.68498 10.6195 5.52199 10.6195H9.00777C9.84567 10.6195 10.5264 9.93276 10.5264 9.0894V5.43575C10.5264 4.5915 9.84478 3.90561 9.00777 3.90561H5.52199Z" fill="#667085"/>
<path d="M7.23753 9.28604C6.13035 9.28604 5.22888 8.37863 5.22888 7.26216C5.22888 6.14569 6.12946 5.23828 7.23753 5.23828C8.3456 5.23828 9.24618 6.14569 9.24618 7.26216C9.24618 8.37863 8.3456 9.28604 7.23753 9.28604ZM7.23753 5.87525C6.47822 5.87525 5.86017 6.49798 5.86017 7.26305C5.86017 8.02812 6.47822 8.65085 7.23753 8.65085C7.99685 8.65085 8.6149 8.02812 8.6149 7.26305C8.6149 6.49798 7.99685 5.87525 7.23753 5.87525Z" fill="#667085"/>
<path d="M9.2678 5.55767C9.52917 5.55767 9.74105 5.34419 9.74105 5.08084C9.74105 4.81749 9.52917 4.604 9.2678 4.604C9.00643 4.604 8.79456 4.81749 8.79456 5.08084C8.79456 5.34419 9.00643 5.55767 9.2678 5.55767Z" fill="#667085"/>
</svg>
