<svg width="15" height="15" viewBox="0 0 15 15" fill="none" xmlns="http://www.w3.org/2000/svg">
<path d="M7.20819 14.5248C3.23415 14.5248 0 11.267 0 7.26194C0 3.25689 3.23326 0 7.20819 0C11.1831 0 14.4164 3.25778 14.4164 7.26283C14.4164 11.2679 11.1831 14.5257 7.20819 14.5257V14.5248ZM7.20819 0.636076C3.58202 0.636076 0.63129 3.60828 0.63129 7.26283C0.63129 10.9174 3.58114 13.8896 7.20819 13.8896C10.8352 13.8896 13.7851 10.9174 13.7851 7.26283C13.7851 3.60828 10.8344 0.636076 7.20819 0.636076Z" fill="#667085"/>
<path d="M5.07397 5.52197H3.29224V11.2769H5.07397V5.52197Z" fill="#667085"/>
<path d="M4.58973 4.93122C5.13305 4.70447 5.39105 4.07687 5.166 3.52944C4.94096 2.98201 4.31808 2.72205 3.77477 2.9488C3.23146 3.17556 2.97345 3.80315 3.1985 4.35058C3.42355 4.89801 4.04642 5.15797 4.58973 4.93122Z" fill="#667085"/>
<path d="M11.5664 7.60794C11.5664 6.50214 10.7453 5.53602 9.67782 5.45684C9.55156 5.44706 9.29728 5.44706 9.17102 5.45418C8.70749 5.47908 8.2934 5.70772 7.9676 6.00752V5.43994H6.02075V11.3594H7.9676V7.79209C7.9676 6.73967 9.61955 6.71743 9.61955 7.96022V11.3603H11.5664V7.60794Z" fill="#667085"/>
</svg>
