<svg width="987" height="207" viewBox="0 0 987 207" fill="none" xmlns="http://www.w3.org/2000/svg">
<path d="M715.145 18.9652C714.969 18.9652 714.817 18.9415 714.653 18.9177C714.489 18.882 714.336 18.8345 714.172 18.7632C714.02 18.7038 713.88 18.6206 713.739 18.5256C713.599 18.4424 713.47 18.3236 713.353 18.2166C713.235 18.0978 713.13 17.9671 713.036 17.8245C712.954 17.6701 712.872 17.5394 712.814 17.373C712.744 17.2185 712.685 17.0641 712.662 16.8977C712.626 16.7314 712.615 16.565 712.615 16.3987C712.615 15.7214 712.884 15.0679 713.353 14.5926C713.47 14.4856 713.599 14.3668 713.739 14.2718C713.868 14.1886 714.02 14.1054 714.172 14.046C714.336 13.9747 714.489 13.9391 714.653 13.8915C714.969 13.8321 715.309 13.8321 715.636 13.8915C715.8 13.9272 715.953 13.9628 716.105 14.046C716.257 14.1054 716.398 14.1886 716.538 14.2718C716.691 14.3668 716.808 14.4856 716.937 14.5926C717.042 14.6995 717.159 14.8421 717.241 14.9847C717.323 15.1273 717.417 15.2699 717.475 15.4243C717.534 15.5907 717.581 15.7452 717.616 15.9115C717.639 16.0779 717.663 16.2442 717.663 16.4106C717.663 16.5769 717.639 16.7433 717.616 16.9096C717.581 17.076 717.534 17.2304 717.475 17.3849C717.417 17.5512 717.323 17.6819 717.241 17.8364C717.159 17.979 717.042 18.0978 716.937 18.2285C716.456 18.6919 715.812 18.9652 715.145 18.9652Z" fill="#FFCE00"/>
<path d="M974.316 102.259C974.316 100.833 975.428 99.7043 976.834 99.7043C978.227 99.7043 979.34 100.833 979.34 102.259C979.34 103.673 978.227 104.802 976.834 104.802C975.44 104.802 974.316 103.661 974.316 102.259ZM974.316 88.0835C974.316 86.6696 975.428 85.5289 976.834 85.5289C978.227 85.5289 979.34 86.6696 979.34 88.0835C979.34 89.4856 978.227 90.6382 976.834 90.6382C975.44 90.6382 974.316 89.4975 974.316 88.0835ZM974.316 73.92C974.316 72.5179 975.428 71.3654 976.834 71.3654C978.227 71.3654 979.34 72.5061 979.34 73.92C979.34 75.3221 978.227 76.4747 976.834 76.4747C975.44 76.4747 974.316 75.3221 974.316 73.92ZM974.316 59.7447C974.316 58.3426 975.428 57.19 976.834 57.19C978.227 57.19 979.34 58.3307 979.34 59.7447C979.34 61.1467 978.227 62.2993 976.834 62.2993C975.44 62.2993 974.316 61.1586 974.316 59.7447ZM974.316 45.5811C974.316 44.179 975.428 43.0265 976.834 43.0265C978.227 43.0265 979.34 44.1672 979.34 45.5811C979.34 47.007 978.227 48.1358 976.834 48.1358C975.44 48.1358 974.316 47.007 974.316 45.5811ZM972.149 32.8435C971.575 31.5721 972.114 30.0512 973.379 29.4571C974.643 28.8749 976.131 29.4333 976.717 30.7047C977.29 31.988 976.752 33.5089 975.487 34.0911C975.147 34.2575 974.784 34.3288 974.433 34.3288C973.484 34.3288 972.582 33.7822 972.149 32.8435ZM964.114 23.1714C962.954 22.3753 962.673 20.7831 963.458 19.6187C964.255 18.4542 965.812 18.1691 966.96 18.9652C968.108 19.7613 968.401 21.3535 967.616 22.5179C967.124 23.2427 966.339 23.6111 965.543 23.6111C965.051 23.623 964.547 23.4922 964.114 23.1714ZM952.343 19.0127C950.961 18.9176 949.907 17.7056 950.001 16.2917C950.094 14.8896 951.301 13.8202 952.694 13.9152C954.077 14.0103 955.131 15.2342 955.025 16.6481C954.943 17.9908 953.831 19.0246 952.519 19.0246C952.46 19.0246 952.413 19.0127 952.343 19.0127ZM936.04 16.4105C936.04 14.9965 937.164 13.8558 938.558 13.8558C939.94 13.8558 941.076 14.9965 941.076 16.4105C941.076 17.8126 939.94 18.9652 938.558 18.9652C937.164 18.9652 936.04 17.8245 936.04 16.4105ZM922.078 16.4105C922.078 14.9965 923.191 13.8558 924.597 13.8558C925.979 13.8558 927.103 14.9965 927.103 16.4105C927.103 17.8126 925.99 18.9652 924.597 18.9652C923.203 18.9652 922.078 17.8245 922.078 16.4105ZM908.117 16.4105C908.117 14.9965 909.23 13.8558 910.635 13.8558C912.018 13.8558 913.154 14.9965 913.154 16.4105C913.154 17.8126 912.029 18.9652 910.635 18.9652C909.23 18.9652 908.117 17.8245 908.117 16.4105ZM894.144 16.4105C894.144 14.9965 895.269 13.8558 896.663 13.8558C898.045 13.8558 899.181 14.9965 899.181 16.4105C899.181 17.8126 898.056 18.9652 896.663 18.9652C895.281 18.9652 894.144 17.8245 894.144 16.4105ZM880.183 16.4105C880.183 14.9965 881.308 13.8558 882.702 13.8558C884.084 13.8558 885.22 14.9965 885.22 16.4105C885.22 17.8126 884.095 18.9652 882.702 18.9652C881.319 18.9652 880.183 17.8245 880.183 16.4105ZM866.222 16.4105C866.222 14.9965 867.347 13.8558 868.74 13.8558C870.122 13.8558 871.259 14.9965 871.259 16.4105C871.259 17.8126 870.134 18.9652 868.74 18.9652C867.347 18.9652 866.222 17.8245 866.222 16.4105ZM852.261 16.4105C852.261 14.9965 853.385 13.8558 854.779 13.8558C856.161 13.8558 857.286 14.9965 857.286 16.4105C857.286 17.8126 856.173 18.9652 854.779 18.9652C853.397 18.9652 852.261 17.8245 852.261 16.4105ZM838.3 16.4105C838.3 14.9965 839.436 13.8558 840.818 13.8558C842.2 13.8558 843.336 14.9965 843.336 16.4105C843.336 17.8126 842.212 18.9652 840.818 18.9652C839.424 18.9652 838.3 17.8245 838.3 16.4105ZM824.339 16.4105C824.339 14.9965 825.463 13.8558 826.857 13.8558C828.239 13.8558 829.375 14.9965 829.375 16.4105C829.375 17.8126 828.251 18.9652 826.857 18.9652C825.463 18.9652 824.339 17.8245 824.339 16.4105ZM810.366 16.4105C810.366 14.9965 811.49 13.8558 812.884 13.8558C814.266 13.8558 815.402 14.9965 815.402 16.4105C815.402 17.8126 814.278 18.9652 812.884 18.9652C811.502 18.9652 810.366 17.8245 810.366 16.4105ZM796.405 16.4105C796.405 14.9965 797.529 13.8558 798.923 13.8558C800.329 13.8558 801.441 14.9965 801.441 16.4105C801.441 17.8126 800.329 18.9652 798.923 18.9652C797.529 18.9652 796.405 17.8245 796.405 16.4105ZM782.444 16.4105C782.444 14.9965 783.568 13.8558 784.962 13.8558C786.344 13.8558 787.468 14.9965 787.468 16.4105C787.468 17.8126 786.356 18.9652 784.962 18.9652C783.58 18.9652 782.444 17.8245 782.444 16.4105ZM768.483 16.4105C768.483 14.9965 769.607 13.8558 771.001 13.8558C772.395 13.8558 773.519 14.9965 773.519 16.4105C773.519 17.8126 772.395 18.9652 771.001 18.9652C769.607 18.9652 768.483 17.8245 768.483 16.4105ZM754.51 16.4105C754.51 14.9965 755.634 13.8558 757.028 13.8558C758.41 13.8558 759.546 14.9965 759.546 16.4105C759.546 17.8126 758.422 18.9652 757.028 18.9652C755.646 18.9652 754.51 17.8245 754.51 16.4105ZM740.549 16.4105C740.549 14.9965 741.673 13.8558 743.067 13.8558C744.449 13.8558 745.585 14.9965 745.585 16.4105C745.585 17.8126 744.461 18.9652 743.067 18.9652C741.685 18.9652 740.549 17.8245 740.549 16.4105ZM726.599 16.4105C726.599 14.9965 727.712 13.8558 729.117 13.8558C730.499 13.8558 731.636 14.9965 731.636 16.4105C731.636 17.8126 730.511 18.9652 729.117 18.9652C727.712 18.9652 726.599 17.8245 726.599 16.4105Z" fill="#FFCE00"/>
<path d="M976.834 118.989C976.658 118.989 976.506 118.977 976.33 118.942C976.166 118.918 976.014 118.87 975.862 118.799C975.721 118.74 975.569 118.644 975.428 118.561C975.288 118.466 975.159 118.359 975.053 118.24C974.585 117.777 974.315 117.124 974.315 116.446C974.315 115.769 974.585 115.115 975.053 114.64C975.627 114.046 976.506 113.773 977.326 113.939C977.49 113.963 977.642 114.01 977.794 114.082C977.946 114.153 978.087 114.236 978.227 114.319C978.368 114.414 978.497 114.521 978.602 114.64C979.082 115.115 979.34 115.769 979.34 116.446C979.34 117.124 979.082 117.765 978.602 118.24C978.145 118.728 977.501 118.989 976.834 118.989Z" fill="#FFCE00"/>
<path d="M754.568 207H31.7639C14.2539 207 0 192.539 0 174.776V89.3312H11.3258V174.776C11.3258 186.206 20.4966 195.51 31.7639 195.51H754.568V207Z" fill="#FFD412"/>
<path d="M950.739 203.162H31.7639C16.327 203.162 3.77139 190.424 3.77139 174.764V42.884C3.77139 27.2233 16.327 14.4857 31.7639 14.4857H702.074V18.3117H31.7639C18.4118 18.3117 7.55448 29.3264 7.55448 42.8721V174.752C7.55448 188.298 18.4118 199.312 31.7639 199.312H950.739C964.091 199.312 974.948 188.298 974.948 174.752V144.785H978.719V174.752C978.719 190.424 966.164 203.162 950.739 203.162Z" fill="#231F20"/>
<path d="M685.7 32.8198C685.255 32.8198 684.821 32.6653 684.458 32.3445C683.673 31.6553 683.591 30.4433 684.271 29.6472L695.655 16.3987L684.247 3.17383C683.556 2.37773 683.638 1.16575 684.423 0.476588C685.208 -0.224458 686.402 -0.141283 687.082 0.65482L700.668 16.3987L687.117 32.1662C686.754 32.594 686.227 32.8198 685.7 32.8198Z" fill="#FFE330"/>
<path d="M976.834 146.567C971.223 146.567 966.667 141.945 966.667 136.254C966.667 130.562 971.223 125.94 976.834 125.94C982.444 125.94 987 130.562 987 136.254C987 141.945 982.444 146.567 976.834 146.567ZM976.834 128.483C972.617 128.483 969.185 131.964 969.185 136.242C969.185 140.519 972.617 144.001 976.834 144.001C981.05 144.001 984.482 140.519 984.482 136.242C984.482 131.976 981.05 128.483 976.834 128.483Z" fill="#231F20"/>
<path d="M976.834 140.531C979.162 140.531 981.05 138.616 981.05 136.254C981.05 133.891 979.162 131.976 976.834 131.976C974.505 131.976 972.617 133.891 972.617 136.254C972.617 138.616 974.505 140.531 976.834 140.531Z" fill="#FFE330"/>
<path d="M689.6 32.4039C689.26 32.4039 688.909 32.2851 688.628 32.0356C688.007 31.489 687.949 30.5384 688.487 29.9205L700.106 16.3987L688.452 2.88867C687.913 2.25892 687.972 1.32023 688.593 0.773654C689.202 0.227076 690.139 0.286487 690.677 0.91624L703.175 15.4006C703.666 15.9709 703.666 16.8145 703.175 17.373L690.701 31.8811C690.42 32.2257 690.01 32.4039 689.6 32.4039Z" fill="#231F20"/>
<path d="M115.593 100V81.824H108.425V77.6H127.945V81.824H120.777V100H115.593ZM136.824 100.256C134.989 100.256 133.357 99.872 131.928 99.104C130.52 98.336 129.4 97.2907 128.568 95.968C127.757 94.624 127.352 93.0987 127.352 91.392C127.352 89.664 127.757 88.1387 128.568 86.816C129.4 85.472 130.52 84.4267 131.928 83.68C133.357 82.912 134.989 82.528 136.824 82.528C138.637 82.528 140.259 82.912 141.688 83.68C143.117 84.4267 144.237 85.4613 145.048 86.784C145.859 88.1067 146.264 89.6427 146.264 91.392C146.264 93.0987 145.859 94.624 145.048 95.968C144.237 97.2907 143.117 98.336 141.688 99.104C140.259 99.872 138.637 100.256 136.824 100.256ZM136.824 96.16C137.656 96.16 138.403 95.968 139.064 95.584C139.725 95.2 140.248 94.656 140.632 93.952C141.016 93.2267 141.208 92.3733 141.208 91.392C141.208 90.3893 141.016 89.536 140.632 88.832C140.248 88.128 139.725 87.584 139.064 87.2C138.403 86.816 137.656 86.624 136.824 86.624C135.992 86.624 135.245 86.816 134.584 87.2C133.923 87.584 133.389 88.128 132.984 88.832C132.6 89.536 132.408 90.3893 132.408 91.392C132.408 92.3733 132.6 93.2267 132.984 93.952C133.389 94.656 133.923 95.2 134.584 95.584C135.245 95.968 135.992 96.16 136.824 96.16ZM168.839 100.256C167.389 100.256 166.119 99.936 165.031 99.296C163.943 98.656 163.09 97.6853 162.471 96.384C161.874 95.0613 161.575 93.3973 161.575 91.392C161.575 89.3653 161.863 87.7013 162.439 86.4C163.015 85.0987 163.847 84.128 164.935 83.488C166.023 82.848 167.325 82.528 168.839 82.528C170.461 82.528 171.911 82.9013 173.191 83.648C174.493 84.3733 175.517 85.3973 176.263 86.72C177.031 88.0427 177.415 89.6 177.415 91.392C177.415 93.2053 177.031 94.7733 176.263 96.096C175.517 97.4187 174.493 98.4427 173.191 99.168C171.911 99.8933 170.461 100.256 168.839 100.256ZM158.663 106.208V82.784H163.431V86.304L163.335 91.424L163.655 96.512V106.208H158.663ZM167.975 96.16C168.807 96.16 169.543 95.968 170.183 95.584C170.845 95.2 171.367 94.656 171.751 93.952C172.157 93.2267 172.359 92.3733 172.359 91.392C172.359 90.3893 172.157 89.536 171.751 88.832C171.367 88.128 170.845 87.584 170.183 87.2C169.543 86.816 168.807 86.624 167.975 86.624C167.143 86.624 166.397 86.816 165.735 87.2C165.074 87.584 164.551 88.128 164.167 88.832C163.783 89.536 163.591 90.3893 163.591 91.392C163.591 92.3733 163.783 93.2267 164.167 93.952C164.551 94.656 165.074 95.2 165.735 95.584C166.397 95.968 167.143 96.16 167.975 96.16ZM180.757 100V82.784H185.525V87.648L184.853 86.24C185.365 85.024 186.186 84.1067 187.317 83.488C188.448 82.848 189.824 82.528 191.445 82.528V87.136C191.232 87.1147 191.04 87.104 190.869 87.104C190.698 87.0827 190.517 87.072 190.325 87.072C188.96 87.072 187.85 87.4667 186.997 88.256C186.165 89.024 185.749 90.2293 185.749 91.872V100H180.757ZM202.48 100.256C200.646 100.256 199.014 99.872 197.584 99.104C196.176 98.336 195.056 97.2907 194.224 95.968C193.414 94.624 193.008 93.0987 193.008 91.392C193.008 89.664 193.414 88.1387 194.224 86.816C195.056 85.472 196.176 84.4267 197.584 83.68C199.014 82.912 200.646 82.528 202.48 82.528C204.294 82.528 205.915 82.912 207.344 83.68C208.774 84.4267 209.894 85.4613 210.704 86.784C211.515 88.1067 211.92 89.6427 211.92 91.392C211.92 93.0987 211.515 94.624 210.704 95.968C209.894 97.2907 208.774 98.336 207.344 99.104C205.915 99.872 204.294 100.256 202.48 100.256ZM202.48 96.16C203.312 96.16 204.059 95.968 204.72 95.584C205.382 95.2 205.904 94.656 206.288 93.952C206.672 93.2267 206.864 92.3733 206.864 91.392C206.864 90.3893 206.672 89.536 206.288 88.832C205.904 88.128 205.382 87.584 204.72 87.2C204.059 86.816 203.312 86.624 202.48 86.624C201.648 86.624 200.902 86.816 200.24 87.2C199.579 87.584 199.046 88.128 198.64 88.832C198.256 89.536 198.064 90.3893 198.064 91.392C198.064 92.3733 198.256 93.2267 198.64 93.952C199.046 94.656 199.579 95.2 200.24 95.584C200.902 95.968 201.648 96.16 202.48 96.16ZM219.46 100L212.228 82.784H217.38L223.396 97.6H220.836L227.076 82.784H231.876L224.612 100H219.46ZM233.913 100V82.784H238.905V100H233.913ZM236.409 80.384C235.492 80.384 234.745 80.1173 234.169 79.584C233.593 79.0507 233.305 78.3893 233.305 77.6C233.305 76.8107 233.593 76.1493 234.169 75.616C234.745 75.0827 235.492 74.816 236.409 74.816C237.327 74.816 238.073 75.072 238.649 75.584C239.225 76.0747 239.513 76.7147 239.513 77.504C239.513 78.336 239.225 79.0293 238.649 79.584C238.095 80.1173 237.348 80.384 236.409 80.384ZM250.93 100.256C249.309 100.256 247.848 99.8933 246.546 99.168C245.245 98.4213 244.21 97.3867 243.442 96.064C242.696 94.7413 242.322 93.184 242.322 91.392C242.322 89.5787 242.696 88.0107 243.442 86.688C244.21 85.3653 245.245 84.3413 246.546 83.616C247.848 82.8907 249.309 82.528 250.93 82.528C252.381 82.528 253.65 82.848 254.738 83.488C255.826 84.128 256.669 85.0987 257.266 86.4C257.864 87.7013 258.162 89.3653 258.162 91.392C258.162 93.3973 257.874 95.0613 257.298 96.384C256.722 97.6853 255.89 98.656 254.802 99.296C253.736 99.936 252.445 100.256 250.93 100.256ZM251.794 96.16C252.605 96.16 253.341 95.968 254.002 95.584C254.664 95.2 255.186 94.656 255.57 93.952C255.976 93.2267 256.178 92.3733 256.178 91.392C256.178 90.3893 255.976 89.536 255.57 88.832C255.186 88.128 254.664 87.584 254.002 87.2C253.341 86.816 252.605 86.624 251.794 86.624C250.962 86.624 250.216 86.816 249.554 87.2C248.893 87.584 248.36 88.128 247.954 88.832C247.57 89.536 247.378 90.3893 247.378 91.392C247.378 92.3733 247.57 93.2267 247.954 93.952C248.36 94.656 248.893 95.2 249.554 95.584C250.216 95.968 250.962 96.16 251.794 96.16ZM256.306 100V96.48L256.402 91.36L256.082 86.272V76.256H261.074V100H256.306ZM274.239 100.256C272.276 100.256 270.548 99.872 269.055 99.104C267.583 98.336 266.441 97.2907 265.631 95.968C264.82 94.624 264.415 93.0987 264.415 91.392C264.415 89.664 264.809 88.1387 265.599 86.816C266.409 85.472 267.508 84.4267 268.895 83.68C270.281 82.912 271.849 82.528 273.599 82.528C275.284 82.528 276.799 82.8907 278.143 83.616C279.508 84.32 280.585 85.344 281.375 86.688C282.164 88.0107 282.559 89.6 282.559 91.456C282.559 91.648 282.548 91.872 282.527 92.128C282.505 92.3627 282.484 92.5867 282.463 92.8H268.479V89.888H279.839L277.919 90.752C277.919 89.856 277.737 89.0773 277.375 88.416C277.012 87.7547 276.511 87.2427 275.871 86.88C275.231 86.496 274.484 86.304 273.631 86.304C272.777 86.304 272.02 86.496 271.359 86.88C270.719 87.2427 270.217 87.7653 269.855 88.448C269.492 89.1093 269.311 89.8987 269.311 90.816V91.584C269.311 92.5227 269.513 93.3547 269.919 94.08C270.345 94.784 270.932 95.328 271.679 95.712C272.447 96.0747 273.343 96.256 274.367 96.256C275.284 96.256 276.084 96.1173 276.767 95.84C277.471 95.5627 278.111 95.1467 278.687 94.592L281.343 97.472C280.553 98.368 279.561 99.0613 278.367 99.552C277.172 100.021 275.796 100.256 274.239 100.256ZM294.945 100V82.784H299.937V100H294.945ZM297.441 80.384C296.523 80.384 295.777 80.1173 295.201 79.584C294.625 79.0507 294.337 78.3893 294.337 77.6C294.337 76.8107 294.625 76.1493 295.201 75.616C295.777 75.0827 296.523 74.816 297.441 74.816C298.358 74.816 299.105 75.072 299.681 75.584C300.257 76.0747 300.545 76.7147 300.545 77.504C300.545 78.336 300.257 79.0293 299.681 79.584C299.126 80.1173 298.379 80.384 297.441 80.384ZM315.034 82.528C316.399 82.528 317.615 82.8053 318.682 83.36C319.77 83.8933 320.623 84.7253 321.242 85.856C321.86 86.9653 322.17 88.3947 322.17 90.144V100H317.178V90.912C317.178 89.5253 316.868 88.5013 316.25 87.84C315.652 87.1787 314.799 86.848 313.69 86.848C312.9 86.848 312.186 87.0187 311.546 87.36C310.927 87.68 310.436 88.1813 310.074 88.864C309.732 89.5467 309.562 90.4213 309.562 91.488V100H304.57V82.784H309.338V87.552L308.442 86.112C309.06 84.96 309.946 84.0747 311.098 83.456C312.25 82.8373 313.562 82.528 315.034 82.528ZM337.159 82.528C338.524 82.528 339.74 82.8053 340.807 83.36C341.895 83.8933 342.748 84.7253 343.367 85.856C343.985 86.9653 344.295 88.3947 344.295 90.144V100H339.303V90.912C339.303 89.5253 338.993 88.5013 338.375 87.84C337.777 87.1787 336.924 86.848 335.815 86.848C335.025 86.848 334.311 87.0187 333.671 87.36C333.052 87.68 332.561 88.1813 332.199 88.864C331.857 89.5467 331.687 90.4213 331.687 91.488V100H326.695V82.784H331.463V87.552L330.567 86.112C331.185 84.96 332.071 84.0747 333.223 83.456C334.375 82.8373 335.687 82.528 337.159 82.528ZM357.137 100.256C355.302 100.256 353.67 99.872 352.241 99.104C350.833 98.336 349.713 97.2907 348.881 95.968C348.07 94.624 347.665 93.0987 347.665 91.392C347.665 89.664 348.07 88.1387 348.881 86.816C349.713 85.472 350.833 84.4267 352.241 83.68C353.67 82.912 355.302 82.528 357.137 82.528C358.95 82.528 360.571 82.912 362.001 83.68C363.43 84.4267 364.55 85.4613 365.361 86.784C366.171 88.1067 366.577 89.6427 366.577 91.392C366.577 93.0987 366.171 94.624 365.361 95.968C364.55 97.2907 363.43 98.336 362.001 99.104C360.571 99.872 358.95 100.256 357.137 100.256ZM357.137 96.16C357.969 96.16 358.715 95.968 359.377 95.584C360.038 95.2 360.561 94.656 360.945 93.952C361.329 93.2267 361.521 92.3733 361.521 91.392C361.521 90.3893 361.329 89.536 360.945 88.832C360.561 88.128 360.038 87.584 359.377 87.2C358.715 86.816 357.969 86.624 357.137 86.624C356.305 86.624 355.558 86.816 354.897 87.2C354.235 87.584 353.702 88.128 353.297 88.832C352.913 89.536 352.721 90.3893 352.721 91.392C352.721 92.3733 352.913 93.2267 353.297 93.952C353.702 94.656 354.235 95.2 354.897 95.584C355.558 95.968 356.305 96.16 357.137 96.16ZM374.117 100L366.885 82.784H372.037L378.053 97.6H375.493L381.733 82.784H386.533L379.269 100H374.117ZM398.567 100V96.64L398.247 95.904V89.888C398.247 88.8213 397.916 87.9893 397.255 87.392C396.615 86.7947 395.623 86.496 394.279 86.496C393.362 86.496 392.455 86.6453 391.559 86.944C390.684 87.2213 389.938 87.6053 389.319 88.096L387.527 84.608C388.466 83.9467 389.596 83.4347 390.919 83.072C392.242 82.7093 393.586 82.528 394.951 82.528C397.575 82.528 399.612 83.1467 401.063 84.384C402.514 85.6213 403.239 87.552 403.239 90.176V100H398.567ZM393.319 100.256C391.975 100.256 390.823 100.032 389.863 99.584C388.903 99.1147 388.167 98.4853 387.655 97.696C387.143 96.9067 386.887 96.0213 386.887 95.04C386.887 94.016 387.132 93.12 387.623 92.352C388.135 91.584 388.935 90.9867 390.023 90.56C391.111 90.112 392.53 89.888 394.279 89.888H398.855V92.8H394.823C393.65 92.8 392.839 92.992 392.391 93.376C391.964 93.76 391.751 94.24 391.751 94.816C391.751 95.456 391.996 95.968 392.487 96.352C392.999 96.7147 393.692 96.896 394.567 96.896C395.399 96.896 396.146 96.704 396.807 96.32C397.468 95.9147 397.948 95.328 398.247 94.56L399.015 96.864C398.652 97.9733 397.991 98.816 397.031 99.392C396.071 99.968 394.834 100.256 393.319 100.256ZM414.797 100.256C412.77 100.256 411.192 99.744 410.061 98.72C408.93 97.6747 408.365 96.128 408.365 94.08V78.976H413.357V94.016C413.357 94.7413 413.549 95.3067 413.933 95.712C414.317 96.096 414.84 96.288 415.501 96.288C416.29 96.288 416.962 96.0747 417.517 95.648L418.861 99.168C418.349 99.5307 417.73 99.808 417.005 100C416.301 100.171 415.565 100.256 414.797 100.256ZM405.709 87.008V83.168H417.645V87.008H405.709ZM421.663 100V82.784H426.655V100H421.663ZM424.159 80.384C423.242 80.384 422.495 80.1173 421.919 79.584C421.343 79.0507 421.055 78.3893 421.055 77.6C421.055 76.8107 421.343 76.1493 421.919 75.616C422.495 75.0827 423.242 74.816 424.159 74.816C425.077 74.816 425.823 75.072 426.399 75.584C426.975 76.0747 427.263 76.7147 427.263 77.504C427.263 78.336 426.975 79.0293 426.399 79.584C425.845 80.1173 425.098 80.384 424.159 80.384ZM435.96 100L428.728 82.784H433.88L439.896 97.6H437.336L443.576 82.784H448.376L441.112 100H435.96ZM458.489 100.256C456.526 100.256 454.798 99.872 453.305 99.104C451.833 98.336 450.691 97.2907 449.881 95.968C449.07 94.624 448.665 93.0987 448.665 91.392C448.665 89.664 449.059 88.1387 449.849 86.816C450.659 85.472 451.758 84.4267 453.145 83.68C454.531 82.912 456.099 82.528 457.849 82.528C459.534 82.528 461.049 82.8907 462.393 83.616C463.758 84.32 464.835 85.344 465.625 86.688C466.414 88.0107 466.809 89.6 466.809 91.456C466.809 91.648 466.798 91.872 466.777 92.128C466.755 92.3627 466.734 92.5867 466.713 92.8H452.729V89.888H464.089L462.169 90.752C462.169 89.856 461.987 89.0773 461.625 88.416C461.262 87.7547 460.761 87.2427 460.121 86.88C459.481 86.496 458.734 86.304 457.881 86.304C457.027 86.304 456.27 86.496 455.609 86.88C454.969 87.2427 454.467 87.7653 454.105 88.448C453.742 89.1093 453.561 89.8987 453.561 90.816V91.584C453.561 92.5227 453.763 93.3547 454.169 94.08C454.595 94.784 455.182 95.328 455.929 95.712C456.697 96.0747 457.593 96.256 458.617 96.256C459.534 96.256 460.334 96.1173 461.017 95.84C461.721 95.5627 462.361 95.1467 462.937 94.592L465.593 97.472C464.803 98.368 463.811 99.0613 462.617 99.552C461.422 100.021 460.046 100.256 458.489 100.256ZM484.987 100.256C483.515 100.256 482.096 100.085 480.731 99.744C479.387 99.3813 478.32 98.9333 477.531 98.4L479.195 94.816C479.984 95.3067 480.912 95.712 481.979 96.032C483.067 96.3307 484.133 96.48 485.179 96.48C486.331 96.48 487.141 96.3413 487.611 96.064C488.101 95.7867 488.347 95.4027 488.347 94.912C488.347 94.5067 488.155 94.208 487.771 94.016C487.408 93.8027 486.917 93.6427 486.299 93.536C485.68 93.4293 484.997 93.3227 484.251 93.216C483.525 93.1093 482.789 92.9707 482.043 92.8C481.296 92.608 480.613 92.3307 479.995 91.968C479.376 91.6053 478.875 91.1147 478.491 90.496C478.128 89.8773 477.947 89.0773 477.947 88.096C477.947 87.008 478.256 86.048 478.875 85.216C479.515 84.384 480.432 83.7333 481.627 83.264C482.821 82.7733 484.251 82.528 485.915 82.528C487.088 82.528 488.283 82.656 489.499 82.912C490.715 83.168 491.728 83.5413 492.539 84.032L490.875 87.584C490.043 87.0933 489.2 86.7627 488.347 86.592C487.515 86.4 486.704 86.304 485.915 86.304C484.805 86.304 483.995 86.4533 483.483 86.752C482.971 87.0507 482.715 87.4347 482.715 87.904C482.715 88.3307 482.896 88.6507 483.259 88.864C483.643 89.0773 484.144 89.248 484.763 89.376C485.381 89.504 486.053 89.6213 486.779 89.728C487.525 89.8133 488.272 89.952 489.019 90.144C489.765 90.336 490.437 90.6133 491.035 90.976C491.653 91.3173 492.155 91.7973 492.539 92.416C492.923 93.0133 493.115 93.8027 493.115 94.784C493.115 95.8507 492.795 96.8 492.155 97.632C491.515 98.4427 490.587 99.0827 489.371 99.552C488.176 100.021 486.715 100.256 484.987 100.256ZM504.387 100.256C502.552 100.256 500.92 99.872 499.491 99.104C498.083 98.336 496.963 97.2907 496.131 95.968C495.32 94.624 494.915 93.0987 494.915 91.392C494.915 89.664 495.32 88.1387 496.131 86.816C496.963 85.472 498.083 84.4267 499.491 83.68C500.92 82.912 502.552 82.528 504.387 82.528C506.2 82.528 507.821 82.912 509.251 83.68C510.68 84.4267 511.8 85.4613 512.611 86.784C513.421 88.1067 513.827 89.6427 513.827 91.392C513.827 93.0987 513.421 94.624 512.611 95.968C511.8 97.2907 510.68 98.336 509.251 99.104C507.821 99.872 506.2 100.256 504.387 100.256ZM504.387 96.16C505.219 96.16 505.965 95.968 506.627 95.584C507.288 95.2 507.811 94.656 508.195 93.952C508.579 93.2267 508.771 92.3733 508.771 91.392C508.771 90.3893 508.579 89.536 508.195 88.832C507.811 88.128 507.288 87.584 506.627 87.2C505.965 86.816 505.219 86.624 504.387 86.624C503.555 86.624 502.808 86.816 502.147 87.2C501.485 87.584 500.952 88.128 500.547 88.832C500.163 89.536 499.971 90.3893 499.971 91.392C499.971 92.3733 500.163 93.2267 500.547 93.952C500.952 94.656 501.485 95.2 502.147 95.584C502.808 95.968 503.555 96.16 504.387 96.16ZM517.163 100V76.256H522.155V100H517.163ZM534.052 100.256C532.623 100.256 531.343 99.9787 530.212 99.424C529.103 98.8693 528.239 98.0267 527.62 96.896C527.002 95.744 526.692 94.2827 526.692 92.512V82.784H531.684V91.776C531.684 93.2053 531.983 94.2613 532.58 94.944C533.199 95.6053 534.063 95.936 535.172 95.936C535.94 95.936 536.623 95.776 537.22 95.456C537.818 95.1147 538.287 94.6027 538.628 93.92C538.97 93.216 539.14 92.3413 539.14 91.296V82.784H544.132V100H539.396V95.264L540.26 96.64C539.684 97.8347 538.831 98.7413 537.7 99.36C536.591 99.9573 535.375 100.256 534.052 100.256ZM555.797 100.256C553.77 100.256 552.192 99.744 551.061 98.72C549.93 97.6747 549.365 96.128 549.365 94.08V78.976H554.357V94.016C554.357 94.7413 554.549 95.3067 554.933 95.712C555.317 96.096 555.84 96.288 556.501 96.288C557.29 96.288 557.962 96.0747 558.517 95.648L559.861 99.168C559.349 99.5307 558.73 99.808 558.005 100C557.301 100.171 556.565 100.256 555.797 100.256ZM546.709 87.008V83.168H558.645V87.008H546.709ZM562.663 100V82.784H567.655V100H562.663ZM565.159 80.384C564.242 80.384 563.495 80.1173 562.919 79.584C562.343 79.0507 562.055 78.3893 562.055 77.6C562.055 76.8107 562.343 76.1493 562.919 75.616C563.495 75.0827 564.242 74.816 565.159 74.816C566.077 74.816 566.823 75.072 567.399 75.584C567.975 76.0747 568.263 76.7147 568.263 77.504C568.263 78.336 567.975 79.0293 567.399 79.584C566.845 80.1173 566.098 80.384 565.159 80.384ZM580.48 100.256C578.646 100.256 577.014 99.872 575.584 99.104C574.176 98.336 573.056 97.2907 572.224 95.968C571.414 94.624 571.008 93.0987 571.008 91.392C571.008 89.664 571.414 88.1387 572.224 86.816C573.056 85.472 574.176 84.4267 575.584 83.68C577.014 82.912 578.646 82.528 580.48 82.528C582.294 82.528 583.915 82.912 585.344 83.68C586.774 84.4267 587.894 85.4613 588.704 86.784C589.515 88.1067 589.92 89.6427 589.92 91.392C589.92 93.0987 589.515 94.624 588.704 95.968C587.894 97.2907 586.774 98.336 585.344 99.104C583.915 99.872 582.294 100.256 580.48 100.256ZM580.48 96.16C581.312 96.16 582.059 95.968 582.72 95.584C583.382 95.2 583.904 94.656 584.288 93.952C584.672 93.2267 584.864 92.3733 584.864 91.392C584.864 90.3893 584.672 89.536 584.288 88.832C583.904 88.128 583.382 87.584 582.72 87.2C582.059 86.816 581.312 86.624 580.48 86.624C579.648 86.624 578.902 86.816 578.24 87.2C577.579 87.584 577.046 88.128 576.64 88.832C576.256 89.536 576.064 90.3893 576.064 91.392C576.064 92.3733 576.256 93.2267 576.64 93.952C577.046 94.656 577.579 95.2 578.24 95.584C578.902 95.968 579.648 96.16 580.48 96.16ZM603.721 82.528C605.086 82.528 606.302 82.8053 607.369 83.36C608.457 83.8933 609.31 84.7253 609.929 85.856C610.548 86.9653 610.857 88.3947 610.857 90.144V100H605.865V90.912C605.865 89.5253 605.556 88.5013 604.937 87.84C604.34 87.1787 603.486 86.848 602.377 86.848C601.588 86.848 600.873 87.0187 600.233 87.36C599.614 87.68 599.124 88.1813 598.761 88.864C598.42 89.5467 598.249 90.4213 598.249 91.488V100H593.257V82.784H598.025V87.552L597.129 86.112C597.748 84.96 598.633 84.0747 599.785 83.456C600.937 82.8373 602.249 82.528 603.721 82.528ZM621.174 100.256C619.702 100.256 618.283 100.085 616.918 99.744C615.574 99.3813 614.507 98.9333 613.718 98.4L615.382 94.816C616.171 95.3067 617.099 95.712 618.166 96.032C619.254 96.3307 620.321 96.48 621.366 96.48C622.518 96.48 623.329 96.3413 623.798 96.064C624.289 95.7867 624.534 95.4027 624.534 94.912C624.534 94.5067 624.342 94.208 623.958 94.016C623.595 93.8027 623.105 93.6427 622.486 93.536C621.867 93.4293 621.185 93.3227 620.438 93.216C619.713 93.1093 618.977 92.9707 618.23 92.8C617.483 92.608 616.801 92.3307 616.182 91.968C615.563 91.6053 615.062 91.1147 614.678 90.496C614.315 89.8773 614.134 89.0773 614.134 88.096C614.134 87.008 614.443 86.048 615.062 85.216C615.702 84.384 616.619 83.7333 617.814 83.264C619.009 82.7733 620.438 82.528 622.102 82.528C623.275 82.528 624.47 82.656 625.686 82.912C626.902 83.168 627.915 83.5413 628.726 84.032L627.062 87.584C626.23 87.0933 625.387 86.7627 624.534 86.592C623.702 86.4 622.891 86.304 622.102 86.304C620.993 86.304 620.182 86.4533 619.67 86.752C619.158 87.0507 618.902 87.4347 618.902 87.904C618.902 88.3307 619.083 88.6507 619.446 88.864C619.83 89.0773 620.331 89.248 620.95 89.376C621.569 89.504 622.241 89.6213 622.966 89.728C623.713 89.8133 624.459 89.952 625.206 90.144C625.953 90.336 626.625 90.6133 627.222 90.976C627.841 91.3173 628.342 91.7973 628.726 92.416C629.11 93.0133 629.302 93.8027 629.302 94.784C629.302 95.8507 628.982 96.8 628.342 97.632C627.702 98.4427 626.774 99.0827 625.558 99.552C624.363 100.021 622.902 100.256 621.174 100.256ZM648.485 100.256C646.458 100.256 644.879 99.744 643.749 98.72C642.618 97.6747 642.053 96.128 642.053 94.08V78.976H647.045V94.016C647.045 94.7413 647.237 95.3067 647.621 95.712C648.005 96.096 648.527 96.288 649.189 96.288C649.978 96.288 650.65 96.0747 651.205 95.648L652.549 99.168C652.037 99.5307 651.418 99.808 650.693 100C649.989 100.171 649.253 100.256 648.485 100.256ZM639.397 87.008V83.168H651.333V87.008H639.397ZM665.815 82.528C667.18 82.528 668.396 82.8053 669.463 83.36C670.551 83.8933 671.404 84.7253 672.023 85.856C672.642 86.9653 672.951 88.3947 672.951 90.144V100H667.959V90.912C667.959 89.5253 667.65 88.5013 667.031 87.84C666.434 87.1787 665.58 86.848 664.471 86.848C663.682 86.848 662.967 87.0187 662.327 87.36C661.708 87.68 661.218 88.1813 660.855 88.864C660.514 89.5467 660.343 90.4213 660.343 91.488V100H655.351V76.256H660.343V87.552L659.223 86.112C659.842 84.96 660.727 84.0747 661.879 83.456C663.031 82.8373 664.343 82.528 665.815 82.528ZM688.036 100V96.64L687.716 95.904V89.888C687.716 88.8213 687.385 87.9893 686.724 87.392C686.084 86.7947 685.092 86.496 683.748 86.496C682.831 86.496 681.924 86.6453 681.028 86.944C680.153 87.2213 679.407 87.6053 678.788 88.096L676.996 84.608C677.935 83.9467 679.065 83.4347 680.388 83.072C681.711 82.7093 683.055 82.528 684.42 82.528C687.044 82.528 689.081 83.1467 690.532 84.384C691.983 85.6213 692.708 87.552 692.708 90.176V100H688.036ZM682.788 100.256C681.444 100.256 680.292 100.032 679.332 99.584C678.372 99.1147 677.636 98.4853 677.124 97.696C676.612 96.9067 676.356 96.0213 676.356 95.04C676.356 94.016 676.601 93.12 677.092 92.352C677.604 91.584 678.404 90.9867 679.492 90.56C680.58 90.112 681.999 89.888 683.748 89.888H688.324V92.8H684.292C683.119 92.8 682.308 92.992 681.86 93.376C681.433 93.76 681.22 94.24 681.22 94.816C681.22 95.456 681.465 95.968 681.956 96.352C682.468 96.7147 683.161 96.896 684.036 96.896C684.868 96.896 685.615 96.704 686.276 96.32C686.937 95.9147 687.417 95.328 687.716 94.56L688.484 96.864C688.121 97.9733 687.46 98.816 686.5 99.392C685.54 99.968 684.303 100.256 682.788 100.256ZM704.266 100.256C702.239 100.256 700.661 99.744 699.53 98.72C698.399 97.6747 697.834 96.128 697.834 94.08V78.976H702.826V94.016C702.826 94.7413 703.018 95.3067 703.402 95.712C703.786 96.096 704.309 96.288 704.97 96.288C705.759 96.288 706.431 96.0747 706.986 95.648L708.33 99.168C707.818 99.5307 707.199 99.808 706.474 100C705.77 100.171 705.034 100.256 704.266 100.256ZM695.178 87.008V83.168H707.114V87.008H695.178ZM728.739 100.256C726.776 100.256 725.048 99.872 723.555 99.104C722.083 98.336 720.941 97.2907 720.131 95.968C719.32 94.624 718.915 93.0987 718.915 91.392C718.915 89.664 719.309 88.1387 720.099 86.816C720.909 85.472 722.008 84.4267 723.395 83.68C724.781 82.912 726.349 82.528 728.099 82.528C729.784 82.528 731.299 82.8907 732.643 83.616C734.008 84.32 735.085 85.344 735.875 86.688C736.664 88.0107 737.059 89.6 737.059 91.456C737.059 91.648 737.048 91.872 737.027 92.128C737.005 92.3627 736.984 92.5867 736.963 92.8H722.979V89.888H734.339L732.419 90.752C732.419 89.856 732.237 89.0773 731.875 88.416C731.512 87.7547 731.011 87.2427 730.371 86.88C729.731 86.496 728.984 86.304 728.131 86.304C727.277 86.304 726.52 86.496 725.859 86.88C725.219 87.2427 724.717 87.7653 724.355 88.448C723.992 89.1093 723.811 89.8987 723.811 90.816V91.584C723.811 92.5227 724.013 93.3547 724.419 94.08C724.845 94.784 725.432 95.328 726.179 95.712C726.947 96.0747 727.843 96.256 728.867 96.256C729.784 96.256 730.584 96.1173 731.267 95.84C731.971 95.5627 732.611 95.1467 733.187 94.592L735.843 97.472C735.053 98.368 734.061 99.0613 732.867 99.552C731.672 100.021 730.296 100.256 728.739 100.256ZM762.43 82.528C763.795 82.528 765.001 82.8053 766.046 83.36C767.113 83.8933 767.945 84.7253 768.542 85.856C769.161 86.9653 769.47 88.3947 769.47 90.144V100H764.478V90.912C764.478 89.5253 764.19 88.5013 763.614 87.84C763.038 87.1787 762.227 86.848 761.182 86.848C760.457 86.848 759.806 87.0187 759.23 87.36C758.654 87.68 758.206 88.1707 757.886 88.832C757.566 89.4933 757.406 90.336 757.406 91.36V100H752.414V90.912C752.414 89.5253 752.126 88.5013 751.55 87.84C750.995 87.1787 750.195 86.848 749.15 86.848C748.425 86.848 747.774 87.0187 747.198 87.36C746.622 87.68 746.174 88.1707 745.854 88.832C745.534 89.4933 745.374 90.336 745.374 91.36V100H740.382V82.784H745.15V87.488L744.254 86.112C744.851 84.9387 745.694 84.0533 746.782 83.456C747.891 82.8373 749.15 82.528 750.558 82.528C752.137 82.528 753.513 82.9333 754.686 83.744C755.881 84.5333 756.67 85.7493 757.054 87.392L755.294 86.912C755.87 85.568 756.787 84.5013 758.046 83.712C759.326 82.9227 760.787 82.528 762.43 82.528ZM784.121 100.256C782.67 100.256 781.401 99.936 780.313 99.296C779.225 98.656 778.371 97.6853 777.753 96.384C777.155 95.0613 776.857 93.3973 776.857 91.392C776.857 89.3653 777.145 87.7013 777.721 86.4C778.297 85.0987 779.129 84.128 780.217 83.488C781.305 82.848 782.606 82.528 784.121 82.528C785.742 82.528 787.193 82.9013 788.473 83.648C789.774 84.3733 790.798 85.3973 791.545 86.72C792.313 88.0427 792.697 89.6 792.697 91.392C792.697 93.2053 792.313 94.7733 791.545 96.096C790.798 97.4187 789.774 98.4427 788.473 99.168C787.193 99.8933 785.742 100.256 784.121 100.256ZM773.945 106.208V82.784H778.713V86.304L778.617 91.424L778.937 96.512V106.208H773.945ZM783.257 96.16C784.089 96.16 784.825 95.968 785.465 95.584C786.126 95.2 786.649 94.656 787.033 93.952C787.438 93.2267 787.641 92.3733 787.641 91.392C787.641 90.3893 787.438 89.536 787.033 88.832C786.649 88.128 786.126 87.584 785.465 87.2C784.825 86.816 784.089 86.624 783.257 86.624C782.425 86.624 781.678 86.816 781.017 87.2C780.355 87.584 779.833 88.128 779.449 88.832C779.065 89.536 778.873 90.3893 778.873 91.392C778.873 92.3733 779.065 93.2267 779.449 93.952C779.833 94.656 780.355 95.2 781.017 95.584C781.678 95.968 782.425 96.16 783.257 96.16ZM804.23 100.256C802.396 100.256 800.764 99.872 799.334 99.104C797.926 98.336 796.806 97.2907 795.974 95.968C795.164 94.624 794.758 93.0987 794.758 91.392C794.758 89.664 795.164 88.1387 795.974 86.816C796.806 85.472 797.926 84.4267 799.334 83.68C800.764 82.912 802.396 82.528 804.23 82.528C806.044 82.528 807.665 82.912 809.094 83.68C810.524 84.4267 811.644 85.4613 812.454 86.784C813.265 88.1067 813.67 89.6427 813.67 91.392C813.67 93.0987 813.265 94.624 812.454 95.968C811.644 97.2907 810.524 98.336 809.094 99.104C807.665 99.872 806.044 100.256 804.23 100.256ZM804.23 96.16C805.062 96.16 805.809 95.968 806.47 95.584C807.132 95.2 807.654 94.656 808.038 93.952C808.422 93.2267 808.614 92.3733 808.614 91.392C808.614 90.3893 808.422 89.536 808.038 88.832C807.654 88.128 807.132 87.584 806.47 87.2C805.809 86.816 805.062 86.624 804.23 86.624C803.398 86.624 802.652 86.816 801.99 87.2C801.329 87.584 800.796 88.128 800.39 88.832C800.006 89.536 799.814 90.3893 799.814 91.392C799.814 92.3733 800.006 93.2267 800.39 93.952C800.796 94.656 801.329 95.2 801.99 95.584C802.652 95.968 803.398 96.16 804.23 96.16ZM820.474 100L814.266 82.784H818.97L824.122 97.6H821.882L827.258 82.784H831.482L836.698 97.6H834.458L839.77 82.784H844.186L837.946 100H833.114L828.538 87.296H830.01L825.274 100H820.474ZM854.582 100.256C852.62 100.256 850.892 99.872 849.398 99.104C847.926 98.336 846.785 97.2907 845.974 95.968C845.164 94.624 844.758 93.0987 844.758 91.392C844.758 89.664 845.153 88.1387 845.942 86.816C846.753 85.472 847.852 84.4267 849.238 83.68C850.625 82.912 852.193 82.528 853.942 82.528C855.628 82.528 857.142 82.8907 858.486 83.616C859.852 84.32 860.929 85.344 861.718 86.688C862.508 88.0107 862.902 89.6 862.902 91.456C862.902 91.648 862.892 91.872 862.87 92.128C862.849 92.3627 862.828 92.5867 862.806 92.8H848.822V89.888H860.182L858.262 90.752C858.262 89.856 858.081 89.0773 857.718 88.416C857.356 87.7547 856.854 87.2427 856.214 86.88C855.574 86.496 854.828 86.304 853.974 86.304C853.121 86.304 852.364 86.496 851.702 86.88C851.062 87.2427 850.561 87.7653 850.198 88.448C849.836 89.1093 849.654 89.8987 849.654 90.816V91.584C849.654 92.5227 849.857 93.3547 850.262 94.08C850.689 94.784 851.276 95.328 852.022 95.712C852.79 96.0747 853.686 96.256 854.71 96.256C855.628 96.256 856.428 96.1173 857.11 95.84C857.814 95.5627 858.454 95.1467 859.03 94.592L861.686 97.472C860.897 98.368 859.905 99.0613 858.71 99.552C857.516 100.021 856.14 100.256 854.582 100.256ZM866.226 100V82.784H870.994V87.648L870.322 86.24C870.834 85.024 871.655 84.1067 872.786 83.488C873.917 82.848 875.293 82.528 876.914 82.528V87.136C876.701 87.1147 876.509 87.104 876.338 87.104C876.167 87.0827 875.986 87.072 875.794 87.072C874.429 87.072 873.319 87.4667 872.466 88.256C871.634 89.024 871.218 90.2293 871.218 91.872V100H866.226ZM138.043 139.256C136.528 139.256 135.227 138.936 134.139 138.296C133.051 137.656 132.219 136.685 131.643 135.384C131.067 134.061 130.779 132.397 130.779 130.392C130.779 128.365 131.077 126.701 131.675 125.4C132.293 124.099 133.147 123.128 134.235 122.488C135.323 121.848 136.592 121.528 138.043 121.528C139.664 121.528 141.115 121.891 142.395 122.616C143.696 123.341 144.72 124.365 145.467 125.688C146.235 127.011 146.619 128.579 146.619 130.392C146.619 132.184 146.235 133.741 145.467 135.064C144.72 136.387 143.696 137.421 142.395 138.168C141.115 138.893 139.664 139.256 138.043 139.256ZM127.867 139V115.256H132.859V125.272L132.539 130.36L132.635 135.48V139H127.867ZM137.179 135.16C138.011 135.16 138.747 134.968 139.387 134.584C140.048 134.2 140.571 133.656 140.955 132.952C141.36 132.227 141.562 131.373 141.562 130.392C141.562 129.389 141.36 128.536 140.955 127.832C140.571 127.128 140.048 126.584 139.387 126.2C138.747 125.816 138.011 125.624 137.179 125.624C136.347 125.624 135.6 125.816 134.939 126.2C134.277 126.584 133.755 127.128 133.371 127.832C132.987 128.536 132.795 129.389 132.795 130.392C132.795 131.373 132.987 132.227 133.371 132.952C133.755 133.656 134.277 134.2 134.939 134.584C135.6 134.968 136.347 135.16 137.179 135.16ZM157.224 139.256C155.795 139.256 154.515 138.979 153.384 138.424C152.275 137.869 151.411 137.027 150.792 135.896C150.174 134.744 149.864 133.283 149.864 131.512V121.784H154.856V130.776C154.856 132.205 155.155 133.261 155.752 133.944C156.371 134.605 157.235 134.936 158.344 134.936C159.112 134.936 159.795 134.776 160.392 134.456C160.99 134.115 161.459 133.603 161.8 132.92C162.142 132.216 162.312 131.341 162.312 130.296V121.784H167.304V139H162.568V134.264L163.432 135.64C162.856 136.835 162.003 137.741 160.872 138.36C159.763 138.957 158.547 139.256 157.224 139.256ZM177.721 139.256C176.249 139.256 174.83 139.085 173.465 138.744C172.121 138.381 171.054 137.933 170.265 137.4L171.929 133.816C172.718 134.307 173.646 134.712 174.713 135.032C175.801 135.331 176.868 135.48 177.913 135.48C179.065 135.48 179.876 135.341 180.345 135.064C180.836 134.787 181.081 134.403 181.081 133.912C181.081 133.507 180.889 133.208 180.505 133.016C180.142 132.803 179.652 132.643 179.033 132.536C178.414 132.429 177.732 132.323 176.985 132.216C176.26 132.109 175.524 131.971 174.777 131.8C174.03 131.608 173.348 131.331 172.729 130.968C172.11 130.605 171.609 130.115 171.225 129.496C170.862 128.877 170.681 128.077 170.681 127.096C170.681 126.008 170.99 125.048 171.609 124.216C172.249 123.384 173.166 122.733 174.361 122.264C175.556 121.773 176.985 121.528 178.649 121.528C179.822 121.528 181.017 121.656 182.233 121.912C183.449 122.168 184.462 122.541 185.273 123.032L183.609 126.584C182.777 126.093 181.934 125.763 181.081 125.592C180.249 125.4 179.438 125.304 178.649 125.304C177.54 125.304 176.729 125.453 176.217 125.752C175.705 126.051 175.449 126.435 175.449 126.904C175.449 127.331 175.63 127.651 175.993 127.864C176.377 128.077 176.878 128.248 177.497 128.376C178.116 128.504 178.788 128.621 179.513 128.728C180.26 128.813 181.006 128.952 181.753 129.144C182.5 129.336 183.172 129.613 183.769 129.976C184.388 130.317 184.889 130.797 185.273 131.416C185.657 132.013 185.849 132.803 185.849 133.784C185.849 134.851 185.529 135.8 184.889 136.632C184.249 137.443 183.321 138.083 182.105 138.552C180.91 139.021 179.449 139.256 177.721 139.256ZM188.929 139V121.784H193.921V139H188.929ZM191.425 119.384C190.508 119.384 189.761 119.117 189.185 118.584C188.609 118.051 188.321 117.389 188.321 116.6C188.321 115.811 188.609 115.149 189.185 114.616C189.761 114.083 190.508 113.816 191.425 113.816C192.342 113.816 193.089 114.072 193.665 114.584C194.241 115.075 194.529 115.715 194.529 116.504C194.529 117.336 194.241 118.029 193.665 118.584C193.11 119.117 192.364 119.384 191.425 119.384ZM209.018 121.528C210.383 121.528 211.599 121.805 212.666 122.36C213.754 122.893 214.607 123.725 215.226 124.856C215.845 125.965 216.154 127.395 216.154 129.144V139H211.162V129.912C211.162 128.525 210.853 127.501 210.234 126.84C209.637 126.179 208.783 125.848 207.674 125.848C206.885 125.848 206.17 126.019 205.53 126.36C204.911 126.68 204.421 127.181 204.058 127.864C203.717 128.547 203.546 129.421 203.546 130.488V139H198.554V121.784H203.322V126.552L202.426 125.112C203.045 123.96 203.93 123.075 205.082 122.456C206.234 121.837 207.546 121.528 209.018 121.528ZM229.348 139.256C227.385 139.256 225.657 138.872 224.164 138.104C222.692 137.336 221.551 136.291 220.74 134.968C219.929 133.624 219.524 132.099 219.524 130.392C219.524 128.664 219.919 127.139 220.708 125.816C221.519 124.472 222.617 123.427 224.004 122.68C225.391 121.912 226.959 121.528 228.708 121.528C230.393 121.528 231.908 121.891 233.252 122.616C234.617 123.32 235.695 124.344 236.484 125.688C237.273 127.011 237.668 128.6 237.668 130.456C237.668 130.648 237.657 130.872 237.636 131.128C237.615 131.363 237.593 131.587 237.572 131.8H223.588V128.888H234.948L233.028 129.752C233.028 128.856 232.847 128.077 232.484 127.416C232.121 126.755 231.62 126.243 230.98 125.88C230.34 125.496 229.593 125.304 228.74 125.304C227.887 125.304 227.129 125.496 226.468 125.88C225.828 126.243 225.327 126.765 224.964 127.448C224.601 128.109 224.42 128.899 224.42 129.816V130.584C224.42 131.523 224.623 132.355 225.028 133.08C225.455 133.784 226.041 134.328 226.788 134.712C227.556 135.075 228.452 135.256 229.476 135.256C230.393 135.256 231.193 135.117 231.876 134.84C232.58 134.563 233.22 134.147 233.796 133.592L236.452 136.472C235.663 137.368 234.671 138.061 233.476 138.552C232.281 139.021 230.905 139.256 229.348 139.256ZM246.784 139.256C245.312 139.256 243.893 139.085 242.528 138.744C241.184 138.381 240.117 137.933 239.328 137.4L240.992 133.816C241.781 134.307 242.709 134.712 243.776 135.032C244.864 135.331 245.93 135.48 246.976 135.48C248.128 135.48 248.938 135.341 249.408 135.064C249.898 134.787 250.144 134.403 250.144 133.912C250.144 133.507 249.952 133.208 249.568 133.016C249.205 132.803 248.714 132.643 248.095 132.536C247.477 132.429 246.794 132.323 246.048 132.216C245.322 132.109 244.586 131.971 243.84 131.8C243.093 131.608 242.41 131.331 241.792 130.968C241.173 130.605 240.672 130.115 240.288 129.496C239.925 128.877 239.743 128.077 239.743 127.096C239.743 126.008 240.053 125.048 240.672 124.216C241.312 123.384 242.229 122.733 243.424 122.264C244.618 121.773 246.048 121.528 247.712 121.528C248.885 121.528 250.08 121.656 251.296 121.912C252.512 122.168 253.525 122.541 254.336 123.032L252.672 126.584C251.84 126.093 250.997 125.763 250.144 125.592C249.312 125.4 248.501 125.304 247.712 125.304C246.602 125.304 245.792 125.453 245.28 125.752C244.768 126.051 244.512 126.435 244.512 126.904C244.512 127.331 244.693 127.651 245.056 127.864C245.44 128.077 245.941 128.248 246.56 128.376C247.178 128.504 247.85 128.621 248.576 128.728C249.322 128.813 250.069 128.952 250.816 129.144C251.562 129.336 252.234 129.613 252.832 129.976C253.45 130.317 253.952 130.797 254.336 131.416C254.72 132.013 254.912 132.803 254.912 133.784C254.912 134.851 254.592 135.8 253.952 136.632C253.312 137.443 252.384 138.083 251.168 138.552C249.973 139.021 248.512 139.256 246.784 139.256ZM263.784 139.256C262.312 139.256 260.893 139.085 259.528 138.744C258.184 138.381 257.117 137.933 256.328 137.4L257.992 133.816C258.781 134.307 259.709 134.712 260.776 135.032C261.864 135.331 262.93 135.48 263.976 135.48C265.128 135.48 265.938 135.341 266.408 135.064C266.898 134.787 267.144 134.403 267.144 133.912C267.144 133.507 266.952 133.208 266.568 133.016C266.205 132.803 265.714 132.643 265.095 132.536C264.477 132.429 263.794 132.323 263.048 132.216C262.322 132.109 261.586 131.971 260.84 131.8C260.093 131.608 259.41 131.331 258.792 130.968C258.173 130.605 257.672 130.115 257.288 129.496C256.925 128.877 256.743 128.077 256.743 127.096C256.743 126.008 257.053 125.048 257.672 124.216C258.312 123.384 259.229 122.733 260.424 122.264C261.618 121.773 263.048 121.528 264.712 121.528C265.885 121.528 267.08 121.656 268.296 121.912C269.512 122.168 270.525 122.541 271.336 123.032L269.672 126.584C268.84 126.093 267.997 125.763 267.144 125.592C266.312 125.4 265.501 125.304 264.712 125.304C263.602 125.304 262.792 125.453 262.28 125.752C261.768 126.051 261.512 126.435 261.512 126.904C261.512 127.331 261.693 127.651 262.056 127.864C262.44 128.077 262.941 128.248 263.56 128.376C264.178 128.504 264.85 128.621 265.576 128.728C266.322 128.813 267.069 128.952 267.816 129.144C268.562 129.336 269.234 129.613 269.832 129.976C270.45 130.317 270.952 130.797 271.336 131.416C271.72 132.013 271.912 132.803 271.912 133.784C271.912 134.851 271.592 135.8 270.952 136.632C270.312 137.443 269.384 138.083 268.168 138.552C266.973 139.021 265.512 139.256 263.784 139.256ZM283.536 139.256C281.573 139.256 279.845 138.872 278.352 138.104C276.88 137.336 275.738 136.291 274.928 134.968C274.117 133.624 273.712 132.099 273.712 130.392C273.712 128.664 274.106 127.139 274.896 125.816C275.706 124.472 276.805 123.427 278.192 122.68C279.578 121.912 281.146 121.528 282.896 121.528C284.581 121.528 286.096 121.891 287.44 122.616C288.805 123.32 289.882 124.344 290.672 125.688C291.461 127.011 291.856 128.6 291.856 130.456C291.856 130.648 291.845 130.872 291.824 131.128C291.802 131.363 291.781 131.587 291.76 131.8H277.776V128.888H289.135L287.216 129.752C287.216 128.856 287.034 128.077 286.672 127.416C286.309 126.755 285.808 126.243 285.168 125.88C284.528 125.496 283.781 125.304 282.928 125.304C282.074 125.304 281.317 125.496 280.656 125.88C280.016 126.243 279.514 126.765 279.152 127.448C278.789 128.109 278.608 128.899 278.608 129.816V130.584C278.608 131.523 278.81 132.355 279.216 133.08C279.642 133.784 280.229 134.328 280.976 134.712C281.744 135.075 282.64 135.256 283.664 135.256C284.581 135.256 285.381 135.117 286.064 134.84C286.768 134.563 287.408 134.147 287.984 133.592L290.64 136.472C289.85 137.368 288.858 138.061 287.664 138.552C286.469 139.021 285.093 139.256 283.536 139.256ZM300.971 139.256C299.499 139.256 298.08 139.085 296.715 138.744C295.371 138.381 294.304 137.933 293.515 137.4L295.179 133.816C295.968 134.307 296.896 134.712 297.963 135.032C299.051 135.331 300.118 135.48 301.163 135.48C302.315 135.48 303.126 135.341 303.595 135.064C304.086 134.787 304.331 134.403 304.331 133.912C304.331 133.507 304.139 133.208 303.755 133.016C303.392 132.803 302.902 132.643 302.283 132.536C301.664 132.429 300.982 132.323 300.235 132.216C299.51 132.109 298.774 131.971 298.027 131.8C297.28 131.608 296.598 131.331 295.979 130.968C295.36 130.605 294.859 130.115 294.475 129.496C294.112 128.877 293.931 128.077 293.931 127.096C293.931 126.008 294.24 125.048 294.859 124.216C295.499 123.384 296.416 122.733 297.611 122.264C298.806 121.773 300.235 121.528 301.899 121.528C303.072 121.528 304.267 121.656 305.483 121.912C306.699 122.168 307.712 122.541 308.523 123.032L306.859 126.584C306.027 126.093 305.184 125.763 304.331 125.592C303.499 125.4 302.688 125.304 301.899 125.304C300.79 125.304 299.979 125.453 299.467 125.752C298.955 126.051 298.699 126.435 298.699 126.904C298.699 127.331 298.88 127.651 299.243 127.864C299.627 128.077 300.128 128.248 300.747 128.376C301.366 128.504 302.038 128.621 302.763 128.728C303.51 128.813 304.256 128.952 305.003 129.144C305.75 129.336 306.422 129.613 307.019 129.976C307.638 130.317 308.139 130.797 308.523 131.416C308.907 132.013 309.099 132.803 309.099 133.784C309.099 134.851 308.779 135.8 308.139 136.632C307.499 137.443 306.571 138.083 305.355 138.552C304.16 139.021 302.699 139.256 300.971 139.256ZM328.282 139.256C326.255 139.256 324.676 138.744 323.546 137.72C322.415 136.675 321.85 135.128 321.85 133.08V117.976H326.842V133.016C326.842 133.741 327.034 134.307 327.418 134.712C327.802 135.096 328.324 135.288 328.986 135.288C329.775 135.288 330.447 135.075 331.002 134.648L332.346 138.168C331.834 138.531 331.215 138.808 330.49 139C329.786 139.171 329.05 139.256 328.282 139.256ZM319.194 126.008V122.168H331.13V126.008H319.194ZM342.809 139.256C340.974 139.256 339.342 138.872 337.913 138.104C336.505 137.336 335.385 136.291 334.553 134.968C333.742 133.624 333.337 132.099 333.337 130.392C333.337 128.664 333.742 127.139 334.553 125.816C335.385 124.472 336.505 123.427 337.913 122.68C339.342 121.912 340.974 121.528 342.809 121.528C344.622 121.528 346.243 121.912 347.673 122.68C349.102 123.427 350.222 124.461 351.033 125.784C351.843 127.107 352.249 128.643 352.249 130.392C352.249 132.099 351.843 133.624 351.033 134.968C350.222 136.291 349.102 137.336 347.673 138.104C346.243 138.872 344.622 139.256 342.809 139.256ZM342.809 135.16C343.641 135.16 344.387 134.968 345.049 134.584C345.71 134.2 346.233 133.656 346.617 132.952C347.001 132.227 347.193 131.373 347.193 130.392C347.193 129.389 347.001 128.536 346.617 127.832C346.233 127.128 345.71 126.584 345.049 126.2C344.387 125.816 343.641 125.624 342.809 125.624C341.977 125.624 341.23 125.816 340.569 126.2C339.907 126.584 339.374 127.128 338.969 127.832C338.585 128.536 338.393 129.389 338.393 130.392C338.393 131.373 338.585 132.227 338.969 132.952C339.374 133.656 339.907 134.2 340.569 134.584C341.23 134.968 341.977 135.16 342.809 135.16ZM371.688 139.256C369.661 139.256 368.082 138.744 366.952 137.72C365.821 136.675 365.256 135.128 365.256 133.08V117.976H370.248V133.016C370.248 133.741 370.44 134.307 370.824 134.712C371.208 135.096 371.73 135.288 372.392 135.288C373.181 135.288 373.853 135.075 374.408 134.648L375.752 138.168C375.24 138.531 374.621 138.808 373.896 139C373.192 139.171 372.456 139.256 371.688 139.256ZM362.6 126.008V122.168H374.536V126.008H362.6ZM389.018 121.528C390.383 121.528 391.599 121.805 392.666 122.36C393.754 122.893 394.607 123.725 395.226 124.856C395.845 125.965 396.154 127.395 396.154 129.144V139H391.162V129.912C391.162 128.525 390.853 127.501 390.234 126.84C389.637 126.179 388.783 125.848 387.674 125.848C386.885 125.848 386.17 126.019 385.53 126.36C384.911 126.68 384.421 127.181 384.058 127.864C383.717 128.547 383.546 129.421 383.546 130.488V139H378.554V115.256H383.546V126.552L382.426 125.112C383.045 123.96 383.93 123.075 385.082 122.456C386.234 121.837 387.546 121.528 389.018 121.528ZM400.679 139V121.784H405.447V126.648L404.775 125.24C405.287 124.024 406.108 123.107 407.239 122.488C408.37 121.848 409.746 121.528 411.367 121.528V126.136C411.154 126.115 410.962 126.104 410.791 126.104C410.62 126.083 410.439 126.072 410.247 126.072C408.882 126.072 407.772 126.467 406.919 127.256C406.087 128.024 405.671 129.229 405.671 130.872V139H400.679ZM414.367 139V121.784H419.359V139H414.367ZM416.863 119.384C415.945 119.384 415.199 119.117 414.623 118.584C414.047 118.051 413.759 117.389 413.759 116.6C413.759 115.811 414.047 115.149 414.623 114.616C415.199 114.083 415.945 113.816 416.863 113.816C417.78 113.816 418.527 114.072 419.103 114.584C419.679 115.075 419.967 115.715 419.967 116.504C419.967 117.336 419.679 118.029 419.103 118.584C418.548 119.117 417.801 119.384 416.863 119.384ZM428.664 139L421.431 121.784H426.584L432.6 136.6H430.04L436.28 121.784H441.08L433.816 139H428.664ZM451.192 139.256C449.229 139.256 447.501 138.872 446.008 138.104C444.536 137.336 443.394 136.291 442.584 134.968C441.773 133.624 441.368 132.099 441.368 130.392C441.368 128.664 441.762 127.139 442.552 125.816C443.362 124.472 444.461 123.427 445.848 122.68C447.234 121.912 448.802 121.528 450.552 121.528C452.237 121.528 453.752 121.891 455.096 122.616C456.461 123.32 457.538 124.344 458.328 125.688C459.117 127.011 459.512 128.6 459.512 130.456C459.512 130.648 459.501 130.872 459.48 131.128C459.458 131.363 459.437 131.587 459.416 131.8H445.432V128.888H456.792L454.872 129.752C454.872 128.856 454.69 128.077 454.328 127.416C453.965 126.755 453.464 126.243 452.824 125.88C452.184 125.496 451.437 125.304 450.584 125.304C449.73 125.304 448.973 125.496 448.312 125.88C447.672 126.243 447.17 126.765 446.808 127.448C446.445 128.109 446.264 128.899 446.264 129.816V130.584C446.264 131.523 446.466 132.355 446.872 133.08C447.298 133.784 447.885 134.328 448.632 134.712C449.4 135.075 450.296 135.256 451.32 135.256C452.237 135.256 453.037 135.117 453.72 134.84C454.424 134.563 455.064 134.147 455.64 133.592L458.296 136.472C457.506 137.368 456.514 138.061 455.32 138.552C454.125 139.021 452.749 139.256 451.192 139.256ZM482.458 139V135.64L482.138 134.904V128.888C482.138 127.821 481.807 126.989 481.146 126.392C480.506 125.795 479.514 125.496 478.17 125.496C477.252 125.496 476.346 125.645 475.45 125.944C474.575 126.221 473.828 126.605 473.21 127.096L471.418 123.608C472.356 122.947 473.487 122.435 474.81 122.072C476.132 121.709 477.476 121.528 478.842 121.528C481.466 121.528 483.503 122.147 484.954 123.384C486.404 124.621 487.13 126.552 487.13 129.176V139H482.458ZM477.21 139.256C475.866 139.256 474.714 139.032 473.754 138.584C472.794 138.115 472.058 137.485 471.546 136.696C471.034 135.907 470.778 135.021 470.778 134.04C470.778 133.016 471.023 132.12 471.514 131.352C472.026 130.584 472.826 129.987 473.914 129.56C475.002 129.112 476.42 128.888 478.17 128.888H482.746V131.8H478.714C477.54 131.8 476.73 131.992 476.282 132.376C475.855 132.76 475.642 133.24 475.642 133.816C475.642 134.456 475.887 134.968 476.378 135.352C476.89 135.715 477.583 135.896 478.458 135.896C479.29 135.896 480.036 135.704 480.698 135.32C481.359 134.915 481.839 134.328 482.138 133.56L482.906 135.864C482.543 136.973 481.882 137.816 480.922 138.392C479.962 138.968 478.724 139.256 477.21 139.256ZM502.112 121.528C503.477 121.528 504.693 121.805 505.76 122.36C506.848 122.893 507.701 123.725 508.32 124.856C508.938 125.965 509.248 127.395 509.248 129.144V139H504.256V129.912C504.256 128.525 503.946 127.501 503.328 126.84C502.73 126.179 501.877 125.848 500.768 125.848C499.978 125.848 499.264 126.019 498.624 126.36C498.005 126.68 497.514 127.181 497.152 127.864C496.81 128.547 496.64 129.421 496.64 130.488V139H491.648V121.784H496.416V126.552L495.52 125.112C496.138 123.96 497.024 123.075 498.176 122.456C499.328 121.837 500.64 121.528 502.112 121.528ZM521.29 139.256C519.668 139.256 518.207 138.893 516.906 138.168C515.604 137.421 514.57 136.387 513.802 135.064C513.055 133.741 512.682 132.184 512.682 130.392C512.682 128.579 513.055 127.011 513.802 125.688C514.57 124.365 515.604 123.341 516.906 122.616C518.207 121.891 519.668 121.528 521.29 121.528C522.74 121.528 524.01 121.848 525.098 122.488C526.186 123.128 527.028 124.099 527.626 125.4C528.223 126.701 528.522 128.365 528.522 130.392C528.522 132.397 528.234 134.061 527.658 135.384C527.082 136.685 526.25 137.656 525.162 138.296C524.095 138.936 522.804 139.256 521.29 139.256ZM522.154 135.16C522.964 135.16 523.7 134.968 524.362 134.584C525.023 134.2 525.546 133.656 525.93 132.952C526.335 132.227 526.538 131.373 526.538 130.392C526.538 129.389 526.335 128.536 525.93 127.832C525.546 127.128 525.023 126.584 524.362 126.2C523.7 125.816 522.964 125.624 522.154 125.624C521.322 125.624 520.575 125.816 519.914 126.2C519.252 126.584 518.719 127.128 518.314 127.832C517.93 128.536 517.738 129.389 517.738 130.392C517.738 131.373 517.93 132.227 518.314 132.952C518.719 133.656 519.252 134.2 519.914 134.584C520.575 134.968 521.322 135.16 522.154 135.16ZM526.666 139V135.48L526.762 130.36L526.442 125.272V115.256H531.434V139H526.666ZM553.661 139.256C551.698 139.256 549.97 138.872 548.477 138.104C547.005 137.336 545.863 136.291 545.053 134.968C544.242 133.624 543.837 132.099 543.837 130.392C543.837 128.664 544.231 127.139 545.021 125.816C545.831 124.472 546.93 123.427 548.317 122.68C549.703 121.912 551.271 121.528 553.021 121.528C554.706 121.528 556.221 121.891 557.565 122.616C558.93 123.32 560.007 124.344 560.797 125.688C561.586 127.011 561.981 128.6 561.981 130.456C561.981 130.648 561.97 130.872 561.949 131.128C561.927 131.363 561.906 131.587 561.885 131.8H547.901V128.888H559.26L557.341 129.752C557.341 128.856 557.159 128.077 556.797 127.416C556.434 126.755 555.933 126.243 555.293 125.88C554.653 125.496 553.906 125.304 553.053 125.304C552.199 125.304 551.442 125.496 550.781 125.88C550.141 126.243 549.639 126.765 549.277 127.448C548.914 128.109 548.733 128.899 548.733 129.816V130.584C548.733 131.523 548.935 132.355 549.341 133.08C549.767 133.784 550.354 134.328 551.101 134.712C551.869 135.075 552.765 135.256 553.789 135.256C554.706 135.256 555.506 135.117 556.189 134.84C556.893 134.563 557.533 134.147 558.109 133.592L560.765 136.472C559.975 137.368 558.983 138.061 557.789 138.552C556.594 139.021 555.218 139.256 553.661 139.256ZM562.659 139L570.371 128.888L570.275 131.64L562.883 121.784H568.483L573.155 128.216L571.043 128.28L575.875 121.784H581.187L573.763 131.544V128.856L581.443 139H575.779L570.883 132.152L572.963 132.44L568.099 139H562.659ZM594.043 139.256C592.592 139.256 591.323 138.936 590.235 138.296C589.147 137.656 588.293 136.685 587.675 135.384C587.077 134.061 586.779 132.397 586.779 130.392C586.779 128.365 587.067 126.701 587.643 125.4C588.219 124.099 589.051 123.128 590.139 122.488C591.227 121.848 592.528 121.528 594.043 121.528C595.664 121.528 597.115 121.901 598.395 122.648C599.696 123.373 600.72 124.397 601.467 125.72C602.235 127.043 602.619 128.6 602.619 130.392C602.619 132.205 602.235 133.773 601.467 135.096C600.72 136.419 599.696 137.443 598.395 138.168C597.115 138.893 595.664 139.256 594.043 139.256ZM583.867 145.208V121.784H588.635V125.304L588.539 130.424L588.859 135.512V145.208H583.867ZM593.179 135.16C594.011 135.16 594.747 134.968 595.387 134.584C596.048 134.2 596.571 133.656 596.955 132.952C597.36 132.227 597.562 131.373 597.562 130.392C597.562 129.389 597.36 128.536 596.955 127.832C596.571 127.128 596.048 126.584 595.387 126.2C594.747 125.816 594.011 125.624 593.179 125.624C592.347 125.624 591.6 125.816 590.939 126.2C590.277 126.584 589.755 127.128 589.371 127.832C588.987 128.536 588.795 129.389 588.795 130.392C588.795 131.373 588.987 132.227 589.371 132.952C589.755 133.656 590.277 134.2 590.939 134.584C591.6 134.968 592.347 135.16 593.179 135.16ZM614.504 139.256C612.542 139.256 610.814 138.872 609.32 138.104C607.848 137.336 606.707 136.291 605.896 134.968C605.086 133.624 604.68 132.099 604.68 130.392C604.68 128.664 605.075 127.139 605.864 125.816C606.675 124.472 607.774 123.427 609.16 122.68C610.547 121.912 612.115 121.528 613.864 121.528C615.55 121.528 617.064 121.891 618.408 122.616C619.774 123.32 620.851 124.344 621.64 125.688C622.43 127.011 622.824 128.6 622.824 130.456C622.824 130.648 622.814 130.872 622.792 131.128C622.771 131.363 622.75 131.587 622.728 131.8H608.744V128.888H620.104L618.184 129.752C618.184 128.856 618.003 128.077 617.64 127.416C617.278 126.755 616.776 126.243 616.136 125.88C615.496 125.496 614.75 125.304 613.896 125.304C613.043 125.304 612.286 125.496 611.624 125.88C610.984 126.243 610.483 126.765 610.12 127.448C609.758 128.109 609.576 128.899 609.576 129.816V130.584C609.576 131.523 609.779 132.355 610.184 133.08C610.611 133.784 611.198 134.328 611.944 134.712C612.712 135.075 613.608 135.256 614.632 135.256C615.55 135.256 616.35 135.117 617.032 134.84C617.736 134.563 618.376 134.147 618.952 133.592L621.608 136.472C620.819 137.368 619.827 138.061 618.632 138.552C617.438 139.021 616.062 139.256 614.504 139.256ZM626.148 139V121.784H630.916V126.648L630.244 125.24C630.756 124.024 631.577 123.107 632.708 122.488C633.838 121.848 635.214 121.528 636.836 121.528V126.136C636.622 126.115 636.43 126.104 636.26 126.104C636.089 126.083 635.908 126.072 635.716 126.072C634.35 126.072 633.241 126.467 632.388 127.256C631.556 128.024 631.14 129.229 631.14 130.872V139H626.148ZM639.835 139V121.784H644.827V139H639.835ZM642.331 119.384C641.414 119.384 640.667 119.117 640.091 118.584C639.515 118.051 639.227 117.389 639.227 116.6C639.227 115.811 639.515 115.149 640.091 114.616C640.667 114.083 641.414 113.816 642.331 113.816C643.249 113.816 643.995 114.072 644.571 114.584C645.147 115.075 645.435 115.715 645.435 116.504C645.435 117.336 645.147 118.029 644.571 118.584C644.017 119.117 643.27 119.384 642.331 119.384ZM658.004 139.256C656.042 139.256 654.314 138.872 652.82 138.104C651.348 137.336 650.207 136.291 649.396 134.968C648.586 133.624 648.18 132.099 648.18 130.392C648.18 128.664 648.575 127.139 649.364 125.816C650.175 124.472 651.274 123.427 652.66 122.68C654.047 121.912 655.615 121.528 657.364 121.528C659.05 121.528 660.564 121.891 661.908 122.616C663.274 123.32 664.351 124.344 665.14 125.688C665.93 127.011 666.324 128.6 666.324 130.456C666.324 130.648 666.314 130.872 666.292 131.128C666.271 131.363 666.25 131.587 666.228 131.8H652.244V128.888H663.604L661.684 129.752C661.684 128.856 661.503 128.077 661.14 127.416C660.778 126.755 660.276 126.243 659.636 125.88C658.996 125.496 658.25 125.304 657.396 125.304C656.543 125.304 655.786 125.496 655.124 125.88C654.484 126.243 653.983 126.765 653.62 127.448C653.258 128.109 653.076 128.899 653.076 129.816V130.584C653.076 131.523 653.279 132.355 653.684 133.08C654.111 133.784 654.698 134.328 655.444 134.712C656.212 135.075 657.108 135.256 658.132 135.256C659.05 135.256 659.85 135.117 660.532 134.84C661.236 134.563 661.876 134.147 662.452 133.592L665.108 136.472C664.319 137.368 663.327 138.061 662.132 138.552C660.938 139.021 659.562 139.256 658.004 139.256ZM680.112 121.528C681.477 121.528 682.693 121.805 683.76 122.36C684.848 122.893 685.701 123.725 686.32 124.856C686.938 125.965 687.248 127.395 687.248 129.144V139H682.256V129.912C682.256 128.525 681.946 127.501 681.328 126.84C680.73 126.179 679.877 125.848 678.768 125.848C677.978 125.848 677.264 126.019 676.624 126.36C676.005 126.68 675.514 127.181 675.152 127.864C674.81 128.547 674.64 129.421 674.64 130.488V139H669.648V121.784H674.416V126.552L673.52 125.112C674.138 123.96 675.024 123.075 676.176 122.456C677.328 121.837 678.64 121.528 680.112 121.528ZM700.218 139.256C698.362 139.256 696.708 138.883 695.258 138.136C693.807 137.368 692.666 136.312 691.834 134.968C691.023 133.624 690.618 132.099 690.618 130.392C690.618 128.664 691.023 127.139 691.834 125.816C692.666 124.472 693.807 123.427 695.258 122.68C696.708 121.912 698.362 121.528 700.218 121.528C702.031 121.528 703.61 121.912 704.954 122.68C706.298 123.427 707.29 124.504 707.93 125.912L704.058 127.992C703.61 127.181 703.044 126.584 702.362 126.2C701.7 125.816 700.975 125.624 700.186 125.624C699.332 125.624 698.564 125.816 697.882 126.2C697.199 126.584 696.655 127.128 696.25 127.832C695.866 128.536 695.674 129.389 695.674 130.392C695.674 131.395 695.866 132.248 696.25 132.952C696.655 133.656 697.199 134.2 697.882 134.584C698.564 134.968 699.332 135.16 700.186 135.16C700.975 135.16 701.7 134.979 702.362 134.616C703.044 134.232 703.61 133.624 704.058 132.792L707.93 134.904C707.29 136.291 706.298 137.368 704.954 138.136C703.61 138.883 702.031 139.256 700.218 139.256ZM719.129 139.256C717.167 139.256 715.439 138.872 713.945 138.104C712.473 137.336 711.332 136.291 710.521 134.968C709.711 133.624 709.305 132.099 709.305 130.392C709.305 128.664 709.7 127.139 710.489 125.816C711.3 124.472 712.399 123.427 713.785 122.68C715.172 121.912 716.74 121.528 718.489 121.528C720.175 121.528 721.689 121.891 723.033 122.616C724.399 123.32 725.476 124.344 726.265 125.688C727.055 127.011 727.449 128.6 727.449 130.456C727.449 130.648 727.439 130.872 727.417 131.128C727.396 131.363 727.375 131.587 727.353 131.8H713.369V128.888H724.729L722.809 129.752C722.809 128.856 722.628 128.077 722.265 127.416C721.903 126.755 721.401 126.243 720.761 125.88C720.121 125.496 719.375 125.304 718.521 125.304C717.668 125.304 716.911 125.496 716.249 125.88C715.609 126.243 715.108 126.765 714.745 127.448C714.383 128.109 714.201 128.899 714.201 129.816V130.584C714.201 131.523 714.404 132.355 714.809 133.08C715.236 133.784 715.823 134.328 716.569 134.712C717.337 135.075 718.233 135.256 719.257 135.256C720.175 135.256 720.975 135.117 721.657 134.84C722.361 134.563 723.001 134.147 723.577 133.592L726.233 136.472C725.444 137.368 724.452 138.061 723.257 138.552C722.063 139.021 720.687 139.256 719.129 139.256ZM747.931 145.464C746.31 145.464 744.742 145.261 743.227 144.856C741.734 144.472 740.486 143.885 739.483 143.096L741.467 139.512C742.193 140.109 743.11 140.579 744.219 140.92C745.35 141.283 746.459 141.464 747.547 141.464C749.318 141.464 750.598 141.069 751.387 140.28C752.198 139.491 752.603 138.317 752.603 136.76V134.168L752.923 129.848L752.859 125.496V121.784H757.595V136.12C757.595 139.32 756.763 141.677 755.099 143.192C753.435 144.707 751.046 145.464 747.931 145.464ZM747.163 138.168C745.563 138.168 744.113 137.827 742.811 137.144C741.531 136.44 740.497 135.469 739.707 134.232C738.939 132.973 738.555 131.512 738.555 129.848C738.555 128.163 738.939 126.701 739.707 125.464C740.497 124.205 741.531 123.235 742.811 122.552C744.113 121.869 745.563 121.528 747.163 121.528C748.614 121.528 749.894 121.827 751.003 122.424C752.113 123 752.977 123.907 753.595 125.144C754.214 126.36 754.523 127.928 754.523 129.848C754.523 131.747 754.214 133.315 753.595 134.552C752.977 135.768 752.113 136.675 751.003 137.272C749.894 137.869 748.614 138.168 747.163 138.168ZM748.155 134.072C749.03 134.072 749.809 133.901 750.491 133.56C751.174 133.197 751.707 132.696 752.091 132.056C752.475 131.416 752.667 130.68 752.667 129.848C752.667 128.995 752.475 128.259 752.091 127.64C751.707 127 751.174 126.509 750.491 126.168C749.809 125.805 749.03 125.624 748.155 125.624C747.281 125.624 746.502 125.805 745.819 126.168C745.137 126.509 744.593 127 744.187 127.64C743.803 128.259 743.611 128.995 743.611 129.848C743.611 130.68 743.803 131.416 744.187 132.056C744.593 132.696 745.137 133.197 745.819 133.56C746.502 133.901 747.281 134.072 748.155 134.072ZM762.242 139V121.784H767.01V126.648L766.338 125.24C766.85 124.024 767.671 123.107 768.802 122.488C769.932 121.848 771.308 121.528 772.93 121.528V126.136C772.716 126.115 772.524 126.104 772.354 126.104C772.183 126.083 772.002 126.072 771.81 126.072C770.444 126.072 769.335 126.467 768.482 127.256C767.65 128.024 767.234 129.229 767.234 130.872V139H762.242ZM783.965 139.256C782.13 139.256 780.498 138.872 779.069 138.104C777.661 137.336 776.541 136.291 775.709 134.968C774.898 133.624 774.493 132.099 774.493 130.392C774.493 128.664 774.898 127.139 775.709 125.816C776.541 124.472 777.661 123.427 779.069 122.68C780.498 121.912 782.13 121.528 783.965 121.528C785.778 121.528 787.399 121.912 788.829 122.68C790.258 123.427 791.378 124.461 792.189 125.784C792.999 127.107 793.405 128.643 793.405 130.392C793.405 132.099 792.999 133.624 792.189 134.968C791.378 136.291 790.258 137.336 788.829 138.104C787.399 138.872 785.778 139.256 783.965 139.256ZM783.965 135.16C784.797 135.16 785.543 134.968 786.205 134.584C786.866 134.2 787.389 133.656 787.773 132.952C788.157 132.227 788.349 131.373 788.349 130.392C788.349 129.389 788.157 128.536 787.773 127.832C787.389 127.128 786.866 126.584 786.205 126.2C785.543 125.816 784.797 125.624 783.965 125.624C783.133 125.624 782.386 125.816 781.725 126.2C781.063 126.584 780.53 127.128 780.125 127.832C779.741 128.536 779.549 129.389 779.549 130.392C779.549 131.373 779.741 132.227 780.125 132.952C780.53 133.656 781.063 134.2 781.725 134.584C782.386 134.968 783.133 135.16 783.965 135.16ZM800.209 139L794.001 121.784H798.705L803.857 136.6H801.617L806.993 121.784H811.217L816.433 136.6H814.193L819.505 121.784H823.921L817.681 139H812.849L808.273 126.296H809.745L805.009 139H800.209ZM833.75 139.256C831.724 139.256 830.145 138.744 829.014 137.72C827.884 136.675 827.318 135.128 827.318 133.08V117.976H832.31V133.016C832.31 133.741 832.502 134.307 832.886 134.712C833.27 135.096 833.793 135.288 834.454 135.288C835.244 135.288 835.916 135.075 836.47 134.648L837.814 138.168C837.302 138.531 836.684 138.808 835.958 139C835.254 139.171 834.518 139.256 833.75 139.256ZM824.662 126.008V122.168H836.598V126.008H824.662ZM851.081 121.528C852.446 121.528 853.662 121.805 854.729 122.36C855.817 122.893 856.67 123.725 857.289 124.856C857.907 125.965 858.217 127.395 858.217 129.144V139H853.225V129.912C853.225 128.525 852.915 127.501 852.297 126.84C851.699 126.179 850.846 125.848 849.737 125.848C848.947 125.848 848.233 126.019 847.593 126.36C846.974 126.68 846.483 127.181 846.121 127.864C845.779 128.547 845.609 129.421 845.609 130.488V139H840.617V115.256H845.609V126.552L844.489 125.112C845.107 123.96 845.993 123.075 847.145 122.456C848.297 121.837 849.609 121.528 851.081 121.528Z" fill="#131313"/>
</svg>
