<svg width="987" height="207" viewBox="0 0 987 207" fill="none" xmlns="http://www.w3.org/2000/svg">
<path d="M715.145 18.9652C714.969 18.9652 714.817 18.9415 714.653 18.9177C714.489 18.882 714.336 18.8345 714.173 18.7632C714.02 18.7038 713.88 18.6206 713.739 18.5256C713.599 18.4424 713.47 18.3236 713.353 18.2166C713.236 18.0978 713.13 17.9671 713.036 17.8245C712.954 17.6701 712.872 17.5394 712.814 17.373C712.744 17.2185 712.685 17.0641 712.662 16.8977C712.626 16.7314 712.615 16.565 712.615 16.3987C712.615 15.7214 712.884 15.0679 713.353 14.5926C713.47 14.4856 713.599 14.3668 713.739 14.2718C713.868 14.1886 714.02 14.1054 714.173 14.046C714.336 13.9747 714.489 13.9391 714.653 13.8915C714.969 13.8321 715.309 13.8321 715.637 13.8915C715.801 13.9272 715.953 13.9628 716.105 14.046C716.257 14.1054 716.398 14.1886 716.538 14.2718C716.691 14.3668 716.808 14.4856 716.937 14.5926C717.042 14.6995 717.159 14.8421 717.241 14.9847C717.323 15.1273 717.417 15.2699 717.475 15.4243C717.534 15.5907 717.581 15.7452 717.616 15.9115C717.639 16.0779 717.663 16.2442 717.663 16.4106C717.663 16.5769 717.639 16.7433 717.616 16.9096C717.581 17.076 717.534 17.2304 717.475 17.3849C717.417 17.5512 717.323 17.6819 717.241 17.8364C717.159 17.979 717.042 18.0978 716.937 18.2285C716.456 18.6919 715.812 18.9652 715.145 18.9652Z" fill="#EBE6FC"/>
<path d="M974.316 102.259C974.316 100.833 975.428 99.7043 976.834 99.7043C978.228 99.7043 979.34 100.833 979.34 102.259C979.34 103.673 978.228 104.802 976.834 104.802C975.44 104.802 974.316 103.661 974.316 102.259ZM974.316 88.0835C974.316 86.6696 975.428 85.5289 976.834 85.5289C978.228 85.5289 979.34 86.6696 979.34 88.0835C979.34 89.4856 978.228 90.6382 976.834 90.6382C975.44 90.6382 974.316 89.4975 974.316 88.0835ZM974.316 73.92C974.316 72.5179 975.428 71.3654 976.834 71.3654C978.228 71.3654 979.34 72.5061 979.34 73.92C979.34 75.3221 978.228 76.4747 976.834 76.4747C975.44 76.4747 974.316 75.3221 974.316 73.92ZM974.316 59.7447C974.316 58.3426 975.428 57.19 976.834 57.19C978.228 57.19 979.34 58.3307 979.34 59.7447C979.34 61.1467 978.228 62.2993 976.834 62.2993C975.44 62.2993 974.316 61.1586 974.316 59.7447ZM974.316 45.5811C974.316 44.179 975.428 43.0265 976.834 43.0265C978.228 43.0265 979.34 44.1672 979.34 45.5811C979.34 47.007 978.228 48.1358 976.834 48.1358C975.44 48.1358 974.316 47.007 974.316 45.5811ZM972.149 32.8435C971.575 31.5721 972.114 30.0512 973.379 29.4571C974.644 28.8749 976.131 29.4333 976.717 30.7047C977.291 31.988 976.752 33.5089 975.487 34.0911C975.147 34.2575 974.784 34.3288 974.433 34.3288C973.484 34.3288 972.582 33.7822 972.149 32.8435ZM964.114 23.1714C962.955 22.3753 962.674 20.7831 963.458 19.6187C964.255 18.4542 965.812 18.1691 966.96 18.9652C968.108 19.7613 968.401 21.3535 967.616 22.5179C967.124 23.2427 966.34 23.6111 965.543 23.6111C965.051 23.623 964.548 23.4922 964.114 23.1714ZM952.343 19.0127C950.961 18.9176 949.907 17.7056 950.001 16.2917C950.094 14.8896 951.301 13.8202 952.695 13.9152C954.077 14.0103 955.131 15.2342 955.025 16.6481C954.943 17.9908 953.831 19.0246 952.519 19.0246C952.46 19.0246 952.414 19.0127 952.343 19.0127ZM936.04 16.4105C936.04 14.9965 937.164 13.8558 938.558 13.8558C939.94 13.8558 941.076 14.9965 941.076 16.4105C941.076 17.8126 939.94 18.9652 938.558 18.9652C937.164 18.9652 936.04 17.8245 936.04 16.4105ZM922.079 16.4105C922.079 14.9965 923.191 13.8558 924.597 13.8558C925.979 13.8558 927.103 14.9965 927.103 16.4105C927.103 17.8126 925.99 18.9652 924.597 18.9652C923.203 18.9652 922.079 17.8245 922.079 16.4105ZM908.117 16.4105C908.117 14.9965 909.23 13.8558 910.636 13.8558C912.018 13.8558 913.154 14.9965 913.154 16.4105C913.154 17.8126 912.029 18.9652 910.636 18.9652C909.23 18.9652 908.117 17.8245 908.117 16.4105ZM894.145 16.4105C894.145 14.9965 895.269 13.8558 896.663 13.8558C898.045 13.8558 899.181 14.9965 899.181 16.4105C899.181 17.8126 898.057 18.9652 896.663 18.9652C895.281 18.9652 894.145 17.8245 894.145 16.4105ZM880.183 16.4105C880.183 14.9965 881.308 13.8558 882.702 13.8558C884.084 13.8558 885.22 14.9965 885.22 16.4105C885.22 17.8126 884.095 18.9652 882.702 18.9652C881.32 18.9652 880.183 17.8245 880.183 16.4105ZM866.222 16.4105C866.222 14.9965 867.347 13.8558 868.74 13.8558C870.123 13.8558 871.259 14.9965 871.259 16.4105C871.259 17.8126 870.134 18.9652 868.74 18.9652C867.347 18.9652 866.222 17.8245 866.222 16.4105ZM852.261 16.4105C852.261 14.9965 853.386 13.8558 854.779 13.8558C856.161 13.8558 857.286 14.9965 857.286 16.4105C857.286 17.8126 856.173 18.9652 854.779 18.9652C853.397 18.9652 852.261 17.8245 852.261 16.4105ZM838.3 16.4105C838.3 14.9965 839.436 13.8558 840.818 13.8558C842.2 13.8558 843.336 14.9965 843.336 16.4105C843.336 17.8126 842.212 18.9652 840.818 18.9652C839.424 18.9652 838.3 17.8245 838.3 16.4105ZM824.339 16.4105C824.339 14.9965 825.463 13.8558 826.857 13.8558C828.239 13.8558 829.375 14.9965 829.375 16.4105C829.375 17.8126 828.251 18.9652 826.857 18.9652C825.463 18.9652 824.339 17.8245 824.339 16.4105ZM810.366 16.4105C810.366 14.9965 811.49 13.8558 812.884 13.8558C814.266 13.8558 815.402 14.9965 815.402 16.4105C815.402 17.8126 814.278 18.9652 812.884 18.9652C811.502 18.9652 810.366 17.8245 810.366 16.4105ZM796.405 16.4105C796.405 14.9965 797.529 13.8558 798.923 13.8558C800.329 13.8558 801.441 14.9965 801.441 16.4105C801.441 17.8126 800.329 18.9652 798.923 18.9652C797.529 18.9652 796.405 17.8245 796.405 16.4105ZM782.444 16.4105C782.444 14.9965 783.568 13.8558 784.962 13.8558C786.344 13.8558 787.469 14.9965 787.469 16.4105C787.469 17.8126 786.356 18.9652 784.962 18.9652C783.58 18.9652 782.444 17.8245 782.444 16.4105ZM768.483 16.4105C768.483 14.9965 769.607 13.8558 771.001 13.8558C772.395 13.8558 773.519 14.9965 773.519 16.4105C773.519 17.8126 772.395 18.9652 771.001 18.9652C769.607 18.9652 768.483 17.8245 768.483 16.4105ZM754.51 16.4105C754.51 14.9965 755.634 13.8558 757.028 13.8558C758.41 13.8558 759.546 14.9965 759.546 16.4105C759.546 17.8126 758.422 18.9652 757.028 18.9652C755.646 18.9652 754.51 17.8245 754.51 16.4105ZM740.549 16.4105C740.549 14.9965 741.673 13.8558 743.067 13.8558C744.449 13.8558 745.585 14.9965 745.585 16.4105C745.585 17.8126 744.461 18.9652 743.067 18.9652C741.685 18.9652 740.549 17.8245 740.549 16.4105ZM726.599 16.4105C726.599 14.9965 727.712 13.8558 729.118 13.8558C730.5 13.8558 731.636 14.9965 731.636 16.4105C731.636 17.8126 730.511 18.9652 729.118 18.9652C727.712 18.9652 726.599 17.8245 726.599 16.4105Z" fill="#EBE6FC"/>
<path d="M976.834 118.989C976.658 118.989 976.506 118.977 976.33 118.942C976.166 118.918 976.014 118.87 975.862 118.799C975.721 118.74 975.569 118.644 975.428 118.561C975.288 118.466 975.159 118.359 975.053 118.24C974.585 117.777 974.316 117.124 974.316 116.446C974.316 115.769 974.585 115.115 975.053 114.64C975.627 114.046 976.506 113.773 977.326 113.939C977.49 113.963 977.642 114.01 977.794 114.082C977.946 114.153 978.087 114.236 978.228 114.319C978.368 114.414 978.497 114.521 978.602 114.64C979.083 115.115 979.34 115.769 979.34 116.446C979.34 117.124 979.083 117.765 978.602 118.24C978.146 118.728 977.501 118.989 976.834 118.989Z" fill="#EBE6FC"/>
<path d="M232.432 207H955.236C972.746 207 987 192.539 987 174.776V89.3312H975.674V174.776C975.674 186.206 966.503 195.51 955.236 195.51H232.432V207Z" fill="#EBE6FC"/>
<path d="M36.2614 203.162H955.236C970.673 203.162 983.229 190.424 983.229 174.764V42.884C983.229 27.2233 970.673 14.4857 955.236 14.4857H284.926V18.3117H955.236C968.588 18.3117 979.446 29.3264 979.446 42.8721V174.752C979.446 188.298 968.588 199.312 955.236 199.312H36.2614C22.9094 199.312 12.052 188.298 12.052 174.752V144.785H8.28058V174.752C8.28058 190.424 20.8362 203.162 36.2614 203.162Z" fill="#231F20"/>
<path d="M301.3 32.8198C301.745 32.8198 302.179 32.6653 302.542 32.3445C303.327 31.6553 303.409 30.4433 302.729 29.6472L291.345 16.3987L302.753 3.17383C303.444 2.37773 303.362 1.16575 302.577 0.476588C301.792 -0.224458 300.598 -0.141283 299.918 0.65482L286.332 16.3987L299.883 32.1662C300.246 32.594 300.773 32.8198 301.3 32.8198Z" fill="#EBE6FC"/>
<path d="M10.1663 146.567C15.7765 146.567 20.3326 141.945 20.3326 136.254C20.3326 130.562 15.7765 125.94 10.1663 125.94C4.55611 125.94 1.33514e-05 130.562 1.33514e-05 136.254C1.33514e-05 141.945 4.55611 146.567 10.1663 146.567ZM10.1663 128.483C14.3828 128.483 17.8145 131.964 17.8145 136.242C17.8145 140.519 14.3828 144.001 10.1663 144.001C5.94988 144.001 2.5182 140.519 2.5182 136.242C2.5182 131.976 5.94988 128.483 10.1663 128.483Z" fill="#231F20"/>
<path d="M10.1663 140.531C7.83764 140.531 5.9499 138.616 5.9499 136.254C5.9499 133.891 7.83764 131.976 10.1663 131.976C12.495 131.976 14.3828 133.891 14.3828 136.254C14.3828 138.616 12.495 140.531 10.1663 140.531Z" fill="#EBE6FC"/>
<path d="M297.4 32.4039C297.74 32.4039 298.091 32.2851 298.372 32.0356C298.993 31.489 299.051 30.5384 298.513 29.9205L286.894 16.3987L298.548 2.88867C299.087 2.25892 299.028 1.32023 298.407 0.773654C297.798 0.227076 296.861 0.286487 296.323 0.91624L283.825 15.4006C283.334 15.9709 283.334 16.8145 283.825 17.373L296.299 31.8811C296.58 32.2257 296.99 32.4039 297.4 32.4039Z" fill="#231F20"/>
<path d="M70.7648 100V81.824H63.5968V77.6H83.1168V81.824H75.9488V100H70.7648ZM91.996 100.256C90.1613 100.256 88.5293 99.872 87.1 99.104C85.692 98.336 84.572 97.2907 83.74 95.968C82.9293 94.624 82.524 93.0987 82.524 91.392C82.524 89.664 82.9293 88.1387 83.74 86.816C84.572 85.472 85.692 84.4267 87.1 83.68C88.5293 82.912 90.1613 82.528 91.996 82.528C93.8093 82.528 95.4307 82.912 96.86 83.68C98.2893 84.4267 99.4093 85.4613 100.22 86.784C101.031 88.1067 101.436 89.6427 101.436 91.392C101.436 93.0987 101.031 94.624 100.22 95.968C99.4093 97.2907 98.2893 98.336 96.86 99.104C95.4307 99.872 93.8093 100.256 91.996 100.256ZM91.996 96.16C92.828 96.16 93.5747 95.968 94.236 95.584C94.8973 95.2 95.42 94.656 95.804 93.952C96.188 93.2267 96.38 92.3733 96.38 91.392C96.38 90.3893 96.188 89.536 95.804 88.832C95.42 88.128 94.8973 87.584 94.236 87.2C93.5747 86.816 92.828 86.624 91.996 86.624C91.164 86.624 90.4173 86.816 89.756 87.2C89.0947 87.584 88.5613 88.128 88.156 88.832C87.772 89.536 87.58 90.3893 87.58 91.392C87.58 92.3733 87.772 93.2267 88.156 93.952C88.5613 94.656 89.0947 95.2 89.756 95.584C90.4173 95.968 91.164 96.16 91.996 96.16ZM124.011 100.256C122.497 100.256 121.195 99.936 120.107 99.296C119.019 98.656 118.187 97.6853 117.611 96.384C117.035 95.0613 116.747 93.3973 116.747 91.392C116.747 89.3653 117.046 87.7013 117.643 86.4C118.262 85.0987 119.115 84.128 120.203 83.488C121.291 82.848 122.561 82.528 124.011 82.528C125.633 82.528 127.083 82.8907 128.363 83.616C129.665 84.3413 130.689 85.3653 131.435 86.688C132.203 88.0107 132.587 89.5787 132.587 91.392C132.587 93.184 132.203 94.7413 131.435 96.064C130.689 97.3867 129.665 98.4213 128.363 99.168C127.083 99.8933 125.633 100.256 124.011 100.256ZM113.835 100V76.256H118.827V86.272L118.507 91.36L118.603 96.48V100H113.835ZM123.147 96.16C123.979 96.16 124.715 95.968 125.355 95.584C126.017 95.2 126.539 94.656 126.923 93.952C127.329 93.2267 127.531 92.3733 127.531 91.392C127.531 90.3893 127.329 89.536 126.923 88.832C126.539 88.128 126.017 87.584 125.355 87.2C124.715 86.816 123.979 86.624 123.147 86.624C122.315 86.624 121.569 86.816 120.907 87.2C120.246 87.584 119.723 88.128 119.339 88.832C118.955 89.536 118.763 90.3893 118.763 91.392C118.763 92.3733 118.955 93.2267 119.339 93.952C119.723 94.656 120.246 95.2 120.907 95.584C121.569 95.968 122.315 96.16 123.147 96.16ZM144.473 100.256C142.51 100.256 140.782 99.872 139.289 99.104C137.817 98.336 136.676 97.2907 135.865 95.968C135.054 94.624 134.649 93.0987 134.649 91.392C134.649 89.664 135.044 88.1387 135.833 86.816C136.644 85.472 137.742 84.4267 139.129 83.68C140.516 82.912 142.084 82.528 143.833 82.528C145.518 82.528 147.033 82.8907 148.377 83.616C149.742 84.32 150.82 85.344 151.609 86.688C152.398 88.0107 152.793 89.6 152.793 91.456C152.793 91.648 152.782 91.872 152.761 92.128C152.74 92.3627 152.718 92.5867 152.697 92.8H138.713V89.888H150.073L148.153 90.752C148.153 89.856 147.972 89.0773 147.609 88.416C147.246 87.7547 146.745 87.2427 146.105 86.88C145.465 86.496 144.718 86.304 143.865 86.304C143.012 86.304 142.254 86.496 141.593 86.88C140.953 87.2427 140.452 87.7653 140.089 88.448C139.726 89.1093 139.545 89.8987 139.545 90.816V91.584C139.545 92.5227 139.748 93.3547 140.153 94.08C140.58 94.784 141.166 95.328 141.913 95.712C142.681 96.0747 143.577 96.256 144.601 96.256C145.518 96.256 146.318 96.1173 147.001 95.84C147.705 95.5627 148.345 95.1467 148.921 94.592L151.577 97.472C150.788 98.368 149.796 99.0613 148.601 99.552C147.406 100.021 146.03 100.256 144.473 100.256ZM175.739 100V96.64L175.419 95.904V89.888C175.419 88.8213 175.088 87.9893 174.427 87.392C173.787 86.7947 172.795 86.496 171.451 86.496C170.534 86.496 169.627 86.6453 168.731 86.944C167.856 87.2213 167.11 87.6053 166.491 88.096L164.699 84.608C165.638 83.9467 166.768 83.4347 168.091 83.072C169.414 82.7093 170.758 82.528 172.123 82.528C174.747 82.528 176.784 83.1467 178.235 84.384C179.686 85.6213 180.411 87.552 180.411 90.176V100H175.739ZM170.491 100.256C169.147 100.256 167.995 100.032 167.035 99.584C166.075 99.1147 165.339 98.4853 164.827 97.696C164.315 96.9067 164.059 96.0213 164.059 95.04C164.059 94.016 164.304 93.12 164.795 92.352C165.307 91.584 166.107 90.9867 167.195 90.56C168.283 90.112 169.702 89.888 171.451 89.888H176.027V92.8H171.995C170.822 92.8 170.011 92.992 169.563 93.376C169.136 93.76 168.923 94.24 168.923 94.816C168.923 95.456 169.168 95.968 169.659 96.352C170.171 96.7147 170.864 96.896 171.739 96.896C172.571 96.896 173.318 96.704 173.979 96.32C174.64 95.9147 175.12 95.328 175.419 94.56L176.187 96.864C175.824 97.9733 175.163 98.816 174.203 99.392C173.243 99.968 172.006 100.256 170.491 100.256ZM201.032 100.256C199.005 100.256 197.426 99.744 196.296 98.72C195.165 97.6747 194.6 96.128 194.6 94.08V78.976H199.592V94.016C199.592 94.7413 199.784 95.3067 200.168 95.712C200.552 96.096 201.074 96.288 201.736 96.288C202.525 96.288 203.197 96.0747 203.752 95.648L205.096 99.168C204.584 99.5307 203.965 99.808 203.24 100C202.536 100.171 201.8 100.256 201.032 100.256ZM191.944 87.008V83.168H203.88V87.008H191.944ZM207.898 100V82.784H212.666V87.648L211.994 86.24C212.506 85.024 213.327 84.1067 214.458 83.488C215.588 82.848 216.964 82.528 218.586 82.528V87.136C218.372 87.1147 218.18 87.104 218.01 87.104C217.839 87.0827 217.658 87.072 217.466 87.072C216.1 87.072 214.991 87.4667 214.138 88.256C213.306 89.024 212.89 90.2293 212.89 91.872V100H207.898ZM228.943 100.256C227.514 100.256 226.234 99.9787 225.103 99.424C223.994 98.8693 223.13 98.0267 222.511 96.896C221.892 95.744 221.583 94.2827 221.583 92.512V82.784H226.575V91.776C226.575 93.2053 226.874 94.2613 227.471 94.944C228.09 95.6053 228.954 95.936 230.063 95.936C230.831 95.936 231.514 95.776 232.111 95.456C232.708 95.1147 233.178 94.6027 233.519 93.92C233.86 93.216 234.031 92.3413 234.031 91.296V82.784H239.023V100H234.287V95.264L235.151 96.64C234.575 97.8347 233.722 98.7413 232.591 99.36C231.482 99.9573 230.266 100.256 228.943 100.256ZM249.44 100.256C247.968 100.256 246.549 100.085 245.184 99.744C243.84 99.3813 242.773 98.9333 241.984 98.4L243.648 94.816C244.437 95.3067 245.365 95.712 246.432 96.032C247.52 96.3307 248.586 96.48 249.632 96.48C250.784 96.48 251.594 96.3413 252.064 96.064C252.554 95.7867 252.8 95.4027 252.8 94.912C252.8 94.5067 252.608 94.208 252.224 94.016C251.861 93.8027 251.37 93.6427 250.752 93.536C250.133 93.4293 249.45 93.3227 248.704 93.216C247.978 93.1093 247.242 92.9707 246.496 92.8C245.749 92.608 245.066 92.3307 244.448 91.968C243.829 91.6053 243.328 91.1147 242.944 90.496C242.581 89.8773 242.4 89.0773 242.4 88.096C242.4 87.008 242.709 86.048 243.328 85.216C243.968 84.384 244.885 83.7333 246.08 83.264C247.274 82.7733 248.704 82.528 250.368 82.528C251.541 82.528 252.736 82.656 253.952 82.912C255.168 83.168 256.181 83.5413 256.992 84.032L255.328 87.584C254.496 87.0933 253.653 86.7627 252.8 86.592C251.968 86.4 251.157 86.304 250.368 86.304C249.258 86.304 248.448 86.4533 247.936 86.752C247.424 87.0507 247.168 87.4347 247.168 87.904C247.168 88.3307 247.349 88.6507 247.712 88.864C248.096 89.0773 248.597 89.248 249.216 89.376C249.834 89.504 250.506 89.6213 251.232 89.728C251.978 89.8133 252.725 89.952 253.472 90.144C254.218 90.336 254.89 90.6133 255.488 90.976C256.106 91.3173 256.608 91.7973 256.992 92.416C257.376 93.0133 257.568 93.8027 257.568 94.784C257.568 95.8507 257.248 96.8 256.608 97.632C255.968 98.4427 255.04 99.0827 253.824 99.552C252.629 100.021 251.168 100.256 249.44 100.256ZM267.688 100.256C265.661 100.256 264.082 99.744 262.952 98.72C261.821 97.6747 261.256 96.128 261.256 94.08V78.976H266.248V94.016C266.248 94.7413 266.44 95.3067 266.824 95.712C267.208 96.096 267.73 96.288 268.392 96.288C269.181 96.288 269.853 96.0747 270.408 95.648L271.752 99.168C271.24 99.5307 270.621 99.808 269.896 100C269.192 100.171 268.456 100.256 267.688 100.256ZM258.6 87.008V83.168H270.536V87.008H258.6ZM282.567 100.256C280.604 100.256 278.876 99.872 277.383 99.104C275.911 98.336 274.769 97.2907 273.959 95.968C273.148 94.624 272.743 93.0987 272.743 91.392C272.743 89.664 273.137 88.1387 273.927 86.816C274.737 85.472 275.836 84.4267 277.223 83.68C278.609 82.912 280.177 82.528 281.927 82.528C283.612 82.528 285.127 82.8907 286.471 83.616C287.836 84.32 288.913 85.344 289.703 86.688C290.492 88.0107 290.887 89.6 290.887 91.456C290.887 91.648 290.876 91.872 290.855 92.128C290.833 92.3627 290.812 92.5867 290.791 92.8H276.807V89.888H288.167L286.247 90.752C286.247 89.856 286.065 89.0773 285.703 88.416C285.34 87.7547 284.839 87.2427 284.199 86.88C283.559 86.496 282.812 86.304 281.959 86.304C281.105 86.304 280.348 86.496 279.687 86.88C279.047 87.2427 278.545 87.7653 278.183 88.448C277.82 89.1093 277.639 89.8987 277.639 90.816V91.584C277.639 92.5227 277.841 93.3547 278.247 94.08C278.673 94.784 279.26 95.328 280.007 95.712C280.775 96.0747 281.671 96.256 282.695 96.256C283.612 96.256 284.412 96.1173 285.095 95.84C285.799 95.5627 286.439 95.1467 287.015 94.592L289.671 97.472C288.881 98.368 287.889 99.0613 286.695 99.552C285.5 100.021 284.124 100.256 282.567 100.256ZM301.602 100.256C299.981 100.256 298.52 99.8933 297.218 99.168C295.917 98.4213 294.882 97.3867 294.114 96.064C293.368 94.7413 292.994 93.184 292.994 91.392C292.994 89.5787 293.368 88.0107 294.114 86.688C294.882 85.3653 295.917 84.3413 297.218 83.616C298.52 82.8907 299.981 82.528 301.602 82.528C303.053 82.528 304.322 82.848 305.41 83.488C306.498 84.128 307.341 85.0987 307.938 86.4C308.536 87.7013 308.834 89.3653 308.834 91.392C308.834 93.3973 308.546 95.0613 307.97 96.384C307.394 97.6853 306.562 98.656 305.474 99.296C304.408 99.936 303.117 100.256 301.602 100.256ZM302.466 96.16C303.277 96.16 304.013 95.968 304.674 95.584C305.336 95.2 305.858 94.656 306.242 93.952C306.648 93.2267 306.85 92.3733 306.85 91.392C306.85 90.3893 306.648 89.536 306.242 88.832C305.858 88.128 305.336 87.584 304.674 87.2C304.013 86.816 303.277 86.624 302.466 86.624C301.634 86.624 300.888 86.816 300.226 87.2C299.565 87.584 299.032 88.128 298.626 88.832C298.242 89.536 298.05 90.3893 298.05 91.392C298.05 92.3733 298.242 93.2267 298.626 93.952C299.032 94.656 299.565 95.2 300.226 95.584C300.888 95.968 301.634 96.16 302.466 96.16ZM306.978 100V96.48L307.074 91.36L306.754 86.272V76.256H311.746V100H306.978ZM335.989 100V96.64L335.669 95.904V89.888C335.669 88.8213 335.338 87.9893 334.677 87.392C334.037 86.7947 333.045 86.496 331.701 86.496C330.784 86.496 329.877 86.6453 328.981 86.944C328.106 87.2213 327.36 87.6053 326.741 88.096L324.949 84.608C325.888 83.9467 327.018 83.4347 328.341 83.072C329.664 82.7093 331.008 82.528 332.373 82.528C334.997 82.528 337.034 83.1467 338.485 84.384C339.936 85.6213 340.661 87.552 340.661 90.176V100H335.989ZM330.741 100.256C329.397 100.256 328.245 100.032 327.285 99.584C326.325 99.1147 325.589 98.4853 325.077 97.696C324.565 96.9067 324.309 96.0213 324.309 95.04C324.309 94.016 324.554 93.12 325.045 92.352C325.557 91.584 326.357 90.9867 327.445 90.56C328.533 90.112 329.952 89.888 331.701 89.888H336.277V92.8H332.245C331.072 92.8 330.261 92.992 329.813 93.376C329.386 93.76 329.173 94.24 329.173 94.816C329.173 95.456 329.418 95.968 329.909 96.352C330.421 96.7147 331.114 96.896 331.989 96.896C332.821 96.896 333.568 96.704 334.229 96.32C334.89 95.9147 335.37 95.328 335.669 94.56L336.437 96.864C336.074 97.9733 335.413 98.816 334.453 99.392C333.493 99.968 332.256 100.256 330.741 100.256ZM355.643 82.528C357.008 82.528 358.224 82.8053 359.291 83.36C360.379 83.8933 361.232 84.7253 361.851 85.856C362.47 86.9653 362.779 88.3947 362.779 90.144V100H357.787V90.912C357.787 89.5253 357.478 88.5013 356.859 87.84C356.262 87.1787 355.408 86.848 354.299 86.848C353.51 86.848 352.795 87.0187 352.155 87.36C351.536 87.68 351.046 88.1813 350.683 88.864C350.342 89.5467 350.171 90.4213 350.171 91.488V100H345.179V82.784H349.947V87.552L349.051 86.112C349.67 84.96 350.555 84.0747 351.707 83.456C352.859 82.8373 354.171 82.528 355.643 82.528ZM374.821 100.256C373.2 100.256 371.738 99.8933 370.437 99.168C369.136 98.4213 368.101 97.3867 367.333 96.064C366.586 94.7413 366.213 93.184 366.213 91.392C366.213 89.5787 366.586 88.0107 367.333 86.688C368.101 85.3653 369.136 84.3413 370.437 83.616C371.738 82.8907 373.2 82.528 374.821 82.528C376.272 82.528 377.541 82.848 378.629 83.488C379.717 84.128 380.56 85.0987 381.157 86.4C381.754 87.7013 382.053 89.3653 382.053 91.392C382.053 93.3973 381.765 95.0613 381.189 96.384C380.613 97.6853 379.781 98.656 378.693 99.296C377.626 99.936 376.336 100.256 374.821 100.256ZM375.685 96.16C376.496 96.16 377.232 95.968 377.893 95.584C378.554 95.2 379.077 94.656 379.461 93.952C379.866 93.2267 380.069 92.3733 380.069 91.392C380.069 90.3893 379.866 89.536 379.461 88.832C379.077 88.128 378.554 87.584 377.893 87.2C377.232 86.816 376.496 86.624 375.685 86.624C374.853 86.624 374.106 86.816 373.445 87.2C372.784 87.584 372.25 88.128 371.845 88.832C371.461 89.536 371.269 90.3893 371.269 91.392C371.269 92.3733 371.461 93.2267 371.845 93.952C372.25 94.656 372.784 95.2 373.445 95.584C374.106 95.968 374.853 96.16 375.685 96.16ZM380.197 100V96.48L380.293 91.36L379.973 86.272V76.256H384.965V100H380.197ZM404.44 100.256C402.968 100.256 401.549 100.085 400.184 99.744C398.84 99.3813 397.773 98.9333 396.984 98.4L398.648 94.816C399.437 95.3067 400.365 95.712 401.432 96.032C402.52 96.3307 403.586 96.48 404.632 96.48C405.784 96.48 406.594 96.3413 407.064 96.064C407.554 95.7867 407.8 95.4027 407.8 94.912C407.8 94.5067 407.608 94.208 407.224 94.016C406.861 93.8027 406.37 93.6427 405.752 93.536C405.133 93.4293 404.45 93.3227 403.704 93.216C402.978 93.1093 402.242 92.9707 401.496 92.8C400.749 92.608 400.066 92.3307 399.448 91.968C398.829 91.6053 398.328 91.1147 397.944 90.496C397.581 89.8773 397.4 89.0773 397.4 88.096C397.4 87.008 397.709 86.048 398.328 85.216C398.968 84.384 399.885 83.7333 401.08 83.264C402.274 82.7733 403.704 82.528 405.368 82.528C406.541 82.528 407.736 82.656 408.952 82.912C410.168 83.168 411.181 83.5413 411.992 84.032L410.328 87.584C409.496 87.0933 408.653 86.7627 407.8 86.592C406.968 86.4 406.157 86.304 405.368 86.304C404.258 86.304 403.448 86.4533 402.936 86.752C402.424 87.0507 402.168 87.4347 402.168 87.904C402.168 88.3307 402.349 88.6507 402.712 88.864C403.096 89.0773 403.597 89.248 404.216 89.376C404.834 89.504 405.506 89.6213 406.232 89.728C406.978 89.8133 407.725 89.952 408.472 90.144C409.218 90.336 409.89 90.6133 410.488 90.976C411.106 91.3173 411.608 91.7973 411.992 92.416C412.376 93.0133 412.568 93.8027 412.568 94.784C412.568 95.8507 412.248 96.8 411.608 97.632C410.968 98.4427 410.04 99.0827 408.824 99.552C407.629 100.021 406.168 100.256 404.44 100.256ZM422.688 100.256C420.661 100.256 419.082 99.744 417.952 98.72C416.821 97.6747 416.256 96.128 416.256 94.08V78.976H421.248V94.016C421.248 94.7413 421.44 95.3067 421.824 95.712C422.208 96.096 422.73 96.288 423.392 96.288C424.181 96.288 424.853 96.0747 425.408 95.648L426.752 99.168C426.24 99.5307 425.621 99.808 424.896 100C424.192 100.171 423.456 100.256 422.688 100.256ZM413.6 87.008V83.168H425.536V87.008H413.6ZM429.554 100V82.784H434.322V87.648L433.65 86.24C434.162 85.024 434.983 84.1067 436.114 83.488C437.245 82.848 438.621 82.528 440.242 82.528V87.136C440.029 87.1147 439.837 87.104 439.666 87.104C439.495 87.0827 439.314 87.072 439.122 87.072C437.757 87.072 436.647 87.4667 435.794 88.256C434.962 89.024 434.546 90.2293 434.546 91.872V100H429.554ZM452.645 100V96.64L452.325 95.904V89.888C452.325 88.8213 451.995 87.9893 451.333 87.392C450.693 86.7947 449.701 86.496 448.357 86.496C447.44 86.496 446.533 86.6453 445.637 86.944C444.763 87.2213 444.016 87.6053 443.397 88.096L441.605 84.608C442.544 83.9467 443.675 83.4347 444.997 83.072C446.32 82.7093 447.664 82.528 449.029 82.528C451.653 82.528 453.691 83.1467 455.141 84.384C456.592 85.6213 457.317 87.552 457.317 90.176V100H452.645ZM447.397 100.256C446.053 100.256 444.901 100.032 443.941 99.584C442.981 99.1147 442.245 98.4853 441.733 97.696C441.221 96.9067 440.965 96.0213 440.965 95.04C440.965 94.016 441.211 93.12 441.701 92.352C442.213 91.584 443.013 90.9867 444.101 90.56C445.189 90.112 446.608 89.888 448.357 89.888H452.933V92.8H448.901C447.728 92.8 446.917 92.992 446.469 93.376C446.043 93.76 445.829 94.24 445.829 94.816C445.829 95.456 446.075 95.968 446.565 96.352C447.077 96.7147 447.771 96.896 448.645 96.896C449.477 96.896 450.224 96.704 450.885 96.32C451.547 95.9147 452.027 95.328 452.325 94.56L453.093 96.864C452.731 97.9733 452.069 98.816 451.109 99.392C450.149 99.968 448.912 100.256 447.397 100.256ZM468.875 100.256C466.849 100.256 465.27 99.744 464.139 98.72C463.009 97.6747 462.443 96.128 462.443 94.08V78.976H467.435V94.016C467.435 94.7413 467.627 95.3067 468.011 95.712C468.395 96.096 468.918 96.288 469.579 96.288C470.369 96.288 471.041 96.0747 471.595 95.648L472.939 99.168C472.427 99.5307 471.809 99.808 471.083 100C470.379 100.171 469.643 100.256 468.875 100.256ZM459.787 87.008V83.168H471.723V87.008H459.787ZM483.754 100.256C481.792 100.256 480.064 99.872 478.57 99.104C477.098 98.336 475.957 97.2907 475.146 95.968C474.336 94.624 473.93 93.0987 473.93 91.392C473.93 89.664 474.325 88.1387 475.114 86.816C475.925 85.472 477.024 84.4267 478.41 83.68C479.797 82.912 481.365 82.528 483.114 82.528C484.8 82.528 486.314 82.8907 487.658 83.616C489.024 84.32 490.101 85.344 490.89 86.688C491.68 88.0107 492.074 89.6 492.074 91.456C492.074 91.648 492.064 91.872 492.042 92.128C492.021 92.3627 492 92.5867 491.978 92.8H477.994V89.888H489.354L487.434 90.752C487.434 89.856 487.253 89.0773 486.89 88.416C486.528 87.7547 486.026 87.2427 485.386 86.88C484.746 86.496 484 86.304 483.146 86.304C482.293 86.304 481.536 86.496 480.874 86.88C480.234 87.2427 479.733 87.7653 479.37 88.448C479.008 89.1093 478.826 89.8987 478.826 90.816V91.584C478.826 92.5227 479.029 93.3547 479.434 94.08C479.861 94.784 480.448 95.328 481.194 95.712C481.962 96.0747 482.858 96.256 483.882 96.256C484.8 96.256 485.6 96.1173 486.282 95.84C486.986 95.5627 487.626 95.1467 488.202 94.592L490.858 97.472C490.069 98.368 489.077 99.0613 487.882 99.552C486.688 100.021 485.312 100.256 483.754 100.256ZM503.494 106.464C501.872 106.464 500.304 106.261 498.79 105.856C497.296 105.472 496.048 104.885 495.046 104.096L497.03 100.512C497.755 101.109 498.672 101.579 499.782 101.92C500.912 102.283 502.022 102.464 503.11 102.464C504.88 102.464 506.16 102.069 506.95 101.28C507.76 100.491 508.166 99.3173 508.166 97.76V95.168L508.486 90.848L508.422 86.496V82.784H513.158V97.12C513.158 100.32 512.326 102.677 510.662 104.192C508.998 105.707 506.608 106.464 503.494 106.464ZM502.726 99.168C501.126 99.168 499.675 98.8267 498.374 98.144C497.094 97.44 496.059 96.4693 495.27 95.232C494.502 93.9733 494.118 92.512 494.118 90.848C494.118 89.1627 494.502 87.7013 495.27 86.464C496.059 85.2053 497.094 84.2347 498.374 83.552C499.675 82.8693 501.126 82.528 502.726 82.528C504.176 82.528 505.456 82.8267 506.566 83.424C507.675 84 508.539 84.9067 509.158 86.144C509.776 87.36 510.086 88.928 510.086 90.848C510.086 92.7467 509.776 94.3147 509.158 95.552C508.539 96.768 507.675 97.6747 506.566 98.272C505.456 98.8693 504.176 99.168 502.726 99.168ZM503.718 95.072C504.592 95.072 505.371 94.9013 506.054 94.56C506.736 94.1973 507.27 93.696 507.654 93.056C508.038 92.416 508.23 91.68 508.23 90.848C508.23 89.9947 508.038 89.2587 507.654 88.64C507.27 88 506.736 87.5093 506.054 87.168C505.371 86.8053 504.592 86.624 503.718 86.624C502.843 86.624 502.064 86.8053 501.382 87.168C500.699 87.5093 500.155 88 499.75 88.64C499.366 89.2587 499.174 89.9947 499.174 90.848C499.174 91.68 499.366 92.416 499.75 93.056C500.155 93.696 500.699 94.1973 501.382 94.56C502.064 94.9013 502.843 95.072 503.718 95.072ZM517.804 100V82.784H522.796V100H517.804ZM520.3 80.384C519.383 80.384 518.636 80.1173 518.06 79.584C517.484 79.0507 517.196 78.3893 517.196 77.6C517.196 76.8107 517.484 76.1493 518.06 75.616C518.636 75.0827 519.383 74.816 520.3 74.816C521.217 74.816 521.964 75.072 522.54 75.584C523.116 76.0747 523.404 76.7147 523.404 77.504C523.404 78.336 523.116 79.0293 522.54 79.584C521.985 80.1173 521.239 80.384 520.3 80.384ZM535.749 100.256C533.893 100.256 532.24 99.8827 530.789 99.136C529.338 98.368 528.197 97.312 527.365 95.968C526.554 94.624 526.149 93.0987 526.149 91.392C526.149 89.664 526.554 88.1387 527.365 86.816C528.197 85.472 529.338 84.4267 530.789 83.68C532.24 82.912 533.893 82.528 535.749 82.528C537.562 82.528 539.141 82.912 540.485 83.68C541.829 84.4267 542.821 85.504 543.461 86.912L539.589 88.992C539.141 88.1813 538.576 87.584 537.893 87.2C537.232 86.816 536.506 86.624 535.717 86.624C534.864 86.624 534.096 86.816 533.413 87.2C532.73 87.584 532.186 88.128 531.781 88.832C531.397 89.536 531.205 90.3893 531.205 91.392C531.205 92.3947 531.397 93.248 531.781 93.952C532.186 94.656 532.73 95.2 533.413 95.584C534.096 95.968 534.864 96.16 535.717 96.16C536.506 96.16 537.232 95.9787 537.893 95.616C538.576 95.232 539.141 94.624 539.589 93.792L543.461 95.904C542.821 97.2907 541.829 98.368 540.485 99.136C539.141 99.8827 537.562 100.256 535.749 100.256ZM555.75 100V77.6H560.934V100H555.75ZM570.89 100V81.824H563.722V77.6H583.242V81.824H576.074V100H570.89ZM604.918 100.256C603.467 100.256 602.198 99.936 601.11 99.296C600.022 98.656 599.168 97.6853 598.55 96.384C597.952 95.0613 597.654 93.3973 597.654 91.392C597.654 89.3653 597.942 87.7013 598.518 86.4C599.094 85.0987 599.926 84.128 601.014 83.488C602.102 82.848 603.403 82.528 604.918 82.528C606.539 82.528 607.99 82.9013 609.27 83.648C610.571 84.3733 611.595 85.3973 612.342 86.72C613.11 88.0427 613.494 89.6 613.494 91.392C613.494 93.2053 613.11 94.7733 612.342 96.096C611.595 97.4187 610.571 98.4427 609.27 99.168C607.99 99.8933 606.539 100.256 604.918 100.256ZM594.742 106.208V82.784H599.51V86.304L599.414 91.424L599.734 96.512V106.208H594.742ZM604.054 96.16C604.886 96.16 605.622 95.968 606.262 95.584C606.923 95.2 607.446 94.656 607.83 93.952C608.235 93.2267 608.438 92.3733 608.438 91.392C608.438 90.3893 608.235 89.536 607.83 88.832C607.446 88.128 606.923 87.584 606.262 87.2C605.622 86.816 604.886 86.624 604.054 86.624C603.222 86.624 602.475 86.816 601.814 87.2C601.152 87.584 600.63 88.128 600.246 88.832C599.862 89.536 599.67 90.3893 599.67 91.392C599.67 92.3733 599.862 93.2267 600.246 93.952C600.63 94.656 601.152 95.2 601.814 95.584C602.475 95.968 603.222 96.16 604.054 96.16ZM627.114 100V96.64L626.794 95.904V89.888C626.794 88.8213 626.463 87.9893 625.802 87.392C625.162 86.7947 624.17 86.496 622.826 86.496C621.909 86.496 621.002 86.6453 620.106 86.944C619.231 87.2213 618.485 87.6053 617.866 88.096L616.074 84.608C617.013 83.9467 618.143 83.4347 619.466 83.072C620.789 82.7093 622.133 82.528 623.498 82.528C626.122 82.528 628.159 83.1467 629.61 84.384C631.061 85.6213 631.786 87.552 631.786 90.176V100H627.114ZM621.866 100.256C620.522 100.256 619.37 100.032 618.41 99.584C617.45 99.1147 616.714 98.4853 616.202 97.696C615.69 96.9067 615.434 96.0213 615.434 95.04C615.434 94.016 615.679 93.12 616.17 92.352C616.682 91.584 617.482 90.9867 618.57 90.56C619.658 90.112 621.077 89.888 622.826 89.888H627.402V92.8H623.37C622.197 92.8 621.386 92.992 620.938 93.376C620.511 93.76 620.298 94.24 620.298 94.816C620.298 95.456 620.543 95.968 621.034 96.352C621.546 96.7147 622.239 96.896 623.114 96.896C623.946 96.896 624.693 96.704 625.354 96.32C626.015 95.9147 626.495 95.328 626.794 94.56L627.562 96.864C627.199 97.9733 626.538 98.816 625.578 99.392C624.618 99.968 623.381 100.256 621.866 100.256ZM636.304 100V82.784H641.072V87.648L640.4 86.24C640.912 85.024 641.733 84.1067 642.864 83.488C643.995 82.848 645.371 82.528 646.992 82.528V87.136C646.779 87.1147 646.587 87.104 646.416 87.104C646.245 87.0827 646.064 87.072 645.872 87.072C644.507 87.072 643.397 87.4667 642.544 88.256C641.712 89.024 641.296 90.2293 641.296 91.872V100H636.304ZM657.594 100.256C655.567 100.256 653.989 99.744 652.858 98.72C651.727 97.6747 651.162 96.128 651.162 94.08V78.976H656.154V94.016C656.154 94.7413 656.346 95.3067 656.73 95.712C657.114 96.096 657.637 96.288 658.298 96.288C659.087 96.288 659.759 96.0747 660.314 95.648L661.658 99.168C661.146 99.5307 660.527 99.808 659.802 100C659.098 100.171 658.362 100.256 657.594 100.256ZM648.506 87.008V83.168H660.442V87.008H648.506ZM674.924 82.528C676.29 82.528 677.506 82.8053 678.572 83.36C679.66 83.8933 680.514 84.7253 681.132 85.856C681.751 86.9653 682.06 88.3947 682.06 90.144V100H677.068V90.912C677.068 89.5253 676.759 88.5013 676.14 87.84C675.543 87.1787 674.69 86.848 673.58 86.848C672.791 86.848 672.076 87.0187 671.436 87.36C670.818 87.68 670.327 88.1813 669.964 88.864C669.623 89.5467 669.452 90.4213 669.452 91.488V100H664.46V82.784H669.228V87.552L668.332 86.112C668.951 84.96 669.836 84.0747 670.988 83.456C672.14 82.8373 673.452 82.528 674.924 82.528ZM695.254 100.256C693.292 100.256 691.564 99.872 690.07 99.104C688.598 98.336 687.457 97.2907 686.646 95.968C685.836 94.624 685.43 93.0987 685.43 91.392C685.43 89.664 685.825 88.1387 686.614 86.816C687.425 85.472 688.524 84.4267 689.91 83.68C691.297 82.912 692.865 82.528 694.614 82.528C696.3 82.528 697.814 82.8907 699.158 83.616C700.524 84.32 701.601 85.344 702.39 86.688C703.18 88.0107 703.574 89.6 703.574 91.456C703.574 91.648 703.564 91.872 703.542 92.128C703.521 92.3627 703.5 92.5867 703.478 92.8H689.494V89.888H700.854L698.934 90.752C698.934 89.856 698.753 89.0773 698.39 88.416C698.028 87.7547 697.526 87.2427 696.886 86.88C696.246 86.496 695.5 86.304 694.646 86.304C693.793 86.304 693.036 86.496 692.374 86.88C691.734 87.2427 691.233 87.7653 690.87 88.448C690.508 89.1093 690.326 89.8987 690.326 90.816V91.584C690.326 92.5227 690.529 93.3547 690.934 94.08C691.361 94.784 691.948 95.328 692.694 95.712C693.462 96.0747 694.358 96.256 695.382 96.256C696.3 96.256 697.1 96.1173 697.782 95.84C698.486 95.5627 699.126 95.1467 699.702 94.592L702.358 97.472C701.569 98.368 700.577 99.0613 699.382 99.552C698.188 100.021 696.812 100.256 695.254 100.256ZM706.898 100V82.784H711.666V87.648L710.994 86.24C711.506 85.024 712.327 84.1067 713.458 83.488C714.588 82.848 715.964 82.528 717.586 82.528V87.136C717.372 87.1147 717.18 87.104 717.01 87.104C716.839 87.0827 716.658 87.072 716.466 87.072C715.1 87.072 713.991 87.4667 713.138 88.256C712.306 89.024 711.89 90.2293 711.89 91.872V100H706.898ZM719.503 104.928L721.615 97.248L722.319 100.128C721.401 100.128 720.644 99.8613 720.047 99.328C719.471 98.7947 719.183 98.0587 719.183 97.12C719.183 96.1813 719.481 95.4347 720.079 94.88C720.676 94.3253 721.412 94.048 722.286 94.048C723.183 94.048 723.919 94.336 724.495 94.912C725.071 95.4667 725.359 96.2027 725.359 97.12C725.359 97.3973 725.337 97.6747 725.295 97.952C725.252 98.208 725.167 98.528 725.039 98.912C724.932 99.2747 724.751 99.744 724.495 100.32L722.671 104.928H719.503ZM737.804 100V82.784H742.572V87.648L741.9 86.24C742.412 85.024 743.233 84.1067 744.364 83.488C745.495 82.848 746.871 82.528 748.492 82.528V87.136C748.279 87.1147 748.087 87.104 747.916 87.104C747.745 87.0827 747.564 87.072 747.372 87.072C746.007 87.072 744.897 87.4667 744.044 88.256C743.212 89.024 742.796 90.2293 742.796 91.872V100H737.804ZM759.879 100.256C757.917 100.256 756.189 99.872 754.695 99.104C753.223 98.336 752.082 97.2907 751.271 95.968C750.461 94.624 750.055 93.0987 750.055 91.392C750.055 89.664 750.45 88.1387 751.239 86.816C752.05 85.472 753.149 84.4267 754.535 83.68C755.922 82.912 757.49 82.528 759.239 82.528C760.925 82.528 762.439 82.8907 763.783 83.616C765.149 84.32 766.226 85.344 767.015 86.688C767.805 88.0107 768.199 89.6 768.199 91.456C768.199 91.648 768.189 91.872 768.167 92.128C768.146 92.3627 768.125 92.5867 768.103 92.8H754.119V89.888H765.479L763.559 90.752C763.559 89.856 763.378 89.0773 763.015 88.416C762.653 87.7547 762.151 87.2427 761.511 86.88C760.871 86.496 760.125 86.304 759.271 86.304C758.418 86.304 757.661 86.496 756.999 86.88C756.359 87.2427 755.858 87.7653 755.495 88.448C755.133 89.1093 754.951 89.8987 754.951 90.816V91.584C754.951 92.5227 755.154 93.3547 755.559 94.08C755.986 94.784 756.573 95.328 757.319 95.712C758.087 96.0747 758.983 96.256 760.007 96.256C760.925 96.256 761.725 96.1173 762.407 95.84C763.111 95.5627 763.751 95.1467 764.327 94.592L766.983 97.472C766.194 98.368 765.202 99.0613 764.007 99.552C762.813 100.021 761.437 100.256 759.879 100.256ZM779.843 100.256C777.987 100.256 776.333 99.8827 774.883 99.136C773.432 98.368 772.291 97.312 771.459 95.968C770.648 94.624 770.243 93.0987 770.243 91.392C770.243 89.664 770.648 88.1387 771.459 86.816C772.291 85.472 773.432 84.4267 774.883 83.68C776.333 82.912 777.987 82.528 779.843 82.528C781.656 82.528 783.235 82.912 784.579 83.68C785.923 84.4267 786.915 85.504 787.555 86.912L783.683 88.992C783.235 88.1813 782.669 87.584 781.987 87.2C781.325 86.816 780.6 86.624 779.811 86.624C778.957 86.624 778.189 86.816 777.507 87.2C776.824 87.584 776.28 88.128 775.875 88.832C775.491 89.536 775.299 90.3893 775.299 91.392C775.299 92.3947 775.491 93.248 775.875 93.952C776.28 94.656 776.824 95.2 777.507 95.584C778.189 95.968 778.957 96.16 779.811 96.16C780.6 96.16 781.325 95.9787 781.987 95.616C782.669 95.232 783.235 94.624 783.683 93.792L787.555 95.904C786.915 97.2907 785.923 98.368 784.579 99.136C783.235 99.8827 781.656 100.256 779.843 100.256ZM798.402 100.256C796.568 100.256 794.936 99.872 793.506 99.104C792.098 98.336 790.978 97.2907 790.146 95.968C789.336 94.624 788.93 93.0987 788.93 91.392C788.93 89.664 789.336 88.1387 790.146 86.816C790.978 85.472 792.098 84.4267 793.506 83.68C794.936 82.912 796.568 82.528 798.402 82.528C800.216 82.528 801.837 82.912 803.266 83.68C804.696 84.4267 805.816 85.4613 806.626 86.784C807.437 88.1067 807.842 89.6427 807.842 91.392C807.842 93.0987 807.437 94.624 806.626 95.968C805.816 97.2907 804.696 98.336 803.266 99.104C801.837 99.872 800.216 100.256 798.402 100.256ZM798.402 96.16C799.234 96.16 799.981 95.968 800.642 95.584C801.304 95.2 801.826 94.656 802.21 93.952C802.594 93.2267 802.786 92.3733 802.786 91.392C802.786 90.3893 802.594 89.536 802.21 88.832C801.826 88.128 801.304 87.584 800.642 87.2C799.981 86.816 799.234 86.624 798.402 86.624C797.57 86.624 796.824 86.816 796.162 87.2C795.501 87.584 794.968 88.128 794.562 88.832C794.178 89.536 793.986 90.3893 793.986 91.392C793.986 92.3733 794.178 93.2267 794.562 93.952C794.968 94.656 795.501 95.2 796.162 95.584C796.824 95.968 797.57 96.16 798.402 96.16ZM819.275 106.464C817.654 106.464 816.086 106.261 814.571 105.856C813.078 105.472 811.83 104.885 810.827 104.096L812.811 100.512C813.536 101.109 814.454 101.579 815.563 101.92C816.694 102.283 817.803 102.464 818.891 102.464C820.662 102.464 821.942 102.069 822.731 101.28C823.542 100.491 823.947 99.3173 823.947 97.76V95.168L824.267 90.848L824.203 86.496V82.784H828.939V97.12C828.939 100.32 828.107 102.677 826.443 104.192C824.779 105.707 822.39 106.464 819.275 106.464ZM818.507 99.168C816.907 99.168 815.456 98.8267 814.155 98.144C812.875 97.44 811.84 96.4693 811.051 95.232C810.283 93.9733 809.899 92.512 809.899 90.848C809.899 89.1627 810.283 87.7013 811.051 86.464C811.84 85.2053 812.875 84.2347 814.155 83.552C815.456 82.8693 816.907 82.528 818.507 82.528C819.958 82.528 821.238 82.8267 822.347 83.424C823.456 84 824.32 84.9067 824.939 86.144C825.558 87.36 825.867 88.928 825.867 90.848C825.867 92.7467 825.558 94.3147 824.939 95.552C824.32 96.768 823.456 97.6747 822.347 98.272C821.238 98.8693 819.958 99.168 818.507 99.168ZM819.499 95.072C820.374 95.072 821.152 94.9013 821.835 94.56C822.518 94.1973 823.051 93.696 823.435 93.056C823.819 92.416 824.011 91.68 824.011 90.848C824.011 89.9947 823.819 89.2587 823.435 88.64C823.051 88 822.518 87.5093 821.835 87.168C821.152 86.8053 820.374 86.624 819.499 86.624C818.624 86.624 817.846 86.8053 817.163 87.168C816.48 87.5093 815.936 88 815.531 88.64C815.147 89.2587 814.955 89.9947 814.955 90.848C814.955 91.68 815.147 92.416 815.531 93.056C815.936 93.696 816.48 94.1973 817.163 94.56C817.846 94.9013 818.624 95.072 819.499 95.072ZM844.049 82.528C845.415 82.528 846.631 82.8053 847.697 83.36C848.785 83.8933 849.639 84.7253 850.257 85.856C850.876 86.9653 851.185 88.3947 851.185 90.144V100H846.193V90.912C846.193 89.5253 845.884 88.5013 845.265 87.84C844.668 87.1787 843.815 86.848 842.705 86.848C841.916 86.848 841.201 87.0187 840.561 87.36C839.943 87.68 839.452 88.1813 839.089 88.864C838.748 89.5467 838.577 90.4213 838.577 91.488V100H833.585V82.784H838.353V87.552L837.457 86.112C838.076 84.96 838.961 84.0747 840.113 83.456C841.265 82.8373 842.577 82.528 844.049 82.528ZM855.71 100V82.784H860.702V100H855.71ZM858.206 80.384C857.289 80.384 856.542 80.1173 855.966 79.584C855.39 79.0507 855.102 78.3893 855.102 77.6C855.102 76.8107 855.39 76.1493 855.966 75.616C856.542 75.0827 857.289 74.816 858.206 74.816C859.124 74.816 859.87 75.072 860.446 75.584C861.022 76.0747 861.31 76.7147 861.31 77.504C861.31 78.336 861.022 79.0293 860.446 79.584C859.892 80.1173 859.145 80.384 858.206 80.384ZM864.151 100V96.992L874.327 84.96L875.191 86.624H864.375V82.784H879.223V85.792L869.047 97.824L868.151 96.16H879.511V100H864.151ZM891.036 100.256C889.073 100.256 887.345 99.872 885.852 99.104C884.38 98.336 883.238 97.2907 882.428 95.968C881.617 94.624 881.212 93.0987 881.212 91.392C881.212 89.664 881.606 88.1387 882.396 86.816C883.206 85.472 884.305 84.4267 885.692 83.68C887.078 82.912 888.646 82.528 890.396 82.528C892.081 82.528 893.596 82.8907 894.94 83.616C896.305 84.32 897.382 85.344 898.172 86.688C898.961 88.0107 899.356 89.6 899.356 91.456C899.356 91.648 899.345 91.872 899.324 92.128C899.302 92.3627 899.281 92.5867 899.26 92.8H885.276V89.888H896.635L894.716 90.752C894.716 89.856 894.534 89.0773 894.172 88.416C893.809 87.7547 893.308 87.2427 892.668 86.88C892.028 86.496 891.281 86.304 890.428 86.304C889.574 86.304 888.817 86.496 888.156 86.88C887.516 87.2427 887.014 87.7653 886.652 88.448C886.289 89.1093 886.108 89.8987 886.108 90.816V91.584C886.108 92.5227 886.31 93.3547 886.716 94.08C887.142 94.784 887.729 95.328 888.476 95.712C889.244 96.0747 890.14 96.256 891.164 96.256C892.081 96.256 892.881 96.1173 893.564 95.84C894.268 95.5627 894.908 95.1467 895.484 94.592L898.14 97.472C897.35 98.368 896.358 99.0613 895.164 99.552C893.969 100.021 892.593 100.256 891.036 100.256ZM910.071 100.256C908.45 100.256 906.988 99.8933 905.687 99.168C904.386 98.4213 903.351 97.3867 902.583 96.064C901.836 94.7413 901.463 93.184 901.463 91.392C901.463 89.5787 901.836 88.0107 902.583 86.688C903.351 85.3653 904.386 84.3413 905.687 83.616C906.988 82.8907 908.45 82.528 910.071 82.528C911.522 82.528 912.791 82.848 913.879 83.488C914.967 84.128 915.81 85.0987 916.407 86.4C917.004 87.7013 917.303 89.3653 917.303 91.392C917.303 93.3973 917.015 95.0613 916.439 96.384C915.863 97.6853 915.031 98.656 913.943 99.296C912.876 99.936 911.586 100.256 910.071 100.256ZM910.935 96.16C911.746 96.16 912.482 95.968 913.143 95.584C913.804 95.2 914.327 94.656 914.711 93.952C915.116 93.2267 915.319 92.3733 915.319 91.392C915.319 90.3893 915.116 89.536 914.711 88.832C914.327 88.128 913.804 87.584 913.143 87.2C912.482 86.816 911.746 86.624 910.935 86.624C910.103 86.624 909.356 86.816 908.695 87.2C908.034 87.584 907.5 88.128 907.095 88.832C906.711 89.536 906.519 90.3893 906.519 91.392C906.519 92.3733 906.711 93.2267 907.095 93.952C907.5 94.656 908.034 95.2 908.695 95.584C909.356 95.968 910.103 96.16 910.935 96.16ZM915.447 100V96.48L915.543 91.36L915.223 86.272V76.256H920.215V100H915.447ZM113.912 139V121.4C113.912 119.459 114.488 117.912 115.64 116.76C116.792 115.587 118.435 115 120.568 115C121.293 115 121.987 115.075 122.648 115.224C123.331 115.373 123.907 115.608 124.376 115.928L123.064 119.544C122.787 119.352 122.477 119.203 122.136 119.096C121.795 118.989 121.432 118.936 121.048 118.936C120.323 118.936 119.757 119.149 119.352 119.576C118.968 119.981 118.776 120.6 118.776 121.432V123.032L118.904 125.176V139H113.912ZM111.256 126.008V122.168H123.192V126.008H111.256ZM133.652 139.256C131.818 139.256 130.186 138.872 128.756 138.104C127.348 137.336 126.228 136.291 125.396 134.968C124.586 133.624 124.18 132.099 124.18 130.392C124.18 128.664 124.586 127.139 125.396 125.816C126.228 124.472 127.348 123.427 128.756 122.68C130.186 121.912 131.818 121.528 133.652 121.528C135.466 121.528 137.087 121.912 138.516 122.68C139.946 123.427 141.066 124.461 141.876 125.784C142.687 127.107 143.092 128.643 143.092 130.392C143.092 132.099 142.687 133.624 141.876 134.968C141.066 136.291 139.946 137.336 138.516 138.104C137.087 138.872 135.466 139.256 133.652 139.256ZM133.652 135.16C134.484 135.16 135.231 134.968 135.892 134.584C136.554 134.2 137.076 133.656 137.46 132.952C137.844 132.227 138.036 131.373 138.036 130.392C138.036 129.389 137.844 128.536 137.46 127.832C137.076 127.128 136.554 126.584 135.892 126.2C135.231 125.816 134.484 125.624 133.652 125.624C132.82 125.624 132.074 125.816 131.412 126.2C130.751 126.584 130.218 127.128 129.812 127.832C129.428 128.536 129.236 129.389 129.236 130.392C129.236 131.373 129.428 132.227 129.812 132.952C130.218 133.656 130.751 134.2 131.412 134.584C132.074 134.968 132.82 135.16 133.652 135.16ZM146.429 139V121.784H151.197V126.648L150.525 125.24C151.037 124.024 151.858 123.107 152.989 122.488C154.12 121.848 155.496 121.528 157.117 121.528V126.136C156.904 126.115 156.712 126.104 156.541 126.104C156.37 126.083 156.189 126.072 155.997 126.072C154.632 126.072 153.522 126.467 152.669 127.256C151.837 128.024 151.421 129.229 151.421 130.872V139H146.429ZM177.465 139.256C175.63 139.256 173.998 138.872 172.569 138.104C171.161 137.336 170.041 136.291 169.209 134.968C168.398 133.624 167.993 132.099 167.993 130.392C167.993 128.664 168.398 127.139 169.209 125.816C170.041 124.472 171.161 123.427 172.569 122.68C173.998 121.912 175.63 121.528 177.465 121.528C179.278 121.528 180.899 121.912 182.329 122.68C183.758 123.427 184.878 124.461 185.689 125.784C186.499 127.107 186.905 128.643 186.905 130.392C186.905 132.099 186.499 133.624 185.689 134.968C184.878 136.291 183.758 137.336 182.329 138.104C180.899 138.872 179.278 139.256 177.465 139.256ZM177.465 135.16C178.297 135.16 179.043 134.968 179.705 134.584C180.366 134.2 180.889 133.656 181.273 132.952C181.657 132.227 181.849 131.373 181.849 130.392C181.849 129.389 181.657 128.536 181.273 127.832C180.889 127.128 180.366 126.584 179.705 126.2C179.043 125.816 178.297 125.624 177.465 125.624C176.633 125.624 175.886 125.816 175.225 126.2C174.563 126.584 174.03 127.128 173.625 127.832C173.241 128.536 173.049 129.389 173.049 130.392C173.049 131.373 173.241 132.227 173.625 132.952C174.03 133.656 174.563 134.2 175.225 134.584C175.886 134.968 176.633 135.16 177.465 135.16ZM197.506 139.256C196.076 139.256 194.796 138.979 193.666 138.424C192.556 137.869 191.692 137.027 191.074 135.896C190.455 134.744 190.146 133.283 190.146 131.512V121.784H195.138V130.776C195.138 132.205 195.436 133.261 196.034 133.944C196.652 134.605 197.516 134.936 198.626 134.936C199.394 134.936 200.076 134.776 200.674 134.456C201.271 134.115 201.74 133.603 202.082 132.92C202.423 132.216 202.594 131.341 202.594 130.296V121.784H207.586V139H202.85V134.264L203.714 135.64C203.138 136.835 202.284 137.741 201.154 138.36C200.044 138.957 198.828 139.256 197.506 139.256ZM212.21 139V121.784H216.978V126.648L216.306 125.24C216.818 124.024 217.64 123.107 218.77 122.488C219.901 121.848 221.277 121.528 222.898 121.528V126.136C222.685 126.115 222.493 126.104 222.322 126.104C222.152 126.083 221.97 126.072 221.778 126.072C220.413 126.072 219.304 126.467 218.45 127.256C217.618 128.024 217.202 129.229 217.202 130.872V139H212.21ZM243.598 139.256C241.635 139.256 239.907 138.872 238.414 138.104C236.942 137.336 235.801 136.291 234.99 134.968C234.179 133.624 233.774 132.099 233.774 130.392C233.774 128.664 234.169 127.139 234.958 125.816C235.769 124.472 236.867 123.427 238.254 122.68C239.641 121.912 241.209 121.528 242.958 121.528C244.643 121.528 246.158 121.891 247.502 122.616C248.867 123.32 249.945 124.344 250.734 125.688C251.523 127.011 251.918 128.6 251.918 130.456C251.918 130.648 251.907 130.872 251.886 131.128C251.865 131.363 251.843 131.587 251.822 131.8H237.838V128.888H249.198L247.278 129.752C247.278 128.856 247.097 128.077 246.734 127.416C246.371 126.755 245.87 126.243 245.23 125.88C244.59 125.496 243.843 125.304 242.99 125.304C242.137 125.304 241.379 125.496 240.718 125.88C240.078 126.243 239.577 126.765 239.214 127.448C238.851 128.109 238.67 128.899 238.67 129.816V130.584C238.67 131.523 238.873 132.355 239.278 133.08C239.705 133.784 240.291 134.328 241.038 134.712C241.806 135.075 242.702 135.256 243.726 135.256C244.643 135.256 245.443 135.117 246.126 134.84C246.83 134.563 247.47 134.147 248.046 133.592L250.702 136.472C249.913 137.368 248.921 138.061 247.726 138.552C246.531 139.021 245.155 139.256 243.598 139.256ZM252.597 139L260.309 128.888L260.213 131.64L252.821 121.784H258.421L263.093 128.216L260.981 128.28L265.813 121.784H271.125L263.701 131.544V128.856L271.381 139H265.717L260.821 132.152L262.901 132.44L258.037 139H252.597ZM283.98 139.256C282.529 139.256 281.26 138.936 280.172 138.296C279.084 137.656 278.231 136.685 277.612 135.384C277.015 134.061 276.716 132.397 276.716 130.392C276.716 128.365 277.004 126.701 277.58 125.4C278.156 124.099 278.988 123.128 280.076 122.488C281.164 121.848 282.465 121.528 283.98 121.528C285.601 121.528 287.052 121.901 288.332 122.648C289.633 123.373 290.657 124.397 291.404 125.72C292.172 127.043 292.556 128.6 292.556 130.392C292.556 132.205 292.172 133.773 291.404 135.096C290.657 136.419 289.633 137.443 288.332 138.168C287.052 138.893 285.601 139.256 283.98 139.256ZM273.804 145.208V121.784H278.572V125.304L278.476 130.424L278.796 135.512V145.208H273.804ZM283.116 135.16C283.948 135.16 284.684 134.968 285.324 134.584C285.985 134.2 286.508 133.656 286.892 132.952C287.297 132.227 287.5 131.373 287.5 130.392C287.5 129.389 287.297 128.536 286.892 127.832C286.508 127.128 285.985 126.584 285.324 126.2C284.684 125.816 283.948 125.624 283.116 125.624C282.284 125.624 281.537 125.816 280.876 126.2C280.215 126.584 279.692 127.128 279.308 127.832C278.924 128.536 278.732 129.389 278.732 130.392C278.732 131.373 278.924 132.227 279.308 132.952C279.692 133.656 280.215 134.2 280.876 134.584C281.537 134.968 282.284 135.16 283.116 135.16ZM304.442 139.256C302.479 139.256 300.751 138.872 299.258 138.104C297.786 137.336 296.644 136.291 295.834 134.968C295.023 133.624 294.618 132.099 294.618 130.392C294.618 128.664 295.012 127.139 295.802 125.816C296.612 124.472 297.711 123.427 299.098 122.68C300.484 121.912 302.052 121.528 303.802 121.528C305.487 121.528 307.002 121.891 308.346 122.616C309.711 123.32 310.788 124.344 311.578 125.688C312.367 127.011 312.762 128.6 312.762 130.456C312.762 130.648 312.751 130.872 312.73 131.128C312.708 131.363 312.687 131.587 312.666 131.8H298.682V128.888H310.042L308.122 129.752C308.122 128.856 307.94 128.077 307.578 127.416C307.215 126.755 306.714 126.243 306.074 125.88C305.434 125.496 304.687 125.304 303.834 125.304C302.98 125.304 302.223 125.496 301.562 125.88C300.922 126.243 300.42 126.765 300.058 127.448C299.695 128.109 299.514 128.899 299.514 129.816V130.584C299.514 131.523 299.716 132.355 300.122 133.08C300.548 133.784 301.135 134.328 301.882 134.712C302.65 135.075 303.546 135.256 304.57 135.256C305.487 135.256 306.287 135.117 306.97 134.84C307.674 134.563 308.314 134.147 308.89 133.592L311.546 136.472C310.756 137.368 309.764 138.061 308.57 138.552C307.375 139.021 305.999 139.256 304.442 139.256ZM316.085 139V121.784H320.853V126.648L320.181 125.24C320.693 124.024 321.515 123.107 322.645 122.488C323.776 121.848 325.152 121.528 326.773 121.528V126.136C326.56 126.115 326.368 126.104 326.197 126.104C326.027 126.083 325.845 126.072 325.653 126.072C324.288 126.072 323.179 126.467 322.325 127.256C321.493 128.024 321.077 129.229 321.077 130.872V139H316.085ZM337.375 139.256C335.349 139.256 333.77 138.744 332.639 137.72C331.509 136.675 330.943 135.128 330.943 133.08V117.976H335.935V133.016C335.935 133.741 336.127 134.307 336.511 134.712C336.895 135.096 337.418 135.288 338.079 135.288C338.869 135.288 339.541 135.075 340.095 134.648L341.439 138.168C340.927 138.531 340.309 138.808 339.583 139C338.879 139.171 338.143 139.256 337.375 139.256ZM328.287 126.008V122.168H340.223V126.008H328.287ZM344.242 139V121.784H349.234V139H344.242ZM346.738 119.384C345.82 119.384 345.074 119.117 344.498 118.584C343.922 118.051 343.634 117.389 343.634 116.6C343.634 115.811 343.922 115.149 344.498 114.616C345.074 114.083 345.82 113.816 346.738 113.816C347.655 113.816 348.402 114.072 348.978 114.584C349.554 115.075 349.842 115.715 349.842 116.504C349.842 117.336 349.554 118.029 348.978 118.584C348.423 119.117 347.676 119.384 346.738 119.384ZM359.659 139.256C358.187 139.256 356.768 139.085 355.403 138.744C354.059 138.381 352.992 137.933 352.203 137.4L353.867 133.816C354.656 134.307 355.584 134.712 356.651 135.032C357.739 135.331 358.805 135.48 359.851 135.48C361.003 135.48 361.813 135.341 362.283 135.064C362.773 134.787 363.019 134.403 363.019 133.912C363.019 133.507 362.827 133.208 362.443 133.016C362.08 132.803 361.589 132.643 360.97 132.536C360.352 132.429 359.669 132.323 358.923 132.216C358.197 132.109 357.461 131.971 356.715 131.8C355.968 131.608 355.285 131.331 354.667 130.968C354.048 130.605 353.547 130.115 353.163 129.496C352.8 128.877 352.618 128.077 352.618 127.096C352.618 126.008 352.928 125.048 353.547 124.216C354.187 123.384 355.104 122.733 356.299 122.264C357.493 121.773 358.923 121.528 360.587 121.528C361.76 121.528 362.955 121.656 364.171 121.912C365.387 122.168 366.4 122.541 367.211 123.032L365.547 126.584C364.715 126.093 363.872 125.763 363.019 125.592C362.187 125.4 361.376 125.304 360.587 125.304C359.477 125.304 358.667 125.453 358.155 125.752C357.643 126.051 357.387 126.435 357.387 126.904C357.387 127.331 357.568 127.651 357.931 127.864C358.315 128.077 358.816 128.248 359.435 128.376C360.053 128.504 360.725 128.621 361.451 128.728C362.197 128.813 362.944 128.952 363.691 129.144C364.437 129.336 365.109 129.613 365.707 129.976C366.325 130.317 366.827 130.797 367.211 131.416C367.595 132.013 367.787 132.803 367.787 133.784C367.787 134.851 367.467 135.8 366.827 136.632C366.187 137.443 365.259 138.083 364.043 138.552C362.848 139.021 361.387 139.256 359.659 139.256ZM379.411 139.256C377.448 139.256 375.72 138.872 374.227 138.104C372.755 137.336 371.613 136.291 370.803 134.968C369.992 133.624 369.587 132.099 369.587 130.392C369.587 128.664 369.981 127.139 370.771 125.816C371.581 124.472 372.68 123.427 374.067 122.68C375.453 121.912 377.021 121.528 378.771 121.528C380.456 121.528 381.971 121.891 383.315 122.616C384.68 123.32 385.757 124.344 386.547 125.688C387.336 127.011 387.731 128.6 387.731 130.456C387.731 130.648 387.72 130.872 387.699 131.128C387.677 131.363 387.656 131.587 387.635 131.8H373.651V128.888H385.01L383.091 129.752C383.091 128.856 382.909 128.077 382.547 127.416C382.184 126.755 381.683 126.243 381.043 125.88C380.403 125.496 379.656 125.304 378.803 125.304C377.949 125.304 377.192 125.496 376.531 125.88C375.891 126.243 375.389 126.765 375.027 127.448C374.664 128.109 374.483 128.899 374.483 129.816V130.584C374.483 131.523 374.685 132.355 375.091 133.08C375.517 133.784 376.104 134.328 376.851 134.712C377.619 135.075 378.515 135.256 379.539 135.256C380.456 135.256 381.256 135.117 381.939 134.84C382.643 134.563 383.283 134.147 383.859 133.592L386.515 136.472C385.725 137.368 384.733 138.061 383.539 138.552C382.344 139.021 380.968 139.256 379.411 139.256ZM390.19 143.928L392.302 136.248L393.006 139.128C392.089 139.128 391.331 138.861 390.734 138.328C390.158 137.795 389.87 137.059 389.87 136.12C389.87 135.181 390.169 134.435 390.766 133.88C391.363 133.325 392.099 133.048 392.974 133.048C393.87 133.048 394.606 133.336 395.182 133.912C395.758 134.467 396.046 135.203 396.046 136.12C396.046 136.397 396.025 136.675 395.982 136.952C395.939 137.208 395.854 137.528 395.726 137.912C395.619 138.275 395.438 138.744 395.182 139.32L393.358 143.928H390.19ZM419.052 139V135.64L418.732 134.904V128.888C418.732 127.821 418.401 126.989 417.74 126.392C417.1 125.795 416.108 125.496 414.764 125.496C413.846 125.496 412.94 125.645 412.044 125.944C411.169 126.221 410.422 126.605 409.804 127.096L408.012 123.608C408.95 122.947 410.081 122.435 411.404 122.072C412.726 121.709 414.07 121.528 415.436 121.528C418.06 121.528 420.097 122.147 421.548 123.384C422.998 124.621 423.724 126.552 423.724 129.176V139H419.052ZM413.804 139.256C412.46 139.256 411.308 139.032 410.348 138.584C409.388 138.115 408.652 137.485 408.14 136.696C407.628 135.907 407.372 135.021 407.372 134.04C407.372 133.016 407.617 132.12 408.108 131.352C408.62 130.584 409.42 129.987 410.508 129.56C411.596 129.112 413.014 128.888 414.764 128.888H419.34V131.8H415.308C414.134 131.8 413.324 131.992 412.876 132.376C412.449 132.76 412.236 133.24 412.236 133.816C412.236 134.456 412.481 134.968 412.972 135.352C413.484 135.715 414.177 135.896 415.052 135.896C415.884 135.896 416.63 135.704 417.292 135.32C417.953 134.915 418.433 134.328 418.732 133.56L419.5 135.864C419.137 136.973 418.476 137.816 417.516 138.392C416.556 138.968 415.318 139.256 413.804 139.256ZM438.706 121.528C440.071 121.528 441.287 121.805 442.354 122.36C443.442 122.893 444.295 123.725 444.914 124.856C445.532 125.965 445.842 127.395 445.842 129.144V139H440.85V129.912C440.85 128.525 440.54 127.501 439.922 126.84C439.324 126.179 438.471 125.848 437.362 125.848C436.572 125.848 435.858 126.019 435.218 126.36C434.599 126.68 434.108 127.181 433.746 127.864C433.404 128.547 433.234 129.421 433.234 130.488V139H428.242V121.784H433.01V126.552L432.114 125.112C432.732 123.96 433.618 123.075 434.77 122.456C435.922 121.837 437.234 121.528 438.706 121.528ZM457.884 139.256C456.262 139.256 454.801 138.893 453.5 138.168C452.198 137.421 451.164 136.387 450.396 135.064C449.649 133.741 449.276 132.184 449.276 130.392C449.276 128.579 449.649 127.011 450.396 125.688C451.164 124.365 452.198 123.341 453.5 122.616C454.801 121.891 456.262 121.528 457.884 121.528C459.334 121.528 460.604 121.848 461.692 122.488C462.78 123.128 463.622 124.099 464.22 125.4C464.817 126.701 465.116 128.365 465.116 130.392C465.116 132.397 464.828 134.061 464.252 135.384C463.676 136.685 462.844 137.656 461.756 138.296C460.689 138.936 459.398 139.256 457.884 139.256ZM458.748 135.16C459.558 135.16 460.294 134.968 460.956 134.584C461.617 134.2 462.14 133.656 462.524 132.952C462.929 132.227 463.132 131.373 463.132 130.392C463.132 129.389 462.929 128.536 462.524 127.832C462.14 127.128 461.617 126.584 460.956 126.2C460.294 125.816 459.558 125.624 458.748 125.624C457.916 125.624 457.169 125.816 456.508 126.2C455.846 126.584 455.313 127.128 454.908 127.832C454.524 128.536 454.332 129.389 454.332 130.392C454.332 131.373 454.524 132.227 454.908 132.952C455.313 133.656 455.846 134.2 456.508 134.584C457.169 134.968 457.916 135.16 458.748 135.16ZM463.26 139V135.48L463.356 130.36L463.036 125.272V115.256H468.028V139H463.26ZM490.03 139.256C488.174 139.256 486.521 138.883 485.07 138.136C483.62 137.368 482.478 136.312 481.646 134.968C480.836 133.624 480.43 132.099 480.43 130.392C480.43 128.664 480.836 127.139 481.646 125.816C482.478 124.472 483.62 123.427 485.07 122.68C486.521 121.912 488.174 121.528 490.03 121.528C491.844 121.528 493.422 121.912 494.766 122.68C496.11 123.427 497.102 124.504 497.742 125.912L493.87 127.992C493.422 127.181 492.857 126.584 492.174 126.2C491.513 125.816 490.788 125.624 489.998 125.624C489.145 125.624 488.377 125.816 487.694 126.2C487.012 126.584 486.468 127.128 486.062 127.832C485.678 128.536 485.486 129.389 485.486 130.392C485.486 131.395 485.678 132.248 486.062 132.952C486.468 133.656 487.012 134.2 487.694 134.584C488.377 134.968 489.145 135.16 489.998 135.16C490.788 135.16 491.513 134.979 492.174 134.616C492.857 134.232 493.422 133.624 493.87 132.792L497.742 134.904C497.102 136.291 496.11 137.368 494.766 138.136C493.422 138.883 491.844 139.256 490.03 139.256ZM508.59 139.256C506.755 139.256 505.123 138.872 503.694 138.104C502.286 137.336 501.166 136.291 500.334 134.968C499.523 133.624 499.118 132.099 499.118 130.392C499.118 128.664 499.523 127.139 500.334 125.816C501.166 124.472 502.286 123.427 503.694 122.68C505.123 121.912 506.755 121.528 508.59 121.528C510.403 121.528 512.024 121.912 513.454 122.68C514.883 123.427 516.003 124.461 516.814 125.784C517.624 127.107 518.03 128.643 518.03 130.392C518.03 132.099 517.624 133.624 516.814 134.968C516.003 136.291 514.883 137.336 513.454 138.104C512.024 138.872 510.403 139.256 508.59 139.256ZM508.59 135.16C509.422 135.16 510.168 134.968 510.83 134.584C511.491 134.2 512.014 133.656 512.398 132.952C512.782 132.227 512.974 131.373 512.974 130.392C512.974 129.389 512.782 128.536 512.398 127.832C512.014 127.128 511.491 126.584 510.83 126.2C510.168 125.816 509.422 125.624 508.59 125.624C507.758 125.624 507.011 125.816 506.35 126.2C505.688 126.584 505.155 127.128 504.75 127.832C504.366 128.536 504.174 129.389 504.174 130.392C504.174 131.373 504.366 132.227 504.75 132.952C505.155 133.656 505.688 134.2 506.35 134.584C507.011 134.968 507.758 135.16 508.59 135.16ZM543.415 121.528C544.78 121.528 545.985 121.805 547.031 122.36C548.097 122.893 548.929 123.725 549.527 124.856C550.145 125.965 550.455 127.395 550.455 129.144V139H545.463V129.912C545.463 128.525 545.175 127.501 544.599 126.84C544.023 126.179 543.212 125.848 542.167 125.848C541.441 125.848 540.791 126.019 540.215 126.36C539.639 126.68 539.191 127.171 538.871 127.832C538.551 128.493 538.391 129.336 538.391 130.36V139H533.399V129.912C533.399 128.525 533.111 127.501 532.535 126.84C531.98 126.179 531.18 125.848 530.135 125.848C529.409 125.848 528.759 126.019 528.183 126.36C527.607 126.68 527.159 127.171 526.839 127.832C526.519 128.493 526.359 129.336 526.359 130.36V139H521.367V121.784H526.135V126.488L525.239 125.112C525.836 123.939 526.679 123.053 527.767 122.456C528.876 121.837 530.135 121.528 531.543 121.528C533.121 121.528 534.497 121.933 535.671 122.744C536.865 123.533 537.655 124.749 538.039 126.392L536.279 125.912C536.855 124.568 537.772 123.501 539.031 122.712C540.311 121.923 541.772 121.528 543.415 121.528ZM576.977 121.528C578.342 121.528 579.548 121.805 580.593 122.36C581.66 122.893 582.492 123.725 583.089 124.856C583.708 125.965 584.017 127.395 584.017 129.144V139H579.025V129.912C579.025 128.525 578.737 127.501 578.161 126.84C577.585 126.179 576.774 125.848 575.729 125.848C575.004 125.848 574.353 126.019 573.777 126.36C573.201 126.68 572.753 127.171 572.433 127.832C572.113 128.493 571.953 129.336 571.953 130.36V139H566.961V129.912C566.961 128.525 566.673 127.501 566.097 126.84C565.542 126.179 564.742 125.848 563.697 125.848C562.972 125.848 562.321 126.019 561.745 126.36C561.169 126.68 560.721 127.171 560.401 127.832C560.081 128.493 559.921 129.336 559.921 130.36V139H554.929V121.784H559.697V126.488L558.801 125.112C559.398 123.939 560.241 123.053 561.329 122.456C562.438 121.837 563.697 121.528 565.105 121.528C566.684 121.528 568.06 121.933 569.233 122.744C570.428 123.533 571.217 124.749 571.601 126.392L569.841 125.912C570.417 124.568 571.334 123.501 572.593 122.712C573.873 121.923 575.334 121.528 576.977 121.528ZM588.492 139V121.784H593.484V139H588.492ZM590.988 119.384C590.07 119.384 589.324 119.117 588.748 118.584C588.172 118.051 587.884 117.389 587.884 116.6C587.884 115.811 588.172 115.149 588.748 114.616C589.324 114.083 590.07 113.816 590.988 113.816C591.905 113.816 592.652 114.072 593.228 114.584C593.804 115.075 594.092 115.715 594.092 116.504C594.092 117.336 593.804 118.029 593.228 118.584C592.673 119.117 591.926 119.384 590.988 119.384ZM605.157 139.256C603.13 139.256 601.551 138.744 600.421 137.72C599.29 136.675 598.725 135.128 598.725 133.08V117.976H603.717V133.016C603.717 133.741 603.909 134.307 604.293 134.712C604.677 135.096 605.199 135.288 605.861 135.288C606.65 135.288 607.322 135.075 607.877 134.648L609.221 138.168C608.709 138.531 608.09 138.808 607.365 139C606.661 139.171 605.925 139.256 605.157 139.256ZM596.069 126.008V122.168H608.005V126.008H596.069ZM634.071 121.528C635.436 121.528 636.641 121.805 637.687 122.36C638.753 122.893 639.585 123.725 640.183 124.856C640.801 125.965 641.111 127.395 641.111 129.144V139H636.119V129.912C636.119 128.525 635.831 127.501 635.255 126.84C634.679 126.179 633.868 125.848 632.823 125.848C632.097 125.848 631.447 126.019 630.871 126.36C630.295 126.68 629.847 127.171 629.527 127.832C629.207 128.493 629.047 129.336 629.047 130.36V139H624.055V129.912C624.055 128.525 623.767 127.501 623.191 126.84C622.636 126.179 621.836 125.848 620.791 125.848C620.065 125.848 619.415 126.019 618.839 126.36C618.263 126.68 617.815 127.171 617.495 127.832C617.175 128.493 617.015 129.336 617.015 130.36V139H612.023V121.784H616.791V126.488L615.895 125.112C616.492 123.939 617.335 123.053 618.423 122.456C619.532 121.837 620.791 121.528 622.199 121.528C623.777 121.528 625.153 121.933 626.327 122.744C627.521 123.533 628.311 124.749 628.695 126.392L626.935 125.912C627.511 124.568 628.428 123.501 629.687 122.712C630.967 121.923 632.428 121.528 634.071 121.528ZM654.254 139.256C652.292 139.256 650.564 138.872 649.07 138.104C647.598 137.336 646.457 136.291 645.646 134.968C644.836 133.624 644.43 132.099 644.43 130.392C644.43 128.664 644.825 127.139 645.614 125.816C646.425 124.472 647.524 123.427 648.91 122.68C650.297 121.912 651.865 121.528 653.614 121.528C655.3 121.528 656.814 121.891 658.158 122.616C659.524 123.32 660.601 124.344 661.39 125.688C662.18 127.011 662.574 128.6 662.574 130.456C662.574 130.648 662.564 130.872 662.542 131.128C662.521 131.363 662.5 131.587 662.478 131.8H648.494V128.888H659.854L657.934 129.752C657.934 128.856 657.753 128.077 657.39 127.416C657.028 126.755 656.526 126.243 655.886 125.88C655.246 125.496 654.5 125.304 653.646 125.304C652.793 125.304 652.036 125.496 651.374 125.88C650.734 126.243 650.233 126.765 649.87 127.448C649.508 128.109 649.326 128.899 649.326 129.816V130.584C649.326 131.523 649.529 132.355 649.934 133.08C650.361 133.784 650.948 134.328 651.694 134.712C652.462 135.075 653.358 135.256 654.382 135.256C655.3 135.256 656.1 135.117 656.782 134.84C657.486 134.563 658.126 134.147 658.702 133.592L661.358 136.472C660.569 137.368 659.577 138.061 658.382 138.552C657.188 139.021 655.812 139.256 654.254 139.256ZM676.362 121.528C677.727 121.528 678.943 121.805 680.01 122.36C681.098 122.893 681.951 123.725 682.57 124.856C683.188 125.965 683.498 127.395 683.498 129.144V139H678.506V129.912C678.506 128.525 678.196 127.501 677.578 126.84C676.98 126.179 676.127 125.848 675.018 125.848C674.228 125.848 673.514 126.019 672.874 126.36C672.255 126.68 671.764 127.181 671.402 127.864C671.06 128.547 670.89 129.421 670.89 130.488V139H665.898V121.784H670.666V126.552L669.77 125.112C670.388 123.96 671.274 123.075 672.426 122.456C673.578 121.837 674.89 121.528 676.362 121.528ZM695.063 139.256C693.036 139.256 691.457 138.744 690.327 137.72C689.196 136.675 688.631 135.128 688.631 133.08V117.976H693.623V133.016C693.623 133.741 693.815 134.307 694.199 134.712C694.583 135.096 695.105 135.288 695.767 135.288C696.556 135.288 697.228 135.075 697.783 134.648L699.127 138.168C698.615 138.531 697.996 138.808 697.271 139C696.567 139.171 695.831 139.256 695.063 139.256ZM685.975 126.008V122.168H697.911V126.008H685.975ZM718.032 139.256C716.005 139.256 714.426 138.744 713.296 137.72C712.165 136.675 711.6 135.128 711.6 133.08V117.976H716.592V133.016C716.592 133.741 716.784 134.307 717.168 134.712C717.552 135.096 718.074 135.288 718.736 135.288C719.525 135.288 720.197 135.075 720.752 134.648L722.096 138.168C721.584 138.531 720.965 138.808 720.24 139C719.536 139.171 718.8 139.256 718.032 139.256ZM708.944 126.008V122.168H720.88V126.008H708.944ZM732.559 139.256C730.724 139.256 729.092 138.872 727.663 138.104C726.255 137.336 725.135 136.291 724.303 134.968C723.492 133.624 723.087 132.099 723.087 130.392C723.087 128.664 723.492 127.139 724.303 125.816C725.135 124.472 726.255 123.427 727.663 122.68C729.092 121.912 730.724 121.528 732.559 121.528C734.372 121.528 735.993 121.912 737.423 122.68C738.852 123.427 739.972 124.461 740.783 125.784C741.593 127.107 741.999 128.643 741.999 130.392C741.999 132.099 741.593 133.624 740.783 134.968C739.972 136.291 738.852 137.336 737.423 138.104C735.993 138.872 734.372 139.256 732.559 139.256ZM732.559 135.16C733.391 135.16 734.137 134.968 734.799 134.584C735.46 134.2 735.983 133.656 736.367 132.952C736.751 132.227 736.943 131.373 736.943 130.392C736.943 129.389 736.751 128.536 736.367 127.832C735.983 127.128 735.46 126.584 734.799 126.2C734.137 125.816 733.391 125.624 732.559 125.624C731.727 125.624 730.98 125.816 730.319 126.2C729.657 126.584 729.124 127.128 728.719 127.832C728.335 128.536 728.143 129.389 728.143 130.392C728.143 131.373 728.335 132.227 728.719 132.952C729.124 133.656 729.657 134.2 730.319 134.584C730.98 134.968 731.727 135.16 732.559 135.16ZM762.494 145.464C760.872 145.464 759.304 145.261 757.79 144.856C756.296 144.472 755.048 143.885 754.046 143.096L756.03 139.512C756.755 140.109 757.672 140.579 758.782 140.92C759.912 141.283 761.022 141.464 762.11 141.464C763.88 141.464 765.16 141.069 765.95 140.28C766.76 139.491 767.166 138.317 767.166 136.76V134.168L767.486 129.848L767.422 125.496V121.784H772.158V136.12C772.158 139.32 771.326 141.677 769.662 143.192C767.998 144.707 765.608 145.464 762.494 145.464ZM761.726 138.168C760.126 138.168 758.675 137.827 757.374 137.144C756.094 136.44 755.059 135.469 754.27 134.232C753.502 132.973 753.118 131.512 753.118 129.848C753.118 128.163 753.502 126.701 754.27 125.464C755.059 124.205 756.094 123.235 757.374 122.552C758.675 121.869 760.126 121.528 761.726 121.528C763.176 121.528 764.456 121.827 765.566 122.424C766.675 123 767.539 123.907 768.158 125.144C768.776 126.36 769.086 127.928 769.086 129.848C769.086 131.747 768.776 133.315 768.158 134.552C767.539 135.768 766.675 136.675 765.566 137.272C764.456 137.869 763.176 138.168 761.726 138.168ZM762.718 134.072C763.592 134.072 764.371 133.901 765.054 133.56C765.736 133.197 766.27 132.696 766.654 132.056C767.038 131.416 767.23 130.68 767.23 129.848C767.23 128.995 767.038 128.259 766.654 127.64C766.27 127 765.736 126.509 765.054 126.168C764.371 125.805 763.592 125.624 762.718 125.624C761.843 125.624 761.064 125.805 760.382 126.168C759.699 126.509 759.155 127 758.75 127.64C758.366 128.259 758.174 128.995 758.174 129.848C758.174 130.68 758.366 131.416 758.75 132.056C759.155 132.696 759.699 133.197 760.382 133.56C761.064 133.901 761.843 134.072 762.718 134.072ZM776.804 139V121.784H781.572V126.648L780.9 125.24C781.412 124.024 782.233 123.107 783.364 122.488C784.495 121.848 785.871 121.528 787.492 121.528V126.136C787.279 126.115 787.087 126.104 786.916 126.104C786.745 126.083 786.564 126.072 786.372 126.072C785.007 126.072 783.897 126.467 783.044 127.256C782.212 128.024 781.796 129.229 781.796 130.872V139H776.804ZM798.527 139.256C796.693 139.256 795.061 138.872 793.631 138.104C792.223 137.336 791.103 136.291 790.271 134.968C789.461 133.624 789.055 132.099 789.055 130.392C789.055 128.664 789.461 127.139 790.271 125.816C791.103 124.472 792.223 123.427 793.631 122.68C795.061 121.912 796.693 121.528 798.527 121.528C800.341 121.528 801.962 121.912 803.391 122.68C804.821 123.427 805.941 124.461 806.751 125.784C807.562 127.107 807.967 128.643 807.967 130.392C807.967 132.099 807.562 133.624 806.751 134.968C805.941 136.291 804.821 137.336 803.391 138.104C801.962 138.872 800.341 139.256 798.527 139.256ZM798.527 135.16C799.359 135.16 800.106 134.968 800.767 134.584C801.429 134.2 801.951 133.656 802.335 132.952C802.719 132.227 802.911 131.373 802.911 130.392C802.911 129.389 802.719 128.536 802.335 127.832C801.951 127.128 801.429 126.584 800.767 126.2C800.106 125.816 799.359 125.624 798.527 125.624C797.695 125.624 796.949 125.816 796.287 126.2C795.626 126.584 795.093 127.128 794.687 127.832C794.303 128.536 794.111 129.389 794.111 130.392C794.111 131.373 794.303 132.227 794.687 132.952C795.093 133.656 795.626 134.2 796.287 134.584C796.949 134.968 797.695 135.16 798.527 135.16ZM814.771 139L808.563 121.784H813.267L818.419 136.6H816.179L821.555 121.784H825.779L830.995 136.6H828.755L834.067 121.784H838.483L832.243 139H827.411L822.835 126.296H824.307L819.571 139H814.771ZM848.313 139.256C846.286 139.256 844.707 138.744 843.577 137.72C842.446 136.675 841.881 135.128 841.881 133.08V117.976H846.873V133.016C846.873 133.741 847.065 134.307 847.449 134.712C847.833 135.096 848.355 135.288 849.017 135.288C849.806 135.288 850.478 135.075 851.033 134.648L852.377 138.168C851.865 138.531 851.246 138.808 850.521 139C849.817 139.171 849.081 139.256 848.313 139.256ZM839.225 126.008V122.168H851.161V126.008H839.225ZM865.643 121.528C867.008 121.528 868.224 121.805 869.291 122.36C870.379 122.893 871.232 123.725 871.851 124.856C872.47 125.965 872.779 127.395 872.779 129.144V139H867.787V129.912C867.787 128.525 867.478 127.501 866.859 126.84C866.262 126.179 865.408 125.848 864.299 125.848C863.51 125.848 862.795 126.019 862.155 126.36C861.536 126.68 861.046 127.181 860.683 127.864C860.342 128.547 860.171 129.421 860.171 130.488V139H855.179V115.256H860.171V126.552L859.051 125.112C859.67 123.96 860.555 123.075 861.707 122.456C862.859 121.837 864.171 121.528 865.643 121.528Z" fill="#131313"/>
</svg>
