<svg width="987" height="207" viewBox="0 0 987 207" fill="none" xmlns="http://www.w3.org/2000/svg">
<path d="M715.145 18.9652C714.969 18.9652 714.817 18.9415 714.653 18.9177C714.489 18.882 714.336 18.8345 714.173 18.7632C714.02 18.7038 713.88 18.6206 713.739 18.5256C713.599 18.4424 713.47 18.3236 713.353 18.2166C713.236 18.0978 713.13 17.9671 713.036 17.8245C712.954 17.6701 712.872 17.5394 712.814 17.373C712.744 17.2185 712.685 17.0641 712.662 16.8977C712.626 16.7314 712.615 16.565 712.615 16.3987C712.615 15.7214 712.884 15.0679 713.353 14.5926C713.47 14.4856 713.599 14.3668 713.739 14.2718C713.868 14.1886 714.02 14.1054 714.173 14.046C714.336 13.9747 714.489 13.9391 714.653 13.8915C714.969 13.8321 715.309 13.8321 715.637 13.8915C715.801 13.9272 715.953 13.9628 716.105 14.046C716.257 14.1054 716.398 14.1886 716.538 14.2718C716.691 14.3668 716.808 14.4856 716.937 14.5926C717.042 14.6995 717.159 14.8421 717.241 14.9847C717.323 15.1273 717.417 15.2699 717.475 15.4243C717.534 15.5907 717.581 15.7452 717.616 15.9115C717.639 16.0779 717.663 16.2442 717.663 16.4106C717.663 16.5769 717.639 16.7433 717.616 16.9096C717.581 17.076 717.534 17.2304 717.475 17.3849C717.417 17.5512 717.323 17.6819 717.241 17.8364C717.159 17.979 717.042 18.0978 716.937 18.2285C716.456 18.6919 715.812 18.9652 715.145 18.9652Z" fill="#A1EDC1"/>
<path d="M974.316 102.259C974.316 100.833 975.428 99.7043 976.834 99.7043C978.228 99.7043 979.34 100.833 979.34 102.259C979.34 103.673 978.228 104.802 976.834 104.802C975.44 104.802 974.316 103.661 974.316 102.259ZM974.316 88.0835C974.316 86.6696 975.428 85.5289 976.834 85.5289C978.228 85.5289 979.34 86.6696 979.34 88.0835C979.34 89.4856 978.228 90.6382 976.834 90.6382C975.44 90.6382 974.316 89.4975 974.316 88.0835ZM974.316 73.92C974.316 72.5179 975.428 71.3654 976.834 71.3654C978.228 71.3654 979.34 72.5061 979.34 73.92C979.34 75.3221 978.228 76.4747 976.834 76.4747C975.44 76.4747 974.316 75.3221 974.316 73.92ZM974.316 59.7447C974.316 58.3426 975.428 57.19 976.834 57.19C978.228 57.19 979.34 58.3307 979.34 59.7447C979.34 61.1467 978.228 62.2993 976.834 62.2993C975.44 62.2993 974.316 61.1586 974.316 59.7447ZM974.316 45.5811C974.316 44.179 975.428 43.0265 976.834 43.0265C978.228 43.0265 979.34 44.1672 979.34 45.5811C979.34 47.007 978.228 48.1358 976.834 48.1358C975.44 48.1358 974.316 47.007 974.316 45.5811ZM972.149 32.8435C971.575 31.5721 972.114 30.0512 973.379 29.4571C974.644 28.8749 976.131 29.4333 976.717 30.7047C977.291 31.988 976.752 33.5089 975.487 34.0911C975.147 34.2575 974.784 34.3288 974.433 34.3288C973.484 34.3288 972.582 33.7822 972.149 32.8435ZM964.114 23.1714C962.955 22.3753 962.674 20.7831 963.458 19.6187C964.255 18.4542 965.812 18.1691 966.96 18.9652C968.108 19.7613 968.401 21.3535 967.616 22.5179C967.124 23.2427 966.34 23.6111 965.543 23.6111C965.051 23.623 964.548 23.4922 964.114 23.1714ZM952.343 19.0127C950.961 18.9176 949.907 17.7056 950.001 16.2917C950.094 14.8896 951.301 13.8202 952.695 13.9152C954.077 14.0103 955.131 15.2342 955.025 16.6481C954.943 17.9908 953.831 19.0246 952.519 19.0246C952.46 19.0246 952.414 19.0127 952.343 19.0127ZM936.04 16.4105C936.04 14.9965 937.164 13.8558 938.558 13.8558C939.94 13.8558 941.076 14.9965 941.076 16.4105C941.076 17.8126 939.94 18.9652 938.558 18.9652C937.164 18.9652 936.04 17.8245 936.04 16.4105ZM922.079 16.4105C922.079 14.9965 923.191 13.8558 924.597 13.8558C925.979 13.8558 927.103 14.9965 927.103 16.4105C927.103 17.8126 925.99 18.9652 924.597 18.9652C923.203 18.9652 922.079 17.8245 922.079 16.4105ZM908.117 16.4105C908.117 14.9965 909.23 13.8558 910.636 13.8558C912.018 13.8558 913.154 14.9965 913.154 16.4105C913.154 17.8126 912.029 18.9652 910.636 18.9652C909.23 18.9652 908.117 17.8245 908.117 16.4105ZM894.145 16.4105C894.145 14.9965 895.269 13.8558 896.663 13.8558C898.045 13.8558 899.181 14.9965 899.181 16.4105C899.181 17.8126 898.057 18.9652 896.663 18.9652C895.281 18.9652 894.145 17.8245 894.145 16.4105ZM880.183 16.4105C880.183 14.9965 881.308 13.8558 882.702 13.8558C884.084 13.8558 885.22 14.9965 885.22 16.4105C885.22 17.8126 884.095 18.9652 882.702 18.9652C881.32 18.9652 880.183 17.8245 880.183 16.4105ZM866.222 16.4105C866.222 14.9965 867.347 13.8558 868.74 13.8558C870.123 13.8558 871.259 14.9965 871.259 16.4105C871.259 17.8126 870.134 18.9652 868.74 18.9652C867.347 18.9652 866.222 17.8245 866.222 16.4105ZM852.261 16.4105C852.261 14.9965 853.386 13.8558 854.779 13.8558C856.161 13.8558 857.286 14.9965 857.286 16.4105C857.286 17.8126 856.173 18.9652 854.779 18.9652C853.397 18.9652 852.261 17.8245 852.261 16.4105ZM838.3 16.4105C838.3 14.9965 839.436 13.8558 840.818 13.8558C842.2 13.8558 843.336 14.9965 843.336 16.4105C843.336 17.8126 842.212 18.9652 840.818 18.9652C839.424 18.9652 838.3 17.8245 838.3 16.4105ZM824.339 16.4105C824.339 14.9965 825.463 13.8558 826.857 13.8558C828.239 13.8558 829.375 14.9965 829.375 16.4105C829.375 17.8126 828.251 18.9652 826.857 18.9652C825.463 18.9652 824.339 17.8245 824.339 16.4105ZM810.366 16.4105C810.366 14.9965 811.49 13.8558 812.884 13.8558C814.266 13.8558 815.402 14.9965 815.402 16.4105C815.402 17.8126 814.278 18.9652 812.884 18.9652C811.502 18.9652 810.366 17.8245 810.366 16.4105ZM796.405 16.4105C796.405 14.9965 797.529 13.8558 798.923 13.8558C800.329 13.8558 801.441 14.9965 801.441 16.4105C801.441 17.8126 800.329 18.9652 798.923 18.9652C797.529 18.9652 796.405 17.8245 796.405 16.4105ZM782.444 16.4105C782.444 14.9965 783.568 13.8558 784.962 13.8558C786.344 13.8558 787.469 14.9965 787.469 16.4105C787.469 17.8126 786.356 18.9652 784.962 18.9652C783.58 18.9652 782.444 17.8245 782.444 16.4105ZM768.483 16.4105C768.483 14.9965 769.607 13.8558 771.001 13.8558C772.395 13.8558 773.519 14.9965 773.519 16.4105C773.519 17.8126 772.395 18.9652 771.001 18.9652C769.607 18.9652 768.483 17.8245 768.483 16.4105ZM754.51 16.4105C754.51 14.9965 755.634 13.8558 757.028 13.8558C758.41 13.8558 759.546 14.9965 759.546 16.4105C759.546 17.8126 758.422 18.9652 757.028 18.9652C755.646 18.9652 754.51 17.8245 754.51 16.4105ZM740.549 16.4105C740.549 14.9965 741.673 13.8558 743.067 13.8558C744.449 13.8558 745.585 14.9965 745.585 16.4105C745.585 17.8126 744.461 18.9652 743.067 18.9652C741.685 18.9652 740.549 17.8245 740.549 16.4105ZM726.599 16.4105C726.599 14.9965 727.712 13.8558 729.118 13.8558C730.5 13.8558 731.636 14.9965 731.636 16.4105C731.636 17.8126 730.511 18.9652 729.118 18.9652C727.712 18.9652 726.599 17.8245 726.599 16.4105Z" fill="#A1EDC1"/>
<path d="M976.834 118.989C976.658 118.989 976.506 118.977 976.33 118.942C976.166 118.918 976.014 118.87 975.861 118.799C975.721 118.74 975.569 118.644 975.428 118.561C975.288 118.466 975.159 118.359 975.053 118.24C974.585 117.777 974.315 117.124 974.315 116.446C974.315 115.769 974.585 115.115 975.053 114.64C975.627 114.046 976.506 113.773 977.326 113.939C977.489 113.963 977.642 114.01 977.794 114.082C977.946 114.153 978.087 114.236 978.227 114.319C978.368 114.414 978.497 114.521 978.602 114.64C979.082 115.115 979.34 115.769 979.34 116.446C979.34 117.124 979.082 117.765 978.602 118.24C978.145 118.728 977.501 118.989 976.834 118.989Z" fill="#A1EDC1"/>
<path d="M754.568 207H31.7639C14.2539 207 0 192.539 0 174.776V89.3312H11.3258V174.776C11.3258 186.206 20.4966 195.51 31.7639 195.51H754.568V207Z" fill="#A1EDC1"/>
<path d="M950.739 203.162H31.764C16.3271 203.162 3.77148 190.424 3.77148 174.764V42.884C3.77148 27.2233 16.3271 14.4857 31.764 14.4857H702.074V18.3117H31.764C18.4119 18.3117 7.55457 29.3264 7.55457 42.8721V174.752C7.55457 188.298 18.4119 199.312 31.764 199.312H950.739C964.091 199.312 974.948 188.298 974.948 174.752V144.785H978.72V174.752C978.72 190.424 966.164 203.162 950.739 203.162Z" fill="#231F20"/>
<path d="M685.7 32.8198C685.255 32.8198 684.821 32.6653 684.458 32.3445C683.673 31.6553 683.591 30.4433 684.271 29.6472L695.655 16.3987L684.247 3.17383C683.556 2.37773 683.638 1.16575 684.423 0.476588C685.208 -0.224458 686.402 -0.141283 687.082 0.65482L700.668 16.3987L687.117 32.1662C686.754 32.594 686.227 32.8198 685.7 32.8198Z" fill="#A1EDC1"/>
<path d="M976.834 146.567C971.224 146.567 966.667 141.945 966.667 136.254C966.667 130.562 971.224 125.94 976.834 125.94C982.444 125.94 987 130.562 987 136.254C987 141.945 982.444 146.567 976.834 146.567ZM976.834 128.483C972.617 128.483 969.186 131.964 969.186 136.242C969.186 140.519 972.617 144.001 976.834 144.001C981.05 144.001 984.482 140.519 984.482 136.242C984.482 131.976 981.05 128.483 976.834 128.483Z" fill="#231F20"/>
<path d="M976.834 140.531C979.162 140.531 981.05 138.616 981.05 136.254C981.05 133.891 979.162 131.976 976.834 131.976C974.505 131.976 972.617 133.891 972.617 136.254C972.617 138.616 974.505 140.531 976.834 140.531Z" fill="#EBE6FC"/>
<path d="M689.6 32.4039C689.26 32.4039 688.909 32.2851 688.628 32.0356C688.007 31.489 687.949 30.5384 688.487 29.9205L700.106 16.3987L688.452 2.88867C687.913 2.25892 687.972 1.32023 688.593 0.773654C689.202 0.227076 690.139 0.286487 690.678 0.91624L703.175 15.4006C703.667 15.9709 703.667 16.8145 703.175 17.373L690.701 31.8811C690.42 32.2257 690.01 32.4039 689.6 32.4039Z" fill="#231F20"/>
<path d="M93.6573 100.384C91.9293 100.384 90.3186 100.107 88.8253 99.552C87.3533 98.976 86.0733 98.1653 84.9852 97.12C83.8973 96.0747 83.0439 94.848 82.4253 93.44C81.8279 92.032 81.5293 90.4853 81.5293 88.8C81.5293 87.1147 81.8279 85.568 82.4253 84.16C83.0439 82.752 83.8973 81.5253 84.9852 80.48C86.0946 79.4347 87.3853 78.6347 88.8573 78.08C90.3293 77.504 91.9399 77.216 93.6893 77.216C95.6306 77.216 97.3799 77.5573 98.9373 78.24C100.516 78.9013 101.839 79.8827 102.905 81.184L99.5773 84.256C98.8093 83.3813 97.9559 82.7307 97.0173 82.304C96.0786 81.856 95.0546 81.632 93.9453 81.632C92.8999 81.632 91.9399 81.8027 91.0653 82.144C90.1906 82.4853 89.4333 82.976 88.7933 83.616C88.1533 84.256 87.6519 85.0133 87.2893 85.888C86.9479 86.7627 86.7773 87.7333 86.7773 88.8C86.7773 89.8667 86.9479 90.8373 87.2893 91.712C87.6519 92.5867 88.1533 93.344 88.7933 93.984C89.4333 94.624 90.1906 95.1147 91.0653 95.456C91.9399 95.7973 92.8999 95.968 93.9453 95.968C95.0546 95.968 96.0786 95.7547 97.0173 95.328C97.9559 94.88 98.8093 94.208 99.5773 93.312L102.905 96.384C101.839 97.6853 100.516 98.6773 98.9373 99.36C97.3799 100.043 95.6199 100.384 93.6573 100.384ZM106.054 100V76.256H111.046V100H106.054ZM115.679 100V82.784H120.671V100H115.679ZM118.175 80.384C117.258 80.384 116.511 80.1173 115.935 79.584C115.359 79.0507 115.071 78.3893 115.071 77.6C115.071 76.8107 115.359 76.1493 115.935 75.616C116.511 75.0827 117.258 74.816 118.175 74.816C119.092 74.816 119.839 75.072 120.415 75.584C120.991 76.0747 121.279 76.7147 121.279 77.504C121.279 78.336 120.991 79.0293 120.415 79.584C119.86 80.1173 119.114 80.384 118.175 80.384ZM133.848 100.256C131.885 100.256 130.157 99.872 128.664 99.104C127.192 98.336 126.051 97.2907 125.24 95.968C124.429 94.624 124.024 93.0987 124.024 91.392C124.024 89.664 124.419 88.1387 125.208 86.816C126.019 85.472 127.117 84.4267 128.504 83.68C129.891 82.912 131.459 82.528 133.208 82.528C134.893 82.528 136.408 82.8907 137.752 83.616C139.117 84.32 140.195 85.344 140.984 86.688C141.773 88.0107 142.168 89.6 142.168 91.456C142.168 91.648 142.157 91.872 142.136 92.128C142.115 92.3627 142.093 92.5867 142.072 92.8H128.088V89.888H139.448L137.528 90.752C137.528 89.856 137.347 89.0773 136.984 88.416C136.621 87.7547 136.12 87.2427 135.48 86.88C134.84 86.496 134.093 86.304 133.24 86.304C132.387 86.304 131.629 86.496 130.968 86.88C130.328 87.2427 129.827 87.7653 129.464 88.448C129.101 89.1093 128.92 89.8987 128.92 90.816V91.584C128.92 92.5227 129.123 93.3547 129.528 94.08C129.955 94.784 130.541 95.328 131.288 95.712C132.056 96.0747 132.952 96.256 133.976 96.256C134.893 96.256 135.693 96.1173 136.376 95.84C137.08 95.5627 137.72 95.1467 138.296 94.592L140.952 97.472C140.163 98.368 139.171 99.0613 137.976 99.552C136.781 100.021 135.405 100.256 133.848 100.256ZM155.956 82.528C157.321 82.528 158.537 82.8053 159.604 83.36C160.692 83.8933 161.545 84.7253 162.164 85.856C162.782 86.9653 163.092 88.3947 163.092 90.144V100H158.1V90.912C158.1 89.5253 157.79 88.5013 157.172 87.84C156.574 87.1787 155.721 86.848 154.612 86.848C153.822 86.848 153.108 87.0187 152.468 87.36C151.849 87.68 151.358 88.1813 150.996 88.864C150.654 89.5467 150.484 90.4213 150.484 91.488V100H145.492V82.784H150.26V87.552L149.364 86.112C149.982 84.96 150.868 84.0747 152.02 83.456C153.172 82.8373 154.484 82.528 155.956 82.528ZM174.657 100.256C172.63 100.256 171.051 99.744 169.921 98.72C168.79 97.6747 168.225 96.128 168.225 94.08V78.976H173.217V94.016C173.217 94.7413 173.409 95.3067 173.793 95.712C174.177 96.096 174.699 96.288 175.361 96.288C176.15 96.288 176.822 96.0747 177.377 95.648L178.721 99.168C178.209 99.5307 177.59 99.808 176.865 100C176.161 100.171 175.425 100.256 174.657 100.256ZM165.569 87.008V83.168H177.505V87.008H165.569ZM196.377 100.256C194.905 100.256 193.487 100.085 192.121 99.744C190.777 99.3813 189.711 98.9333 188.921 98.4L190.585 94.816C191.375 95.3067 192.303 95.712 193.369 96.032C194.457 96.3307 195.524 96.48 196.569 96.48C197.721 96.48 198.532 96.3413 199.001 96.064C199.492 95.7867 199.737 95.4027 199.737 94.912C199.737 94.5067 199.545 94.208 199.161 94.016C198.799 93.8027 198.308 93.6427 197.689 93.536C197.071 93.4293 196.388 93.3227 195.641 93.216C194.916 93.1093 194.18 92.9707 193.433 92.8C192.687 92.608 192.004 92.3307 191.385 91.968C190.767 91.6053 190.265 91.1147 189.881 90.496C189.519 89.8773 189.337 89.0773 189.337 88.096C189.337 87.008 189.647 86.048 190.265 85.216C190.905 84.384 191.823 83.7333 193.017 83.264C194.212 82.7733 195.641 82.528 197.305 82.528C198.479 82.528 199.673 82.656 200.889 82.912C202.105 83.168 203.119 83.5413 203.929 84.032L202.265 87.584C201.433 87.0933 200.591 86.7627 199.737 86.592C198.905 86.4 198.095 86.304 197.305 86.304C196.196 86.304 195.385 86.4533 194.873 86.752C194.361 87.0507 194.105 87.4347 194.105 87.904C194.105 88.3307 194.287 88.6507 194.649 88.864C195.033 89.0773 195.535 89.248 196.153 89.376C196.772 89.504 197.444 89.6213 198.169 89.728C198.916 89.8133 199.663 89.952 200.409 90.144C201.156 90.336 201.828 90.6133 202.425 90.976C203.044 91.3173 203.545 91.7973 203.929 92.416C204.313 93.0133 204.505 93.8027 204.505 94.784C204.505 95.8507 204.185 96.8 203.545 97.632C202.905 98.4427 201.977 99.0827 200.761 99.552C199.567 100.021 198.105 100.256 196.377 100.256ZM214.849 100.256C213.42 100.256 212.14 99.9787 211.009 99.424C209.9 98.8693 209.036 98.0267 208.417 96.896C207.799 95.744 207.489 94.2827 207.489 92.512V82.784H212.481V91.776C212.481 93.2053 212.78 94.2613 213.377 94.944C213.996 95.6053 214.86 95.936 215.969 95.936C216.737 95.936 217.42 95.776 218.017 95.456C218.615 95.1147 219.084 94.6027 219.425 93.92C219.767 93.216 219.937 92.3413 219.937 91.296V82.784H224.929V100H220.193V95.264L221.057 96.64C220.481 97.8347 219.628 98.7413 218.497 99.36C217.388 99.9573 216.172 100.256 214.849 100.256ZM237.874 100.256C236.018 100.256 234.365 99.8827 232.914 99.136C231.463 98.368 230.322 97.312 229.49 95.968C228.679 94.624 228.274 93.0987 228.274 91.392C228.274 89.664 228.679 88.1387 229.49 86.816C230.322 85.472 231.463 84.4267 232.914 83.68C234.365 82.912 236.018 82.528 237.874 82.528C239.687 82.528 241.266 82.912 242.61 83.68C243.954 84.4267 244.946 85.504 245.586 86.912L241.714 88.992C241.266 88.1813 240.701 87.584 240.018 87.2C239.357 86.816 238.631 86.624 237.842 86.624C236.989 86.624 236.221 86.816 235.538 87.2C234.855 87.584 234.311 88.128 233.906 88.832C233.522 89.536 233.33 90.3893 233.33 91.392C233.33 92.3947 233.522 93.248 233.906 93.952C234.311 94.656 234.855 95.2 235.538 95.584C236.221 95.968 236.989 96.16 237.842 96.16C238.631 96.16 239.357 95.9787 240.018 95.616C240.701 95.232 241.266 94.624 241.714 93.792L245.586 95.904C244.946 97.2907 243.954 98.368 242.61 99.136C241.266 99.8827 239.687 100.256 237.874 100.256ZM256.562 100.256C254.706 100.256 253.052 99.8827 251.602 99.136C250.151 98.368 249.01 97.312 248.178 95.968C247.367 94.624 246.962 93.0987 246.962 91.392C246.962 89.664 247.367 88.1387 248.178 86.816C249.01 85.472 250.151 84.4267 251.602 83.68C253.052 82.912 254.706 82.528 256.562 82.528C258.375 82.528 259.954 82.912 261.298 83.68C262.642 84.4267 263.634 85.504 264.274 86.912L260.402 88.992C259.954 88.1813 259.388 87.584 258.706 87.2C258.044 86.816 257.319 86.624 256.53 86.624C255.676 86.624 254.908 86.816 254.226 87.2C253.543 87.584 252.999 88.128 252.594 88.832C252.21 89.536 252.018 90.3893 252.018 91.392C252.018 92.3947 252.21 93.248 252.594 93.952C252.999 94.656 253.543 95.2 254.226 95.584C254.908 95.968 255.676 96.16 256.53 96.16C257.319 96.16 258.044 95.9787 258.706 95.616C259.388 95.232 259.954 94.624 260.402 93.792L264.274 95.904C263.634 97.2907 262.642 98.368 261.298 99.136C259.954 99.8827 258.375 100.256 256.562 100.256ZM275.473 100.256C273.51 100.256 271.782 99.872 270.289 99.104C268.817 98.336 267.676 97.2907 266.865 95.968C266.054 94.624 265.649 93.0987 265.649 91.392C265.649 89.664 266.044 88.1387 266.833 86.816C267.644 85.472 268.742 84.4267 270.129 83.68C271.516 82.912 273.084 82.528 274.833 82.528C276.518 82.528 278.033 82.8907 279.377 83.616C280.742 84.32 281.82 85.344 282.609 86.688C283.398 88.0107 283.793 89.6 283.793 91.456C283.793 91.648 283.782 91.872 283.761 92.128C283.74 92.3627 283.718 92.5867 283.697 92.8H269.713V89.888H281.073L279.153 90.752C279.153 89.856 278.972 89.0773 278.609 88.416C278.246 87.7547 277.745 87.2427 277.105 86.88C276.465 86.496 275.718 86.304 274.865 86.304C274.012 86.304 273.254 86.496 272.593 86.88C271.953 87.2427 271.452 87.7653 271.089 88.448C270.726 89.1093 270.545 89.8987 270.545 90.816V91.584C270.545 92.5227 270.748 93.3547 271.153 94.08C271.58 94.784 272.166 95.328 272.913 95.712C273.681 96.0747 274.577 96.256 275.601 96.256C276.518 96.256 277.318 96.1173 278.001 95.84C278.705 95.5627 279.345 95.1467 279.921 94.592L282.577 97.472C281.788 98.368 280.796 99.0613 279.601 99.552C278.406 100.021 277.03 100.256 275.473 100.256ZM292.909 100.256C291.437 100.256 290.018 100.085 288.653 99.744C287.309 99.3813 286.242 98.9333 285.453 98.4L287.117 94.816C287.906 95.3067 288.834 95.712 289.901 96.032C290.989 96.3307 292.055 96.48 293.101 96.48C294.253 96.48 295.063 96.3413 295.533 96.064C296.023 95.7867 296.269 95.4027 296.269 94.912C296.269 94.5067 296.077 94.208 295.693 94.016C295.33 93.8027 294.839 93.6427 294.22 93.536C293.602 93.4293 292.919 93.3227 292.173 93.216C291.447 93.1093 290.711 92.9707 289.965 92.8C289.218 92.608 288.535 92.3307 287.917 91.968C287.298 91.6053 286.797 91.1147 286.413 90.496C286.05 89.8773 285.868 89.0773 285.868 88.096C285.868 87.008 286.178 86.048 286.797 85.216C287.437 84.384 288.354 83.7333 289.549 83.264C290.743 82.7733 292.173 82.528 293.837 82.528C295.01 82.528 296.205 82.656 297.421 82.912C298.637 83.168 299.65 83.5413 300.461 84.032L298.797 87.584C297.965 87.0933 297.122 86.7627 296.269 86.592C295.437 86.4 294.626 86.304 293.837 86.304C292.727 86.304 291.917 86.4533 291.405 86.752C290.893 87.0507 290.637 87.4347 290.637 87.904C290.637 88.3307 290.818 88.6507 291.181 88.864C291.565 89.0773 292.066 89.248 292.685 89.376C293.303 89.504 293.975 89.6213 294.701 89.728C295.447 89.8133 296.194 89.952 296.941 90.144C297.687 90.336 298.359 90.6133 298.957 90.976C299.575 91.3173 300.077 91.7973 300.461 92.416C300.845 93.0133 301.037 93.8027 301.037 94.784C301.037 95.8507 300.717 96.8 300.077 97.632C299.437 98.4427 298.509 99.0827 297.293 99.552C296.098 100.021 294.637 100.256 292.909 100.256ZM309.909 100.256C308.437 100.256 307.018 100.085 305.653 99.744C304.309 99.3813 303.242 98.9333 302.453 98.4L304.117 94.816C304.906 95.3067 305.834 95.712 306.901 96.032C307.989 96.3307 309.055 96.48 310.101 96.48C311.253 96.48 312.063 96.3413 312.533 96.064C313.023 95.7867 313.269 95.4027 313.269 94.912C313.269 94.5067 313.077 94.208 312.693 94.016C312.33 93.8027 311.839 93.6427 311.22 93.536C310.602 93.4293 309.919 93.3227 309.173 93.216C308.447 93.1093 307.711 92.9707 306.965 92.8C306.218 92.608 305.535 92.3307 304.917 91.968C304.298 91.6053 303.797 91.1147 303.413 90.496C303.05 89.8773 302.868 89.0773 302.868 88.096C302.868 87.008 303.178 86.048 303.797 85.216C304.437 84.384 305.354 83.7333 306.549 83.264C307.743 82.7733 309.173 82.528 310.837 82.528C312.01 82.528 313.205 82.656 314.421 82.912C315.637 83.168 316.65 83.5413 317.461 84.032L315.797 87.584C314.965 87.0933 314.122 86.7627 313.269 86.592C312.437 86.4 311.626 86.304 310.837 86.304C309.727 86.304 308.917 86.4533 308.405 86.752C307.893 87.0507 307.637 87.4347 307.637 87.904C307.637 88.3307 307.818 88.6507 308.181 88.864C308.565 89.0773 309.066 89.248 309.685 89.376C310.303 89.504 310.975 89.6213 311.701 89.728C312.447 89.8133 313.194 89.952 313.941 90.144C314.687 90.336 315.359 90.6133 315.957 90.976C316.575 91.3173 317.077 91.7973 317.461 92.416C317.845 93.0133 318.037 93.8027 318.037 94.784C318.037 95.8507 317.717 96.8 317.077 97.632C316.437 98.4427 315.509 99.0827 314.293 99.552C313.098 100.021 311.637 100.256 309.909 100.256ZM320.253 104.928L322.365 97.248L323.069 100.128C322.151 100.128 321.394 99.8613 320.797 99.328C320.221 98.7947 319.933 98.0587 319.933 97.12C319.933 96.1813 320.231 95.4347 320.829 94.88C321.426 94.3253 322.162 94.048 323.036 94.048C323.933 94.048 324.669 94.336 325.245 94.912C325.821 95.4667 326.109 96.2027 326.109 97.12C326.109 97.3973 326.087 97.6747 326.045 97.952C326.002 98.208 325.917 98.528 325.789 98.912C325.682 99.2747 325.501 99.744 325.245 100.32L323.421 104.928H320.253ZM347.098 100.256C345.135 100.256 343.407 99.872 341.914 99.104C340.442 98.336 339.301 97.2907 338.49 95.968C337.679 94.624 337.274 93.0987 337.274 91.392C337.274 89.664 337.669 88.1387 338.458 86.816C339.269 85.472 340.367 84.4267 341.754 83.68C343.141 82.912 344.709 82.528 346.458 82.528C348.143 82.528 349.658 82.8907 351.002 83.616C352.367 84.32 353.445 85.344 354.234 86.688C355.023 88.0107 355.418 89.6 355.418 91.456C355.418 91.648 355.407 91.872 355.386 92.128C355.365 92.3627 355.343 92.5867 355.322 92.8H341.338V89.888H352.698L350.778 90.752C350.778 89.856 350.597 89.0773 350.234 88.416C349.871 87.7547 349.37 87.2427 348.73 86.88C348.09 86.496 347.343 86.304 346.49 86.304C345.637 86.304 344.879 86.496 344.218 86.88C343.578 87.2427 343.077 87.7653 342.714 88.448C342.351 89.1093 342.17 89.8987 342.17 90.816V91.584C342.17 92.5227 342.373 93.3547 342.778 94.08C343.205 94.784 343.791 95.328 344.538 95.712C345.306 96.0747 346.202 96.256 347.226 96.256C348.143 96.256 348.943 96.1173 349.626 95.84C350.33 95.5627 350.97 95.1467 351.546 94.592L354.202 97.472C353.413 98.368 352.421 99.0613 351.226 99.552C350.031 100.021 348.655 100.256 347.098 100.256ZM356.097 100L363.809 89.888L363.713 92.64L356.321 82.784H361.921L366.593 89.216L364.481 89.28L369.313 82.784H374.625L367.201 92.544V89.856L374.881 100H369.217L364.321 93.152L366.401 93.44L361.537 100H356.097ZM385.093 100.256C383.237 100.256 381.583 99.8827 380.133 99.136C378.682 98.368 377.541 97.312 376.709 95.968C375.898 94.624 375.493 93.0987 375.493 91.392C375.493 89.664 375.898 88.1387 376.709 86.816C377.541 85.472 378.682 84.4267 380.133 83.68C381.583 82.912 383.237 82.528 385.093 82.528C386.906 82.528 388.485 82.912 389.829 83.68C391.173 84.4267 392.165 85.504 392.805 86.912L388.933 88.992C388.485 88.1813 387.919 87.584 387.237 87.2C386.575 86.816 385.85 86.624 385.061 86.624C384.207 86.624 383.439 86.816 382.757 87.2C382.074 87.584 381.53 88.128 381.125 88.832C380.741 89.536 380.549 90.3893 380.549 91.392C380.549 92.3947 380.741 93.248 381.125 93.952C381.53 94.656 382.074 95.2 382.757 95.584C383.439 95.968 384.207 96.16 385.061 96.16C385.85 96.16 386.575 95.9787 387.237 95.616C387.919 95.232 388.485 94.624 388.933 93.792L392.805 95.904C392.165 97.2907 391.173 98.368 389.829 99.136C388.485 99.8827 386.906 100.256 385.093 100.256ZM404.004 100.256C402.042 100.256 400.314 99.872 398.82 99.104C397.348 98.336 396.207 97.2907 395.396 95.968C394.586 94.624 394.18 93.0987 394.18 91.392C394.18 89.664 394.575 88.1387 395.364 86.816C396.175 85.472 397.274 84.4267 398.66 83.68C400.047 82.912 401.615 82.528 403.364 82.528C405.05 82.528 406.564 82.8907 407.908 83.616C409.274 84.32 410.351 85.344 411.14 86.688C411.93 88.0107 412.324 89.6 412.324 91.456C412.324 91.648 412.314 91.872 412.292 92.128C412.271 92.3627 412.25 92.5867 412.228 92.8H398.244V89.888H409.604L407.684 90.752C407.684 89.856 407.503 89.0773 407.14 88.416C406.778 87.7547 406.276 87.2427 405.636 86.88C404.996 86.496 404.25 86.304 403.396 86.304C402.543 86.304 401.786 86.496 401.124 86.88C400.484 87.2427 399.983 87.7653 399.62 88.448C399.258 89.1093 399.076 89.8987 399.076 90.816V91.584C399.076 92.5227 399.279 93.3547 399.684 94.08C400.111 94.784 400.698 95.328 401.444 95.712C402.212 96.0747 403.108 96.256 404.132 96.256C405.05 96.256 405.85 96.1173 406.532 95.84C407.236 95.5627 407.876 95.1467 408.452 94.592L411.108 97.472C410.319 98.368 409.327 99.0613 408.132 99.552C406.938 100.021 405.562 100.256 404.004 100.256ZM415.648 100V76.256H420.64V100H415.648ZM425.273 100V76.256H430.265V100H425.273ZM443.442 100.256C441.479 100.256 439.751 99.872 438.258 99.104C436.786 98.336 435.644 97.2907 434.834 95.968C434.023 94.624 433.618 93.0987 433.618 91.392C433.618 89.664 434.012 88.1387 434.802 86.816C435.612 85.472 436.711 84.4267 438.098 83.68C439.484 82.912 441.052 82.528 442.802 82.528C444.487 82.528 446.002 82.8907 447.346 83.616C448.711 84.32 449.788 85.344 450.578 86.688C451.367 88.0107 451.762 89.6 451.762 91.456C451.762 91.648 451.751 91.872 451.73 92.128C451.708 92.3627 451.687 92.5867 451.666 92.8H437.682V89.888H449.042L447.122 90.752C447.122 89.856 446.94 89.0773 446.578 88.416C446.215 87.7547 445.714 87.2427 445.074 86.88C444.434 86.496 443.687 86.304 442.834 86.304C441.98 86.304 441.223 86.496 440.562 86.88C439.922 87.2427 439.42 87.7653 439.058 88.448C438.695 89.1093 438.514 89.8987 438.514 90.816V91.584C438.514 92.5227 438.716 93.3547 439.122 94.08C439.548 94.784 440.135 95.328 440.882 95.712C441.65 96.0747 442.546 96.256 443.57 96.256C444.487 96.256 445.287 96.1173 445.97 95.84C446.674 95.5627 447.314 95.1467 447.89 94.592L450.546 97.472C449.756 98.368 448.764 99.0613 447.57 99.552C446.375 100.021 444.999 100.256 443.442 100.256ZM465.549 82.528C466.915 82.528 468.131 82.8053 469.197 83.36C470.285 83.8933 471.139 84.7253 471.757 85.856C472.376 86.9653 472.685 88.3947 472.685 90.144V100H467.693V90.912C467.693 89.5253 467.384 88.5013 466.765 87.84C466.168 87.1787 465.315 86.848 464.205 86.848C463.416 86.848 462.701 87.0187 462.061 87.36C461.443 87.68 460.952 88.1813 460.589 88.864C460.248 89.5467 460.077 90.4213 460.077 91.488V100H455.085V82.784H459.853V87.552L458.957 86.112C459.576 84.96 460.461 84.0747 461.613 83.456C462.765 82.8373 464.077 82.528 465.549 82.528ZM485.655 100.256C483.799 100.256 482.146 99.8827 480.695 99.136C479.245 98.368 478.103 97.312 477.271 95.968C476.461 94.624 476.055 93.0987 476.055 91.392C476.055 89.664 476.461 88.1387 477.271 86.816C478.103 85.472 479.245 84.4267 480.695 83.68C482.146 82.912 483.799 82.528 485.655 82.528C487.469 82.528 489.047 82.912 490.391 83.68C491.735 84.4267 492.727 85.504 493.367 86.912L489.495 88.992C489.047 88.1813 488.482 87.584 487.799 87.2C487.138 86.816 486.413 86.624 485.623 86.624C484.77 86.624 484.002 86.816 483.319 87.2C482.637 87.584 482.093 88.128 481.687 88.832C481.303 89.536 481.111 90.3893 481.111 91.392C481.111 92.3947 481.303 93.248 481.687 93.952C482.093 94.656 482.637 95.2 483.319 95.584C484.002 95.968 484.77 96.16 485.623 96.16C486.413 96.16 487.138 95.9787 487.799 95.616C488.482 95.232 489.047 94.624 489.495 93.792L493.367 95.904C492.727 97.2907 491.735 98.368 490.391 99.136C489.047 99.8827 487.469 100.256 485.655 100.256ZM504.567 100.256C502.604 100.256 500.876 99.872 499.383 99.104C497.911 98.336 496.769 97.2907 495.959 95.968C495.148 94.624 494.743 93.0987 494.743 91.392C494.743 89.664 495.137 88.1387 495.927 86.816C496.737 85.472 497.836 84.4267 499.223 83.68C500.609 82.912 502.177 82.528 503.927 82.528C505.612 82.528 507.127 82.8907 508.471 83.616C509.836 84.32 510.913 85.344 511.703 86.688C512.492 88.0107 512.887 89.6 512.887 91.456C512.887 91.648 512.876 91.872 512.855 92.128C512.833 92.3627 512.812 92.5867 512.791 92.8H498.807V89.888H510.167L508.247 90.752C508.247 89.856 508.065 89.0773 507.703 88.416C507.34 87.7547 506.839 87.2427 506.199 86.88C505.559 86.496 504.812 86.304 503.959 86.304C503.105 86.304 502.348 86.496 501.687 86.88C501.047 87.2427 500.545 87.7653 500.183 88.448C499.82 89.1093 499.639 89.8987 499.639 90.816V91.584C499.639 92.5227 499.841 93.3547 500.247 94.08C500.673 94.784 501.26 95.328 502.007 95.712C502.775 96.0747 503.671 96.256 504.695 96.256C505.612 96.256 506.412 96.1173 507.095 95.84C507.799 95.5627 508.439 95.1467 509.015 94.592L511.671 97.472C510.881 98.368 509.889 99.0613 508.695 99.552C507.5 100.021 506.124 100.256 504.567 100.256ZM532.665 100.384C531.022 100.384 529.561 100.117 528.281 99.584C527.001 99.0507 525.987 98.3253 525.241 97.408C524.494 96.4907 524.121 95.4347 524.121 94.24C524.121 93.1307 524.366 92.1387 524.857 91.264C525.347 90.368 526.126 89.536 527.193 88.768C528.259 87.9787 529.614 87.2107 531.257 86.464C532.451 85.9093 533.39 85.4187 534.073 84.992C534.755 84.5653 535.235 84.16 535.513 83.776C535.79 83.3707 535.929 82.9653 535.929 82.56C535.929 82.0053 535.737 81.5573 535.353 81.216C534.99 80.8747 534.446 80.704 533.721 80.704C532.953 80.704 532.355 80.896 531.929 81.28C531.502 81.664 531.289 82.1547 531.289 82.752C531.289 83.072 531.353 83.392 531.481 83.712C531.609 84.0107 531.854 84.3627 532.217 84.768C532.579 85.152 533.091 85.6533 533.753 86.272L545.561 97.216L542.841 100.384L529.817 88.288C529.07 87.6053 528.473 86.9653 528.025 86.368C527.577 85.7707 527.246 85.184 527.033 84.608C526.841 84.032 526.745 83.4347 526.745 82.816C526.745 81.728 527.033 80.768 527.609 79.936C528.185 79.104 528.995 78.464 530.041 78.016C531.086 77.5467 532.313 77.312 533.721 77.312C535.022 77.312 536.142 77.5253 537.081 77.952C538.041 78.3573 538.787 78.944 539.321 79.712C539.875 80.48 540.153 81.3973 540.153 82.464C540.153 83.4027 539.918 84.2667 539.449 85.056C538.979 85.824 538.243 86.5493 537.241 87.232C536.259 87.9147 534.969 88.608 533.369 89.312C532.281 89.8027 531.417 90.2827 530.777 90.752C530.158 91.2 529.71 91.6587 529.433 92.128C529.155 92.5973 529.017 93.12 529.017 93.696C529.017 94.2293 529.177 94.7093 529.497 95.136C529.838 95.5627 530.307 95.8933 530.905 96.128C531.502 96.3627 532.206 96.48 533.017 96.48C534.318 96.48 535.513 96.1813 536.601 95.584C537.689 94.9653 538.606 94.0587 539.353 92.864C540.121 91.648 540.665 90.176 540.985 88.448L544.985 89.696C544.537 91.872 543.737 93.76 542.585 95.36C541.433 96.96 540.014 98.1973 538.329 99.072C536.643 99.9467 534.755 100.384 532.665 100.384ZM557.617 100V82.784H562.609V100H557.617ZM560.113 80.384C559.195 80.384 558.449 80.1173 557.873 79.584C557.297 79.0507 557.009 78.3893 557.009 77.6C557.009 76.8107 557.297 76.1493 557.873 75.616C558.449 75.0827 559.195 74.816 560.113 74.816C561.03 74.816 561.777 75.072 562.353 75.584C562.929 76.0747 563.217 76.7147 563.217 77.504C563.217 78.336 562.929 79.0293 562.353 79.584C561.798 80.1173 561.051 80.384 560.113 80.384ZM577.706 82.528C579.071 82.528 580.287 82.8053 581.354 83.36C582.442 83.8933 583.295 84.7253 583.914 85.856C584.532 86.9653 584.842 88.3947 584.842 90.144V100H579.85V90.912C579.85 89.5253 579.54 88.5013 578.922 87.84C578.324 87.1787 577.471 86.848 576.362 86.848C575.572 86.848 574.858 87.0187 574.218 87.36C573.599 87.68 573.108 88.1813 572.746 88.864C572.404 89.5467 572.234 90.4213 572.234 91.488V100H567.242V82.784H572.01V87.552L571.114 86.112C571.732 84.96 572.618 84.0747 573.77 83.456C574.922 82.8373 576.234 82.528 577.706 82.528ZM599.831 82.528C601.196 82.528 602.412 82.8053 603.479 83.36C604.567 83.8933 605.42 84.7253 606.039 85.856C606.657 86.9653 606.967 88.3947 606.967 90.144V100H601.975V90.912C601.975 89.5253 601.665 88.5013 601.047 87.84C600.449 87.1787 599.596 86.848 598.487 86.848C597.697 86.848 596.983 87.0187 596.343 87.36C595.724 87.68 595.233 88.1813 594.871 88.864C594.529 89.5467 594.359 90.4213 594.359 91.488V100H589.367V82.784H594.135V87.552L593.239 86.112C593.857 84.96 594.743 84.0747 595.895 83.456C597.047 82.8373 598.359 82.528 599.831 82.528ZM619.809 100.256C617.974 100.256 616.342 99.872 614.913 99.104C613.505 98.336 612.385 97.2907 611.553 95.968C610.742 94.624 610.337 93.0987 610.337 91.392C610.337 89.664 610.742 88.1387 611.553 86.816C612.385 85.472 613.505 84.4267 614.913 83.68C616.342 82.912 617.974 82.528 619.809 82.528C621.622 82.528 623.243 82.912 624.673 83.68C626.102 84.4267 627.222 85.4613 628.033 86.784C628.843 88.1067 629.249 89.6427 629.249 91.392C629.249 93.0987 628.843 94.624 628.033 95.968C627.222 97.2907 626.102 98.336 624.673 99.104C623.243 99.872 621.622 100.256 619.809 100.256ZM619.809 96.16C620.641 96.16 621.387 95.968 622.049 95.584C622.71 95.2 623.233 94.656 623.617 93.952C624.001 93.2267 624.193 92.3733 624.193 91.392C624.193 90.3893 624.001 89.536 623.617 88.832C623.233 88.128 622.71 87.584 622.049 87.2C621.387 86.816 620.641 86.624 619.809 86.624C618.977 86.624 618.23 86.816 617.569 87.2C616.907 87.584 616.374 88.128 615.969 88.832C615.585 89.536 615.393 90.3893 615.393 91.392C615.393 92.3733 615.585 93.2267 615.969 93.952C616.374 94.656 616.907 95.2 617.569 95.584C618.23 95.968 618.977 96.16 619.809 96.16ZM636.789 100L629.556 82.784H634.709L640.725 97.6H638.165L644.405 82.784H649.205L641.941 100H636.789ZM661.239 100V96.64L660.919 95.904V89.888C660.919 88.8213 660.588 87.9893 659.927 87.392C659.287 86.7947 658.295 86.496 656.951 86.496C656.034 86.496 655.127 86.6453 654.231 86.944C653.356 87.2213 652.61 87.6053 651.991 88.096L650.199 84.608C651.138 83.9467 652.268 83.4347 653.591 83.072C654.914 82.7093 656.258 82.528 657.623 82.528C660.247 82.528 662.284 83.1467 663.735 84.384C665.186 85.6213 665.911 87.552 665.911 90.176V100H661.239ZM655.991 100.256C654.647 100.256 653.495 100.032 652.535 99.584C651.575 99.1147 650.839 98.4853 650.327 97.696C649.815 96.9067 649.559 96.0213 649.559 95.04C649.559 94.016 649.804 93.12 650.295 92.352C650.807 91.584 651.607 90.9867 652.695 90.56C653.783 90.112 655.202 89.888 656.951 89.888H661.527V92.8H657.495C656.322 92.8 655.511 92.992 655.063 93.376C654.636 93.76 654.423 94.24 654.423 94.816C654.423 95.456 654.668 95.968 655.159 96.352C655.671 96.7147 656.364 96.896 657.239 96.896C658.071 96.896 658.818 96.704 659.479 96.32C660.14 95.9147 660.62 95.328 660.919 94.56L661.687 96.864C661.324 97.9733 660.663 98.816 659.703 99.392C658.743 99.968 657.506 100.256 655.991 100.256ZM677.469 100.256C675.442 100.256 673.864 99.744 672.733 98.72C671.602 97.6747 671.037 96.128 671.037 94.08V78.976H676.029V94.016C676.029 94.7413 676.221 95.3067 676.605 95.712C676.989 96.096 677.512 96.288 678.173 96.288C678.962 96.288 679.634 96.0747 680.189 95.648L681.533 99.168C681.021 99.5307 680.402 99.808 679.677 100C678.973 100.171 678.237 100.256 677.469 100.256ZM668.381 87.008V83.168H680.317V87.008H668.381ZM684.335 100V82.784H689.327V100H684.335ZM686.831 80.384C685.914 80.384 685.167 80.1173 684.591 79.584C684.015 79.0507 683.727 78.3893 683.727 77.6C683.727 76.8107 684.015 76.1493 684.591 75.616C685.167 75.0827 685.914 74.816 686.831 74.816C687.749 74.816 688.495 75.072 689.071 75.584C689.647 76.0747 689.935 76.7147 689.935 77.504C689.935 78.336 689.647 79.0293 689.071 79.584C688.517 80.1173 687.77 80.384 686.831 80.384ZM702.152 100.256C700.318 100.256 698.686 99.872 697.256 99.104C695.848 98.336 694.728 97.2907 693.896 95.968C693.086 94.624 692.68 93.0987 692.68 91.392C692.68 89.664 693.086 88.1387 693.896 86.816C694.728 85.472 695.848 84.4267 697.256 83.68C698.686 82.912 700.318 82.528 702.152 82.528C703.966 82.528 705.587 82.912 707.016 83.68C708.446 84.4267 709.566 85.4613 710.376 86.784C711.187 88.1067 711.592 89.6427 711.592 91.392C711.592 93.0987 711.187 94.624 710.376 95.968C709.566 97.2907 708.446 98.336 707.016 99.104C705.587 99.872 703.966 100.256 702.152 100.256ZM702.152 96.16C702.984 96.16 703.731 95.968 704.392 95.584C705.054 95.2 705.576 94.656 705.96 93.952C706.344 93.2267 706.536 92.3733 706.536 91.392C706.536 90.3893 706.344 89.536 705.96 88.832C705.576 88.128 705.054 87.584 704.392 87.2C703.731 86.816 702.984 86.624 702.152 86.624C701.32 86.624 700.574 86.816 699.912 87.2C699.251 87.584 698.718 88.128 698.312 88.832C697.928 89.536 697.736 90.3893 697.736 91.392C697.736 92.3733 697.928 93.2267 698.312 93.952C698.718 94.656 699.251 95.2 699.912 95.584C700.574 95.968 701.32 96.16 702.152 96.16ZM725.393 82.528C726.758 82.528 727.974 82.8053 729.041 83.36C730.129 83.8933 730.982 84.7253 731.601 85.856C732.22 86.9653 732.529 88.3947 732.529 90.144V100H727.537V90.912C727.537 89.5253 727.228 88.5013 726.609 87.84C726.012 87.1787 725.158 86.848 724.049 86.848C723.26 86.848 722.545 87.0187 721.905 87.36C721.286 87.68 720.796 88.1813 720.433 88.864C720.092 89.5467 719.921 90.4213 719.921 91.488V100H714.929V82.784H719.697V87.552L718.801 86.112C719.42 84.96 720.305 84.0747 721.457 83.456C722.609 82.8373 723.921 82.528 725.393 82.528ZM736.19 104.928L738.302 97.248L739.006 100.128C738.089 100.128 737.331 99.8613 736.734 99.328C736.158 98.7947 735.87 98.0587 735.87 97.12C735.87 96.1813 736.169 95.4347 736.766 94.88C737.363 94.3253 738.099 94.048 738.974 94.048C739.87 94.048 740.606 94.336 741.182 94.912C741.758 95.4667 742.046 96.2027 742.046 97.12C742.046 97.3973 742.025 97.6747 741.982 97.952C741.939 98.208 741.854 98.528 741.726 98.912C741.619 99.2747 741.438 99.744 741.182 100.32L739.358 104.928H736.19ZM761.532 100.256C759.505 100.256 757.926 99.744 756.796 98.72C755.665 97.6747 755.1 96.128 755.1 94.08V78.976H760.092V94.016C760.092 94.7413 760.284 95.3067 760.668 95.712C761.052 96.096 761.574 96.288 762.236 96.288C763.025 96.288 763.697 96.0747 764.252 95.648L765.596 99.168C765.084 99.5307 764.465 99.808 763.74 100C763.036 100.171 762.3 100.256 761.532 100.256ZM752.444 87.008V83.168H764.38V87.008H752.444ZM776.411 100.256C774.448 100.256 772.72 99.872 771.227 99.104C769.755 98.336 768.613 97.2907 767.803 95.968C766.992 94.624 766.587 93.0987 766.587 91.392C766.587 89.664 766.981 88.1387 767.771 86.816C768.581 85.472 769.68 84.4267 771.067 83.68C772.453 82.912 774.021 82.528 775.771 82.528C777.456 82.528 778.971 82.8907 780.315 83.616C781.68 84.32 782.757 85.344 783.547 86.688C784.336 88.0107 784.731 89.6 784.731 91.456C784.731 91.648 784.72 91.872 784.699 92.128C784.677 92.3627 784.656 92.5867 784.635 92.8H770.651V89.888H782.01L780.091 90.752C780.091 89.856 779.909 89.0773 779.547 88.416C779.184 87.7547 778.683 87.2427 778.043 86.88C777.403 86.496 776.656 86.304 775.803 86.304C774.949 86.304 774.192 86.496 773.531 86.88C772.891 87.2427 772.389 87.7653 772.027 88.448C771.664 89.1093 771.483 89.8987 771.483 90.816V91.584C771.483 92.5227 771.685 93.3547 772.091 94.08C772.517 94.784 773.104 95.328 773.851 95.712C774.619 96.0747 775.515 96.256 776.539 96.256C777.456 96.256 778.256 96.1173 778.939 95.84C779.643 95.5627 780.283 95.1467 780.859 94.592L783.515 97.472C782.725 98.368 781.733 99.0613 780.539 99.552C779.344 100.021 777.968 100.256 776.411 100.256ZM796.374 100.256C794.518 100.256 792.865 99.8827 791.414 99.136C789.963 98.368 788.822 97.312 787.99 95.968C787.179 94.624 786.774 93.0987 786.774 91.392C786.774 89.664 787.179 88.1387 787.99 86.816C788.822 85.472 789.963 84.4267 791.414 83.68C792.865 82.912 794.518 82.528 796.374 82.528C798.187 82.528 799.766 82.912 801.11 83.68C802.454 84.4267 803.446 85.504 804.086 86.912L800.214 88.992C799.766 88.1813 799.201 87.584 798.518 87.2C797.857 86.816 797.131 86.624 796.342 86.624C795.489 86.624 794.721 86.816 794.038 87.2C793.355 87.584 792.811 88.128 792.406 88.832C792.022 89.536 791.83 90.3893 791.83 91.392C791.83 92.3947 792.022 93.248 792.406 93.952C792.811 94.656 793.355 95.2 794.038 95.584C794.721 95.968 795.489 96.16 796.342 96.16C797.131 96.16 797.857 95.9787 798.518 95.616C799.201 95.232 799.766 94.624 800.214 93.792L804.086 95.904C803.446 97.2907 802.454 98.368 801.11 99.136C799.766 99.8827 798.187 100.256 796.374 100.256ZM817.331 82.528C818.696 82.528 819.912 82.8053 820.979 83.36C822.067 83.8933 822.92 84.7253 823.539 85.856C824.157 86.9653 824.467 88.3947 824.467 90.144V100H819.475V90.912C819.475 89.5253 819.165 88.5013 818.547 87.84C817.949 87.1787 817.096 86.848 815.987 86.848C815.197 86.848 814.483 87.0187 813.843 87.36C813.224 87.68 812.733 88.1813 812.371 88.864C812.029 89.5467 811.859 90.4213 811.859 91.488V100H806.867V76.256H811.859V87.552L810.739 86.112C811.357 84.96 812.243 84.0747 813.395 83.456C814.547 82.8373 815.859 82.528 817.331 82.528ZM839.456 82.528C840.821 82.528 842.037 82.8053 843.104 83.36C844.192 83.8933 845.045 84.7253 845.664 85.856C846.282 86.9653 846.592 88.3947 846.592 90.144V100H841.6V90.912C841.6 89.5253 841.29 88.5013 840.672 87.84C840.074 87.1787 839.221 86.848 838.112 86.848C837.322 86.848 836.608 87.0187 835.968 87.36C835.349 87.68 834.858 88.1813 834.496 88.864C834.154 89.5467 833.984 90.4213 833.984 91.488V100H828.992V82.784H833.76V87.552L832.864 86.112C833.482 84.96 834.368 84.0747 835.52 83.456C836.672 82.8373 837.984 82.528 839.456 82.528ZM851.117 100V82.784H856.109V100H851.117ZM853.613 80.384C852.695 80.384 851.949 80.1173 851.373 79.584C850.797 79.0507 850.509 78.3893 850.509 77.6C850.509 76.8107 850.797 76.1493 851.373 75.616C851.949 75.0827 852.695 74.816 853.613 74.816C854.53 74.816 855.277 75.072 855.853 75.584C856.429 76.0747 856.717 76.7147 856.717 77.504C856.717 78.336 856.429 79.0293 855.853 79.584C855.298 80.1173 854.551 80.384 853.613 80.384ZM869.062 100.256C867.206 100.256 865.552 99.8827 864.102 99.136C862.651 98.368 861.51 97.312 860.678 95.968C859.867 94.624 859.462 93.0987 859.462 91.392C859.462 89.664 859.867 88.1387 860.678 86.816C861.51 85.472 862.651 84.4267 864.102 83.68C865.552 82.912 867.206 82.528 869.062 82.528C870.875 82.528 872.454 82.912 873.798 83.68C875.142 84.4267 876.134 85.504 876.774 86.912L872.902 88.992C872.454 88.1813 871.888 87.584 871.206 87.2C870.544 86.816 869.819 86.624 869.03 86.624C868.176 86.624 867.408 86.816 866.726 87.2C866.043 87.584 865.499 88.128 865.094 88.832C864.71 89.536 864.518 90.3893 864.518 91.392C864.518 92.3947 864.71 93.248 865.094 93.952C865.499 94.656 866.043 95.2 866.726 95.584C867.408 95.968 868.176 96.16 869.03 96.16C869.819 96.16 870.544 95.9787 871.206 95.616C871.888 95.232 872.454 94.624 872.902 93.792L876.774 95.904C876.134 97.2907 875.142 98.368 873.798 99.136C872.454 99.8827 870.875 100.256 869.062 100.256ZM890.208 100V96.64L889.888 95.904V89.888C889.888 88.8213 889.557 87.9893 888.896 87.392C888.256 86.7947 887.264 86.496 885.92 86.496C885.002 86.496 884.096 86.6453 883.2 86.944C882.325 87.2213 881.578 87.6053 880.96 88.096L879.168 84.608C880.106 83.9467 881.237 83.4347 882.56 83.072C883.882 82.7093 885.226 82.528 886.592 82.528C889.216 82.528 891.253 83.1467 892.704 84.384C894.154 85.6213 894.88 87.552 894.88 90.176V100H890.208ZM884.96 100.256C883.616 100.256 882.464 100.032 881.504 99.584C880.544 99.1147 879.808 98.4853 879.296 97.696C878.784 96.9067 878.528 96.0213 878.528 95.04C878.528 94.016 878.773 93.12 879.264 92.352C879.776 91.584 880.576 90.9867 881.664 90.56C882.752 90.112 884.17 89.888 885.92 89.888H890.496V92.8H886.464C885.29 92.8 884.48 92.992 884.032 93.376C883.605 93.76 883.392 94.24 883.392 94.816C883.392 95.456 883.637 95.968 884.128 96.352C884.64 96.7147 885.333 96.896 886.208 96.896C887.04 96.896 887.786 96.704 888.448 96.32C889.109 95.9147 889.589 95.328 889.888 94.56L890.656 96.864C890.293 97.9733 889.632 98.816 888.672 99.392C887.712 99.968 886.474 100.256 884.96 100.256ZM899.398 100V76.256H904.39V100H899.398ZM93.6449 139.256C91.6822 139.256 89.9542 138.872 88.4609 138.104C86.9889 137.336 85.8475 136.291 85.0369 134.968C84.2262 133.624 83.8209 132.099 83.8209 130.392C83.8209 128.664 84.2155 127.139 85.0049 125.816C85.8155 124.472 86.9142 123.427 88.3009 122.68C89.6875 121.912 91.2555 121.528 93.0049 121.528C94.6902 121.528 96.2049 121.891 97.5489 122.616C98.9142 123.32 99.9915 124.344 100.781 125.688C101.57 127.011 101.965 128.6 101.965 130.456C101.965 130.648 101.954 130.872 101.933 131.128C101.912 131.363 101.89 131.587 101.869 131.8H87.8849V128.888H99.2449L97.3249 129.752C97.3249 128.856 97.1435 128.077 96.7809 127.416C96.4182 126.755 95.9169 126.243 95.2769 125.88C94.6369 125.496 93.8902 125.304 93.0369 125.304C92.1835 125.304 91.4262 125.496 90.7649 125.88C90.1249 126.243 89.6235 126.765 89.2609 127.448C88.8982 128.109 88.7169 128.899 88.7169 129.816V130.584C88.7169 131.523 88.9195 132.355 89.3249 133.08C89.7515 133.784 90.3382 134.328 91.0849 134.712C91.8529 135.075 92.7489 135.256 93.7729 135.256C94.6902 135.256 95.4902 135.117 96.1729 134.84C96.8769 134.563 97.5169 134.147 98.0929 133.592L100.749 136.472C99.9595 137.368 98.9675 138.061 97.7729 138.552C96.5782 139.021 95.2022 139.256 93.6449 139.256ZM102.644 139L110.356 128.888L110.26 131.64L102.868 121.784H108.468L113.14 128.216L111.028 128.28L115.86 121.784H121.172L113.748 131.544V128.856L121.428 139H115.764L110.868 132.152L112.948 132.44L108.084 139H102.644ZM134.027 139.256C132.576 139.256 131.307 138.936 130.219 138.296C129.131 137.656 128.278 136.685 127.659 135.384C127.062 134.061 126.763 132.397 126.763 130.392C126.763 128.365 127.051 126.701 127.627 125.4C128.203 124.099 129.035 123.128 130.123 122.488C131.211 121.848 132.512 121.528 134.027 121.528C135.648 121.528 137.099 121.901 138.379 122.648C139.68 123.373 140.704 124.397 141.451 125.72C142.219 127.043 142.603 128.6 142.603 130.392C142.603 132.205 142.219 133.773 141.451 135.096C140.704 136.419 139.68 137.443 138.379 138.168C137.099 138.893 135.648 139.256 134.027 139.256ZM123.851 145.208V121.784H128.619V125.304L128.523 130.424L128.843 135.512V145.208H123.851ZM133.163 135.16C133.995 135.16 134.731 134.968 135.371 134.584C136.032 134.2 136.555 133.656 136.939 132.952C137.344 132.227 137.547 131.373 137.547 130.392C137.547 129.389 137.344 128.536 136.939 127.832C136.555 127.128 136.032 126.584 135.371 126.2C134.731 125.816 133.995 125.624 133.163 125.624C132.331 125.624 131.584 125.816 130.923 126.2C130.262 126.584 129.739 127.128 129.355 127.832C128.971 128.536 128.779 129.389 128.779 130.392C128.779 131.373 128.971 132.227 129.355 132.952C129.739 133.656 130.262 134.2 130.923 134.584C131.584 134.968 132.331 135.16 133.163 135.16ZM154.489 139.256C152.526 139.256 150.798 138.872 149.305 138.104C147.833 137.336 146.691 136.291 145.881 134.968C145.07 133.624 144.665 132.099 144.665 130.392C144.665 128.664 145.059 127.139 145.849 125.816C146.659 124.472 147.758 123.427 149.145 122.68C150.531 121.912 152.099 121.528 153.849 121.528C155.534 121.528 157.049 121.891 158.393 122.616C159.758 123.32 160.835 124.344 161.625 125.688C162.414 127.011 162.809 128.6 162.809 130.456C162.809 130.648 162.798 130.872 162.777 131.128C162.755 131.363 162.734 131.587 162.713 131.8H148.729V128.888H160.089L158.169 129.752C158.169 128.856 157.987 128.077 157.625 127.416C157.262 126.755 156.761 126.243 156.121 125.88C155.481 125.496 154.734 125.304 153.881 125.304C153.027 125.304 152.27 125.496 151.609 125.88C150.969 126.243 150.467 126.765 150.105 127.448C149.742 128.109 149.561 128.899 149.561 129.816V130.584C149.561 131.523 149.763 132.355 150.169 133.08C150.595 133.784 151.182 134.328 151.929 134.712C152.697 135.075 153.593 135.256 154.617 135.256C155.534 135.256 156.334 135.117 157.017 134.84C157.721 134.563 158.361 134.147 158.937 133.592L161.593 136.472C160.803 137.368 159.811 138.061 158.617 138.552C157.422 139.021 156.046 139.256 154.489 139.256ZM166.132 139V121.784H170.9V126.648L170.228 125.24C170.74 124.024 171.561 123.107 172.692 122.488C173.823 121.848 175.199 121.528 176.82 121.528V126.136C176.607 126.115 176.415 126.104 176.244 126.104C176.073 126.083 175.892 126.072 175.7 126.072C174.335 126.072 173.225 126.467 172.372 127.256C171.54 128.024 171.124 129.229 171.124 130.872V139H166.132ZM187.422 139.256C185.395 139.256 183.817 138.744 182.686 137.72C181.555 136.675 180.99 135.128 180.99 133.08V117.976H185.982V133.016C185.982 133.741 186.174 134.307 186.558 134.712C186.942 135.096 187.465 135.288 188.126 135.288C188.915 135.288 189.587 135.075 190.142 134.648L191.486 138.168C190.974 138.531 190.355 138.808 189.63 139C188.926 139.171 188.19 139.256 187.422 139.256ZM178.334 126.008V122.168H190.27V126.008H178.334ZM194.288 139V121.784H199.28V139H194.288ZM196.784 119.384C195.867 119.384 195.12 119.117 194.544 118.584C193.968 118.051 193.68 117.389 193.68 116.6C193.68 115.811 193.968 115.149 194.544 114.616C195.12 114.083 195.867 113.816 196.784 113.816C197.702 113.816 198.448 114.072 199.024 114.584C199.6 115.075 199.888 115.715 199.888 116.504C199.888 117.336 199.6 118.029 199.024 118.584C198.47 119.117 197.723 119.384 196.784 119.384ZM209.705 139.256C208.233 139.256 206.815 139.085 205.449 138.744C204.105 138.381 203.039 137.933 202.249 137.4L203.913 133.816C204.703 134.307 205.631 134.712 206.697 135.032C207.785 135.331 208.852 135.48 209.897 135.48C211.049 135.48 211.86 135.341 212.329 135.064C212.82 134.787 213.065 134.403 213.065 133.912C213.065 133.507 212.873 133.208 212.489 133.016C212.127 132.803 211.636 132.643 211.017 132.536C210.399 132.429 209.716 132.323 208.969 132.216C208.244 132.109 207.508 131.971 206.761 131.8C206.015 131.608 205.332 131.331 204.713 130.968C204.095 130.605 203.593 130.115 203.209 129.496C202.847 128.877 202.665 128.077 202.665 127.096C202.665 126.008 202.975 125.048 203.593 124.216C204.233 123.384 205.151 122.733 206.345 122.264C207.54 121.773 208.969 121.528 210.633 121.528C211.807 121.528 213.001 121.656 214.217 121.912C215.433 122.168 216.447 122.541 217.257 123.032L215.593 126.584C214.761 126.093 213.919 125.763 213.065 125.592C212.233 125.4 211.423 125.304 210.633 125.304C209.524 125.304 208.713 125.453 208.201 125.752C207.689 126.051 207.433 126.435 207.433 126.904C207.433 127.331 207.615 127.651 207.977 127.864C208.361 128.077 208.863 128.248 209.481 128.376C210.1 128.504 210.772 128.621 211.497 128.728C212.244 128.813 212.991 128.952 213.737 129.144C214.484 129.336 215.156 129.613 215.753 129.976C216.372 130.317 216.873 130.797 217.257 131.416C217.641 132.013 217.833 132.803 217.833 133.784C217.833 134.851 217.513 135.8 216.873 136.632C216.233 137.443 215.305 138.083 214.089 138.552C212.895 139.021 211.433 139.256 209.705 139.256ZM229.457 139.256C227.495 139.256 225.767 138.872 224.273 138.104C222.801 137.336 221.66 136.291 220.849 134.968C220.039 133.624 219.633 132.099 219.633 130.392C219.633 128.664 220.028 127.139 220.817 125.816C221.628 124.472 222.727 123.427 224.113 122.68C225.5 121.912 227.068 121.528 228.817 121.528C230.503 121.528 232.017 121.891 233.361 122.616C234.727 123.32 235.804 124.344 236.593 125.688C237.383 127.011 237.777 128.6 237.777 130.456C237.777 130.648 237.767 130.872 237.745 131.128C237.724 131.363 237.703 131.587 237.681 131.8H223.697V128.888H235.057L233.137 129.752C233.137 128.856 232.956 128.077 232.593 127.416C232.231 126.755 231.729 126.243 231.089 125.88C230.449 125.496 229.703 125.304 228.849 125.304C227.996 125.304 227.239 125.496 226.577 125.88C225.937 126.243 225.436 126.765 225.073 127.448C224.711 128.109 224.529 128.899 224.529 129.816V130.584C224.529 131.523 224.732 132.355 225.137 133.08C225.564 133.784 226.151 134.328 226.897 134.712C227.665 135.075 228.561 135.256 229.585 135.256C230.503 135.256 231.303 135.117 231.985 134.84C232.689 134.563 233.329 134.147 233.905 133.592L236.561 136.472C235.772 137.368 234.78 138.061 233.585 138.552C232.391 139.021 231.015 139.256 229.457 139.256ZM240.237 143.928L242.349 136.248L243.053 139.128C242.136 139.128 241.378 138.861 240.781 138.328C240.205 137.795 239.917 137.059 239.917 136.12C239.917 135.181 240.216 134.435 240.813 133.88C241.41 133.325 242.146 133.048 243.021 133.048C243.917 133.048 244.653 133.336 245.229 133.912C245.805 134.467 246.093 135.203 246.093 136.12C246.093 136.397 246.072 136.675 246.029 136.952C245.986 137.208 245.901 137.528 245.773 137.912C245.666 138.275 245.485 138.744 245.229 139.32L243.405 143.928H240.237ZM258.538 139V121.784H263.53V139H258.538ZM261.034 119.384C260.117 119.384 259.37 119.117 258.794 118.584C258.218 118.051 257.93 117.389 257.93 116.6C257.93 115.811 258.218 115.149 258.794 114.616C259.37 114.083 260.117 113.816 261.034 113.816C261.952 113.816 262.698 114.072 263.274 114.584C263.85 115.075 264.138 115.715 264.138 116.504C264.138 117.336 263.85 118.029 263.274 118.584C262.72 119.117 261.973 119.384 261.034 119.384ZM278.627 121.528C279.993 121.528 281.209 121.805 282.275 122.36C283.363 122.893 284.217 123.725 284.835 124.856C285.454 125.965 285.763 127.395 285.763 129.144V139H280.771V129.912C280.771 128.525 280.462 127.501 279.843 126.84C279.246 126.179 278.393 125.848 277.283 125.848C276.494 125.848 275.779 126.019 275.139 126.36C274.521 126.68 274.03 127.181 273.667 127.864C273.326 128.547 273.155 129.421 273.155 130.488V139H268.163V121.784H272.931V126.552L272.035 125.112C272.654 123.96 273.539 123.075 274.691 122.456C275.843 121.837 277.155 121.528 278.627 121.528ZM297.328 139.256C295.302 139.256 293.723 138.744 292.592 137.72C291.462 136.675 290.896 135.128 290.896 133.08V117.976H295.888V133.016C295.888 133.741 296.08 134.307 296.464 134.712C296.848 135.096 297.371 135.288 298.032 135.288C298.822 135.288 299.494 135.075 300.048 134.648L301.392 138.168C300.88 138.531 300.262 138.808 299.536 139C298.832 139.171 298.096 139.256 297.328 139.256ZM288.24 126.008V122.168H300.176V126.008H288.24ZM312.207 139.256C310.245 139.256 308.517 138.872 307.023 138.104C305.551 137.336 304.41 136.291 303.599 134.968C302.789 133.624 302.383 132.099 302.383 130.392C302.383 128.664 302.778 127.139 303.567 125.816C304.378 124.472 305.477 123.427 306.863 122.68C308.25 121.912 309.818 121.528 311.567 121.528C313.253 121.528 314.767 121.891 316.111 122.616C317.477 123.32 318.554 124.344 319.343 125.688C320.133 127.011 320.527 128.6 320.527 130.456C320.527 130.648 320.517 130.872 320.495 131.128C320.474 131.363 320.453 131.587 320.431 131.8H306.447V128.888H317.807L315.887 129.752C315.887 128.856 315.706 128.077 315.343 127.416C314.981 126.755 314.479 126.243 313.839 125.88C313.199 125.496 312.453 125.304 311.599 125.304C310.746 125.304 309.989 125.496 309.327 125.88C308.687 126.243 308.186 126.765 307.823 127.448C307.461 128.109 307.279 128.899 307.279 129.816V130.584C307.279 131.523 307.482 132.355 307.887 133.08C308.314 133.784 308.901 134.328 309.647 134.712C310.415 135.075 311.311 135.256 312.335 135.256C313.253 135.256 314.053 135.117 314.735 134.84C315.439 134.563 316.079 134.147 316.655 133.592L319.311 136.472C318.522 137.368 317.53 138.061 316.335 138.552C315.141 139.021 313.765 139.256 312.207 139.256ZM331.947 145.464C330.326 145.464 328.758 145.261 327.243 144.856C325.75 144.472 324.502 143.885 323.499 143.096L325.483 139.512C326.208 140.109 327.126 140.579 328.235 140.92C329.366 141.283 330.475 141.464 331.563 141.464C333.334 141.464 334.614 141.069 335.403 140.28C336.214 139.491 336.619 138.317 336.619 136.76V134.168L336.939 129.848L336.875 125.496V121.784H341.611V136.12C341.611 139.32 340.779 141.677 339.115 143.192C337.451 144.707 335.062 145.464 331.947 145.464ZM331.179 138.168C329.579 138.168 328.128 137.827 326.827 137.144C325.547 136.44 324.512 135.469 323.723 134.232C322.955 132.973 322.571 131.512 322.571 129.848C322.571 128.163 322.955 126.701 323.723 125.464C324.512 124.205 325.547 123.235 326.827 122.552C328.128 121.869 329.579 121.528 331.179 121.528C332.63 121.528 333.91 121.827 335.019 122.424C336.128 123 336.992 123.907 337.611 125.144C338.23 126.36 338.539 127.928 338.539 129.848C338.539 131.747 338.23 133.315 337.611 134.552C336.992 135.768 336.128 136.675 335.019 137.272C333.91 137.869 332.63 138.168 331.179 138.168ZM332.171 134.072C333.046 134.072 333.824 133.901 334.507 133.56C335.19 133.197 335.723 132.696 336.107 132.056C336.491 131.416 336.683 130.68 336.683 129.848C336.683 128.995 336.491 128.259 336.107 127.64C335.723 127 335.19 126.509 334.507 126.168C333.824 125.805 333.046 125.624 332.171 125.624C331.296 125.624 330.518 125.805 329.835 126.168C329.152 126.509 328.608 127 328.203 127.64C327.819 128.259 327.627 128.995 327.627 129.848C327.627 130.68 327.819 131.416 328.203 132.056C328.608 132.696 329.152 133.197 329.835 133.56C330.518 133.901 331.296 134.072 332.171 134.072ZM346.257 139V121.784H351.025V126.648L350.353 125.24C350.865 124.024 351.686 123.107 352.817 122.488C353.948 121.848 355.324 121.528 356.945 121.528V126.136C356.732 126.115 356.54 126.104 356.369 126.104C356.198 126.083 356.017 126.072 355.825 126.072C354.46 126.072 353.35 126.467 352.497 127.256C351.665 128.024 351.249 129.229 351.249 130.872V139H346.257ZM359.945 139V121.784H364.937V139H359.945ZM362.441 119.384C361.523 119.384 360.777 119.117 360.201 118.584C359.625 118.051 359.337 117.389 359.337 116.6C359.337 115.811 359.625 115.149 360.201 114.616C360.777 114.083 361.523 113.816 362.441 113.816C363.358 113.816 364.105 114.072 364.681 114.584C365.257 115.075 365.545 115.715 365.545 116.504C365.545 117.336 365.257 118.029 364.681 118.584C364.126 119.117 363.379 119.384 362.441 119.384ZM376.61 139.256C374.583 139.256 373.004 138.744 371.874 137.72C370.743 136.675 370.178 135.128 370.178 133.08V117.976H375.17V133.016C375.17 133.741 375.362 134.307 375.746 134.712C376.13 135.096 376.652 135.288 377.314 135.288C378.103 135.288 378.775 135.075 379.33 134.648L380.674 138.168C380.162 138.531 379.543 138.808 378.818 139C378.114 139.171 377.378 139.256 376.61 139.256ZM367.522 126.008V122.168H379.458V126.008H367.522ZM385.339 145.464C384.443 145.464 383.558 145.325 382.683 145.048C381.809 144.771 381.094 144.387 380.539 143.896L382.363 140.344C382.747 140.685 383.185 140.952 383.675 141.144C384.187 141.336 384.689 141.432 385.179 141.432C385.883 141.432 386.438 141.261 386.843 140.92C387.27 140.6 387.654 140.056 387.995 139.288L388.891 137.176L389.275 136.632L395.451 121.784H400.251L392.475 140.056C391.921 141.443 391.281 142.531 390.555 143.32C389.851 144.109 389.062 144.664 388.187 144.984C387.334 145.304 386.385 145.464 385.339 145.464ZM388.283 139.672L380.603 121.784H385.755L391.707 136.184L388.283 139.672ZM418.743 139.384C417.1 139.384 415.639 139.117 414.359 138.584C413.079 138.051 412.066 137.325 411.319 136.408C410.572 135.491 410.199 134.435 410.199 133.24C410.199 132.131 410.444 131.139 410.935 130.264C411.426 129.368 412.204 128.536 413.271 127.768C414.338 126.979 415.692 126.211 417.335 125.464C418.53 124.909 419.468 124.419 420.151 123.992C420.834 123.565 421.314 123.16 421.591 122.776C421.868 122.371 422.007 121.965 422.007 121.56C422.007 121.005 421.815 120.557 421.431 120.216C421.068 119.875 420.524 119.704 419.799 119.704C419.031 119.704 418.434 119.896 418.007 120.28C417.58 120.664 417.367 121.155 417.367 121.752C417.367 122.072 417.431 122.392 417.559 122.712C417.687 123.011 417.932 123.363 418.295 123.768C418.658 124.152 419.17 124.653 419.831 125.272L431.639 136.216L428.919 139.384L415.895 127.288C415.148 126.605 414.551 125.965 414.103 125.368C413.655 124.771 413.324 124.184 413.111 123.608C412.919 123.032 412.823 122.435 412.823 121.816C412.823 120.728 413.111 119.768 413.687 118.936C414.263 118.104 415.074 117.464 416.119 117.016C417.164 116.547 418.391 116.312 419.799 116.312C421.1 116.312 422.22 116.525 423.159 116.952C424.119 117.357 424.866 117.944 425.399 118.712C425.954 119.48 426.231 120.397 426.231 121.464C426.231 122.403 425.996 123.267 425.527 124.056C425.058 124.824 424.322 125.549 423.319 126.232C422.338 126.915 421.047 127.608 419.447 128.312C418.359 128.803 417.495 129.283 416.855 129.752C416.236 130.2 415.788 130.659 415.511 131.128C415.234 131.597 415.095 132.12 415.095 132.696C415.095 133.229 415.255 133.709 415.575 134.136C415.916 134.563 416.386 134.893 416.983 135.128C417.58 135.363 418.284 135.48 419.095 135.48C420.396 135.48 421.591 135.181 422.679 134.584C423.767 133.965 424.684 133.059 425.431 131.864C426.199 130.648 426.743 129.176 427.063 127.448L431.063 128.696C430.615 130.872 429.815 132.76 428.663 134.36C427.511 135.96 426.092 137.197 424.407 138.072C422.722 138.947 420.834 139.384 418.743 139.384ZM450.735 139.256C448.708 139.256 447.129 138.744 445.999 137.72C444.868 136.675 444.303 135.128 444.303 133.08V117.976H449.295V133.016C449.295 133.741 449.487 134.307 449.871 134.712C450.255 135.096 450.777 135.288 451.439 135.288C452.228 135.288 452.9 135.075 453.455 134.648L454.799 138.168C454.287 138.531 453.668 138.808 452.943 139C452.239 139.171 451.503 139.256 450.735 139.256ZM441.647 126.008V122.168H453.583V126.008H441.647ZM457.601 139V121.784H462.369V126.648L461.697 125.24C462.209 124.024 463.03 123.107 464.161 122.488C465.292 121.848 466.668 121.528 468.289 121.528V126.136C468.076 126.115 467.884 126.104 467.713 126.104C467.542 126.083 467.361 126.072 467.169 126.072C465.804 126.072 464.694 126.467 463.841 127.256C463.009 128.024 462.593 129.229 462.593 130.872V139H457.601ZM478.646 139.256C477.217 139.256 475.937 138.979 474.806 138.424C473.697 137.869 472.833 137.027 472.214 135.896C471.595 134.744 471.286 133.283 471.286 131.512V121.784H476.278V130.776C476.278 132.205 476.577 133.261 477.174 133.944C477.793 134.605 478.657 134.936 479.766 134.936C480.534 134.936 481.217 134.776 481.814 134.456C482.411 134.115 482.881 133.603 483.222 132.92C483.563 132.216 483.734 131.341 483.734 130.296V121.784H488.726V139H483.99V134.264L484.854 135.64C484.278 136.835 483.425 137.741 482.294 138.36C481.185 138.957 479.969 139.256 478.646 139.256ZM499.143 139.256C497.671 139.256 496.252 139.085 494.887 138.744C493.543 138.381 492.476 137.933 491.687 137.4L493.351 133.816C494.14 134.307 495.068 134.712 496.135 135.032C497.223 135.331 498.29 135.48 499.335 135.48C500.487 135.48 501.298 135.341 501.767 135.064C502.258 134.787 502.503 134.403 502.503 133.912C502.503 133.507 502.311 133.208 501.927 133.016C501.564 132.803 501.074 132.643 500.455 132.536C499.836 132.429 499.154 132.323 498.407 132.216C497.682 132.109 496.946 131.971 496.199 131.8C495.452 131.608 494.77 131.331 494.151 130.968C493.532 130.605 493.031 130.115 492.647 129.496C492.284 128.877 492.103 128.077 492.103 127.096C492.103 126.008 492.412 125.048 493.031 124.216C493.671 123.384 494.588 122.733 495.783 122.264C496.978 121.773 498.407 121.528 500.071 121.528C501.244 121.528 502.439 121.656 503.655 121.912C504.871 122.168 505.884 122.541 506.695 123.032L505.031 126.584C504.199 126.093 503.356 125.763 502.503 125.592C501.671 125.4 500.86 125.304 500.071 125.304C498.962 125.304 498.151 125.453 497.639 125.752C497.127 126.051 496.871 126.435 496.871 126.904C496.871 127.331 497.052 127.651 497.415 127.864C497.799 128.077 498.3 128.248 498.919 128.376C499.538 128.504 500.21 128.621 500.935 128.728C501.682 128.813 502.428 128.952 503.175 129.144C503.922 129.336 504.594 129.613 505.191 129.976C505.81 130.317 506.311 130.797 506.695 131.416C507.079 132.013 507.271 132.803 507.271 133.784C507.271 134.851 506.951 135.8 506.311 136.632C505.671 137.443 504.743 138.083 503.527 138.552C502.332 139.021 500.871 139.256 499.143 139.256ZM517.391 139.256C515.364 139.256 513.786 138.744 512.655 137.72C511.524 136.675 510.959 135.128 510.959 133.08V117.976H515.951V133.016C515.951 133.741 516.143 134.307 516.527 134.712C516.911 135.096 517.434 135.288 518.095 135.288C518.884 135.288 519.556 135.075 520.111 134.648L521.455 138.168C520.943 138.531 520.324 138.808 519.599 139C518.895 139.171 518.159 139.256 517.391 139.256ZM508.303 126.008V122.168H520.239V126.008H508.303ZM523.706 143.928L525.818 136.248L526.522 139.128C525.604 139.128 524.847 138.861 524.25 138.328C523.674 137.795 523.386 137.059 523.386 136.12C523.386 135.181 523.684 134.435 524.282 133.88C524.879 133.325 525.615 133.048 526.49 133.048C527.386 133.048 528.122 133.336 528.698 133.912C529.274 134.467 529.562 135.203 529.562 136.12C529.562 136.397 529.54 136.675 529.498 136.952C529.455 137.208 529.37 137.528 529.242 137.912C529.135 138.275 528.954 138.744 528.698 139.32L526.874 143.928H523.706ZM542.615 139V121.4C542.615 119.459 543.191 117.912 544.343 116.76C545.495 115.587 547.138 115 549.271 115C549.996 115 550.69 115.075 551.351 115.224C552.034 115.373 552.61 115.608 553.079 115.928L551.767 119.544C551.49 119.352 551.18 119.203 550.839 119.096C550.498 118.989 550.135 118.936 549.751 118.936C549.026 118.936 548.46 119.149 548.055 119.576C547.671 119.981 547.479 120.6 547.479 121.432V123.032L547.607 125.176V139H542.615ZM539.959 126.008V122.168H551.895V126.008H539.959ZM554.711 139V115.256H559.703V139H554.711ZM572.864 139.256C570.901 139.256 569.173 138.872 567.68 138.104C566.208 137.336 565.066 136.291 564.256 134.968C563.445 133.624 563.04 132.099 563.04 130.392C563.04 128.664 563.434 127.139 564.224 125.816C565.034 124.472 566.133 123.427 567.52 122.68C568.906 121.912 570.474 121.528 572.224 121.528C573.909 121.528 575.424 121.891 576.768 122.616C578.133 123.32 579.21 124.344 580 125.688C580.789 127.011 581.184 128.6 581.184 130.456C581.184 130.648 581.173 130.872 581.152 131.128C581.13 131.363 581.109 131.587 581.088 131.8H567.104V128.888H578.464L576.544 129.752C576.544 128.856 576.362 128.077 576 127.416C575.637 126.755 575.136 126.243 574.496 125.88C573.856 125.496 573.109 125.304 572.256 125.304C571.402 125.304 570.645 125.496 569.984 125.88C569.344 126.243 568.842 126.765 568.48 127.448C568.117 128.109 567.936 128.899 567.936 129.816V130.584C567.936 131.523 568.138 132.355 568.544 133.08C568.97 133.784 569.557 134.328 570.304 134.712C571.072 135.075 571.968 135.256 572.992 135.256C573.909 135.256 574.709 135.117 575.392 134.84C576.096 134.563 576.736 134.147 577.312 133.592L579.968 136.472C579.178 137.368 578.186 138.061 576.992 138.552C575.797 139.021 574.421 139.256 572.864 139.256ZM581.862 139L589.574 128.888L589.478 131.64L582.086 121.784H587.686L592.358 128.216L590.246 128.28L595.078 121.784H600.39L592.966 131.544V128.856L600.646 139H594.982L590.086 132.152L592.166 132.44L587.302 139H581.862ZM603.07 139V121.784H608.062V139H603.07ZM605.566 119.384C604.648 119.384 603.902 119.117 603.326 118.584C602.75 118.051 602.462 117.389 602.462 116.6C602.462 115.811 602.75 115.149 603.326 114.616C603.902 114.083 604.648 113.816 605.566 113.816C606.483 113.816 607.23 114.072 607.806 114.584C608.382 115.075 608.67 115.715 608.67 116.504C608.67 117.336 608.382 118.029 607.806 118.584C607.251 119.117 606.504 119.384 605.566 119.384ZM622.871 139.256C621.356 139.256 620.055 138.936 618.967 138.296C617.879 137.656 617.047 136.685 616.471 135.384C615.895 134.061 615.607 132.397 615.607 130.392C615.607 128.365 615.905 126.701 616.503 125.4C617.121 124.099 617.975 123.128 619.063 122.488C620.151 121.848 621.42 121.528 622.871 121.528C624.492 121.528 625.943 121.891 627.223 122.616C628.524 123.341 629.548 124.365 630.295 125.688C631.063 127.011 631.447 128.579 631.447 130.392C631.447 132.184 631.063 133.741 630.295 135.064C629.548 136.387 628.524 137.421 627.223 138.168C625.943 138.893 624.492 139.256 622.871 139.256ZM612.695 139V115.256H617.687V125.272L617.367 130.36L617.463 135.48V139H612.695ZM622.007 135.16C622.839 135.16 623.575 134.968 624.215 134.584C624.876 134.2 625.399 133.656 625.783 132.952C626.188 132.227 626.391 131.373 626.391 130.392C626.391 129.389 626.188 128.536 625.783 127.832C625.399 127.128 624.876 126.584 624.215 126.2C623.575 125.816 622.839 125.624 622.007 125.624C621.175 125.624 620.428 125.816 619.767 126.2C619.105 126.584 618.583 127.128 618.199 127.832C617.815 128.536 617.623 129.389 617.623 130.392C617.623 131.373 617.815 132.227 618.199 132.952C618.583 133.656 619.105 134.2 619.767 134.584C620.428 134.968 621.175 135.16 622.007 135.16ZM634.788 139V121.784H639.78V139H634.788ZM637.284 119.384C636.367 119.384 635.62 119.117 635.044 118.584C634.468 118.051 634.18 117.389 634.18 116.6C634.18 115.811 634.468 115.149 635.044 114.616C635.62 114.083 636.367 113.816 637.284 113.816C638.202 113.816 638.948 114.072 639.524 114.584C640.1 115.075 640.388 115.715 640.388 116.504C640.388 117.336 640.1 118.029 639.524 118.584C638.97 119.117 638.223 119.384 637.284 119.384ZM644.413 139V115.256H649.405V139H644.413ZM654.038 139V121.784H659.03V139H654.038ZM656.534 119.384C655.617 119.384 654.87 119.117 654.294 118.584C653.718 118.051 653.43 117.389 653.43 116.6C653.43 115.811 653.718 115.149 654.294 114.616C654.87 114.083 655.617 113.816 656.534 113.816C657.452 113.816 658.198 114.072 658.774 114.584C659.35 115.075 659.638 115.715 659.638 116.504C659.638 117.336 659.35 118.029 658.774 118.584C658.22 119.117 657.473 119.384 656.534 119.384ZM670.703 139.256C668.677 139.256 667.098 138.744 665.967 137.72C664.837 136.675 664.271 135.128 664.271 133.08V117.976H669.263V133.016C669.263 133.741 669.455 134.307 669.839 134.712C670.223 135.096 670.746 135.288 671.407 135.288C672.197 135.288 672.869 135.075 673.423 134.648L674.767 138.168C674.255 138.531 673.637 138.808 672.911 139C672.207 139.171 671.471 139.256 670.703 139.256ZM661.615 126.008V122.168H673.551V126.008H661.615ZM679.433 145.464C678.537 145.464 677.652 145.325 676.777 145.048C675.902 144.771 675.188 144.387 674.633 143.896L676.457 140.344C676.841 140.685 677.278 140.952 677.769 141.144C678.281 141.336 678.782 141.432 679.273 141.432C679.977 141.432 680.532 141.261 680.937 140.92C681.364 140.6 681.748 140.056 682.089 139.288L682.985 137.176L683.369 136.632L689.545 121.784H694.345L686.569 140.056C686.014 141.443 685.374 142.531 684.649 143.32C683.945 144.109 683.156 144.664 682.281 144.984C681.428 145.304 680.478 145.464 679.433 145.464ZM682.377 139.672L674.697 121.784H679.849L685.801 136.184L682.377 139.672ZM712.837 139.384C711.194 139.384 709.733 139.117 708.453 138.584C707.173 138.051 706.159 137.325 705.413 136.408C704.666 135.491 704.293 134.435 704.293 133.24C704.293 132.131 704.538 131.139 705.029 130.264C705.519 129.368 706.298 128.536 707.365 127.768C708.431 126.979 709.786 126.211 711.429 125.464C712.623 124.909 713.562 124.419 714.245 123.992C714.927 123.565 715.407 123.16 715.685 122.776C715.962 122.371 716.101 121.965 716.101 121.56C716.101 121.005 715.909 120.557 715.525 120.216C715.162 119.875 714.618 119.704 713.893 119.704C713.125 119.704 712.527 119.896 712.101 120.28C711.674 120.664 711.461 121.155 711.461 121.752C711.461 122.072 711.525 122.392 711.653 122.712C711.781 123.011 712.026 123.363 712.389 123.768C712.751 124.152 713.263 124.653 713.925 125.272L725.733 136.216L723.013 139.384L709.989 127.288C709.242 126.605 708.645 125.965 708.197 125.368C707.749 124.771 707.418 124.184 707.205 123.608C707.013 123.032 706.917 122.435 706.917 121.816C706.917 120.728 707.205 119.768 707.781 118.936C708.357 118.104 709.167 117.464 710.213 117.016C711.258 116.547 712.485 116.312 713.893 116.312C715.194 116.312 716.314 116.525 717.253 116.952C718.213 117.357 718.959 117.944 719.493 118.712C720.047 119.48 720.325 120.397 720.325 121.464C720.325 122.403 720.09 123.267 719.621 124.056C719.151 124.824 718.415 125.549 717.413 126.232C716.431 126.915 715.141 127.608 713.541 128.312C712.453 128.803 711.589 129.283 710.949 129.752C710.33 130.2 709.882 130.659 709.605 131.128C709.327 131.597 709.189 132.12 709.189 132.696C709.189 133.229 709.349 133.709 709.669 134.136C710.01 134.563 710.479 134.893 711.077 135.128C711.674 135.363 712.378 135.48 713.189 135.48C714.49 135.48 715.685 135.181 716.773 134.584C717.861 133.965 718.778 133.059 719.525 131.864C720.293 130.648 720.837 129.176 721.157 127.448L725.157 128.696C724.709 130.872 723.909 132.76 722.757 134.36C721.605 135.96 720.186 137.197 718.501 138.072C716.815 138.947 714.927 139.384 712.837 139.384ZM743.58 139.256C742.108 139.256 740.69 139.085 739.324 138.744C737.98 138.381 736.914 137.933 736.124 137.4L737.788 133.816C738.578 134.307 739.506 134.712 740.572 135.032C741.66 135.331 742.727 135.48 743.772 135.48C744.924 135.48 745.735 135.341 746.204 135.064C746.695 134.787 746.94 134.403 746.94 133.912C746.94 133.507 746.748 133.208 746.364 133.016C746.002 132.803 745.511 132.643 744.892 132.536C744.274 132.429 743.591 132.323 742.844 132.216C742.119 132.109 741.383 131.971 740.636 131.8C739.89 131.608 739.207 131.331 738.588 130.968C737.97 130.605 737.468 130.115 737.084 129.496C736.722 128.877 736.54 128.077 736.54 127.096C736.54 126.008 736.85 125.048 737.468 124.216C738.108 123.384 739.026 122.733 740.22 122.264C741.415 121.773 742.844 121.528 744.508 121.528C745.682 121.528 746.876 121.656 748.092 121.912C749.308 122.168 750.322 122.541 751.132 123.032L749.468 126.584C748.636 126.093 747.794 125.763 746.94 125.592C746.108 125.4 745.298 125.304 744.508 125.304C743.399 125.304 742.588 125.453 742.076 125.752C741.564 126.051 741.308 126.435 741.308 126.904C741.308 127.331 741.49 127.651 741.852 127.864C742.236 128.077 742.738 128.248 743.356 128.376C743.975 128.504 744.647 128.621 745.372 128.728C746.119 128.813 746.866 128.952 747.612 129.144C748.359 129.336 749.031 129.613 749.628 129.976C750.247 130.317 750.748 130.797 751.132 131.416C751.516 132.013 751.708 132.803 751.708 133.784C751.708 134.851 751.388 135.8 750.748 136.632C750.108 137.443 749.18 138.083 747.964 138.552C746.77 139.021 745.308 139.256 743.58 139.256ZM763.108 139.256C761.252 139.256 759.599 138.883 758.148 138.136C756.698 137.368 755.556 136.312 754.724 134.968C753.914 133.624 753.508 132.099 753.508 130.392C753.508 128.664 753.914 127.139 754.724 125.816C755.556 124.472 756.698 123.427 758.148 122.68C759.599 121.912 761.252 121.528 763.108 121.528C764.922 121.528 766.5 121.912 767.844 122.68C769.188 123.427 770.18 124.504 770.82 125.912L766.948 127.992C766.5 127.181 765.935 126.584 765.252 126.2C764.591 125.816 763.866 125.624 763.076 125.624C762.223 125.624 761.455 125.816 760.772 126.2C760.09 126.584 759.546 127.128 759.14 127.832C758.756 128.536 758.564 129.389 758.564 130.392C758.564 131.395 758.756 132.248 759.14 132.952C759.546 133.656 760.09 134.2 760.772 134.584C761.455 134.968 762.223 135.16 763.076 135.16C763.866 135.16 764.591 134.979 765.252 134.616C765.935 134.232 766.5 133.624 766.948 132.792L770.82 134.904C770.18 136.291 769.188 137.368 767.844 138.136C766.5 138.883 764.922 139.256 763.108 139.256ZM784.255 139V135.64L783.935 134.904V128.888C783.935 127.821 783.604 126.989 782.943 126.392C782.303 125.795 781.311 125.496 779.967 125.496C779.049 125.496 778.143 125.645 777.247 125.944C776.372 126.221 775.625 126.605 775.007 127.096L773.215 123.608C774.153 122.947 775.284 122.435 776.607 122.072C777.929 121.709 779.273 121.528 780.639 121.528C783.263 121.528 785.3 122.147 786.751 123.384C788.201 124.621 788.927 126.552 788.927 129.176V139H784.255ZM779.007 139.256C777.663 139.256 776.511 139.032 775.551 138.584C774.591 138.115 773.855 137.485 773.343 136.696C772.831 135.907 772.575 135.021 772.575 134.04C772.575 133.016 772.82 132.12 773.311 131.352C773.823 130.584 774.623 129.987 775.711 129.56C776.799 129.112 778.217 128.888 779.967 128.888H784.543V131.8H780.511C779.337 131.8 778.527 131.992 778.079 132.376C777.652 132.76 777.439 133.24 777.439 133.816C777.439 134.456 777.684 134.968 778.175 135.352C778.687 135.715 779.38 135.896 780.255 135.896C781.087 135.896 781.833 135.704 782.495 135.32C783.156 134.915 783.636 134.328 783.935 133.56L784.703 135.864C784.34 136.973 783.679 137.816 782.719 138.392C781.759 138.968 780.521 139.256 779.007 139.256ZM793.445 139V115.256H798.437V139H793.445ZM813.63 139V135.64L813.31 134.904V128.888C813.31 127.821 812.979 126.989 812.318 126.392C811.678 125.795 810.686 125.496 809.342 125.496C808.424 125.496 807.518 125.645 806.622 125.944C805.747 126.221 805 126.605 804.382 127.096L802.59 123.608C803.528 122.947 804.659 122.435 805.982 122.072C807.304 121.709 808.648 121.528 810.014 121.528C812.638 121.528 814.675 122.147 816.126 123.384C817.576 124.621 818.302 126.552 818.302 129.176V139H813.63ZM808.382 139.256C807.038 139.256 805.886 139.032 804.926 138.584C803.966 138.115 803.23 137.485 802.718 136.696C802.206 135.907 801.95 135.021 801.95 134.04C801.95 133.016 802.195 132.12 802.686 131.352C803.198 130.584 803.998 129.987 805.086 129.56C806.174 129.112 807.592 128.888 809.342 128.888H813.918V131.8H809.886C808.712 131.8 807.902 131.992 807.454 132.376C807.027 132.76 806.814 133.24 806.814 133.816C806.814 134.456 807.059 134.968 807.55 135.352C808.062 135.715 808.755 135.896 809.63 135.896C810.462 135.896 811.208 135.704 811.87 135.32C812.531 134.915 813.011 134.328 813.31 133.56L814.078 135.864C813.715 136.973 813.054 137.816 812.094 138.392C811.134 138.968 809.896 139.256 808.382 139.256ZM832.996 139.256C831.481 139.256 830.18 138.936 829.092 138.296C828.004 137.656 827.172 136.685 826.596 135.384C826.02 134.061 825.732 132.397 825.732 130.392C825.732 128.365 826.03 126.701 826.628 125.4C827.246 124.099 828.1 123.128 829.188 122.488C830.276 121.848 831.545 121.528 832.996 121.528C834.617 121.528 836.068 121.891 837.348 122.616C838.649 123.341 839.673 124.365 840.42 125.688C841.188 127.011 841.572 128.579 841.572 130.392C841.572 132.184 841.188 133.741 840.42 135.064C839.673 136.387 838.649 137.421 837.348 138.168C836.068 138.893 834.617 139.256 832.996 139.256ZM822.82 139V115.256H827.812V125.272L827.492 130.36L827.588 135.48V139H822.82ZM832.132 135.16C832.964 135.16 833.7 134.968 834.34 134.584C835.001 134.2 835.524 133.656 835.908 132.952C836.313 132.227 836.516 131.373 836.516 130.392C836.516 129.389 836.313 128.536 835.908 127.832C835.524 127.128 835.001 126.584 834.34 126.2C833.7 125.816 832.964 125.624 832.132 125.624C831.3 125.624 830.553 125.816 829.892 126.2C829.23 126.584 828.708 127.128 828.324 127.832C827.94 128.536 827.748 129.389 827.748 130.392C827.748 131.373 827.94 132.227 828.324 132.952C828.708 133.656 829.23 134.2 829.892 134.584C830.553 134.968 831.3 135.16 832.132 135.16ZM844.913 139V121.784H849.905V139H844.913ZM847.409 119.384C846.492 119.384 845.745 119.117 845.169 118.584C844.593 118.051 844.305 117.389 844.305 116.6C844.305 115.811 844.593 115.149 845.169 114.616C845.745 114.083 846.492 113.816 847.409 113.816C848.327 113.816 849.073 114.072 849.649 114.584C850.225 115.075 850.513 115.715 850.513 116.504C850.513 117.336 850.225 118.029 849.649 118.584C849.095 119.117 848.348 119.384 847.409 119.384ZM854.538 139V115.256H859.53V139H854.538ZM864.163 139V121.784H869.155V139H864.163ZM866.659 119.384C865.742 119.384 864.995 119.117 864.419 118.584C863.843 118.051 863.555 117.389 863.555 116.6C863.555 115.811 863.843 115.149 864.419 114.616C864.995 114.083 865.742 113.816 866.659 113.816C867.577 113.816 868.323 114.072 868.899 114.584C869.475 115.075 869.763 115.715 869.763 116.504C869.763 117.336 869.475 118.029 868.899 118.584C868.345 119.117 867.598 119.384 866.659 119.384ZM880.828 139.256C878.802 139.256 877.223 138.744 876.092 137.72C874.962 136.675 874.396 135.128 874.396 133.08V117.976H879.388V133.016C879.388 133.741 879.58 134.307 879.964 134.712C880.348 135.096 880.871 135.288 881.532 135.288C882.322 135.288 882.994 135.075 883.548 134.648L884.892 138.168C884.38 138.531 883.762 138.808 883.036 139C882.332 139.171 881.596 139.256 880.828 139.256ZM871.74 126.008V122.168H883.676V126.008H871.74ZM889.558 145.464C888.662 145.464 887.777 145.325 886.902 145.048C886.027 144.771 885.313 144.387 884.758 143.896L886.582 140.344C886.966 140.685 887.403 140.952 887.894 141.144C888.406 141.336 888.907 141.432 889.398 141.432C890.102 141.432 890.657 141.261 891.062 140.92C891.489 140.6 891.873 140.056 892.214 139.288L893.11 137.176L893.494 136.632L899.67 121.784H904.47L896.694 140.056C896.139 141.443 895.499 142.531 894.774 143.32C894.07 144.109 893.281 144.664 892.406 144.984C891.553 145.304 890.603 145.464 889.558 145.464ZM892.502 139.672L884.822 121.784H889.974L895.926 136.184L892.502 139.672Z" fill="#131313"/>
</svg>
