<svg width="106" height="106" viewBox="0 0 106 106" fill="none" xmlns="http://www.w3.org/2000/svg">
<circle cx="53" cy="53" r="53" fill="white"/>
<path d="M43.625 47.25C46.5245 47.25 48.875 44.8995 48.875 42C48.875 39.1005 46.5245 36.75 43.625 36.75C40.7255 36.75 38.375 39.1005 38.375 42C38.375 44.8995 40.7255 47.25 43.625 47.25Z" stroke="#292D32" stroke-width="2.5" stroke-linecap="round" stroke-linejoin="round"/>
<path d="M54.125 26.25H43.625C30.5 26.25 25.25 31.5 25.25 44.625V60.375C25.25 73.5 30.5 78.75 43.625 78.75H59.375C72.5 78.75 77.75 73.5 77.75 60.375V47.25" stroke="#292D32" stroke-width="2.5" stroke-linecap="round" stroke-linejoin="round"/>
<path d="M70.2425 27.7987L60.7137 37.3275C60.3462 37.695 59.9787 38.4037 59.9262 38.9287L59.4012 42.5775C59.2175 43.89 60.1362 44.8087 61.4487 44.625L65.0975 44.1C65.5963 44.0212 66.3313 43.68 66.6988 43.3125L76.2275 33.7837C77.8813 32.13 78.6425 30.24 76.2275 27.825C73.7863 25.3575 71.8962 26.145 70.2425 27.7987Z" stroke="#292D32" stroke-width="2.5" stroke-miterlimit="10" stroke-linecap="round" stroke-linejoin="round"/>
<path d="M68.8775 29.1638C69.6913 32.0513 71.9487 34.3088 74.8362 35.1225" stroke="#292D32" stroke-width="2.5" stroke-miterlimit="10" stroke-linecap="round" stroke-linejoin="round"/>
<path d="M27.0087 70.7438L39.95 62.055C42.0237 60.6638 45.0162 60.8213 46.88 62.4225L47.7462 63.1838C49.7937 64.9425 53.1013 64.9425 55.1488 63.1838L66.0687 53.8125C68.1162 52.0538 71.4238 52.0538 73.4713 53.8125L77.75 57.4875" stroke="#292D32" stroke-width="2.5" stroke-linecap="round" stroke-linejoin="round"/>
</svg>
