<svg width="15" height="15" viewBox="0 0 15 15" fill="none" xmlns="http://www.w3.org/2000/svg">
<path d="M7.20819 14.5248C3.23327 14.5248 0 11.267 0 7.26283C0 3.25867 3.23327 0 7.20819 0C11.1831 0 14.4164 3.25778 14.4164 7.26283C14.4164 11.2679 11.1831 14.5257 7.20819 14.5257V14.5248ZM7.20819 0.636076C3.58114 0.636076 0.63129 3.60828 0.63129 7.26283C0.63129 10.9174 3.58114 13.8896 7.20819 13.8896C10.8352 13.8896 13.7851 10.9174 13.7851 7.26283C13.7851 3.60828 10.8344 0.636076 7.20819 0.636076Z" fill="#667085"/>
<path d="M10.8395 6.09904C10.8395 8.80258 8.66397 10.9946 5.98077 10.9946C4.95128 10.9946 3.49799 10.8042 2.7113 10.2535C2.7113 10.2535 5.19144 10.3559 5.40863 9.42087C5.40863 9.42087 3.94386 9.2892 3.66839 8.09089C3.66839 8.09089 4.80648 8.16651 4.43742 8.00282C4.29262 7.93877 3.24812 7.5936 2.98678 6.35169C2.98678 6.35169 3.84674 6.43265 3.69753 6.33746C3.43795 6.1711 2.69629 5.13914 3.23311 3.75045C3.23311 3.75045 4.77028 6.03054 7.20009 5.88375C7.20009 5.88375 6.94492 5.09199 7.27955 4.46659C7.7166 3.64904 8.90678 3.03965 10.406 4.07694C10.406 4.07694 11.0355 3.99866 11.4567 3.80828C11.6015 3.74245 11.0691 4.48528 10.6691 4.80109C10.6691 4.80109 10.9984 4.80287 11.703 4.5093C11.5149 4.87938 10.7892 5.39624 10.7892 5.39624C10.8218 5.62488 10.8386 5.85973 10.8386 6.09726L10.8395 6.09904Z" fill="#667085"/>
</svg>
