<svg width="106" height="106" viewBox="0 0 106 106" fill="none" xmlns="http://www.w3.org/2000/svg">
<circle cx="53" cy="53" r="53" fill="#E6EBF3"/>
<path d="M80.5 31.1625V38.5875C80.5 44.775 78.025 47.25 71.8375 47.25H64.4125C58.225 47.25 55.75 44.775 55.75 38.5875V31.1625C55.75 24.975 58.225 22.5 64.4125 22.5H71.8375C78.025 22.5 80.5 24.975 80.5 31.1625Z" stroke="#060606" stroke-width="3" stroke-linecap="round" stroke-linejoin="round"/>
<path d="M50.25 61.4125V68.8375C50.25 75.025 47.775 77.5 41.5875 77.5H34.1625C27.975 77.5 25.5 75.025 25.5 68.8375V61.4125C25.5 55.225 27.975 52.75 34.1625 52.75H41.5875C47.775 52.75 50.25 55.225 50.25 61.4125Z" stroke="#060606" stroke-width="3" stroke-linecap="round" stroke-linejoin="round"/>
<path d="M67.7951 47.25V54.455C67.7951 61.8525 64.8526 64.795 57.4551 64.795H50.2501V61.4125C50.2501 55.225 47.7751 52.75 41.5876 52.75H38.2051V45.545C38.2051 38.1475 41.1476 35.205 48.5451 35.205H55.7501V38.5875C55.7501 44.775 58.2251 47.25 64.4126 47.25H67.7951Z" stroke="#060606" stroke-width="3" stroke-linecap="round" stroke-linejoin="round"/>
</svg>
