<svg
      width="106"
      height="106"
      viewBox="0 0 122 124"
      fill="none"
      xmlns="http://www.w3.org/2000/svg"
    >
      <path
        d="M65.6355 89.3529H56.9459L56.2885 86.3145C55.2855 86.1333 54.3036 85.8931 53.3596 85.5939L51.1851 87.9791L43.6586 83.6722L44.6279 80.697C43.8904 80.048 43.1866 79.3527 42.5292 78.6194L39.3644 79.6308L35.0154 72.1717L37.5523 69.9003C37.2868 69.0617 37.0677 68.1936 36.8907 67.3128L33.3381 66.5585V57.9363L37.0719 57.144C37.2447 56.4361 37.4638 55.707 37.7335 54.9358L34.7204 52.243L39.0736 44.7839L43.1571 46.0903C43.6207 45.6057 44.0758 45.1674 44.5309 44.7628L43.1487 40.536L50.6752 36.2334L53.781 39.6342C54.3162 39.4741 54.8388 39.3392 55.3571 39.2212L56.3643 34.5688H65.0497L66.0569 39.2212C66.5415 39.3308 67.0219 39.453 67.4897 39.5878L70.8147 35.9426L78.3412 40.2452L76.8704 44.7502C77.2329 45.0747 77.5911 45.4118 77.9535 45.7784L82.6312 44.2824L86.9844 51.7415L83.6131 54.7546C83.8027 55.2982 83.9755 55.8461 84.1272 56.3981L88.6574 57.359V65.9769L84.6076 66.8366C84.4812 67.5572 84.3337 68.2315 84.1609 68.8847L87.2794 71.6745L82.9262 79.1378L79.4074 78.0126C78.8764 78.6447 78.3032 79.26 77.6964 79.8499L78.8511 83.3898L71.3246 87.6925L69.0953 85.2483C68.1808 85.5854 67.2579 85.8636 66.3477 86.0785L65.6355 89.3529ZM58.307 87.6672H64.2743L64.9233 84.6625L65.4585 84.5487C66.6342 84.3001 67.8353 83.9377 69.0194 83.4699L69.5589 83.2592L71.6575 85.5559L76.8199 82.606L75.7579 79.3527L76.154 78.986C76.9969 78.2022 77.7723 77.3678 78.4592 76.5081L78.8216 76.053L82.155 77.1192L85.1344 72.0116L82.2561 69.4368L82.4078 68.9268C82.6733 68.025 82.8798 67.0726 83.04 66.0106L83.1285 65.4333L86.9802 64.6158V58.7286L82.7618 57.8352L82.6354 57.3252C82.4247 56.4782 82.1634 55.6354 81.8474 54.8178L81.6409 54.2742L84.8436 51.4128L81.8642 46.3094L77.4773 47.7127L77.1149 47.3335C76.5207 46.714 75.9475 46.1704 75.3576 45.6731L74.9235 45.3065L76.3142 41.0333L71.1518 38.0834L68.0207 41.5179L67.5108 41.3578C66.7649 41.126 65.9853 40.9279 65.1888 40.7678L64.6494 40.6582L63.697 36.2629H57.7297L56.7773 40.6624L56.2337 40.772C55.433 40.9322 54.6323 41.1386 53.781 41.4126L53.2669 41.5769L50.3465 38.3826L45.1841 41.3325L46.4905 45.3233L46.0565 45.6899C45.3864 46.2546 44.7248 46.8952 44.0337 47.6411L43.6713 48.033L39.8574 46.8151L36.878 51.9185L39.7184 54.4554L39.5203 54.9948C39.1115 56.0947 38.8123 57.0935 38.6101 58.0459L38.4963 58.5811L35.0364 59.3143V65.2057L38.3656 65.9137L38.4626 66.4742C38.6648 67.6499 38.9598 68.8046 39.3349 69.8961L39.5161 70.4271L37.173 72.5215L40.1482 77.6249L43.0855 76.6851L43.4479 77.1107C44.2739 78.0758 45.1841 78.9776 46.1534 79.7867L46.5917 80.1534L45.6941 82.901L50.8564 85.8551L52.8624 83.6596L53.3849 83.8365C54.5775 84.2411 55.8375 84.553 57.1355 84.7552L57.7044 84.8437L58.307 87.6672Z"
        fill="#48484D"
      />
      <path
        d="M61 79.5045C51.2315 79.5045 43.2878 71.6367 43.2878 61.9652C43.2878 52.2937 51.2315 44.4258 61 44.4258C70.7642 44.4258 78.7121 52.2937 78.7121 61.9652C78.7121 71.6367 70.7642 79.5045 61 79.5045ZM61 46.1073C52.1629 46.1073 44.9735 53.2208 44.9735 61.9609C44.9735 70.7011 52.1629 77.8146 61 77.8146C69.8371 77.8146 77.0264 70.7011 77.0264 61.9609C77.0264 53.2208 69.8371 46.1073 61 46.1073Z"
        fill="#48484D"
      />
      <path
        d="M61.0001 79.5044C55.155 79.5044 50.3972 71.6365 50.3972 61.965C50.3972 52.1292 55.0539 44.4257 61.0001 44.4257C66.8451 44.4257 71.5987 52.2935 71.5987 61.965C71.5987 71.6365 66.8451 79.5044 61.0001 79.5044ZM61.0001 46.1071C56.0821 46.1071 52.0829 53.2206 52.0829 61.9608C52.0829 70.701 56.0821 77.8145 61.0001 77.8145C65.9138 77.8145 69.913 70.701 69.913 61.9608C69.913 53.2206 65.9138 46.1071 61.0001 46.1071Z"
        fill="#48484D"
      />
      <path
        d="M61.0001 79.5044C60.5365 79.5044 60.1572 79.1251 60.1572 78.6615V45.2643C60.1572 44.8008 60.5365 44.4215 61.0001 44.4215C70.7643 44.4215 78.7122 52.2893 78.7122 61.9608C78.7122 71.6365 70.7643 79.5044 61.0001 79.5044ZM61.8429 46.1282V77.7976C70.2881 77.3636 77.0265 70.4271 77.0265 61.965C77.0265 53.503 70.2881 46.5623 61.8429 46.1282Z"
        fill="#48484D"
      />
      <path
        d="M76.7694 68.6908H45.2264C44.8766 68.6908 44.5647 68.4759 44.4383 68.1472C43.6755 66.1371 43.2878 64.0595 43.2878 61.9608C43.2878 59.8622 43.6755 57.7804 44.4425 55.7744C44.5689 55.4457 44.8808 55.2308 45.2306 55.2308H76.7736C77.1233 55.2308 77.4352 55.4457 77.5616 55.7744C78.3286 57.7804 78.7163 59.8622 78.7163 61.9608C78.7163 64.0595 78.3286 66.1413 77.5616 68.1472C77.431 68.4759 77.1191 68.6908 76.7694 68.6908ZM45.8206 67.0052H76.1794C76.7399 65.3617 77.0264 63.6676 77.0264 61.9608C77.0264 60.2541 76.7399 58.56 76.1794 56.9165H45.8206C45.2601 58.5642 44.9735 60.2583 44.9735 61.9608C44.9735 63.6633 45.2559 65.3574 45.8206 67.0052Z"
        fill="#48484D"
      />
      <path
        d="M61.0463 99.7239C60.3384 99.7071 59.681 99.7071 59.0067 99.6692L59.2174 95.8596C59.82 95.8933 60.4142 95.8933 61.0463 95.9059C61.6574 95.9059 62.26 95.8891 62.8584 95.8553L63.0691 99.6607C62.3991 99.7029 61.7248 99.7239 61.0463 99.7239ZM54.9737 99.2267C53.6463 99.0075 52.3146 98.7083 51.0124 98.3417L52.0449 94.6712C53.2122 94.9999 54.409 95.2654 55.5974 95.4634L54.9737 99.2267ZM67.1021 99.2182L66.47 95.4592C67.6668 95.2612 68.8594 94.9914 70.0183 94.6585L71.0634 98.3249C69.7697 98.6915 68.438 98.9907 67.1021 99.2182ZM47.1649 97.0269C45.9217 96.5212 44.687 95.9396 43.4944 95.2906L45.3064 91.9362C46.3768 92.5135 47.4852 93.0361 48.6019 93.4912L47.1649 97.0269ZM74.9025 96.9974L73.4613 93.4659C74.578 93.0108 75.6821 92.484 76.7483 91.9067L78.573 95.2569C77.3804 95.9017 76.1457 96.4875 74.9025 96.9974ZM40.0345 93.1625C38.9262 92.3913 37.8474 91.5527 36.8318 90.6719L39.3308 87.7937C40.241 88.5859 41.2103 89.336 42.209 90.0272L40.0345 93.1625ZM82.016 93.1204L79.8415 89.9892C80.8318 89.2981 81.7969 88.548 82.7114 87.7515L85.2146 90.6256C84.199 91.5148 83.1201 92.3534 82.016 93.1204ZM33.9198 87.8527C33.0053 86.8665 32.133 85.8172 31.3239 84.7384L34.3791 82.4585C35.104 83.432 35.892 84.3718 36.7138 85.2567L33.9198 87.8527ZM88.1265 87.8021L85.3283 85.2104C86.1501 84.3212 86.9339 83.3772 87.6546 82.4037L90.7141 84.6752C89.9134 85.7624 89.041 86.816 88.1265 87.8021ZM29.0777 81.3628C28.395 80.2082 27.7629 78.9987 27.2066 77.7682L30.6791 76.1878C31.1848 77.292 31.7495 78.3834 32.3648 79.4201L29.0777 81.3628ZM92.956 81.2996L89.6689 79.3653C90.2842 78.3244 90.8489 77.233 91.3504 76.1288L94.8229 77.7007C94.2708 78.9313 93.6387 80.1407 92.956 81.2996ZM25.7274 73.9965C25.306 72.7196 24.9436 71.4048 24.6613 70.0857L28.3908 69.2808C28.6479 70.465 28.9681 71.6492 29.3516 72.7997L25.7274 73.9965ZM96.2978 73.9206L92.6736 72.728C93.0529 71.5818 93.3732 70.3934 93.626 69.2092L97.3556 70.0099C97.0732 71.3289 96.715 72.6437 96.2978 73.9206ZM24.0165 66.0823C23.8732 64.7464 23.8016 63.3852 23.7974 62.0409L27.6112 62.0367C27.6112 63.2504 27.6786 64.4767 27.8092 65.6777L24.0165 66.0823ZM97.9919 66.0064L94.1992 65.6103C94.3256 64.4093 94.3888 63.1829 94.3888 61.965V61.8176H98.2026V61.9313C98.2026 63.3094 98.131 64.6705 97.9919 66.0064ZM27.7924 58.3872L23.9996 57.9995C24.1345 56.6594 24.3494 55.3151 24.6276 53.9961L28.3571 54.7841C28.1085 55.9683 27.9188 57.182 27.7924 58.3872ZM94.1823 58.1765C94.0517 56.9713 93.8536 55.7576 93.5965 54.5776L97.3219 53.7643C97.6084 55.0791 97.8276 56.4234 97.9751 57.7635L94.1823 58.1765ZM29.3011 51.2611L25.6769 50.0769C26.0941 48.7958 26.5871 47.5231 27.1392 46.2926L30.6159 47.856C30.1228 48.9644 29.6803 50.1106 29.3011 51.2611ZM92.6315 51.0588C92.248 49.9126 91.8013 48.7705 91.2956 47.6664L94.7639 46.0819C95.3243 47.3124 95.8258 48.5809 96.2515 49.8578L92.6315 51.0588ZM32.2889 44.6196L28.9976 42.6937C29.6761 41.5306 30.4305 40.3928 31.2311 39.3097L34.2948 41.5812C33.5784 42.5504 32.9042 43.5745 32.2889 44.6196ZM89.6015 44.4384C88.982 43.3975 88.3036 42.3776 87.5745 41.4084L90.6256 39.1201C91.4347 40.1989 92.1932 41.3325 92.8801 42.4872L89.6015 44.4384ZM36.6211 38.7661L33.8186 36.1828C34.7289 35.1925 35.7066 34.2401 36.7222 33.3509L39.2338 36.2207C38.3194 37.0214 37.4428 37.8769 36.6211 38.7661ZM85.2356 38.6144C84.4054 37.7252 83.5247 36.8739 82.6102 36.0859L85.105 33.1992C86.1206 34.0757 87.1025 35.0239 88.0254 36.01L85.2356 38.6144ZM42.0995 33.9746L39.9123 30.8519C41.0206 30.0765 42.1838 29.3559 43.3595 28.7111L45.1885 32.0571C44.1349 32.6303 43.0982 33.275 42.0995 33.9746ZM79.7319 33.8566C78.7332 33.1655 77.6881 32.5249 76.6261 31.956L78.434 28.5973C79.6182 29.2337 80.7813 29.9501 81.8938 30.717L79.7319 33.8566ZM48.4755 30.4853L47.0258 26.958C48.2774 26.4439 49.567 25.993 50.8607 25.6221L51.9143 29.2842C50.7511 29.6214 49.5965 30.0259 48.4755 30.4853ZM73.3306 30.4052C72.2054 29.9501 71.0466 29.5539 69.8877 29.2294L70.9159 25.5589C72.2139 25.9213 73.5076 26.3638 74.7592 26.8695L73.3306 30.4052ZM55.4584 28.4793L54.8178 24.7203C56.1411 24.4969 57.498 24.341 58.8508 24.2609L59.0741 28.0663C57.8604 28.1422 56.6425 28.2813 55.4584 28.4793ZM66.3351 28.4456C65.1425 28.2518 63.9288 28.1211 62.7152 28.0579L62.9132 24.2525C64.2617 24.3242 65.6229 24.4674 66.9504 24.6824L66.3351 28.4456Z"
        fill="#48484D"
      />
      <path
        d="M69.5884 13.4052L61.7332 5.43206L53.8822 13.4052L51.1641 10.7293L61.7332 0L72.3023 10.7293L69.5884 13.4052Z"
        fill="#48484D"
      />
      <path
        d="M63.6422 4.56815H59.8284V20.3965H63.6422V4.56815Z"
        fill="#48484D"
      />
      <path
        d="M22.1791 32.7693L18.3652 32.7651L18.3694 17.6363L33.296 17.6278L33.3002 21.4417L22.1833 21.4459L22.1791 32.7693Z"
        fill="#48484D"
      />
      <path
        d="M22.9234 19.511L20.2061 22.1872L31.2241 33.3748L33.9415 30.6987L22.9234 19.511Z"
        fill="#48484D"
      />
      <path
        d="M10.5185 71.9105L0 61.2149L10.5185 50.5236L13.2367 53.1954L5.34777 61.2149L13.2367 69.2345L10.5185 71.9105Z"
        fill="#48484D"
      />
      <path
        d="M20.0763 59.3101H4.49658V63.1239H20.0763V59.3101Z"
        fill="#48484D"
      />
      <path
        d="M32.2595 105.24L17.3329 105.236L17.3245 90.103H21.1383L21.1425 101.422L32.2595 101.426V105.24Z"
        fill="#48484D"
      />
      <path
        d="M30.1743 89.4858L19.1611 100.683L21.88 103.357L32.8932 92.1601L30.1743 89.4858Z"
        fill="#48484D"
      />
      <path
        d="M88.6997 106.294V102.484L99.8167 102.48L99.8209 91.1565L103.63 91.1607L103.626 106.29L88.6997 106.294Z"
        fill="#48484D"
      />
      <path
        d="M90.7701 90.548L88.0527 93.2238L99.0692 104.411L101.787 101.736L90.7701 90.548Z"
        fill="#48484D"
      />
      <path
        d="M111.481 73.4023L108.763 70.7305L116.652 62.7109L108.763 54.6914L111.481 52.0154L122 62.7109L111.481 73.4023Z"
        fill="#48484D"
      />
      <path
        d="M117.503 60.8061H101.919V64.6199H117.503V60.8061Z"
        fill="#48484D"
      />
      <path
        d="M60.2667 123.926L49.6934 113.201L52.4115 110.525L60.2667 118.494L68.1177 110.525L70.8316 113.201L60.2667 123.926Z"
        fill="#48484D"
      />
      <path
        d="M62.1715 103.534H58.3577V119.362H62.1715V103.534Z"
        fill="#48484D"
      />
      <path
        d="M100.857 33.8229L100.853 22.5036L89.7405 22.4994V18.6856L104.667 18.694L104.671 33.8229H100.857Z"
        fill="#48484D"
      />
      <path
        d="M100.117 20.5704L89.1023 31.7612L91.8204 34.4366L102.835 23.2458L100.117 20.5704Z"
        fill="#48484D"
      />
    </svg>