<svg
      width="106"
      height="106"
      viewBox="0 0 115 115"
      fill="none"
      xmlns="http://www.w3.org/2000/svg"
    >
      <g clip-path="url(#clip0_87_1526)">
        <path
          d="M57.5 115C89.2564 115 115 89.2564 115 57.5C115 25.7436 89.2564 0 57.5 0C25.7436 0 0 25.7436 0 57.5C0 89.2564 25.7436 115 57.5 115Z"
          fill="#16E86D"
        />
        <path
          fill-rule="evenodd"
          clip-rule="evenodd"
          d="M85.1596 30.5474C78.2766 23.6559 69.1107 19.8567 59.357 19.8567C39.2533 19.8567 22.8892 36.2122 22.8807 56.3159C22.8807 62.7389 24.5588 69.017 27.7533 74.5456L22.5825 93.4396L41.9196 88.3711C47.2436 91.2759 53.2492 92.8093 59.3484 92.8093H59.3655C79.4692 92.8093 95.8333 76.4537 95.8418 56.3415C95.8333 46.6048 92.0425 37.4389 85.1596 30.5474ZM59.357 86.6504H59.3484C53.9051 86.6504 48.5725 85.1852 43.9214 82.4252L42.814 81.7693L31.3396 84.7763L34.4062 73.5915L33.6821 72.4415C30.6496 67.62 29.0481 62.0404 29.0481 56.3159C29.0566 39.6026 42.6521 26.007 59.374 26.007C67.4751 26.007 75.0821 29.1674 80.8066 34.8919C86.531 40.6248 89.6829 48.2319 89.6744 56.333C89.6658 73.0548 76.0703 86.6504 59.357 86.6504ZM75.9851 63.9485C75.0736 63.4885 70.5929 61.2907 69.7581 60.9841C68.9233 60.6774 68.3184 60.5241 67.7051 61.4441C67.1003 62.3556 65.354 64.4085 64.8173 65.0133C64.2892 65.6182 63.7525 65.6948 62.841 65.2433C61.9296 64.7833 58.9907 63.8293 55.5151 60.72C52.8062 58.3007 50.9747 55.3193 50.4466 54.4078C49.9184 53.4963 50.387 53.0022 50.847 52.5507C51.2559 52.1418 51.7584 51.4859 52.2099 50.9578C52.6614 50.4296 52.8147 50.0463 53.1214 49.4415C53.4281 48.8367 53.2747 48.3 53.0447 47.8485C52.8147 47.397 50.9918 42.9078 50.2336 41.0848C49.4925 39.3044 48.7429 39.5515 48.1807 39.5174C47.6525 39.4919 47.0392 39.4833 46.4344 39.4833C45.8296 39.4833 44.8414 39.7133 44.0066 40.6248C43.1718 41.5363 40.8207 43.7426 40.8207 48.2233C40.8207 52.7041 44.0833 57.04 44.5433 57.6448C44.9947 58.2496 50.9662 67.4582 60.1151 71.4022C62.2873 72.3393 63.991 72.9015 65.3114 73.3189C67.4921 74.0089 69.4855 73.9152 71.0529 73.6767C72.8077 73.4126 76.4451 71.4704 77.2033 69.3407C77.9614 67.2111 77.9614 65.3881 77.7314 65.0048C77.5099 64.6385 76.8966 64.4085 75.9851 63.9485Z"
          fill="white"
        />
      </g>
      <defs>
        <clipPath id="clip0_87_1526">
          <rect width="115" height="115" fill="white" />
        </clipPath>
      </defs>
    </svg>